<?xml version="1.0" encoding="UTF-8" standalone="no"?>
<!-- Создано Microsoft Visio 11.0, Экспорт SVG, версия 1.0 back.svg Страница-1 -->

<svg
   xmlns:v="http://schemas.microsoft.com/visio/2003/SVGExtensions/"
   xmlns:dc="http://purl.org/dc/elements/1.1/"
   xmlns:cc="http://creativecommons.org/ns#"
   xmlns:rdf="http://www.w3.org/1999/02/22-rdf-syntax-ns#"
   xmlns:svg="http://www.w3.org/2000/svg"
   xmlns="http://www.w3.org/2000/svg"
   xmlns:sodipodi="http://sodipodi.sourceforge.net/DTD/sodipodi-0.dtd"
   xmlns:inkscape="http://www.inkscape.org/namespaces/inkscape"
   width="2.72343in"
   height="3.70768in"
   viewBox="0 0 196.087 266.953"
   xml:space="preserve"
   color-interpolation-filters="sRGB"
   class="st4"
   id="svg2"
   version="1.1"
   inkscape:version="0.47 r22583"
   sodipodi:docname="back.svg"><metadata
   id="metadata384"><rdf:RDF><cc:Work
       rdf:about=""><dc:format>image/svg+xml</dc:format><dc:type
         rdf:resource="http://purl.org/dc/dcmitype/StillImage" /><dc:title></dc:title></cc:Work></rdf:RDF></metadata><defs
   id="defs382"><inkscape:perspective
   sodipodi:type="inkscape:persp3d"
   inkscape:vp_x="0 : 166.8456 : 1"
   inkscape:vp_y="0 : 1000 : 0"
   inkscape:vp_z="245.10869 : 166.8456 : 1"
   inkscape:persp3d-origin="122.55434 : 111.2304 : 1"
   id="perspective386" />
		
		<v:pageProperties
   v:shadowOffsetY="-8.50394"
   v:shadowOffsetX="8.50394"
   v:drawingUnits="24"
   v:pageScale="0.0393701"
   v:drawingScale="0.0393701" />
		
		
		
		
		
		
		
		
		
		
		
		
		
		
		
		
		
		
		
		
		
		
		
		
		
		
		
		
		
		
		
		
		
		
		
		
		
		
		
		
		
		
		
		
		
		
		
		
		
		
		
		
		
		
		
		
		
		
		
		
		
		
		
		
		
		
		
		
		
		
		
		
		
		
	</defs><sodipodi:namedview
   pagecolor="#ffffff"
   bordercolor="#666666"
   borderopacity="1"
   objecttolerance="10"
   gridtolerance="10"
   guidetolerance="10"
   inkscape:pageopacity="0"
   inkscape:pageshadow="2"
   inkscape:window-width="1600"
   inkscape:window-height="838"
   id="namedview380"
   showgrid="false"
   inkscape:zoom="0.50009471"
   inkscape:cx="11.012913"
   inkscape:cy="438.46426"
   inkscape:window-x="-8"
   inkscape:window-y="-8"
   inkscape:window-maximized="1"
   inkscape:current-layer="svg2" />
	<v:documentProperties
   v:langID="1049"
   v:metric="true"
   v:viewMarkup="false" />

	<style
   type="text/css"
   id="style4">
	
		.st1 {fill:none;stroke:#38557a;stroke-linecap:round;stroke-linejoin:round;stroke-width:4.5}
		.st2 {fill:#002060;stroke:none;stroke-linecap:round;stroke-linejoin:round;stroke-width:0.25}
		.st3 {fill:#38557a;stroke:none;stroke-linecap:round;stroke-linejoin:round;stroke-width:0.25}
		.st4 {fill:none;fill-rule:evenodd;font-size:12;overflow:visible;stroke-linecap:square;stroke-miterlimit:3}
	
	</style>

	<g
   style="fill:#2b0000;stroke:none"
   transform="translate(37.1192,-139.142)"
   v:groupContext="shape"
   v:mID="5"
   id="shape5-3">
			<title
   id="title16">Лист.5</title>
			<path
   style="fill:#2b0000;stroke:none;stroke-width:0.25000000000000000;stroke-linecap:round;stroke-linejoin:round"
   id="path18"
   class="st2"
   d="m 0.55,266.95 -0.55,0 a 9.7246,9.7246 -180 0 0 0.55,0 z" />
		</g><g
   style="fill:#2b0000;stroke:none"
   transform="translate(75.9331,-132.059)"
   v:groupContext="shape"
   v:mID="10"
   id="shape10-5">
			<title
   id="title21">Лист.10</title>
			<path
   style="fill:#2b0000;stroke:none;stroke-width:0.25000000000000000;stroke-linecap:round;stroke-linejoin:round"
   id="path23"
   class="st3"
   d="M 1.14,259.87 A 22.6772,22.6772 -180 0 0 0.4,262.7 22.6772,22.6772 -180 0 0 0,266.95 l 2.83,0 a 19.8425,19.8425 0 0 1 0.47,-4.25 19.8425,19.8425 0 0 1 0.84,-2.83 19.8425,19.8425 0 0 1 11.17,-11.34 19.8425,19.8425 0 0 1 3.4,-1.02 19.8425,19.8425 0 0 1 3.97,-0.4 l 0,-2.83 a 22.6772,22.6772 -180 0 0 -3.97,0.35 22.6772,22.6772 -180 0 0 -3.4,0.88 22.6772,22.6772 -180 0 0 -14.17,14.36 z" />
		</g><g
   style="fill:#2b0000;stroke:none"
   transform="translate(92.5005,-134.816)"
   v:groupContext="shape"
   v:mID="11"
   id="shape11-7">
			<title
   id="title26">Лист.11</title>
			<path
   style="fill:#2b0000;stroke:none;stroke-width:0.25000000000000000;stroke-linecap:round;stroke-linejoin:round"
   id="path28"
   class="st3"
   d="M 2.71,252.14 A 14.9214,14.9214 -180 0 0 0,252.72 l 4.47,14.23 -1.76,-14.81 z" />
		</g><g
   style="fill:#2b0000;stroke:none"
   transform="translate(81.0354,-133.53)"
   v:groupContext="shape"
   v:mID="12"
   id="shape12-9">
			<title
   id="title31">Лист.12</title>
			<path
   style="fill:#2b0000;stroke:none;stroke-width:0.25000000000000000;stroke-linecap:round;stroke-linejoin:round"
   id="path33"
   class="st3"
   d="m 0,265.67 14.7,1.28 -14.15,-4.2 A 14.7514,14.7514 -180 0 0 0,265.67 z" />
		</g><g
   style="fill:#2b0000;stroke:none"
   transform="translate(87.2717,-135.516)"
   v:groupContext="shape"
   v:mID="13"
   id="shape13-11">
			<title
   id="title36">Лист.13</title>
			<path
   style="fill:#2b0000;stroke:none;stroke-width:0.25000000000000000;stroke-linecap:round;stroke-linejoin:round"
   id="path38"
   class="st3"
   d="m 0,264.17 7.55,2.78 -3.31,-7.33 A 8.04598,8.04598 -180 0 0 0,264.17 z" />
		</g><g
   style="fill:#2b0000;stroke:none"
   transform="translate(26.6102,-225.319)"
   v:groupContext="shape"
   v:mID="14"
   id="shape14-13">
			<title
   id="title41">Лист.14</title>
			<path
   style="fill:#2b0000;stroke:none;stroke-width:0.25000000000000000;stroke-linecap:round;stroke-linejoin:round"
   id="path43"
   class="st3"
   d="m 0,259.87 a 7.08661,7.08661 -180 1 0 14.17,0 7.08661,7.08661 -180 0 0 -14.17,0 z" />
		</g><g
   style="fill:#2b0000;stroke:none"
   transform="translate(39.0827,-238.358)"
   v:groupContext="shape"
   v:mID="15"
   id="shape15-15">
			<title
   id="title46">Лист.15</title>
			<path
   style="fill:#2b0000;stroke:none;stroke-width:0.25000000000000000;stroke-linecap:round;stroke-linejoin:round"
   id="path48"
   class="st3"
   d="m 0,262.7 a 4.25197,4.25197 -180 0 0 8.5,0 4.25197,4.25197 -180 1 0 -8.5,0 z" />
		</g><g
   style="fill:#2b0000;stroke:none"
   transform="translate(19.8071,-218.232)"
   v:groupContext="shape"
   v:mID="16"
   id="shape16-17">
			<title
   id="title51">Лист.16</title>
			<path
   style="fill:#2b0000;stroke:none;stroke-width:0.25000000000000000;stroke-linecap:round;stroke-linejoin:round"
   id="path53"
   class="st3"
   d="m 8.5,262.7 a 4.25197,4.25197 -180 1 0 -8.5,0 4.25197,4.25197 -180 0 0 8.5,0 z" />
		</g><g
   style="fill:#2b0000;stroke:none"
   transform="translate(58.2573,-150.746)"
   v:groupContext="shape"
   v:mID="17"
   id="shape17-19">
			<title
   id="title56">Лист.17</title>
			<path
   style="fill:#2b0000;stroke:none;stroke-width:0.25000000000000000;stroke-linecap:round;stroke-linejoin:round"
   id="path58"
   class="st2"
   d="M 0,266.95 A 13.1532,10.6865 -20 0 0 0.73,266.78 18.0403,14.6571 -20 0 0 0,266.95 z" />
		</g><g
   style="fill:#2b0000;stroke:none"
   transform="translate(58.2573,-149.965)"
   v:groupContext="shape"
   v:mID="18"
   id="shape18-21">
			<title
   id="title61">Лист.18</title>
			<path
   style="fill:#2b0000;stroke:none;stroke-width:0.25000000000000000;stroke-linecap:round;stroke-linejoin:round"
   id="path63"
   class="st2"
   d="M 0,266.17 A 7.84049,6.3701 -20 0 0 1.67,266.95 15.0089,12.1942 -20 0 0 0,266.17 z" />
		</g><g
   style="fill:#2b0000;stroke:none"
   transform="translate(78.8339,-226.25)"
   v:groupContext="shape"
   v:mID="19"
   id="shape19-23">
			<title
   id="title66">Лист.19</title>
			<path
   style="fill:#2b0000;stroke:none;stroke-width:0.25000000000000000;stroke-linecap:round;stroke-linejoin:round"
   id="path68"
   class="st2"
   d="m 0,266.95 a 18.3313,18.3313 -155.02 0 0 0.59,-0.09 l 0,0 A 7.35438,7.35438 -110.15 0 0 0,266.95 z" />
		</g><g
   style="fill:#2b0000;stroke:none"
   transform="translate(79.4227,-226.341)"
   v:groupContext="shape"
   v:mID="20"
   id="shape20-25">
			<title
   id="title71">Лист.20</title>
			<path
   style="fill:#2b0000;stroke:none;stroke-width:0.25000000000000000;stroke-linecap:round;stroke-linejoin:round"
   id="path73"
   class="st2"
   d="M 0.09,266.94 A 7.35438,7.35438 -110.15 0 0 0,266.95 l 0,0 0.09,-0.01 z" />
		</g><g
   style="fill:#2b0000;stroke:none"
   transform="translate(79.427,-226.232)"
   v:groupContext="shape"
   v:mID="21"
   id="shape21-27">
			<title
   id="title76">Лист.21</title>
			<path
   style="fill:#2b0000;stroke:none;stroke-width:0.25000000000000000;stroke-linecap:round;stroke-linejoin:round"
   id="path78"
   class="st2"
   d="M 0.09,266.83 0,266.84 0.1,266.95 A 7.21041,7.21041 -20 0 0 0.09,266.83 z" />
		</g><g
   style="fill:#2b0000;stroke:none"
   transform="translate(79.269,-226.346)"
   v:groupContext="shape"
   v:mID="22"
   id="shape22-29">
			<title
   id="title81">Лист.22</title>
			<path
   style="fill:#2b0000;stroke:none;stroke-width:0.25000000000000000;stroke-linecap:round;stroke-linejoin:round"
   id="path83"
   class="st2"
   d="m 0,266.79 a 40.1294,40.1294 -180 0 0 0.15,0.16 7.35438,7.35438 69.85 0 1 0.1,-0.01 A 7.61059,7.61059 -65.04 0 0 0,266.79 z" />
		</g><g
   style="fill:#2b0000;stroke:none"
   transform="translate(81.8858,-183.81)"
   v:groupContext="shape"
   v:mID="24"
   id="shape24-31">
			<title
   id="title86">Лист.24</title>
			<path
   style="fill:#2b0000;stroke:none;stroke-width:0.25000000000000000;stroke-linecap:round;stroke-linejoin:round"
   id="path88"
   class="st3"
   d="m 0,264.4 a 2.55118,2.55118 -180 0 0 5.1,0 2.55118,2.55118 -180 0 0 -5.1,0 z" />
		</g><g
   style="fill:#2b0000;stroke:none"
   transform="translate(46.4528,-142.709)"
   v:groupContext="shape"
   v:mID="25"
   id="shape25-33">
			<title
   id="title91">Лист.25</title>
			<path
   style="fill:#2b0000;stroke:none;stroke-width:0.25000000000000000;stroke-linecap:round;stroke-linejoin:round"
   id="path93"
   class="st3"
   d="m 0,264.4 a 2.55118,2.55118 -180 0 0 5.1,0 2.55118,2.55118 -180 0 0 -5.1,0 z" />
		</g><g
   style="fill:#2b0000;stroke:none"
   transform="translate(54.1063,-171.744)"
   v:groupContext="shape"
   v:mID="26"
   id="shape26-35">
			<title
   id="title96">Лист.26</title>
			<path
   style="fill:#2b0000;stroke:none;stroke-width:0.25000000000000000;stroke-linecap:round;stroke-linejoin:round"
   id="path98"
   class="st3"
   d="m 0,264.4 a 2.55118,2.55118 -180 1 0 5.1,0 2.55118,2.55118 -180 0 0 -5.1,0 z" />
		</g><g
   style="fill:#2b0000;stroke:none"
   transform="translate(24.9094,-136.311)"
   v:groupContext="shape"
   v:mID="27"
   id="shape27-37">
			<title
   id="title101">Лист.27</title>
			<path
   style="fill:#2b0000;stroke:none;stroke-width:0.25000000000000000;stroke-linecap:round;stroke-linejoin:round"
   id="path103"
   class="st3"
   d="m 49.42,232.99 a 14.8808,14.8808 -180 0 0 -15.4,9.87 19.7716,19.7716 0 0 1 27.87,-0.51 31.1811,31.1811 -180 0 0 -18.55,21.77 l -30.58,0 a 9.7246,9.7246 0 0 1 -0.55,0 9.7246,9.7246 0 0 1 -9.38,-8.51 l 0,-10.77 a 3.86031,3.86031 0 1 1 2.84,7.09 2.98061,2.98061 -180 0 0 4.82,-3.4 6.84011,6.84011 0 0 1 -1.14,11.34 6.78152,6.78152 -180 0 0 3.97,-11.91 23.1249,23.1249 -180 0 0 20.03,4.56 18.0403,14.6571 160 0 1 0.73,-0.17 13.1532,10.6865 -20 0 0 10.37,-14.38 14.5286,11.804 160 0 1 -23.76,10.56 21.3811,21.3811 -180 0 0 -17.86,-5.67 l 0,-44.32 a 56.2207,56.2207 -180 0 0 33.64,-33.63 l 10.3,0 a 40.1294,40.1294 -180 0 0 7.59,11.84 7.61059,7.61059 114.95 0 1 0.24,0.16 7.21041,7.21041 160 0 1 0.02,0.12 40.1294,40.1294 -180 0 0 2.07,2.05 20.7408,20.7408 0 0 1 2.27,22.68 9.47112,9.47112 -180 0 0 -7.26,-11.79 11.1606,11.1606 0 0 1 3.58,16.04 16.994,16.994 -180 0 0 0,22.68 17.3494,17.3494 0 0 1 4.09,-23.57 22.5384,22.5384 -180 0 0 -2.68,-31.14 23.3514,23.3514 0 0 1 -5.67,-9.07 l 4.69,0 a 19.8963,19.8963 0 0 1 10.62,17 l 0,59 a 31.1811,31.1811 -180 0 0 -0.43,0.11 l -0.03,-0.03 a 21.3698,21.3698 0 0 1 -4.64,-17.55 10.1631,10.1631 -180 0 0 -0.39,13.11 22.4723,22.4723 -180 0 0 -11.42,-3.56 z m 0,0 a 8.24235,8.24235 -180 0 0 -6.05,-9.97 8.081,8.081 -180 0 0 6.05,9.97 z m -15.34,19.36 a 13.1532,10.6865 160 0 1 -0.73,0.17 15.0089,12.1942 160 0 1 1.67,0.78 7.84049,6.3701 -20 0 0 7.41,-1.06 18.0403,14.6571 -20 0 0 -8.35,0.11 z m 0.94,0.95 a 7.84049,6.3701 160 0 1 -1.67,-0.78 15.4812,12.5779 -20 0 0 7.06,8.04 15.0089,12.1942 -20 0 0 -5.39,-7.26 z M 0,255.61 a 15.3838,15.3838 -180 0 0 2.83,5.67 15.3838,15.3838 -180 0 0 2.95,2.84 15.3838,15.3838 -180 0 0 6.98,2.83 l 32.92,0 a 28.3465,28.3465 0 0 1 0.57,-2.83 28.3465,28.3465 0 0 1 20.08,-20.29 28.3465,28.3465 0 0 1 3.4,-0.69 l 0,-61.23 a 20.4451,20.4451 -180 0 0 -3.4,-11.2 20.4451,20.4451 -180 0 0 -5.83,-5.8 20.4451,20.4451 -180 0 0 -6.64,-2.84 l -18.99,0 A 52.2797,52.2797 0 0 1 33.9,164.91 52.2797,52.2797 0 0 1 2.83,195.71 52.2797,52.2797 0 0 1 0,196.65 l 0,58.96 z m 54.36,-78.86 a 7.61059,7.61059 -65.05 0 0 -7.59,-0.17 18.3313,18.3313 -155.05 0 0 7.15,0.43 7.35438,7.35438 69.8 0 1 0.59,-0.09 40.1294,40.1294 0 0 1 -0.15,-0.17 z m -0.44,0.26 a 7.35438,7.35438 -110.28 0 0 -5.83,8.01 7.21041,7.21041 -20 0 0 6.53,-7.99 l -0.1,-0.11 a 18.3313,18.3313 24.95 0 1 -0.6,0.09 z" />
		</g><g
   style="fill:#2b0000;stroke:none"
   transform="matrix(-1,0,0,1,160.101,-139.142)"
   v:groupContext="shape"
   v:mID="29"
   id="shape29-39">
			<title
   id="title106">Лист.29</title>
			<path
   style="fill:#2b0000;stroke:none;stroke-width:0.25000000000000000;stroke-linecap:round;stroke-linejoin:round"
   id="path108"
   class="st2"
   d="m 0.55,266.95 -0.55,0 a 9.7246,9.7246 -180 0 0 0.55,0 z" />
		</g><g
   style="fill:#2b0000;stroke:none"
   transform="matrix(-1,0,0,1,121.287,-132.059)"
   v:groupContext="shape"
   v:mID="34"
   id="shape34-41">
			<title
   id="title111">Лист.34</title>
			<path
   style="fill:#2b0000;stroke:none;stroke-width:0.25000000000000000;stroke-linecap:round;stroke-linejoin:round"
   id="path113"
   class="st3"
   d="M 1.14,259.87 A 22.6772,22.6772 -180 0 0 0.4,262.7 22.6772,22.6772 -180 0 0 0,266.95 l 2.83,0 a 19.8425,19.8425 0 0 1 0.47,-4.25 19.8425,19.8425 0 0 1 0.84,-2.83 19.8425,19.8425 0 0 1 11.17,-11.34 19.8425,19.8425 0 0 1 3.4,-1.02 19.8425,19.8425 0 0 1 3.97,-0.4 l 0,-2.83 a 22.6772,22.6772 -180 0 0 -3.97,0.35 22.6772,22.6772 -180 0 0 -3.4,0.88 22.6772,22.6772 -180 0 0 -14.17,14.36 z" />
		</g><g
   style="fill:#2b0000;stroke:none"
   transform="matrix(-1,0,0,1,104.72,-134.816)"
   v:groupContext="shape"
   v:mID="35"
   id="shape35-43">
			<title
   id="title116">Лист.35</title>
			<path
   style="fill:#2b0000;stroke:none;stroke-width:0.25000000000000000;stroke-linecap:round;stroke-linejoin:round"
   id="path118"
   class="st3"
   d="M 2.71,252.14 A 14.9214,14.9214 -180 0 0 0,252.72 l 4.47,14.23 -1.76,-14.81 z" />
		</g><g
   style="fill:#2b0000;stroke:none"
   transform="matrix(-1,0,0,1,116.185,-133.53)"
   v:groupContext="shape"
   v:mID="36"
   id="shape36-45">
			<title
   id="title121">Лист.36</title>
			<path
   style="fill:#2b0000;stroke:none;stroke-width:0.25000000000000000;stroke-linecap:round;stroke-linejoin:round"
   id="path123"
   class="st3"
   d="m 0,265.67 14.7,1.28 -14.15,-4.2 A 14.7514,14.7514 -180 0 0 0,265.67 z" />
		</g><g
   style="fill:#2b0000;stroke:none"
   transform="matrix(-1,0,0,1,109.949,-135.516)"
   v:groupContext="shape"
   v:mID="37"
   id="shape37-47">
			<title
   id="title126">Лист.37</title>
			<path
   style="fill:#2b0000;stroke:none;stroke-width:0.25000000000000000;stroke-linecap:round;stroke-linejoin:round"
   id="path128"
   class="st3"
   d="m 0,264.17 7.55,2.78 -3.31,-7.33 A 8.04598,8.04598 -180 0 0 0,264.17 z" />
		</g><g
   style="fill:#2b0000;stroke:none"
   transform="matrix(-1,0,0,1,170.61,-225.319)"
   v:groupContext="shape"
   v:mID="38"
   id="shape38-49">
			<title
   id="title131">Лист.38</title>
			<path
   style="fill:#2b0000;stroke:none;stroke-width:0.25000000000000000;stroke-linecap:round;stroke-linejoin:round"
   id="path133"
   class="st3"
   d="m 0,259.87 a 7.08661,7.08661 -180 1 0 14.17,0 7.08661,7.08661 -180 0 0 -14.17,0 z" />
		</g><g
   style="fill:#2b0000;stroke:none"
   transform="matrix(-1,0,0,1,158.138,-238.358)"
   v:groupContext="shape"
   v:mID="39"
   id="shape39-51">
			<title
   id="title136">Лист.39</title>
			<path
   style="fill:#2b0000;stroke:none;stroke-width:0.25000000000000000;stroke-linecap:round;stroke-linejoin:round"
   id="path138"
   class="st3"
   d="m 0,262.7 a 4.25197,4.25197 -180 0 0 8.5,0 4.25197,4.25197 -180 1 0 -8.5,0 z" />
		</g><g
   style="fill:#2b0000;stroke:none"
   transform="matrix(-1,0,0,1,177.413,-218.232)"
   v:groupContext="shape"
   v:mID="40"
   id="shape40-53">
			<title
   id="title141">Лист.40</title>
			<path
   style="fill:#2b0000;stroke:none;stroke-width:0.25000000000000000;stroke-linecap:round;stroke-linejoin:round"
   id="path143"
   class="st3"
   d="m 8.5,262.7 a 4.25197,4.25197 -180 1 0 -8.5,0 4.25197,4.25197 -180 0 0 8.5,0 z" />
		</g><g
   style="fill:#2b0000;stroke:none"
   transform="matrix(-1,0,0,1,138.963,-150.746)"
   v:groupContext="shape"
   v:mID="41"
   id="shape41-55">
			<title
   id="title146">Лист.41</title>
			<path
   style="fill:#2b0000;stroke:none;stroke-width:0.25000000000000000;stroke-linecap:round;stroke-linejoin:round"
   id="path148"
   class="st2"
   d="M 0,266.95 A 13.1532,10.6865 -20 0 0 0.73,266.78 18.0403,14.6571 -20 0 0 0,266.95 z" />
		</g><g
   style="fill:#2b0000;stroke:none"
   transform="matrix(-1,0,0,1,138.963,-149.965)"
   v:groupContext="shape"
   v:mID="42"
   id="shape42-57">
			<title
   id="title151">Лист.42</title>
			<path
   style="fill:#2b0000;stroke:none;stroke-width:0.25000000000000000;stroke-linecap:round;stroke-linejoin:round"
   id="path153"
   class="st2"
   d="M 0,266.17 A 7.84049,6.3701 -20 0 0 1.67,266.95 15.0089,12.1942 -20 0 0 0,266.17 z" />
		</g><g
   style="fill:#2b0000;stroke:none"
   transform="matrix(-1,0,0,1,118.387,-226.25)"
   v:groupContext="shape"
   v:mID="43"
   id="shape43-59">
			<title
   id="title156">Лист.43</title>
			<path
   style="fill:#2b0000;stroke:none;stroke-width:0.25000000000000000;stroke-linecap:round;stroke-linejoin:round"
   id="path158"
   class="st2"
   d="m 0,266.95 a 18.3313,18.3313 -155.02 0 0 0.59,-0.09 l 0,0 A 7.35438,7.35438 -110.15 0 0 0,266.95 z" />
		</g><g
   style="fill:#2b0000;stroke:none"
   transform="matrix(-1,0,0,1,117.798,-226.341)"
   v:groupContext="shape"
   v:mID="44"
   id="shape44-61">
			<title
   id="title161">Лист.44</title>
			<path
   style="fill:#2b0000;stroke:none;stroke-width:0.25000000000000000;stroke-linecap:round;stroke-linejoin:round"
   id="path163"
   class="st2"
   d="M 0.09,266.94 A 7.35438,7.35438 -110.15 0 0 0,266.95 l 0,0 0.09,-0.01 z" />
		</g><g
   style="fill:#2b0000;stroke:none"
   transform="matrix(-1,0,0,1,117.793,-226.232)"
   v:groupContext="shape"
   v:mID="45"
   id="shape45-63">
			<title
   id="title166">Лист.45</title>
			<path
   style="fill:#2b0000;stroke:none;stroke-width:0.25000000000000000;stroke-linecap:round;stroke-linejoin:round"
   id="path168"
   class="st2"
   d="M 0.09,266.83 0,266.84 0.1,266.95 A 7.21041,7.21041 -20 0 0 0.09,266.83 z" />
		</g><g
   style="fill:#2b0000;stroke:none"
   transform="matrix(-1,0,0,1,117.951,-226.346)"
   v:groupContext="shape"
   v:mID="46"
   id="shape46-65">
			<title
   id="title171">Лист.46</title>
			<path
   style="fill:#2b0000;stroke:none;stroke-width:0.25000000000000000;stroke-linecap:round;stroke-linejoin:round"
   id="path173"
   class="st2"
   d="m 0,266.79 a 40.1294,40.1294 -180 0 0 0.15,0.16 7.35438,7.35438 69.85 0 1 0.1,-0.01 A 7.61059,7.61059 -65.04 0 0 0,266.79 z" />
		</g><g
   style="fill:#2b0000;stroke:none"
   transform="matrix(-1,0,0,1,115.335,-183.81)"
   v:groupContext="shape"
   v:mID="48"
   id="shape48-67">
			<title
   id="title176">Лист.48</title>
			<path
   style="fill:#2b0000;stroke:none;stroke-width:0.25000000000000000;stroke-linecap:round;stroke-linejoin:round"
   id="path178"
   class="st3"
   d="m 0,264.4 a 2.55118,2.55118 -180 0 0 5.1,0 2.55118,2.55118 -180 0 0 -5.1,0 z" />
		</g><g
   style="fill:#2b0000;stroke:none"
   transform="matrix(-1,0,0,1,150.768,-142.709)"
   v:groupContext="shape"
   v:mID="49"
   id="shape49-69">
			<title
   id="title181">Лист.49</title>
			<path
   style="fill:#2b0000;stroke:none;stroke-width:0.25000000000000000;stroke-linecap:round;stroke-linejoin:round"
   id="path183"
   class="st3"
   d="m 0,264.4 a 2.55118,2.55118 -180 0 0 5.1,0 2.55118,2.55118 -180 0 0 -5.1,0 z" />
		</g><g
   style="fill:#2b0000;stroke:none"
   transform="matrix(-1,0,0,1,143.114,-171.744)"
   v:groupContext="shape"
   v:mID="51"
   id="shape51-71">
			<title
   id="title186">Лист.51</title>
			<path
   style="fill:#2b0000;stroke:none;stroke-width:0.25000000000000000;stroke-linecap:round;stroke-linejoin:round"
   id="path188"
   class="st3"
   d="m 0,264.4 a 2.55118,2.55118 -180 1 0 5.1,0 2.55118,2.55118 -180 0 0 -5.1,0 z" />
		</g><g
   style="fill:#2b0000;stroke:none"
   transform="matrix(-1,0,0,1,172.311,-136.311)"
   v:groupContext="shape"
   v:mID="64"
   id="shape64-73">
			<title
   id="title191">Лист.64</title>
			<path
   style="fill:#2b0000;stroke:none;stroke-width:0.25000000000000000;stroke-linecap:round;stroke-linejoin:round"
   id="path193"
   class="st3"
   d="m 49.42,232.99 a 14.8808,14.8808 -180 0 0 -15.4,9.87 19.7716,19.7716 0 0 1 27.87,-0.51 31.1811,31.1811 -180 0 0 -18.55,21.77 l -30.58,0 a 9.7246,9.7246 0 0 1 -0.55,0 9.7246,9.7246 0 0 1 -9.38,-8.51 l 0,-10.77 a 3.86031,3.86031 0 1 1 2.84,7.09 2.98061,2.98061 -180 0 0 4.82,-3.4 6.84011,6.84011 0 0 1 -1.14,11.34 6.78152,6.78152 -180 0 0 3.97,-11.91 23.1249,23.1249 -180 0 0 20.03,4.56 18.0403,14.6571 160 0 1 0.73,-0.17 13.1532,10.6865 -20 0 0 10.37,-14.38 14.5286,11.804 160 0 1 -23.76,10.56 21.3811,21.3811 -180 0 0 -17.86,-5.67 l 0,-44.32 a 56.2207,56.2207 -180 0 0 33.64,-33.63 l 10.3,0 a 40.1294,40.1294 -180 0 0 7.59,11.84 7.61059,7.61059 114.95 0 1 0.24,0.16 7.21041,7.21041 160 0 1 0.02,0.12 40.1294,40.1294 -180 0 0 2.07,2.05 20.7408,20.7408 0 0 1 2.27,22.68 9.47112,9.47112 -180 0 0 -7.26,-11.79 11.1606,11.1606 0 0 1 3.58,16.04 16.994,16.994 -180 0 0 0,22.68 17.3494,17.3494 0 0 1 4.09,-23.57 22.5384,22.5384 -180 0 0 -2.68,-31.14 23.3514,23.3514 0 0 1 -5.67,-9.07 l 4.69,0 a 19.8963,19.8963 0 0 1 10.62,17 l 0,59 a 31.1811,31.1811 -180 0 0 -0.43,0.11 l -0.03,-0.03 a 21.3698,21.3698 0 0 1 -4.64,-17.55 10.1631,10.1631 -180 0 0 -0.39,13.11 22.4723,22.4723 -180 0 0 -11.42,-3.56 z m 0,0 a 8.24235,8.24235 -180 0 0 -6.05,-9.97 8.081,8.081 -180 0 0 6.05,9.97 z m -15.34,19.36 a 13.1532,10.6865 160 0 1 -0.73,0.17 15.0089,12.1942 160 0 1 1.67,0.78 7.84049,6.3701 -20 0 0 7.41,-1.06 18.0403,14.6571 -20 0 0 -8.35,0.11 z m 0.94,0.95 a 7.84049,6.3701 160 0 1 -1.67,-0.78 15.4812,12.5779 -20 0 0 7.06,8.04 15.0089,12.1942 -20 0 0 -5.39,-7.26 z M 0,255.61 a 15.3838,15.3838 -180 0 0 2.83,5.67 15.3838,15.3838 -180 0 0 2.95,2.84 15.3838,15.3838 -180 0 0 6.98,2.83 l 32.92,0 a 28.3465,28.3465 0 0 1 0.57,-2.83 28.3465,28.3465 0 0 1 20.08,-20.29 28.3465,28.3465 0 0 1 3.4,-0.69 l 0,-61.23 a 20.4451,20.4451 -180 0 0 -3.4,-11.2 20.4451,20.4451 -180 0 0 -5.83,-5.8 20.4451,20.4451 -180 0 0 -6.64,-2.84 l -18.99,0 A 52.2797,52.2797 0 0 1 33.9,164.91 52.2797,52.2797 0 0 1 2.83,195.71 52.2797,52.2797 0 0 1 0,196.65 l 0,58.96 z m 54.36,-78.86 a 7.61059,7.61059 -65.05 0 0 -7.59,-0.17 18.3313,18.3313 -155.05 0 0 7.15,0.43 7.35438,7.35438 69.8 0 1 0.59,-0.09 40.1294,40.1294 0 0 1 -0.15,-0.17 z m -0.44,0.26 a 7.35438,7.35438 -110.28 0 0 -5.83,8.01 7.21041,7.21041 -20 0 0 6.53,-7.99 l -0.1,-0.11 a 18.3313,18.3313 24.95 0 1 -0.6,0.09 z" />
		</g><g
   style="fill:#2b0000;stroke:none"
   transform="matrix(1,0,0,-1,37.1192,408.929)"
   v:groupContext="shape"
   v:mID="66"
   id="shape66-75">
			<title
   id="title196">Лист.66</title>
			<path
   style="fill:#2b0000;stroke:none;stroke-width:0.25000000000000000;stroke-linecap:round;stroke-linejoin:round"
   id="path198"
   class="st2"
   d="m 0.55,266.95 -0.55,0 a 9.7246,9.7246 -180 0 0 0.55,0 z" />
		</g><g
   style="fill:#2b0000;stroke:none"
   transform="matrix(1,0,0,-1,75.9331,401.846)"
   v:groupContext="shape"
   v:mID="72"
   id="shape72-77">
			<title
   id="title201">Лист.72</title>
			<path
   style="fill:#2b0000;stroke:none;stroke-width:0.25000000000000000;stroke-linecap:round;stroke-linejoin:round"
   id="path203"
   class="st3"
   d="M 1.14,259.87 A 22.6772,22.6772 -180 0 0 0.4,262.7 22.6772,22.6772 -180 0 0 0,266.95 l 2.83,0 a 19.8425,19.8425 0 0 1 0.47,-4.25 19.8425,19.8425 0 0 1 0.84,-2.83 19.8425,19.8425 0 0 1 11.17,-11.34 19.8425,19.8425 0 0 1 3.4,-1.02 19.8425,19.8425 0 0 1 3.97,-0.4 l 0,-2.83 a 22.6772,22.6772 -180 0 0 -3.97,0.35 22.6772,22.6772 -180 0 0 -3.4,0.88 22.6772,22.6772 -180 0 0 -14.17,14.36 z" />
		</g><g
   style="fill:#2b0000;stroke:none"
   transform="matrix(1,0,0,-1,92.5005,404.604)"
   v:groupContext="shape"
   v:mID="74"
   id="shape74-79">
			<title
   id="title206">Лист.74</title>
			<path
   style="fill:#2b0000;stroke:none;stroke-width:0.25000000000000000;stroke-linecap:round;stroke-linejoin:round"
   id="path208"
   class="st3"
   d="M 2.71,252.14 A 14.9214,14.9214 -180 0 0 0,252.72 l 4.47,14.23 -1.76,-14.81 z" />
		</g><g
   style="fill:#2b0000;stroke:none"
   transform="matrix(1,0,0,-1,81.0354,403.317)"
   v:groupContext="shape"
   v:mID="78"
   id="shape78-81">
			<title
   id="title211">Лист.78</title>
			<path
   style="fill:#2b0000;stroke:none;stroke-width:0.25000000000000000;stroke-linecap:round;stroke-linejoin:round"
   id="path213"
   class="st3"
   d="m 0,265.67 14.7,1.28 -14.15,-4.2 A 14.7514,14.7514 -180 0 0 0,265.67 z" />
		</g><g
   style="fill:#2b0000;stroke:none"
   transform="matrix(1,0,0,-1,87.2717,405.304)"
   v:groupContext="shape"
   v:mID="79"
   id="shape79-83">
			<title
   id="title216">Лист.79</title>
			<path
   style="fill:#2b0000;stroke:none;stroke-width:0.25000000000000000;stroke-linecap:round;stroke-linejoin:round"
   id="path218"
   class="st3"
   d="m 0,264.17 7.55,2.78 -3.31,-7.33 A 8.04598,8.04598 -180 0 0 0,264.17 z" />
		</g><g
   style="fill:#2b0000;stroke:none"
   transform="matrix(1,0,0,-1,26.6102,495.106)"
   v:groupContext="shape"
   v:mID="84"
   id="shape84-85">
			<title
   id="title221">Лист.84</title>
			<path
   style="fill:#2b0000;stroke:none;stroke-width:0.25000000000000000;stroke-linecap:round;stroke-linejoin:round"
   id="path223"
   class="st3"
   d="m 0,259.87 a 7.08661,7.08661 -180 1 0 14.17,0 7.08661,7.08661 -180 0 0 -14.17,0 z" />
		</g><g
   style="fill:#2b0000;stroke:none"
   transform="matrix(1,0,0,-1,39.0827,508.146)"
   v:groupContext="shape"
   v:mID="85"
   id="shape85-87">
			<title
   id="title226">Лист.85</title>
			<path
   style="fill:#2b0000;stroke:none;stroke-width:0.25000000000000000;stroke-linecap:round;stroke-linejoin:round"
   id="path228"
   class="st3"
   d="m 0,262.7 a 4.25197,4.25197 -180 0 0 8.5,0 4.25197,4.25197 -180 1 0 -8.5,0 z" />
		</g><g
   style="fill:#2b0000;stroke:none"
   transform="matrix(1,0,0,-1,19.8071,488.02)"
   v:groupContext="shape"
   v:mID="86"
   id="shape86-89">
			<title
   id="title231">Лист.86</title>
			<path
   style="fill:#2b0000;stroke:none;stroke-width:0.25000000000000000;stroke-linecap:round;stroke-linejoin:round"
   id="path233"
   class="st3"
   d="m 8.5,262.7 a 4.25197,4.25197 -180 1 0 -8.5,0 4.25197,4.25197 -180 0 0 8.5,0 z" />
		</g><g
   style="fill:#2b0000;stroke:none"
   transform="matrix(1,0,0,-1,58.2573,420.534)"
   v:groupContext="shape"
   v:mID="87"
   id="shape87-91">
			<title
   id="title236">Лист.87</title>
			<path
   style="fill:#2b0000;stroke:none;stroke-width:0.25000000000000000;stroke-linecap:round;stroke-linejoin:round"
   id="path238"
   class="st2"
   d="M 0,266.95 A 13.1532,10.6865 -20 0 0 0.73,266.78 18.0403,14.6571 -20 0 0 0,266.95 z" />
		</g><g
   style="fill:#2b0000;stroke:none"
   transform="matrix(1,0,0,-1,58.2573,419.753)"
   v:groupContext="shape"
   v:mID="88"
   id="shape88-93">
			<title
   id="title241">Лист.88</title>
			<path
   style="fill:#2b0000;stroke:none;stroke-width:0.25000000000000000;stroke-linecap:round;stroke-linejoin:round"
   id="path243"
   class="st2"
   d="M 0,266.17 A 7.84049,6.3701 -20 0 0 1.67,266.95 15.0089,12.1942 -20 0 0 0,266.17 z" />
		</g><g
   style="fill:#2b0000;stroke:none"
   transform="matrix(1,0,0,-1,78.8339,496.037)"
   v:groupContext="shape"
   v:mID="89"
   id="shape89-95">
			<title
   id="title246">Лист.89</title>
			<path
   style="fill:#2b0000;stroke:none;stroke-width:0.25000000000000000;stroke-linecap:round;stroke-linejoin:round"
   id="path248"
   class="st2"
   d="m 0,266.95 a 18.3313,18.3313 -155.02 0 0 0.59,-0.09 l 0,0 A 7.35438,7.35438 -110.15 0 0 0,266.95 z" />
		</g><g
   style="fill:#2b0000;stroke:none"
   transform="matrix(1,0,0,-1,79.4227,496.129)"
   v:groupContext="shape"
   v:mID="90"
   id="shape90-97">
			<title
   id="title251">Лист.90</title>
			<path
   style="fill:#2b0000;stroke:none;stroke-width:0.25000000000000000;stroke-linecap:round;stroke-linejoin:round"
   id="path253"
   class="st2"
   d="M 0.09,266.94 A 7.35438,7.35438 -110.15 0 0 0,266.95 l 0,0 0.09,-0.01 z" />
		</g><g
   style="fill:#2b0000;stroke:none"
   transform="matrix(1,0,0,-1,79.427,496.019)"
   v:groupContext="shape"
   v:mID="91"
   id="shape91-99">
			<title
   id="title256">Лист.91</title>
			<path
   style="fill:#2b0000;stroke:none;stroke-width:0.25000000000000000;stroke-linecap:round;stroke-linejoin:round"
   id="path258"
   class="st2"
   d="M 0.09,266.83 0,266.84 0.1,266.95 A 7.21041,7.21041 -20 0 0 0.09,266.83 z" />
		</g><g
   style="fill:#2b0000;stroke:none"
   transform="matrix(1,0,0,-1,79.269,496.133)"
   v:groupContext="shape"
   v:mID="92"
   id="shape92-101">
			<title
   id="title261">Лист.92</title>
			<path
   style="fill:#2b0000;stroke:none;stroke-width:0.25000000000000000;stroke-linecap:round;stroke-linejoin:round"
   id="path263"
   class="st2"
   d="m 0,266.79 a 40.1294,40.1294 -180 0 0 0.15,0.16 7.35438,7.35438 69.85 0 1 0.1,-0.01 A 7.61059,7.61059 -65.04 0 0 0,266.79 z" />
		</g><g
   style="fill:#2b0000;stroke:none"
   transform="matrix(1,0,0,-1,81.8858,453.598)"
   v:groupContext="shape"
   v:mID="94"
   id="shape94-103">
			<title
   id="title266">Лист.94</title>
			<path
   style="fill:#2b0000;stroke:none;stroke-width:0.25000000000000000;stroke-linecap:round;stroke-linejoin:round"
   id="path268"
   class="st3"
   d="m 0,264.4 a 2.55118,2.55118 -180 0 0 5.1,0 2.55118,2.55118 -180 0 0 -5.1,0 z" />
		</g><g
   style="fill:#2b0000;stroke:none"
   transform="matrix(1,0,0,-1,46.4528,412.496)"
   v:groupContext="shape"
   v:mID="95"
   id="shape95-105">
			<title
   id="title271">Лист.95</title>
			<path
   style="fill:#2b0000;stroke:none;stroke-width:0.25000000000000000;stroke-linecap:round;stroke-linejoin:round"
   id="path273"
   class="st3"
   d="m 0,264.4 a 2.55118,2.55118 -180 0 0 5.1,0 2.55118,2.55118 -180 0 0 -5.1,0 z" />
		</g><g
   style="fill:#2b0000;stroke:none"
   transform="matrix(1,0,0,-1,54.1063,441.531)"
   v:groupContext="shape"
   v:mID="96"
   id="shape96-107">
			<title
   id="title276">Лист.96</title>
			<path
   style="fill:#2b0000;stroke:none;stroke-width:0.25000000000000000;stroke-linecap:round;stroke-linejoin:round"
   id="path278"
   class="st3"
   d="m 0,264.4 a 2.55118,2.55118 -180 1 0 5.1,0 2.55118,2.55118 -180 0 0 -5.1,0 z" />
		</g><g
   style="fill:#2b0000;stroke:none"
   transform="matrix(1,0,0,-1,24.9094,406.098)"
   v:groupContext="shape"
   v:mID="97"
   id="shape97-109">
			<title
   id="title281">Лист.97</title>
			<path
   style="fill:#2b0000;stroke:none;stroke-width:0.25000000000000000;stroke-linecap:round;stroke-linejoin:round"
   id="path283"
   class="st3"
   d="m 49.42,232.99 a 14.8808,14.8808 -180 0 0 -15.4,9.87 19.7716,19.7716 0 0 1 27.87,-0.51 31.1811,31.1811 -180 0 0 -18.55,21.77 l -30.58,0 a 9.7246,9.7246 0 0 1 -0.55,0 9.7246,9.7246 0 0 1 -9.38,-8.51 l 0,-10.77 a 3.86031,3.86031 0 1 1 2.84,7.09 2.98061,2.98061 -180 0 0 4.82,-3.4 6.84011,6.84011 0 0 1 -1.14,11.34 6.78152,6.78152 -180 0 0 3.97,-11.91 23.1249,23.1249 -180 0 0 20.03,4.56 18.0403,14.6571 160 0 1 0.73,-0.17 13.1532,10.6865 -20 0 0 10.37,-14.38 14.5286,11.804 160 0 1 -23.76,10.56 21.3811,21.3811 -180 0 0 -17.86,-5.67 l 0,-44.32 a 56.2207,56.2207 -180 0 0 33.64,-33.63 l 10.3,0 a 40.1294,40.1294 -180 0 0 7.59,11.84 7.61059,7.61059 114.95 0 1 0.24,0.16 7.21041,7.21041 160 0 1 0.02,0.12 40.1294,40.1294 -180 0 0 2.07,2.05 20.7408,20.7408 0 0 1 2.27,22.68 9.47112,9.47112 -180 0 0 -7.26,-11.79 11.1606,11.1606 0 0 1 3.58,16.04 16.994,16.994 -180 0 0 0,22.68 17.3494,17.3494 0 0 1 4.09,-23.57 22.5384,22.5384 -180 0 0 -2.68,-31.14 23.3514,23.3514 0 0 1 -5.67,-9.07 l 4.69,0 a 19.8963,19.8963 0 0 1 10.62,17 l 0,59 a 31.1811,31.1811 -180 0 0 -0.43,0.11 l -0.03,-0.03 a 21.3698,21.3698 0 0 1 -4.64,-17.55 10.1631,10.1631 -180 0 0 -0.39,13.11 22.4723,22.4723 -180 0 0 -11.42,-3.56 z m 0,0 a 8.24235,8.24235 -180 0 0 -6.05,-9.97 8.081,8.081 -180 0 0 6.05,9.97 z m -15.34,19.36 a 13.1532,10.6865 160 0 1 -0.73,0.17 15.0089,12.1942 160 0 1 1.67,0.78 7.84049,6.3701 -20 0 0 7.41,-1.06 18.0403,14.6571 -20 0 0 -8.35,0.11 z m 0.94,0.95 a 7.84049,6.3701 160 0 1 -1.67,-0.78 15.4812,12.5779 -20 0 0 7.06,8.04 15.0089,12.1942 -20 0 0 -5.39,-7.26 z M 0,255.61 a 15.3838,15.3838 -180 0 0 2.83,5.67 15.3838,15.3838 -180 0 0 2.95,2.84 15.3838,15.3838 -180 0 0 6.98,2.83 l 32.92,0 a 28.3465,28.3465 0 0 1 0.57,-2.83 28.3465,28.3465 0 0 1 20.08,-20.29 28.3465,28.3465 0 0 1 3.4,-0.69 l 0,-61.23 a 20.4451,20.4451 -180 0 0 -3.4,-11.2 20.4451,20.4451 -180 0 0 -5.83,-5.8 20.4451,20.4451 -180 0 0 -6.64,-2.84 l -18.99,0 A 52.2797,52.2797 0 0 1 33.9,164.91 52.2797,52.2797 0 0 1 2.83,195.71 52.2797,52.2797 0 0 1 0,196.65 l 0,58.96 z m 54.36,-78.86 a 7.61059,7.61059 -65.05 0 0 -7.59,-0.17 18.3313,18.3313 -155.05 0 0 7.15,0.43 7.35438,7.35438 69.8 0 1 0.59,-0.09 40.1294,40.1294 0 0 1 -0.15,-0.17 z m -0.44,0.26 a 7.35438,7.35438 -110.28 0 0 -5.83,8.01 7.21041,7.21041 -20 0 0 6.53,-7.99 l -0.1,-0.11 a 18.3313,18.3313 24.95 0 1 -0.6,0.09 z" />
		</g><g
   style="fill:#2b0000;stroke:none"
   transform="matrix(-1,0,0,-1,160.101,408.929)"
   v:groupContext="shape"
   v:mID="99"
   id="shape99-111">
			<title
   id="title286">Лист.99</title>
			<path
   style="fill:#2b0000;stroke:none;stroke-width:0.25000000000000000;stroke-linecap:round;stroke-linejoin:round"
   id="path288"
   class="st2"
   d="m 0.55,266.95 -0.55,0 a 9.7246,9.7246 -180 0 0 0.55,0 z" />
		</g><g
   style="fill:#2b0000;stroke:none"
   transform="matrix(-1,0,0,-1,121.287,401.846)"
   v:groupContext="shape"
   v:mID="104"
   id="shape104-113">
			<title
   id="title291">Лист.104</title>
			<path
   style="fill:#2b0000;stroke:none;stroke-width:0.25000000000000000;stroke-linecap:round;stroke-linejoin:round"
   id="path293"
   class="st3"
   d="M 1.14,259.87 A 22.6772,22.6772 -180 0 0 0.4,262.7 22.6772,22.6772 -180 0 0 0,266.95 l 2.83,0 a 19.8425,19.8425 0 0 1 0.47,-4.25 19.8425,19.8425 0 0 1 0.84,-2.83 19.8425,19.8425 0 0 1 11.17,-11.34 19.8425,19.8425 0 0 1 3.4,-1.02 19.8425,19.8425 0 0 1 3.97,-0.4 l 0,-2.83 a 22.6772,22.6772 -180 0 0 -3.97,0.35 22.6772,22.6772 -180 0 0 -3.4,0.88 22.6772,22.6772 -180 0 0 -14.17,14.36 z" />
		</g><g
   style="fill:#2b0000;stroke:none"
   transform="matrix(-1,0,0,-1,104.72,404.604)"
   v:groupContext="shape"
   v:mID="105"
   id="shape105-115">
			<title
   id="title296">Лист.105</title>
			<path
   style="fill:#2b0000;stroke:none;stroke-width:0.25000000000000000;stroke-linecap:round;stroke-linejoin:round"
   id="path298"
   class="st3"
   d="M 2.71,252.14 A 14.9214,14.9214 -180 0 0 0,252.72 l 4.47,14.23 -1.76,-14.81 z" />
		</g><g
   style="fill:#2b0000;stroke:none"
   transform="matrix(-1,0,0,-1,116.185,403.317)"
   v:groupContext="shape"
   v:mID="106"
   id="shape106-117">
			<title
   id="title301">Лист.106</title>
			<path
   style="fill:#2b0000;stroke:none;stroke-width:0.25000000000000000;stroke-linecap:round;stroke-linejoin:round"
   id="path303"
   class="st3"
   d="m 0,265.67 14.7,1.28 -14.15,-4.2 A 14.7514,14.7514 -180 0 0 0,265.67 z" />
		</g><g
   style="fill:#2b0000;stroke:none"
   transform="matrix(-1,0,0,-1,109.949,405.304)"
   v:groupContext="shape"
   v:mID="107"
   id="shape107-119">
			<title
   id="title306">Лист.107</title>
			<path
   style="fill:#2b0000;stroke:none;stroke-width:0.25000000000000000;stroke-linecap:round;stroke-linejoin:round"
   id="path308"
   class="st3"
   d="m 0,264.17 7.55,2.78 -3.31,-7.33 A 8.04598,8.04598 -180 0 0 0,264.17 z" />
		</g><g
   style="fill:#2b0000;stroke:none"
   transform="matrix(-1,0,0,-1,170.61,495.106)"
   v:groupContext="shape"
   v:mID="108"
   id="shape108-121">
			<title
   id="title311">Лист.108</title>
			<path
   style="fill:#2b0000;stroke:none;stroke-width:0.25000000000000000;stroke-linecap:round;stroke-linejoin:round"
   id="path313"
   class="st3"
   d="m 0,259.87 a 7.08661,7.08661 -180 1 0 14.17,0 7.08661,7.08661 -180 0 0 -14.17,0 z" />
		</g><g
   style="fill:#2b0000;stroke:none"
   transform="matrix(-1,0,0,-1,158.138,508.146)"
   v:groupContext="shape"
   v:mID="109"
   id="shape109-123">
			<title
   id="title316">Лист.109</title>
			<path
   style="fill:#2b0000;stroke:none;stroke-width:0.25000000000000000;stroke-linecap:round;stroke-linejoin:round"
   id="path318"
   class="st3"
   d="m 0,262.7 a 4.25197,4.25197 -180 0 0 8.5,0 4.25197,4.25197 -180 1 0 -8.5,0 z" />
		</g><g
   style="fill:#2b0000;stroke:none"
   transform="matrix(-1,0,0,-1,177.413,488.02)"
   v:groupContext="shape"
   v:mID="110"
   id="shape110-125">
			<title
   id="title321">Лист.110</title>
			<path
   style="fill:#2b0000;stroke:none;stroke-width:0.25000000000000000;stroke-linecap:round;stroke-linejoin:round"
   id="path323"
   class="st3"
   d="m 8.5,262.7 a 4.25197,4.25197 -180 1 0 -8.5,0 4.25197,4.25197 -180 0 0 8.5,0 z" />
		</g><g
   style="fill:#2b0000;stroke:none"
   transform="matrix(-1,0,0,-1,138.963,420.534)"
   v:groupContext="shape"
   v:mID="111"
   id="shape111-127">
			<title
   id="title326">Лист.111</title>
			<path
   style="fill:#2b0000;stroke:none;stroke-width:0.25000000000000000;stroke-linecap:round;stroke-linejoin:round"
   id="path328"
   class="st2"
   d="M 0,266.95 A 13.1532,10.6865 -20 0 0 0.73,266.78 18.0403,14.6571 -20 0 0 0,266.95 z" />
		</g><g
   style="fill:#2b0000;stroke:none"
   transform="matrix(-1,0,0,-1,138.963,419.753)"
   v:groupContext="shape"
   v:mID="112"
   id="shape112-129">
			<title
   id="title331">Лист.112</title>
			<path
   style="fill:#2b0000;stroke:none;stroke-width:0.25000000000000000;stroke-linecap:round;stroke-linejoin:round"
   id="path333"
   class="st2"
   d="M 0,266.17 A 7.84049,6.3701 -20 0 0 1.67,266.95 15.0089,12.1942 -20 0 0 0,266.17 z" />
		</g><g
   style="fill:#2b0000;stroke:none"
   transform="matrix(-1,0,0,-1,118.387,496.037)"
   v:groupContext="shape"
   v:mID="113"
   id="shape113-131">
			<title
   id="title336">Лист.113</title>
			<path
   style="fill:#2b0000;stroke:none;stroke-width:0.25000000000000000;stroke-linecap:round;stroke-linejoin:round"
   id="path338"
   class="st2"
   d="m 0,266.95 a 18.3313,18.3313 -155.02 0 0 0.59,-0.09 l 0,0 A 7.35438,7.35438 -110.15 0 0 0,266.95 z" />
		</g><g
   style="fill:#2b0000;stroke:none"
   transform="matrix(-1,0,0,-1,117.798,496.129)"
   v:groupContext="shape"
   v:mID="114"
   id="shape114-133">
			<title
   id="title341">Лист.114</title>
			<path
   style="fill:#2b0000;stroke:none;stroke-width:0.25000000000000000;stroke-linecap:round;stroke-linejoin:round"
   id="path343"
   class="st2"
   d="M 0.09,266.94 A 7.35438,7.35438 -110.15 0 0 0,266.95 l 0,0 0.09,-0.01 z" />
		</g><g
   style="fill:#2b0000;stroke:none"
   transform="matrix(-1,0,0,-1,117.793,496.019)"
   v:groupContext="shape"
   v:mID="115"
   id="shape115-135">
			<title
   id="title346">Лист.115</title>
			<path
   style="fill:#2b0000;stroke:none;stroke-width:0.25000000000000000;stroke-linecap:round;stroke-linejoin:round"
   id="path348"
   class="st2"
   d="M 0.09,266.83 0,266.84 0.1,266.95 A 7.21041,7.21041 -20 0 0 0.09,266.83 z" />
		</g><g
   style="fill:#2b0000;stroke:none"
   transform="matrix(-1,0,0,-1,117.951,496.133)"
   v:groupContext="shape"
   v:mID="116"
   id="shape116-137">
			<title
   id="title351">Лист.116</title>
			<path
   style="fill:#2b0000;stroke:none;stroke-width:0.25000000000000000;stroke-linecap:round;stroke-linejoin:round"
   id="path353"
   class="st2"
   d="m 0,266.79 a 40.1294,40.1294 -180 0 0 0.15,0.16 7.35438,7.35438 69.85 0 1 0.1,-0.01 A 7.61059,7.61059 -65.04 0 0 0,266.79 z" />
		</g><g
   style="fill:#2b0000;stroke:none"
   transform="matrix(-1,0,0,-1,115.335,453.598)"
   v:groupContext="shape"
   v:mID="118"
   id="shape118-139">
			<title
   id="title356">Лист.118</title>
			<path
   style="fill:#2b0000;stroke:none;stroke-width:0.25000000000000000;stroke-linecap:round;stroke-linejoin:round"
   id="path358"
   class="st3"
   d="m 0,264.4 a 2.55118,2.55118 -180 0 0 5.1,0 2.55118,2.55118 -180 0 0 -5.1,0 z" />
		</g><g
   style="fill:#2b0000;stroke:none"
   transform="matrix(-1,0,0,-1,150.768,412.496)"
   v:groupContext="shape"
   v:mID="119"
   id="shape119-141">
			<title
   id="title361">Лист.119</title>
			<path
   style="fill:#2b0000;stroke:none;stroke-width:0.25000000000000000;stroke-linecap:round;stroke-linejoin:round"
   id="path363"
   class="st3"
   d="m 0,264.4 a 2.55118,2.55118 -180 0 0 5.1,0 2.55118,2.55118 -180 0 0 -5.1,0 z" />
		</g><g
   style="fill:#2b0000;stroke:none"
   transform="matrix(-1,0,0,-1,143.114,441.531)"
   v:groupContext="shape"
   v:mID="120"
   id="shape120-143">
			<title
   id="title366">Лист.120</title>
			<path
   style="fill:#2b0000;stroke:none;stroke-width:0.25000000000000000;stroke-linecap:round;stroke-linejoin:round"
   id="path368"
   class="st3"
   d="m 0,264.4 a 2.55118,2.55118 -180 1 0 5.1,0 2.55118,2.55118 -180 0 0 -5.1,0 z" />
		</g><g
   style="fill:#2b0000;stroke:none"
   transform="matrix(-1,0,0,-1,172.311,406.098)"
   v:groupContext="shape"
   v:mID="121"
   id="shape121-145">
			<title
   id="title371">Лист.121</title>
			<path
   style="fill:#2b0000;stroke:none;stroke-width:0.25000000000000000;stroke-linecap:round;stroke-linejoin:round"
   id="path373"
   class="st3"
   d="m 49.42,232.99 a 14.8808,14.8808 -180 0 0 -15.4,9.87 19.7716,19.7716 0 0 1 27.87,-0.51 31.1811,31.1811 -180 0 0 -18.55,21.77 l -30.58,0 a 9.7246,9.7246 0 0 1 -0.55,0 9.7246,9.7246 0 0 1 -9.38,-8.51 l 0,-10.77 a 3.86031,3.86031 0 1 1 2.84,7.09 2.98061,2.98061 -180 0 0 4.82,-3.4 6.84011,6.84011 0 0 1 -1.14,11.34 6.78152,6.78152 -180 0 0 3.97,-11.91 23.1249,23.1249 -180 0 0 20.03,4.56 18.0403,14.6571 160 0 1 0.73,-0.17 13.1532,10.6865 -20 0 0 10.37,-14.38 14.5286,11.804 160 0 1 -23.76,10.56 21.3811,21.3811 -180 0 0 -17.86,-5.67 l 0,-44.32 a 56.2207,56.2207 -180 0 0 33.64,-33.63 l 10.3,0 a 40.1294,40.1294 -180 0 0 7.59,11.84 7.61059,7.61059 114.95 0 1 0.24,0.16 7.21041,7.21041 160 0 1 0.02,0.12 40.1294,40.1294 -180 0 0 2.07,2.05 20.7408,20.7408 0 0 1 2.27,22.68 9.47112,9.47112 -180 0 0 -7.26,-11.79 11.1606,11.1606 0 0 1 3.58,16.04 16.994,16.994 -180 0 0 0,22.68 17.3494,17.3494 0 0 1 4.09,-23.57 22.5384,22.5384 -180 0 0 -2.68,-31.14 23.3514,23.3514 0 0 1 -5.67,-9.07 l 4.69,0 a 19.8963,19.8963 0 0 1 10.62,17 l 0,59 a 31.1811,31.1811 -180 0 0 -0.43,0.11 l -0.03,-0.03 a 21.3698,21.3698 0 0 1 -4.64,-17.55 10.1631,10.1631 -180 0 0 -0.39,13.11 22.4723,22.4723 -180 0 0 -11.42,-3.56 z m 0,0 a 8.24235,8.24235 -180 0 0 -6.05,-9.97 8.081,8.081 -180 0 0 6.05,9.97 z m -15.34,19.36 a 13.1532,10.6865 160 0 1 -0.73,0.17 15.0089,12.1942 160 0 1 1.67,0.78 7.84049,6.3701 -20 0 0 7.41,-1.06 18.0403,14.6571 -20 0 0 -8.35,0.11 z m 0.94,0.95 a 7.84049,6.3701 160 0 1 -1.67,-0.78 15.4812,12.5779 -20 0 0 7.06,8.04 15.0089,12.1942 -20 0 0 -5.39,-7.26 z M 0,255.61 a 15.3838,15.3838 -180 0 0 2.83,5.67 15.3838,15.3838 -180 0 0 2.95,2.84 15.3838,15.3838 -180 0 0 6.98,2.83 l 32.92,0 a 28.3465,28.3465 0 0 1 0.57,-2.83 28.3465,28.3465 0 0 1 20.08,-20.29 28.3465,28.3465 0 0 1 3.4,-0.69 l 0,-61.23 a 20.4451,20.4451 -180 0 0 -3.4,-11.2 20.4451,20.4451 -180 0 0 -5.83,-5.8 20.4451,20.4451 -180 0 0 -6.64,-2.84 l -18.99,0 A 52.2797,52.2797 0 0 1 33.9,164.91 52.2797,52.2797 0 0 1 2.83,195.71 52.2797,52.2797 0 0 1 0,196.65 l 0,58.96 z m 54.36,-78.86 a 7.61059,7.61059 -65.05 0 0 -7.59,-0.17 18.3313,18.3313 -155.05 0 0 7.15,0.43 7.35438,7.35438 69.8 0 1 0.59,-0.09 40.1294,40.1294 0 0 1 -0.15,-0.17 z m -0.44,0.26 a 7.35438,7.35438 -110.28 0 0 -5.83,8.01 7.21041,7.21041 -20 0 0 6.53,-7.99 l -0.1,-0.11 a 18.3313,18.3313 24.95 0 1 -0.6,0.09 z" />
		</g><g
   style="fill:#2b0000;stroke:none"
   transform="translate(13.5709,-11.5866)"
   v:groupContext="shape"
   v:mID="3"
   id="shape3-147">
			<title
   id="title376">Лист.3</title>
			<path
   style="fill:#2b0000;stroke:none;stroke-width:0.25000000000000000;stroke-linecap:round;stroke-linejoin:round"
   id="path378"
   class="st3"
   d="m 85.04,26.01 -45.35,0 a 42.9866,42.9866 0 0 1 -1.13,7.08 42.9866,42.9866 0 0 1 -1.28,4.26 42.9866,42.9866 0 0 1 -1.14,2.83 A 42.9866,42.9866 0 0 1 14.17,62.15 42.9866,42.9866 0 0 1 11.34,63.28 42.9866,42.9866 0 0 1 7.09,64.57 42.9866,42.9866 0 0 1 0,65.69 l 0,161.58 a 42.9866,42.9866 0 0 1 7.09,1.12 42.9866,42.9866 0 0 1 4.25,1.29 42.9866,42.9866 0 0 1 2.83,1.13 42.9866,42.9866 0 0 1 21.97,21.97 42.9866,42.9866 0 0 1 1.14,2.83 42.9866,42.9866 0 0 1 1.28,4.26 42.9866,42.9866 0 0 1 1.13,7.08 l 90.7,0 a 42.9866,42.9866 0 0 1 1.13,-7.08 42.9866,42.9866 0 0 1 1.28,-4.26 42.9866,42.9866 0 0 1 1.14,-2.83 42.9866,42.9866 0 0 1 21.97,-21.97 42.9866,42.9866 0 0 1 2.83,-1.13 42.9866,42.9866 0 0 1 4.25,-1.29 42.9866,42.9866 0 0 1 7.09,-1.12 l 0,-80.79 0,-80.79 a 42.9866,42.9866 -180 0 1 -7.09,-1.12 42.9866,42.9866 -180 0 1 -4.25,-1.29 42.9866,42.9866 -180 0 1 -2.83,-1.13 42.9866,42.9866 -180 0 1 -21.97,-21.97 42.9866,42.9866 -180 0 1 -1.14,-2.83 42.9866,42.9866 -180 0 1 -1.28,-4.26 42.9866,42.9866 -180 0 1 -1.13,-7.08 l -45.35,0 z m 77.95,120.47 0,76.13 a 48.7737,48.7737 -180 0 0 -4.25,1.13 48.7737,48.7737 -180 0 0 -2.83,0.99 48.7737,48.7737 -180 0 0 -28.06,28.05 48.7737,48.7737 -180 0 0 -0.99,2.83 48.7737,48.7737 -180 0 0 -1.13,4.26 l -40.69,0 -40.69,0 a 48.7737,48.7737 180 0 0 -1.13,-4.26 48.7737,48.7737 180 0 0 -0.99,-2.83 48.7737,48.7737 180 0 0 -28.06,-28.05 48.7737,48.7737 180 0 0 -2.83,-0.99 48.7737,48.7737 180 0 0 -4.25,-1.13 l 0,-152.26 a 48.7737,48.7737 -180 0 0 4.25,-1.13 48.7737,48.7737 -180 0 0 2.83,-0.99 48.7737,48.7737 -180 0 0 28.06,-28.05 48.7737,48.7737 -180 0 0 0.99,-2.83 48.7737,48.7737 -180 0 0 1.13,-4.26 l 40.69,0 40.69,0 a 48.7737,48.7737 0 0 0 1.13,4.26 48.7737,48.7737 0 0 0 0.99,2.83 48.7737,48.7737 0 0 0 28.06,28.05 48.7737,48.7737 0 0 0 2.83,0.99 48.7737,48.7737 0 0 0 4.25,1.13 l 0,76.13 z" />
		</g>
</svg>