<?xml version="1.0" encoding="UTF-8" standalone="no"?>
<!DOCTYPE svg PUBLIC "-//W3C//DTD SVG 1.0//EN" "http://www.w3.org/TR/2001/REC-SVG-20010904/DTD/svg10.dtd">
<!-- Создано Microsoft Visio 11.0, Экспорт SVG, версия 1.0 clubs.svg Страница-1 -->
<svg xmlns="http://www.w3.org/2000/svg" xmlns:xlink="http://www.w3.org/1999/xlink" xmlns:ev="http://www.w3.org/2001/xml-events"
		xmlns:v="http://schemas.microsoft.com/visio/2003/SVGExtensions/" width="1.6998in" height="2.05741in"
		viewBox="0 0 122.386 148.134" xml:space="preserve" color-interpolation-filters="sRGB" class="st4">
	<v:documentProperties v:langID="1049" v:metric="true" v:viewMarkup="false"/>

	<style type="text/css">
	<![CDATA[
		.st1 {fill:url(#grad30-4);stroke:#f5deb3;stroke-linecap:round;stroke-linejoin:round;stroke-width:4.5}
		.st2 {fill:url(#grad30-4);stroke:#404040;stroke-linecap:round;stroke-linejoin:round;stroke-width:0.25}
		.st3 {fill:url(#grad30-4);stroke:none;stroke-linecap:round;stroke-linejoin:round;stroke-width:0.25}
		.st4 {fill:none;fill-rule:evenodd;font-size:12;overflow:visible;stroke-linecap:square;stroke-miterlimit:3}
	]]>
	</style>

	<defs id="Patterns_And_Gradients">
		<linearGradient id="grad30-4" v:fillPattern="30" v:foreground="#000000" v:background="#000000" x1="0" y1="1" x2="0" y2="0">
			<stop offset="0" style="stop-color:#000000;stop-opacity:1"/>
			<stop offset="1" style="stop-color:#000000;stop-opacity:1"/>
		</linearGradient>
	</defs>
	<g v:mID="0" v:index="1" v:groupContext="foregroundPage">
		<title>Страница-1</title>
		<v:pageProperties v:drawingScale="0.0393701" v:pageScale="0.0393701" v:drawingUnits="24" v:shadowOffsetX="8.50394"
				v:shadowOffsetY="-8.50394"/>
		<g id="shape2-1" v:mID="2" v:groupContext="shape" transform="translate(4.5,-4.5)">
			<title>Лист.2</title>
			<v:userDefs>
				<v:ud v:nameU="msvThemeColors" v:val="VT0(36):26"/>
				<v:ud v:nameU="msvThemeEffects" v:val="VT0(16):26"/>
			</v:userDefs>
			<path d="M0 144.12 C17.01 150.5 42.52 150.5 56.69 137.74 C70.87 150.5 96.38 150.5 113.39 144.12 C81.67 149.1 59.69 118.81
						 56.72 96.5 A28.3465 28.7992 -180 0 0 56.92 96.76 A28.3465 28.7992 -180 0 0 106.53 87.42 L106.56 87.31 C113.32
						 64.09 104.68 50.6 85.04 51.52 A44.8158 37.4846 -172.73 0 0 90.71 30.46 A35.3811 29.6027 -180 0 0 22.68 30.46
						 A49.2323 41.0365 -20.89 0 0 31.18 53.22 C9.64 50.62 0.07 64.09 6.82 87.31 L6.85 87.42 A28.3465 28.7992 -180
						 0 0 56.46 96.76 A28.3465 28.7992 -180 0 0 56.66 96.5 C53.7 118.81 31.71 149.1 0 144.12 ZM56.65 60.7 L56.73
						 60.7 C56.74 61.08 56.74 61.46 56.74 61.84 a0.0460078 0.0467427 0 0 1 -0.0896272 2.29505E-012 L56.65 60.7
						 Z" class="st1"/>
		</g>
		<g id="shape1-5" v:mID="1" v:groupContext="shape" transform="translate(4.5,-4.5)">
			<title>Лист.1</title>
			<v:userDefs>
				<v:ud v:nameU="msvThemeColors" v:val="VT0(36):26"/>
				<v:ud v:nameU="msvThemeEffects" v:val="VT0(16):26"/>
			</v:userDefs>
			<path d="M0 144.12 C17.01 150.5 42.52 150.5 56.69 137.74 C70.87 150.5 96.38 150.5 113.39 144.12 C81.67 149.1 59.69 118.81
						 56.72 96.5 A28.3465 28.7992 -180 0 0 56.92 96.76 A28.3465 28.7992 -180 0 0 106.53 87.42 L106.56 87.31 C113.32
						 64.09 104.68 50.6 85.04 51.52 A44.8158 37.4846 -172.73 0 0 90.71 30.46 A35.3811 29.6027 -180 0 0 22.68 30.46
						 A49.2323 41.0365 -20.89 0 0 31.18 53.22 C9.64 50.62 0.07 64.09 6.82 87.31 L6.85 87.42 A28.3465 28.7992 -180
						 0 0 56.46 96.76 A28.3465 28.7992 -180 0 0 56.66 96.5 C53.7 118.81 31.71 149.1 0 144.12 ZM56.65 60.7 L56.73
						 60.7 C56.74 61.08 56.74 61.46 56.74 61.84 a0.0460078 0.0467427 0 0 1 -0.0896272 2.29505E-012 L56.65 60.7
						 Z" class="st2"/>
		</g>
		<g id="shape3-8" v:mID="3" v:groupContext="shape" transform="translate(48.0231,-72.2129)">
			<title>Круг</title>
			<v:userDefs>
				<v:ud v:nameU="visVersion" v:val="VT0(14):26"/>
				<v:ud v:nameU="msvThemeColors" v:val="VT0(36):26"/>
				<v:ud v:nameU="msvThemeEffects" v:val="VT0(16):26"/>
			</v:userDefs>
			<path d="M0 133.96 A14.1732 14.1732 0 1 1 28.35 133.96 A14.1732 14.1732 0 0 1 0 133.96 Z" class="st3"/>
		</g>
	</g>
</svg>
