<?xml version="1.0" encoding="UTF-8" standalone="no"?>
<!DOCTYPE svg PUBLIC "-//W3C//DTD SVG 1.0//EN" "http://www.w3.org/TR/2001/REC-SVG-20010904/DTD/svg10.dtd">
<!-- Создано Microsoft Visio 11.0, Экспорт SVG, версия 1.0 jockers-red1.svg Страница-1 -->
<svg xmlns="http://www.w3.org/2000/svg" xmlns:xlink="http://www.w3.org/1999/xlink" xmlns:ev="http://www.w3.org/2001/xml-events"
		xmlns:v="http://schemas.microsoft.com/visio/2003/SVGExtensions/" width="1.90817in" height="2.06389in"
		viewBox="0 0 137.388 148.6" xml:space="preserve" color-interpolation-filters="sRGB" class="st39">
	<v:documentProperties v:langID="1049" v:metric="true" v:viewMarkup="false"/>

	<style type="text/css">
	<![CDATA[
		.st1 {fill:url(#grad40-4);stroke:#000000;stroke-linecap:round;stroke-linejoin:round;stroke-width:0.24}
		.st2 {fill:url(#grad26-8);stroke:none;stroke-linecap:round;stroke-linejoin:round;stroke-width:0.24}
		.st3 {fill:#bfbfbf;stroke:#7f7f7f;stroke-linecap:round;stroke-linejoin:round;stroke-width:0.25}
		.st4 {fill:url(#grad30-98);stroke:none;stroke-linecap:round;stroke-linejoin:round;stroke-width:0.24}
		.st5 {fill:#a5a5a5;fill-opacity:0.5;stroke:none;stroke-linecap:round;stroke-linejoin:round;stroke-width:0.24}
		.st6 {fill:#000000;fill-opacity:0.5;stroke:none;stroke-linecap:round;stroke-linejoin:round;stroke-width:0.24}
		.st7 {fill:#262626;stroke:none;stroke-linecap:round;stroke-linejoin:round;stroke-width:0.24}
		.st8 {fill:#000000;fill-opacity:0.4;stroke:none;stroke-linecap:round;stroke-linejoin:round;stroke-width:0.24}
		.st9 {fill:url(#grad37-120);stroke:none;stroke-linecap:round;stroke-linejoin:round;stroke-width:0.24}
		.st10 {fill:url(#grad40-124);stroke:none;stroke-linecap:round;stroke-linejoin:round;stroke-width:0.24}
		.st11 {fill:#0c0c0c;stroke:none;stroke-linecap:round;stroke-linejoin:round;stroke-width:0.24}
		.st12 {fill:#3f3f3f;fill-opacity:0.75;stroke:none;stroke-linecap:round;stroke-linejoin:round;stroke-width:0.24}
		.st13 {fill:url(#grad37-120);stroke:none;stroke-linecap:round;stroke-linejoin:round;stroke-width:0.25}
		.st14 {fill:url(#grad40-151);stroke:none;stroke-linecap:round;stroke-linejoin:round;stroke-width:0.25}
		.st15 {fill:#000000;fill-opacity:0.6;stroke:none;stroke-linecap:round;stroke-linejoin:round;stroke-width:0.24}
		.st16 {fill:#7f7f7f;fill-opacity:0.5;stroke:none;stroke-linecap:round;stroke-linejoin:round;stroke-width:0.24}
		.st17 {fill:#d8d8d8;stroke:none;stroke-linecap:round;stroke-linejoin:round;stroke-width:0.24}
		.st18 {fill:#d8d8d8;fill-opacity:0.5;stroke:none;stroke-linecap:round;stroke-linejoin:round;stroke-width:0.24}
		.st19 {fill:#f2f2f2;fill-opacity:0.5;stroke:none;stroke-linecap:round;stroke-linejoin:round;stroke-width:0.24}
		.st20 {fill:#3f3f3f;fill-opacity:0.95;stroke:none;stroke-linecap:round;stroke-linejoin:round;stroke-width:0.24}
		.st21 {fill:#f2f2f2;fill-opacity:0.3;stroke:none;stroke-linecap:round;stroke-linejoin:round;stroke-width:0.24}
		.st22 {fill:#f2f2f2;fill-opacity:0.7;stroke:none;stroke-linecap:round;stroke-linejoin:round;stroke-width:0.24}
		.st23 {fill:url(#grad39-191);stroke:none;stroke-linecap:round;stroke-linejoin:round;stroke-width:0.24}
		.st24 {fill:url(#grad39-198);stroke:none;stroke-linecap:round;stroke-linejoin:round;stroke-width:0.24}
		.st25 {fill:url(#grad40-202);stroke:none;stroke-linecap:round;stroke-linejoin:round;stroke-width:0.24}
		.st26 {fill:url(#grad40-213);stroke:none;stroke-linecap:round;stroke-linejoin:round;stroke-width:0.25}
		.st27 {fill:#000000;fill-opacity:0.3;stroke:none;stroke-linecap:round;stroke-linejoin:round;stroke-width:0.24}
		.st28 {fill:#f2f2f2;stroke:none;stroke-linecap:round;stroke-linejoin:round;stroke-width:0.24}
		.st29 {fill:url(#grad38-276);stroke:none;stroke-linecap:round;stroke-linejoin:round;stroke-width:0.24}
		.st30 {fill:#c00000;stroke:none;stroke-linecap:round;stroke-linejoin:round;stroke-width:0.24}
		.st31 {fill:url(#grad28-285);stroke:none;stroke-linecap:round;stroke-linejoin:round;stroke-width:0.24}
		.st32 {fill:url(#grad28-289);stroke:none;stroke-linecap:round;stroke-linejoin:round;stroke-width:0.24}
		.st33 {fill:url(#grad28-293);stroke:none;stroke-linecap:round;stroke-linejoin:round;stroke-width:0.24}
		.st34 {fill:url(#grad30-300);stroke:none;stroke-linecap:round;stroke-linejoin:round;stroke-width:0.24}
		.st35 {fill:url(#grad28-304);stroke:#3a0303;stroke-linecap:round;stroke-linejoin:round;stroke-width:0.24}
		.st36 {fill:#ffc000;stroke:#3a0303;stroke-linecap:round;stroke-linejoin:round;stroke-width:0.25}
		.st37 {fill:#0c0c0c;fill-opacity:0.5;stroke:none;stroke-linecap:round;stroke-linejoin:round;stroke-width:0.24}
		.st38 {fill:#c00000;fill-opacity:0.3;stroke:none;stroke-linecap:round;stroke-linejoin:round;stroke-width:0.24}
		.st39 {fill:none;fill-rule:evenodd;font-size:12;overflow:visible;stroke-linecap:square;stroke-miterlimit:3}
	]]>
	</style>

	<defs id="Patterns_And_Gradients">
		<radialGradient id="grad40-4" v:fillPattern="40" v:foreground="#000000" v:background="#17355d" cx="0.5" cy="0.5" r="0.5">
			<stop offset="0" style="stop-color:#000000;stop-opacity:1"/>
			<stop offset="1" style="stop-color:#17355d;stop-opacity:1"/>
		</radialGradient>
		<linearGradient id="grad26-8" v:fillPattern="26" v:foreground="#e4d0be" v:background="#d1b361" x1="0" y1="0" x2="1" y2="0">
			<stop offset="0" style="stop-color:#d1b361;stop-opacity:1"/>
			<stop offset="0.5" style="stop-color:#e4d0be;stop-opacity:1"/>
			<stop offset="1" style="stop-color:#d1b361;stop-opacity:1"/>
		</linearGradient>
		<linearGradient id="grad30-98" v:fillPattern="30" v:foreground="#f2f2f2" v:background="#bfbfbf" x1="0" y1="1" x2="0" y2="0">
			<stop offset="0" style="stop-color:#f2f2f2;stop-opacity:1"/>
			<stop offset="1" style="stop-color:#bfbfbf;stop-opacity:1"/>
		</linearGradient>
		<radialGradient id="grad37-120" v:fillPattern="37" v:foreground="#1e1e1e" v:background="#000000" cx="1" cy="0" r="1">
			<stop offset="0" style="stop-color:#1e1e1e;stop-opacity:1"/>
			<stop offset="1" style="stop-color:#000000;stop-opacity:1"/>
		</radialGradient>
		<radialGradient id="grad40-124" v:fillPattern="40" v:foreground="#ff0000" v:foregroundOpacity="0.5" v:background="#3a0303"
				v:backgroundOpacity="0.5" cx="0.5" cy="0.5" r="0.5">
			<stop offset="0" style="stop-color:#ff0000;stop-opacity:0.5"/>
			<stop offset="1" style="stop-color:#3a0303;stop-opacity:0.5"/>
		</radialGradient>
		<radialGradient id="grad40-151" v:fillPattern="40" v:foreground="#955646" v:background="#533f37" cx="0.5" cy="0.5" r="0.5">
			<stop offset="0" style="stop-color:#955646;stop-opacity:1"/>
			<stop offset="1" style="stop-color:#533f37;stop-opacity:1"/>
		</radialGradient>
		<radialGradient id="grad39-191" v:fillPattern="39" v:foreground="#ffffff" v:background="#bfbfbf" cx="1" cy="1" r="1">
			<stop offset="0" style="stop-color:#ffffff;stop-opacity:1"/>
			<stop offset="1" style="stop-color:#bfbfbf;stop-opacity:1"/>
		</radialGradient>
		<radialGradient id="grad39-198" v:fillPattern="39" v:foreground="#e4d0be" v:background="#583f37" cx="1" cy="1" r="1">
			<stop offset="0" style="stop-color:#e4d0be;stop-opacity:1"/>
			<stop offset="1" style="stop-color:#583f37;stop-opacity:1"/>
		</radialGradient>
		<radialGradient id="grad40-202" v:fillPattern="40" v:foreground="#e4d0be" v:foregroundOpacity="0.4" v:background="#533f37"
				v:backgroundOpacity="0.4" cx="0.5" cy="0.5" r="0.5">
			<stop offset="0" style="stop-color:#e4d0be;stop-opacity:0.4"/>
			<stop offset="1" style="stop-color:#533f37;stop-opacity:0.4"/>
		</radialGradient>
		<radialGradient id="grad40-213" v:fillPattern="40" v:foreground="#c5ad94" v:foregroundOpacity="0.8" v:background="#000000"
				v:backgroundOpacity="0.8" cx="0.5" cy="0.5" r="0.5">
			<stop offset="0" style="stop-color:#c5ad94;stop-opacity:0.8"/>
			<stop offset="1" style="stop-color:#000000;stop-opacity:0.8"/>
		</radialGradient>
		<radialGradient id="grad38-276" v:fillPattern="38" v:foreground="#ffffff" v:background="#bfbfbf" cx="0" cy="1" r="1">
			<stop offset="0" style="stop-color:#ffffff;stop-opacity:1"/>
			<stop offset="1" style="stop-color:#bfbfbf;stop-opacity:1"/>
		</radialGradient>
		<linearGradient id="grad28-285" v:fillPattern="28" v:foreground="#b7c9e3" v:foregroundOpacity="0.3" v:background="#7f7f7f"
				v:backgroundOpacity="0.3" x1="0" y1="0" x2="0" y2="1">
			<stop offset="0" style="stop-color:#b7c9e3;stop-opacity:0.3"/>
			<stop offset="1" style="stop-color:#7f7f7f;stop-opacity:0.3"/>
		</linearGradient>
		<linearGradient id="grad28-289" v:fillPattern="28" v:foreground="#d59b95" v:foregroundOpacity="0.4" v:background="#5b0404"
				v:backgroundOpacity="0.4" x1="0" y1="0" x2="0" y2="1">
			<stop offset="0" style="stop-color:#d59b95;stop-opacity:0.4"/>
			<stop offset="1" style="stop-color:#5b0404;stop-opacity:0.4"/>
		</linearGradient>
		<linearGradient id="grad28-293" v:fillPattern="28" v:foreground="#ffffff" v:foregroundOpacity="0.4" v:background="#262626"
				v:backgroundOpacity="0.4" x1="0" y1="0" x2="0" y2="1">
			<stop offset="0" style="stop-color:#ffffff;stop-opacity:0.4"/>
			<stop offset="1" style="stop-color:#262626;stop-opacity:0.4"/>
		</linearGradient>
		<linearGradient id="grad30-300" v:fillPattern="30" v:foreground="#e3e3e3" v:foregroundOpacity="0.5" v:background="#262626"
				v:backgroundOpacity="0.5" x1="0" y1="1" x2="0" y2="0">
			<stop offset="0" style="stop-color:#e3e3e3;stop-opacity:0.5"/>
			<stop offset="1" style="stop-color:#262626;stop-opacity:0.5"/>
		</linearGradient>
		<linearGradient id="grad28-304" v:fillPattern="28" v:foreground="#ff0000" v:background="#5b0404" x1="0" y1="0" x2="0"
				y2="1">
			<stop offset="0" style="stop-color:#ff0000;stop-opacity:1"/>
			<stop offset="1" style="stop-color:#5b0404;stop-opacity:1"/>
		</linearGradient>
	</defs>
	<g v:mID="0" v:index="1" v:groupContext="foregroundPage">
		<title>Страница-1</title>
		<v:pageProperties v:drawingScale="0.0393701" v:pageScale="0.0393701" v:drawingUnits="24" v:shadowOffsetX="8.50394"
				v:shadowOffsetY="-8.50394"/>
		<g id="shape2-1" v:mID="2" v:groupContext="shape" transform="translate(48.9903,-20.9639)">
			<title>Лист.2</title>
			<path d="M50.46 113.19 C45.35 116.59 42.55 120.9 39.98 125.51 C37.96 129.13 36.09 132.93 34.67 136.97 C33.45 140.47 32.56
						 144.15 30.75 146.32 C28.22 149.36 23.88 149.46 20.94 146.02 C17.64 142.17 16.11 133.87 11.11 125.73 C8.56
						 121.56 5.1 117.44 0 113.76 C2.62 113.8 3.16 113.78 3.69 113.78 C9.08 113.77 13.05 115.57 17.03 119 C19.43
						 121.07 21.84 123.73 24.26 124.15 C25.95 124.45 27.64 123.65 29.28 122.76 C36.34 118.91 42.24 113.25 50.46
						 113.19 Z" class="st1"/>
		</g>
		<g id="shape4-5" v:mID="4" v:groupContext="shape" transform="translate(78.1605,-39.3681)">
			<title>Лист.4</title>
			<path d="M1 140.32 C1.19 143.12 0.6 146.43 0 148.6 C2.25 146.46 2.23 142.54 2.67 139.31 C2.26 139.98 1.54 139.97 1 140.32
						 Z" class="st2"/>
		</g>
		<g id="shape5-9" v:mID="5" v:groupContext="shape" transform="translate(80.5932,-41.6358)">
			<title>Лист.5</title>
			<path d="M1 140.32 C1.19 143.12 0.6 146.43 0 148.6 C2.25 146.46 2.23 142.54 2.67 139.31 C2.26 139.98 1.54 139.97 1 140.32
						 Z" class="st2"/>
		</g>
		<g id="shape6-12" v:mID="6" v:groupContext="shape" transform="translate(83.4998,-44.4705)">
			<title>Лист.6</title>
			<path d="M1 140.32 C1.19 143.12 0.6 146.43 0 148.6 C2.25 146.46 2.23 142.54 2.67 139.31 C2.26 139.98 1.54 139.97 1 140.32
						 Z" class="st2"/>
		</g>
		<g id="shape7-15" v:mID="7" v:groupContext="shape" transform="translate(86.4063,-44.4705)">
			<title>Лист.7</title>
			<path d="M1 140.32 C1.19 143.12 0.6 146.43 0 148.6 C2.25 146.46 2.23 142.54 2.67 139.31 C2.26 139.98 1.54 139.97 1 140.32
						 Z" class="st2"/>
		</g>
		<g id="shape8-18" v:mID="8" v:groupContext="shape" transform="translate(89.3129,-48.2171)">
			<title>Лист.8</title>
			<path d="M1 140.32 C1.19 143.12 0.6 146.43 0 148.6 C2.25 146.46 2.23 142.54 2.67 139.31 C2.26 139.98 1.54 139.97 1 140.32
						 Z" class="st2"/>
		</g>
		<g id="shape9-21" v:mID="9" v:groupContext="shape" transform="translate(92.2195,-51.2736)">
			<title>Лист.9</title>
			<path d="M1 140.32 C1.19 143.12 0.6 146.43 0 148.6 C2.25 146.46 2.23 142.54 2.67 139.31 C2.26 139.98 1.54 139.97 1 140.32
						 Z" class="st2"/>
		</g>
		<g id="shape10-24" v:mID="10" v:groupContext="shape" transform="translate(38.5829,-35.722) rotate(-15)">
			<title>Лист.10</title>
			<path d="M1 140.32 C1.19 143.12 0.6 146.43 0 148.6 C2.25 146.46 2.23 142.54 2.67 139.31 C2.26 139.98 1.54 139.97 1 140.32
						 Z" class="st2"/>
		</g>
		<g id="shape11-27" v:mID="11" v:groupContext="shape" transform="translate(37.119,-34.5735) rotate(-15)">
			<title>Лист.11</title>
			<path d="M1 140.32 C1.19 143.12 0.6 146.43 0 148.6 C2.25 146.46 2.23 142.54 2.67 139.31 C2.26 139.98 1.54 139.97 1 140.32
						 Z" class="st2"/>
		</g>
		<g id="shape12-30" v:mID="12" v:groupContext="shape" transform="translate(70.4366,-40.847) scale(-1,1)">
			<title>Лист.12</title>
			<path d="M1 140.32 C1.19 143.12 0.6 146.43 0 148.6 C2.25 146.46 2.23 142.54 2.67 139.31 C2.26 139.98 1.54 139.97 1 140.32
						 Z" class="st2"/>
		</g>
		<g id="shape13-33" v:mID="13" v:groupContext="shape" transform="translate(68.0039,-43.1147) scale(-1,1)">
			<title>Лист.13</title>
			<path d="M1 140.32 C1.19 143.12 0.6 146.43 0 148.6 C2.25 146.46 2.23 142.54 2.67 139.31 C2.26 139.98 1.54 139.97 1 140.32
						 Z" class="st2"/>
		</g>
		<g id="shape14-36" v:mID="14" v:groupContext="shape" transform="translate(65.0973,-45.9494) scale(-1,1)">
			<title>Лист.14</title>
			<path d="M1 140.32 C1.19 143.12 0.6 146.43 0 148.6 C2.25 146.46 2.23 142.54 2.67 139.31 C2.26 139.98 1.54 139.97 1 140.32
						 Z" class="st2"/>
		</g>
		<g id="shape15-39" v:mID="15" v:groupContext="shape" transform="translate(62.1908,-45.9494) scale(-1,1)">
			<title>Лист.15</title>
			<path d="M1 140.32 C1.19 143.12 0.6 146.43 0 148.6 C2.25 146.46 2.23 142.54 2.67 139.31 C2.26 139.98 1.54 139.97 1 140.32
						 Z" class="st2"/>
		</g>
		<g id="shape16-42" v:mID="16" v:groupContext="shape" transform="translate(59.2842,-49.696) scale(-1,1)">
			<title>Лист.16</title>
			<path d="M1 140.32 C1.19 143.12 0.6 146.43 0 148.6 C2.25 146.46 2.23 142.54 2.67 139.31 C2.26 139.98 1.54 139.97 1 140.32
						 Z" class="st2"/>
		</g>
		<g id="shape17-45" v:mID="17" v:groupContext="shape" transform="translate(56.3776,-52.7525) scale(-1,1)">
			<title>Лист.17</title>
			<path d="M1 140.32 C1.19 143.12 0.6 146.43 0 148.6 C2.25 146.46 2.23 142.54 2.67 139.31 C2.26 139.98 1.54 139.97 1 140.32
						 Z" class="st2"/>
		</g>
		<g id="shape18-48" v:mID="18" v:groupContext="shape" transform="translate(110.014,-37.2009) rotate(15) scale(-1,1)">
			<title>Лист.18</title>
			<path d="M1 140.32 C1.19 143.12 0.6 146.43 0 148.6 C2.25 146.46 2.23 142.54 2.67 139.31 C2.26 139.98 1.54 139.97 1 140.32
						 Z" class="st2"/>
		</g>
		<g id="shape19-51" v:mID="19" v:groupContext="shape" transform="translate(111.478,-36.0524) rotate(15) scale(-1,1)">
			<title>Лист.19</title>
			<path d="M1 140.32 C1.19 143.12 0.6 146.43 0 148.6 C2.25 146.46 2.23 142.54 2.67 139.31 C2.26 139.98 1.54 139.97 1 140.32
						 Z" class="st2"/>
		</g>
		<g id="shape21-54" v:mID="21" v:groupContext="shape" transform="translate(78.0179,263.502) scale(1,-1)">
			<title>Лист.21</title>
			<path d="M1 137.23 C1.19 141.08 0.6 145.62 0 148.6 C2.25 145.66 2.23 140.28 2.67 135.84 C2.26 136.76 1.54 136.75 1 137.23
						 Z" class="st2"/>
		</g>
		<g id="shape22-57" v:mID="22" v:groupContext="shape" transform="translate(80.4506,265.202) scale(1,-1)">
			<title>Лист.22</title>
			<path d="M1 140.32 C1.19 143.12 0.6 146.43 0 148.6 C2.25 146.46 2.23 142.54 2.67 139.31 C2.26 139.98 1.54 139.97 1 140.32
						 Z" class="st2"/>
		</g>
		<g id="shape23-60" v:mID="23" v:groupContext="shape" transform="translate(82.2115,260.273) scale(1,-1)">
			<title>Лист.23</title>
			<path d="M1 140.32 C1.19 143.12 0.6 146.43 0 148.6 C2.25 146.46 2.23 142.54 2.67 139.31 C2.26 139.98 1.54 139.97 1 140.32
						 Z" class="st2"/>
		</g>
		<g id="shape24-63" v:mID="24" v:groupContext="shape" transform="translate(121.417,253.903) rotate(-15) scale(1,-1)">
			<title>Лист.24</title>
			<path d="M1 140.32 C1.19 143.12 0.6 146.43 0 148.6 C2.25 146.46 2.23 142.54 2.67 139.31 C2.26 139.98 1.54 139.97 1 140.32
						 Z" class="st2"/>
		</g>
		<g id="shape25-66" v:mID="25" v:groupContext="shape" transform="translate(85.4121,257.691) scale(1,-1)">
			<title>Лист.25</title>
			<path d="M1 142.29 C1.19 144.42 0.6 146.94 0 148.6 C2.25 146.97 2.23 143.98 2.67 141.51 C2.26 142.02 1.54 142.02 1 142.29
						 Z" class="st2"/>
		</g>
		<g id="shape26-69" v:mID="26" v:groupContext="shape" transform="translate(39.2572,259.856) rotate(15) scale(1,-1)">
			<title>Лист.26</title>
			<path d="M1 137.19 C1.19 141.06 0.6 145.6 0 148.6 C2.25 145.65 2.23 140.25 2.67 135.8 C2.26 136.72 1.54 136.71 1 137.19
						 Z" class="st2"/>
		</g>
		<g id="shape27-72" v:mID="27" v:groupContext="shape" transform="translate(37.7501,258.565) rotate(15) scale(1,-1)">
			<title>Лист.27</title>
			<path d="M1 136.02 C1.19 140.28 0.6 145.3 0 148.6 C2.25 145.35 2.23 139.39 2.67 134.48 C2.26 135.5 1.54 135.48 1 136.02
						 Z" class="st2"/>
		</g>
		<g id="shape28-75" v:mID="28" v:groupContext="shape" transform="translate(98.1523,261.244) rotate(170)">
			<title>Лист.28</title>
			<path d="M1 137.29 C1.19 141.12 0.6 145.63 0 148.6 C2.25 145.68 2.23 140.32 2.67 135.91 C2.26 136.82 1.54 136.81 1 137.29
						 Z" class="st2"/>
		</g>
		<g id="shape29-78" v:mID="29" v:groupContext="shape" transform="translate(100.379,262.994) rotate(170)">
			<title>Лист.29</title>
			<path d="M1 138.03 C1.19 141.61 0.6 145.83 0 148.6 C2.25 145.87 2.23 140.86 2.67 136.74 C2.26 137.6 1.54 137.58 1 138.03
						 Z" class="st2"/>
		</g>
		<g id="shape30-81" v:mID="30" v:groupContext="shape" transform="translate(70.9089,260.802) rotate(180)">
			<title>Лист.30</title>
			<path d="M1 136.09 C1.19 140.33 0.6 145.32 0 148.6 C2.25 145.37 2.23 139.44 2.67 134.56 C2.26 135.57 1.54 135.56 1 136.09
						 Z" class="st2"/>
		</g>
		<g id="shape31-84" v:mID="31" v:groupContext="shape" transform="translate(94.0212,258.409) rotate(170)">
			<title>Лист.31</title>
			<path d="M1.22 137.23 C1.44 141.08 0.73 145.62 0 148.6 C2.73 145.66 2.71 140.28 3.24 135.84 C2.73 136.76 1.87 136.75
						 1.22 137.23 Z" class="st2"/>
		</g>
		<g id="shape32-87" v:mID="32" v:groupContext="shape" transform="translate(66.5976,260.729) rotate(180)">
			<title>Лист.32</title>
			<path d="M1 140.32 C1.19 143.12 0.6 146.43 0 148.6 C2.25 146.46 2.23 142.54 2.67 139.31 C2.26 139.98 1.54 139.97 1 140.32
						 Z" class="st2"/>
		</g>
		<g id="shape33-90" v:mID="33" v:groupContext="shape" transform="translate(28.2428,252.091) rotate(-165)">
			<title>Лист.33</title>
			<path d="M1 140.32 C1.19 143.12 0.6 146.43 0 148.6 C2.25 146.46 2.23 142.54 2.67 139.31 C2.26 139.98 1.54 139.97 1 140.32
						 Z" class="st2"/>
		</g>
		<g id="shape34-93" v:mID="34" v:groupContext="shape" transform="translate(34.7317,-0.25)">
			<title>Лист.34</title>
			<path d="M64.97 92.47 C59.87 95.88 57.07 100.19 54.5 104.79 C52.48 108.41 50.6 112.22 49.19 116.26 C47.96 119.76 47.08
						 123.44 45.27 125.61 C42.74 128.65 38.4 128.74 35.46 125.31 C32.16 121.45 30.63 113.16 25.63 105.01 C23.08
						 100.85 19.62 96.73 14.52 93.04 C17.14 93.08 17.68 93.07 18.2 93.06 C23.59 93.05 27.56 94.85 31.55 98.29
						 C33.95 100.36 36.35 103.02 38.78 103.44 C40.46 103.73 42.16 102.94 43.79 102.05 C50.85 98.2 56.75 92.53
						 64.97 92.47 ZM2.61 89.64 C4.31 99.84 7.72 98.93 10.86 99.6 C24.69 102.53 33.22 136.13 40.03 148.6 C46.83
						 131.59 51.3 121.64 55.44 114.33 C67.19 93.61 76.31 94.18 74.61 86.8 C72.91 82.27 69.15 81.85 72.12 72.49
						 C73.25 68.94 75.34 64.1 76.04 58.48 C77.36 47.91 73.72 34.58 68.9 26.84 C62.47 16.5 53.91 16.11 43.8 16.04
						 C34.98 15.98 24.97 16.15 17.27 20.01 C6.7 25.3 0.47 37.51 0.91 49.95 C-3.06 59.03 7.35 75.13 5.73 81.73
						 C5.03 84.6 2.04 85.67 2.61 89.64 Z" class="st3"/>
		</g>
		<g id="shape35-95" v:mID="35" v:groupContext="shape" transform="translate(67.1517,-0.706428)">
			<title>Лист.35</title>
			<path d="M0 127.71 C4.74 133.32 11.01 133.18 14.25 128.3 C12.7 136.61 10.52 141.85 7.52 148.6 C5.32 144.31 2.12 136.54
						 0 127.71 Z" class="st4"/>
		</g>
		<g id="shape36-99" v:mID="36" v:groupContext="shape" transform="translate(87.2813,-72.1968) rotate(-0.148293)">
			<title>Лист.36</title>
			<path d="M0 147.99 C0.44 147.58 0.62 147.43 0.8 147.28 C2.89 145.48 4.77 142.78 6.22 140.21 C7.64 137.69 8.65 135.3 10.8
						 133.68 C11.85 132.89 13.18 132.29 14.23 132 C15.31 131.69 16.09 131.71 16.66 132.61 C17.59 134.09 17.96
						 137.92 17.71 140.81 C17.04 148.47 11.99 149.57 0 147.99 Z" class="st5"/>
		</g>
		<g id="shape37-101" v:mID="37" v:groupContext="shape" transform="translate(67.6192,-71.834) scale(-1,1)">
			<title>Лист.37</title>
			<path d="M0 148.6 C3.86 149.27 4.8 144.29 6.08 140.54 C8.11 134.6 11 131.74 16.1 130.61 C10.15 131.18 7.8 134.68 5.82
						 138.17 C3.64 142.05 1.93 145.92 0 148.6 Z" class="st5"/>
		</g>
		<g id="shape38-103" v:mID="38" v:groupContext="shape" transform="translate(36.3033,-69.1772) rotate(-10.5915) scale(-1,1)">
			<title>Лист.38</title>
			<path d="M0 147.89 C0.38 147.46 0.66 147.39 0.92 147.3 C3.97 146.25 4.67 142.7 5.7 139.88 C6.7 137.13 8 135.08 9.67 134.07
						 C10.49 133.57 11.39 133.33 12.32 132.95 C13.29 132.55 14.28 132.01 15.11 132.57 C16.46 133.47 17.37 137.29
						 17.48 140.25 C17.78 148.07 12.52 149.85 0 147.89 Z" class="st5"/>
		</g>
		<g id="shape39-105" v:mID="39" v:groupContext="shape" transform="translate(89.4597,-72.0857) rotate(-0.148293)">
			<title>Лист.39</title>
			<path d="M0 148.03 C0.36 147.65 0.5 147.51 0.65 147.37 C2.33 145.69 3.85 143.18 5.02 140.78 C6.17 138.43 6.98 136.2 8.72
						 134.7 C9.56 133.96 10.64 133.4 11.48 133.13 C12.35 132.84 12.98 132.86 13.44 133.7 C14.19 135.08 14.5 138.65
						 14.29 141.34 C13.76 148.48 9.67 149.51 0 148.03 Z" class="st5"/>
		</g>
		<g id="shape40-107" v:mID="40" v:groupContext="shape" transform="translate(95.8561,218.415) scale(1,-1)">
			<title>Лист.40</title>
			<path d="M0 147.72 C0 147.18 0 147.09 0 146.98 C0 145.68 0 141.26 0 137.76 C0 134.33 0 131.78 0 130.52 C0 129.91 0 129.6
						 0 129.13 C0 128.64 0 127.96 0 128.65 C0 129.78 0 134.54 0 138.21 C0 147.94 0 150.16 0 147.72 Z"
					class="st5"/>
		</g>
		<g id="shape41-109" v:mID="41" v:groupContext="shape" transform="translate(97.684,-70.5169) rotate(5.27495)">
			<title>Лист.41</title>
			<path d="M0 147.82 C0.53 147.28 0.75 147.09 0.96 146.89 C3.48 144.56 5.75 141.07 7.5 137.75 C9.21 134.49 10.42 131.4
						 13.01 129.31 C14.28 128.29 15.88 127.51 17.14 127.13 C18.44 126.73 19.38 126.76 20.07 127.93 C21.19 129.84
						 21.64 134.79 21.34 138.53 C20.53 148.43 14.44 149.86 0 147.82 Z" class="st5"/>
		</g>
		<g id="shape42-111" v:mID="42" v:groupContext="shape" transform="translate(67.3888,-64.8799)">
			<title>Лист.42</title>
			<path d="M9.17 137.26 C10.2 141.23 9.64 139.25 9.92 140.38 C11.06 140.66 11.01 141.18 13.04 136.69 C12.22 142.13 13.63
						 142.21 14.69 141.99 C13.33 141.96 13.61 143.5 10.77 146.9 C11.91 144.06 12.47 142.96 12.42 142.8 C12.34
						 142.51 10.36 145.19 8.5 147.47 C10.33 145.12 9.95 144.64 9.6 144.29 C9 143.69 8.5 143.5 7.45 143.54 C7.07
						 143.42 6.58 143.33 6.23 143.5 C5.88 143.67 5.67 144.06 6.75 147.68 C4.78 143.37 2.49 141.99 2.79 142.88
						 C2.96 143.39 3.97 144.63 5.67 148.6 C2.94 143.21 1.8 142.93 0.1 144.63 C0.36 143.92 1.52 142.08 0 141.68
						 C0.14 141.75 0.48 141.86 0.72 141.85 C1.77 141.82 0.94 139.49 1.24 138.96 C2.09 140.1 1.7 144.63 3.5 138.96
						 C4.35 141.23 4.54 139.81 1.98 133.58 C7.09 141.8 7.75 140.38 9.17 137.26 Z" class="st6"/>
		</g>
		<g id="shape43-113" v:mID="43" v:groupContext="shape" transform="translate(106.664,-70.7851) scale(-1,1)">
			<title>Лист.43</title>
			<path d="M21.7 147.14 C16.87 144.27 18.06 143.54 13.45 138.62 C12.08 137.16 10.2 135.33 9.85 135.22 C9.42 135.09 11.36
						 137.63 11.51 138.42 C11.72 139.5 8.65 137.36 6.46 136.64 C4.7 136.07 3.52 136.41 3.3 136.68 C2.91 137.16
						 5.51 137.42 6.51 138.48 C6.91 138.91 7.05 139.47 6.68 139.58 C6.16 139.73 4.67 139 3.07 139.06 C2.2 139.09
						 1.3 139.35 1.16 139.51 C0.9 139.82 3.4 139.76 4.71 140.47 C5.44 140.87 5.8 141.5 5.83 141.81 C5.87 142.42
						 4.55 141.72 2.95 141.54 C1.91 141.41 0.75 141.5 0.27 141.59 C-0.87 141.79 1.84 141.96 3.88 142.57 C8.88
						 144.08 9.78 148.29 10.22 148.6 C10.41 148.74 10.52 148.12 11.2 147.86 C12.91 147.21 18.3 148.84 21.7 147.14
						 Z" class="st7"/>
		</g>
		<g id="shape44-115" v:mID="44" v:groupContext="shape" transform="translate(104.146,-71.5431) scale(-1,1)">
			<title>Лист.44</title>
			<path d="M10.69 139.35 C8.38 136.82 8.55 137.53 9.5 139.32 C9.77 139.84 10.1 140.43 9.58 140.39 C8.88 140.33 6.6 139.09
						 5.36 138.55 C4.36 138.11 4.03 138.13 3.92 138.27 C3.72 138.51 4.2 139.13 5.25 140.13 C5.67 140.54 6.2 141.01
						 5.89 141.08 C5.47 141.18 3.48 140.51 2.63 140.45 C2.17 140.42 2.05 140.57 2.09 140.7 C2.18 140.94 2.87 141.08
						 3.65 141.65 C4.08 141.97 4.53 142.42 4.65 142.69 C4.9 143.22 3.83 143.04 2.47 142.85 C1.6 142.74 0.61 142.62
						 0.21 142.61 C-0.73 142.57 1.7 143.11 3.26 143.76 C7.1 145.36 5.71 147.67 9.88 148.35 C11.71 148.66 14.63
						 148.65 16.23 148.54 C20.25 148.27 15.92 147.41 10.69 139.35 Z" class="st8"/>
		</g>
		<g id="shape45-117" v:mID="45" v:groupContext="shape" transform="translate(84.9636,-71.3736)">
			<title>Лист.45</title>
			<path d="M0 147.72 C2.43 148.42 3.1 148.55 3.81 148.6 C6.75 148.79 10.61 147.49 13.06 145.02 C14.44 143.62 15.38 141.86
						 14.66 141.05 C13.81 140.09 10.66 140.44 8.67 141.24 C4.46 142.93 5.39 146.59 0 147.72 Z" class="st9"/>
		</g>
		<g id="shape46-121" v:mID="46" v:groupContext="shape" transform="translate(85.5305,-71.8605)">
			<title>Лист.46</title>
			<path d="M0 148.21 C0.87 148.51 1.8 148.58 2.71 148.6 C6.4 148.68 9.5 147.85 11.84 145.63 C13.16 144.38 14.24 142.69
						 13.62 141.86 C12.89 140.9 9.83 141.13 7.93 141.85 C3.92 143.37 5.1 147.08 0 148.21 Z" class="st10"/>
		</g>
		<g id="shape47-125" v:mID="47" v:groupContext="shape" transform="translate(81.2786,-71.1161)">
			<title>Лист.47</title>
			<path d="M0 148.51 C3.12 150.21 8.13 140.71 12.02 134.99 C18.19 125.94 21.54 126.4 24.38 128.1 C18.71 123 13.86 129.6
						 10.04 135.42 C5.81 141.87 2.83 147.38 0 148.51 Z" class="st11"/>
		</g>
		<g id="shape48-127" v:mID="48" v:groupContext="shape" transform="translate(84.9636,-54.1083)">
			<title>Лист.48</title>
			<path d="M0 138.4 C4.8 140.35 9.08 141.11 14.12 141.23 C16.2 141.28 18.42 141.22 19.84 140.24 C20.79 139.58 21.38 138.52
						 21.83 137.83 C22.32 142.53 18.98 146.59 16.16 148.6 C16.34 148.45 16.42 148.24 16.5 148.03 C17.13 146.42
						 17.63 145.54 17.57 143.5 C15.85 143.95 14.01 143.81 12.19 143.5 C7.44 142.69 2.87 140.69 0 138.4 Z"
					class="st12"/>
		</g>
		<g id="shape49-129" v:mID="49" v:groupContext="shape" transform="translate(56.6269,-70.0054) rotate(-3.42687) scale(-1,1)">
			<title>Лист.49</title>
			<path d="M0 147.84 C0.48 147.38 0.83 147.3 1.16 147.21 C5.03 146.09 5.92 142.29 7.21 139.27 C8.48 136.32 10.13 134.12
						 12.24 133.04 C13.28 132.51 14.42 132.25 15.6 131.84 C16.82 131.42 18.08 130.84 19.13 131.44 C20.83 132.41
						 21.99 136.5 22.13 139.66 C22.51 148.03 15.85 149.94 0 147.84 Z" class="st5"/>
		</g>
		<g id="shape50-131" v:mID="50" v:groupContext="shape" transform="translate(43.6427,-70.2121)">
			<title>Лист.50</title>
			<path d="M13.13 137.42 C10.3 134.3 5.81 134.74 6.86 135.23 C7.18 135.38 7.98 135.52 8.71 135.96 C9.61 136.5 10.39 137.49
						 10.28 137.71 C10.13 138 8.33 136.87 6.55 136.48 C5.12 136.16 3.7 136.32 3.37 136.5 C2.77 136.81 5.51 137.19
						 6.52 138.26 C6.94 138.69 7.06 139.25 6.68 139.35 C6.15 139.48 4.67 138.77 3.07 138.82 C2.2 138.86 1.3 139.12
						 1.16 139.28 C0.89 139.58 3.4 139.52 4.71 140.23 C5.44 140.63 5.8 141.26 5.82 141.57 C5.86 142.19 4.54 141.5
						 2.94 141.3 C1.91 141.17 0.76 141.24 0.28 141.33 C-0.86 141.55 1.74 141.84 3.53 142.49 C7.92 144.08 7.36
						 147.82 12.04 148.48 C14.1 148.77 17.19 148.46 19.31 148.4 C24.65 148.24 23.9 149.6 13.13 137.42 Z"
					class="st7"/>
		</g>
		<g id="shape51-133" v:mID="51" v:groupContext="shape" transform="translate(46.8878,-71.2169)">
			<title>Лист.51</title>
			<path d="M10.67 139.61 C8.37 137.07 5.69 136.29 6.59 137.07 C6.85 137.3 7.44 137.68 7.86 138.18 C8.39 138.8 8.68 139.62
						 8.41 139.83 C8.05 140.12 6.67 139.29 5.34 138.82 C4.28 138.44 3.25 138.29 2.99 138.38 C2.53 138.54 4.46
						 139.47 5.26 140.37 C5.59 140.73 5.74 141.1 5.43 141.18 C5 141.28 3.72 140.84 2.53 140.68 C1.88 140.59 1.26
						 140.58 1.17 140.66 C1 140.82 2.78 141.31 3.79 141.96 C4.34 142.31 4.66 142.72 4.7 142.96 C4.79 143.45 3.78
						 143.29 2.48 143.11 C1.65 143 0.69 142.89 0.27 142.87 C-0.73 142.83 1.26 143.33 2.66 143.98 C6.1 145.59 5.98
						 148.06 9.84 148.52 C11.54 148.71 14.01 148.52 15.72 148.5 C20.01 148.45 19.43 149.52 10.67 139.61 Z"
					class="st8"/>
		</g>
		<g id="shape52-135" v:mID="52" v:groupContext="shape" transform="translate(84.9636,-71.9665)">
			<title>Лист.52</title>
			<path d="M0 148.49 C0.87 148.4 1.36 148.49 1.98 148.54 C4.51 148.76 9.15 148.44 11.98 146.14 C13.56 144.85 14.58 142.94
						 13.94 142.01 C13.19 140.92 10.17 141.18 8.25 141.95 C4.21 143.55 5.1 147.36 0 148.49 Z" class="st10"/>
		</g>
		<g id="shape53-138" v:mID="53" v:groupContext="shape" transform="translate(66.8219,-70.1597) scale(-1,1)">
			<title>Лист.53</title>
			<path d="M0 147.64 C1.2 148.46 2.11 148.54 3.05 148.58 C6.93 148.75 11.59 148.25 13.88 145.6 C15.17 144.1 15.71 141.93
						 14.8 140.9 C13.72 139.7 10.64 140.08 8.71 140.96 C4.64 142.8 5.71 146.83 0 147.64 Z" class="st13"/>
		</g>
		<g id="shape54-141" v:mID="54" v:groupContext="shape" transform="translate(66.0656,-70.6103) scale(-1,1)">
			<title>Лист.54</title>
			<path d="M0 148.27 C0.87 148.57 1.69 148.59 2.56 148.6 C6.13 148.63 10.62 148.37 12.81 146.08 C14.04 144.8 14.54 142.87
						 13.66 141.94 C12.63 140.85 9.69 141.13 7.87 141.89 C4.02 143.47 5.1 147.14 0 148.27 Z" class="st10"/>
		</g>
		<g id="shape55-144" v:mID="55" v:groupContext="shape" transform="translate(67.9557,-71.2702) scale(-1,1)">
			<title>Лист.55</title>
			<path d="M0 148.1 C3.97 150.17 6.17 145.54 8.02 141.78 C10.96 135.82 13.04 132.03 17.86 131.46 C11.91 132.03 9.35 135.39
						 7.56 139.01 C5.58 143.02 4.54 147.34 0 148.1 Z" class="st11"/>
		</g>
		<g id="shape56-146" v:mID="56" v:groupContext="shape" transform="translate(65.1211,-50.9902) scale(-1,1)">
			<title>Лист.56</title>
			<path d="M0 134.71 C5.7 137.55 8.53 140.26 18.99 140.81 C21.03 140.92 23.35 140.95 22.5 143.78 C20.41 146.9 17.65 146.33
						 15.04 148.6 C15.87 146.05 17.09 145.2 19.28 142.65 C14.73 143.95 4.56 139.81 0 134.71 Z" class="st12"/>
		</g>
		<g id="shape57-148" v:mID="57" v:groupContext="shape" transform="translate(46.4658,-15.3566)">
			<title>Лист.57</title>
			<path d="M56.07 105.26 C51.74 106.95 48.19 111.6 45.99 114.74 C44.08 117.47 43.19 119.05 42.01 121.26 C40.67 123.79 38.94
						 127.14 37.7 130.29 C36.6 133.09 35.88 135.73 34.82 138.27 C34.12 139.94 33.28 141.56 31.47 142.27 C30.39
						 142.68 28.97 142.78 27.79 142.58 C23.91 141.95 22.62 138.23 20.57 133.88 C19.88 132.42 19.11 130.89 18.5
						 129.51 C17.84 128.01 17.37 126.69 16.5 124.93 C15.38 122.66 13.61 119.68 12.27 117.68 C10.74 115.38 9.79
						 114.38 8.25 112.85 C6.01 110.6 2.53 107.19 0 107.72 C10.72 117.5 12.12 121.56 14.91 129.09 C19.09 140.37
						 26.39 159.45 35.9 141.22 C39.83 133.68 39.06 121.75 56.07 105.26 Z" class="st14"/>
		</g>
		<g id="shape58-152" v:mID="58" v:groupContext="shape" transform="translate(65.5984,-43.4176)">
			<title>Лист.58</title>
			<path d="M0 134.22 C2.36 135.41 2.95 137.49 3.46 139.02 C4.2 141.23 4.78 142.31 5.97 143.62 C6.69 144.41 7.62 145.28
						 8.55 145.41 C9.95 145.6 11.32 144.11 12.34 142.23 C13.94 139.29 14.69 135.41 18.49 135.29 C16.25 137.11
						 16.35 137.44 16.1 138.37 C15.73 139.71 14.65 142.3 13.61 144.46 C13.12 145.49 12.63 146.43 11.85 147.15
						 C10.57 148.33 8.5 148.94 7.07 148.41 C5.26 147.73 4.47 145.23 3.6 143.47 C2.95 142.14 2.25 141.24 1.82 140.05
						 C1.36 138.75 1.22 137.11 0 134.22 Z" class="st15"/>
		</g>
		<g id="shape59-154" v:mID="59" v:groupContext="shape" transform="translate(68.5227,-77.6358)">
			<title>Лист.59</title>
			<path d="M0 142.93 C2.69 144.92 7.94 145.48 15.02 143.61 C10.77 145.48 9.64 144.35 7.09 148.6 C5.1 144.92 4.25 146.05
						 0 142.93 Z" class="st16"/>
		</g>
		<g id="shape60-156" v:mID="60" v:groupContext="shape" transform="translate(58.3179,-85.7954)">
			<title>Лист.60</title>
			<path d="M0 137.2 C10.77 149.67 24.38 153.93 34.02 140.32 C22.68 150.81 18.14 152.22 0 137.2 Z" class="st16"/>
		</g>
		<g id="shape61-158" v:mID="61" v:groupContext="shape" transform="translate(54.9164,-82.6944)">
			<title>Лист.61</title>
			<path d="M0 133.53 C13.61 152.24 28.63 153.38 40.82 138.07 C26.52 149.47 21.54 153.94 0 133.53 Z" class="st16"/>
		</g>
		<g id="shape62-160" v:mID="62" v:groupContext="shape" transform="translate(73.5718,-47.5886)">
			<title>Лист.62</title>
			<path d="M1.15 127.56 C0.05 129.61 -0.51 147.18 0.62 148.6 C1.75 148.32 2.32 129.04 1.15 127.56 Z" class="st17"/>
		</g>
		<g id="shape63-162" v:mID="63" v:groupContext="shape" transform="translate(223.107,111.287) rotate(-86.0351) scale(1,-1)">
			<title>Лист.63</title>
			<path d="M0 148.6 C1.31 147.43 1.28 147.35 1.29 147.26 C1.36 146.21 5.83 144.88 7.49 143.51 C9.12 142.16 8.06 140.78
						 9.26 139.61 C9.85 139.03 10.98 138.51 11.78 138.17 C12.61 137.81 13.08 137.65 13.7 137.69 C14.71 137.77
						 16.1 138.39 16.64 139.23 C18.07 141.43 13.6 145.1 0 148.6 Z" class="st18"/>
		</g>
		<g id="shape64-164" v:mID="64" v:groupContext="shape" transform="translate(-74.5266,111.182) rotate(-93.9649)">
			<title>Лист.64</title>
			<path d="M0 148.6 C2.39 146.12 7.28 144.71 9.04 142.32 C9.45 141.77 9.69 141.16 10.4 140.58 C11.15 139.98 12.4 139.41
						 13.35 139.27 C14.88 139.05 15.6 139.98 15.64 141 C15.74 143.69 11.09 147 0 148.6 Z" class="st18"/>
		</g>
		<g id="shape65-166" v:mID="65" v:groupContext="shape" transform="translate(54.9164,-83.9075)">
			<title>Лист.65</title>
			<path d="M0 133.05 C13.61 151.19 29.2 154.87 40.82 137.58 C27.34 150.4 17.78 150.8 0 133.05 Z" class="st19"/>
		</g>
		<g id="shape66-168" v:mID="66" v:groupContext="shape" transform="translate(63.5611,-81.4842)">
			<title>Лист.66</title>
			<path d="M0 141.73 C2.69 149.05 17.15 152.45 26.58 142.58 C17.72 149.61 9.64 148.45 0 141.73 Z" class="st19"/>
		</g>
		<g id="shape67-170" v:mID="67" v:groupContext="shape" transform="translate(63.5186,-51.2266) scale(-1,1)">
			<title>Лист.67</title>
			<path d="M0 136.51 C5.43 138.73 7.79 141.26 16.37 141.67 C18.04 141.75 19.94 141.75 20.35 143.31 C19.24 145.75 16.82
						 145.72 13.52 148.6 C14.27 145.15 17.67 143.73 17.52 142.92 C13.81 144.55 4.41 140.4 0 136.51 Z"
					class="st12"/>
		</g>
		<g id="shape68-172" v:mID="68" v:groupContext="shape" transform="translate(61.4795,-52.2549) scale(-1,1)">
			<title>Лист.68</title>
			<path d="M0 139.11 C4.01 141.08 6.84 143.1 14 143.09 C15.39 143.09 16.94 143.01 17.62 144.48 C16.86 146.1 15.09 146.2
						 11.92 148.6 C13.14 146.36 15.9 144.55 15.63 143.91 C12.2 145.23 4.01 141.93 0 139.11 Z" class="st20"/>
		</g>
		<g id="shape69-174" v:mID="69" v:groupContext="shape" transform="translate(79.8332,-56.6534)">
			<title>Лист.69</title>
			<path d="M0.19 148.41 C-0.34 147.18 0.31 145.69 1.24 144.5 C2 143.52 2.95 142.74 3.72 142.31 C4.82 141.71 5.54 141.85
						 5.74 144.14 C5.9 146.05 5.7 149.44 0.19 148.41 Z" class="st17"/>
		</g>
		<g id="shape70-176" v:mID="70" v:groupContext="shape" transform="translate(80.145,-57.1963)">
			<title>Лист.70</title>
			<path d="M0.16 148.44 C-0.28 147.41 0.26 146.17 1.03 145.18 C1.67 144.35 2.47 143.7 3.11 143.35 C4.03 142.84 4.63 142.96
						 4.79 144.88 C4.93 146.47 4.76 149.31 0.16 148.44 Z" class="st21"/>
		</g>
		<g id="shape71-178" v:mID="71" v:groupContext="shape" transform="translate(80.7478,-58.2003)">
			<title>Лист.71</title>
			<path d="M0.13 148.47 C-0.23 147.63 0.21 146.61 0.84 145.8 C1.37 145.13 2.02 144.6 2.54 144.31 C3.29 143.89 3.78 143.99
						 3.92 145.56 C4.03 146.86 3.89 149.18 0.13 148.47 Z" class="st21"/>
		</g>
		<g id="shape72-180" v:mID="72" v:groupContext="shape" transform="translate(69.3731,-57.5098) scale(-1,1)">
			<title>Лист.72</title>
			<path d="M0.15 148.45 C-0.26 147.5 0.24 146.35 0.96 145.43 C1.55 144.66 2.29 144.06 2.88 143.73 C3.73 143.26 4.29 143.37
						 4.44 145.15 C4.56 146.62 4.41 149.25 0.15 148.45 Z" class="st17"/>
		</g>
		<g id="shape73-182" v:mID="73" v:groupContext="shape" transform="translate(69.1317,-57.9302) scale(-1,1)">
			<title>Лист.73</title>
			<path d="M0.12 148.48 C-0.22 147.68 0.2 146.72 0.8 145.95 C1.29 145.31 1.91 144.81 2.4 144.54 C3.12 144.14 3.58 144.23
						 3.71 145.72 C3.81 146.95 3.68 149.15 0.12 148.48 Z" class="st21"/>
		</g>
		<g id="shape74-184" v:mID="74" v:groupContext="shape" transform="translate(68.665,-58.7074) scale(-1,1)">
			<title>Лист.74</title>
			<path d="M0.1 148.5 C-0.18 147.85 0.17 147.06 0.65 146.43 C1.06 145.91 1.56 145.5 1.97 145.28 C2.55 144.96 2.93 145.03
						 3.03 146.24 C3.12 147.25 3.01 149.05 0.1 148.5 Z" class="st21"/>
		</g>
		<g id="shape75-186" v:mID="75" v:groupContext="shape" transform="translate(54.9164,-84.665)">
			<title>Лист.75</title>
			<path d="M0 133.89 C14.74 151.38 29.48 153.65 40.16 138.77 C21.45 157.47 10.73 142.92 0 133.89 Z" class="st22"/>
		</g>
		<g id="shape76-188" v:mID="76" v:groupContext="shape" transform="translate(84.9636,-61.6443)">
			<title>Лист.76</title>
			<path d="M15.31 141.96 C8.5 141.4 4.54 142.53 0 145.93 C1.92 147.27 21.66 151.64 21.45 145.08 C21.52 144.54 19.84 142.53
						 15.31 141.96 Z" class="st23"/>
		</g>
		<g id="shape77-192" v:mID="77" v:groupContext="shape" transform="translate(64.5087,-58.8822) scale(-1,1)">
			<title>Лист.77</title>
			<path d="M18.1 141.47 C7.89 141.47 6.19 142.04 0 142.2 C1.09 144.25 20.22 153.42 24.33 145.44 C25.47 141.47 24.37 141.3
						 18.1 141.47 Z" class="st23"/>
		</g>
		<g id="shape78-195" v:mID="78" v:groupContext="shape" transform="translate(75.5715,-18.4619)">
			<title>Лист.78</title>
			<path d="M0.6 147.25 C1.66 146.42 3.44 145.84 5.42 144.13 C6.27 144.99 3.34 147.8 1.81 148.44 C1.21 148.69 0.83 148.6
						 0.51 148.48 C-0.01 148.26 -0.35 147.94 0.6 147.25 Z" class="st24"/>
		</g>
		<g id="shape79-199" v:mID="79" v:groupContext="shape" transform="translate(72.1276,-17.9665)">
			<title>Лист.79</title>
			<path d="M0.09 145.55 C0.45 145.17 3.06 145.6 2.67 146.49 C2.79 149.34 1.22 148.68 0.44 148.08 C0.07 147.8 -0.12 147.54
						 0.09 145.55 Z" class="st25"/>
		</g>
		<g id="shape80-203" v:mID="80" v:groupContext="shape" transform="translate(88.1549,-54.5162)">
			<title>Лист.80</title>
			<path d="M0 139.95 C3.88 141.14 7.43 141.62 11.94 141.78 C13.81 141.85 15.85 141.87 17.04 141.03 C17.83 140.48 18.26
						 139.55 18.14 139.02 C17.81 143.15 15.52 145.89 13.24 148.6 C13.74 147.36 14.95 145.75 14.38 143.91 C6 143.24
						 2.21 141.43 0 139.95 Z" class="st12"/>
		</g>
		<g id="shape81-205" v:mID="81" v:groupContext="shape" transform="translate(68.5227,-68.3899)">
			<title>Лист.81</title>
			<path d="M7.65 142.47 C8.5 144.46 7.94 143.61 8.5 144.46 C9.07 145.08 9.35 145.59 11.34 142.76 C10.77 145.87 11.34 145.02
						 12.6 145.49 C11.62 145.87 11.91 146.16 10.77 148.14 C13.04 145.31 11.64 145.92 10.92 146.24 C9.65 146.81
						 10.49 146.44 9.26 148.6 C9.07 147.29 8.65 147.24 8.39 147.11 C7.94 146.89 7.94 146.44 6.52 146.72 C5.67
						 146.44 5.38 146.37 5.09 146.44 C4.81 146.52 4.54 146.72 4.54 148.43 C3.12 146.44 3.59 146.44 2.42 145.98
						 C1.76 145.72 0.57 145.31 1.98 147.57 C0.85 146.72 1.62 145.87 0 147.01 C0.43 146.47 1.13 145.59 0.13 145.12
						 C0.24 145.17 0.45 145.19 0.59 145.17 C1.21 145.12 0.57 144.46 0.57 143.89 C1.13 145.02 2.79 146.72 2.55
						 143.89 C3.73 144.85 3.97 144.17 2.27 139.92 C5.95 144.74 6.55 144.34 7.65 142.47 Z" class="st6"/>
		</g>
		<g id="shape82-207" v:mID="82" v:groupContext="shape" transform="translate(65.9986,-70.7681) scale(-1,1)">
			<title>Лист.82</title>
			<path d="M0 148.29 C0.75 148.6 1.42 148.6 2.16 148.6 C5.15 148.61 9.06 148.6 11.78 146.39 C13.31 145.14 14.46 143.2 13.82
						 142.21 C13.07 141.05 9.84 141.21 7.85 141.93 C3.65 143.47 4.98 147.55 0 148.29 Z" class="st10"/>
		</g>
		<g id="shape83-210" v:mID="83" v:groupContext="shape" transform="translate(51.7983,-70.5543)">
			<title>Лист.83</title>
			<path d="M14.42 148.26 C9.2 147.1 10.31 143.35 6.38 141.73 C4.51 140.97 1.51 140.68 0.45 141.79 C-0.44 142.74 0.07 144.71
						 1.32 146.03 C3.56 148.36 8.15 148.63 11.8 148.6 C12.7 148.59 13.54 148.57 14.42 148.26 ZM12.77 148.01 C12.01
						 148.23 11.3 148.22 10.55 148.19 C7.46 148.08 3.59 147.68 1.79 145.62 C0.78 144.46 0.42 142.77 1.22 142 C2.15
						 141.1 4.68 141.46 6.22 142.18 C9.49 143.7 8.41 146.83 12.77 148.01 Z" class="st26"/>
		</g>
		<g id="shape84-214" v:mID="84" v:groupContext="shape" transform="translate(99.4203,-71.9876) scale(-1,1)">
			<title>Лист.84</title>
			<path d="M13.76 148.27 C9.1 147.24 10.14 144.06 6.5 142.18 C4.5 141.24 1.18 140.84 0.16 141.96 C-0.35 142.57 0.41 144.3
						 1.8 145.6 C3.96 148.1 8.23 148.79 11.42 148.57 C12.22 148.56 12.97 148.54 13.76 148.27 ZM12.29 148.04 C11.61
						 148.24 10.97 148.23 10.3 148.21 C7.73 148.6 3.7 146.84 2.5 145.45 C1.96 145.15 -0.17 142.75 1.04 142.04
						 C1.57 141.46 5.48 141.8 6.44 142.84 C9.36 144.2 8.39 146.99 12.29 148.04 Z" class="st26"/>
		</g>
		<g id="shape85-217" v:mID="85" v:groupContext="shape" transform="translate(30.26,195.364) rotate(-170)">
			<title>Лист.85</title>
			<path d="M0 145.97 C4.75 150.24 8.6 149.27 12.18 143.46 C8.21 147.03 6.32 149.38 0 145.97 Z" class="st16"/>
		</g>
		<g id="shape86-219" v:mID="86" v:groupContext="shape" transform="translate(30.9118,197.467) rotate(-170)">
			<title>Лист.86</title>
			<path d="M0 145.79 C5.05 150.34 9.16 149.31 12.97 143.12 C8.74 146.93 6.73 149.43 0 145.79 Z" class="st16"/>
		</g>
		<g id="shape87-221" v:mID="87" v:groupContext="shape" transform="translate(33.6855,193.739) rotate(-170)">
			<title>Лист.87</title>
			<path d="M0 144.19 C6.25 149.92 11.61 150.54 15.41 143.23 C11.39 147.7 7.58 148.95 0 144.19 Z" class="st16"/>
		</g>
		<g id="shape88-223" v:mID="88" v:groupContext="shape" transform="translate(-12.4309,195.785) rotate(-150)">
			<title>Лист.88</title>
			<path d="M0 144.54 C7.01 150.23 12.84 150.14 17.45 143.38 C15.43 146.68 8.93 148.47 0 144.54 Z" class="st19"/>
		</g>
		<g id="shape89-225" v:mID="89" v:groupContext="shape" transform="translate(155.336,196.472) rotate(-30) scale(1,-1)">
			<title>Лист.89</title>
			<path d="M0 139.64 C15.4 148.14 26.03 151.82 25.86 145.23 C23.56 148.67 18.91 147.42 0 139.64 Z" class="st19"/>
		</g>
		<g id="shape90-227" v:mID="90" v:groupContext="shape" transform="translate(-14.5101,182.671) rotate(-150)">
			<title>Лист.90</title>
			<path d="M0 146.64 C10.79 149.6 12.7 146.59 14.34 140.25 C15.24 145.89 10.8 151.89 0 146.64 Z" class="st19"/>
		</g>
		<g id="shape91-229" v:mID="91" v:groupContext="shape" transform="translate(-13.0449,181.386) rotate(-150)">
			<title>Лист.91</title>
			<path d="M0 145.64 C12.67 150.32 14.55 146.51 16.2 140.17 C15.72 146.02 11.58 152.57 0 145.64 Z" class="st19"/>
		</g>
		<g id="shape92-231" v:mID="92" v:groupContext="shape" transform="translate(75.0424,-49.7632)">
			<title>Лист.92</title>
			<path d="M0 148.6 C1.42 137.74 1.3 133.49 1.44 132.76 C1.55 132.15 1.83 133.96 2.89 134.09 C4.41 134.28 7.54 130.99 7.04
						 132.57 C6.62 133.89 3.69 138.59 0 148.6 Z" class="st21"/>
		</g>
		<g id="shape93-233" v:mID="93" v:groupContext="shape" transform="translate(73.5193,-49.9171) scale(-1,1)">
			<title>Лист.93</title>
			<path d="M0 148.6 C-0.11 137.04 0.86 133.72 1.24 133.24 C1.56 132.85 1.48 134.4 2.31 134.52 C3.5 134.69 6.59 131.88 6.08
						 133.26 C5.65 134.41 2.73 138.46 0 148.6 Z" class="st21"/>
		</g>
		<g id="shape94-235" v:mID="94" v:groupContext="shape" transform="translate(68.7658,-45.7537)">
			<title>Лист.94</title>
			<path d="M0 140.95 C4.01 147.62 4.86 152.15 10.92 141.72 C7.41 150.17 3.66 151.88 0 140.95 Z" class="st19"/>
		</g>
		<g id="shape95-237" v:mID="95" v:groupContext="shape" transform="translate(69.94,-47.5886)">
			<title>Лист.95</title>
			<path d="M0 142.86 C3.09 146.64 3.69 148.53 5.39 147.32 C6.15 146.79 7.12 145.65 9.09 142.37 C8.03 145.12 6.82 147.59
						 4.58 148.47 C4.15 148.64 3.69 148.74 3.04 148.14 C2.33 147.5 1.39 146.02 0 142.86 Z" class="st27"/>
		</g>
		<g id="shape96-239" v:mID="96" v:groupContext="shape" transform="translate(85.3253,232.375) rotate(180)">
			<title>Лист.96</title>
			<path d="M0 147.89 C2.63 147.8 4.33 145.82 6.99 140.25 C5.46 146.39 3.2 150.36 0 147.89 Z" class="st6"/>
		</g>
		<g id="shape97-241" v:mID="97" v:groupContext="shape" transform="translate(62.6526,232.209) scale(1,-1)">
			<title>Лист.97</title>
			<path d="M0 146.21 C3.78 148.39 5.02 146.79 8.14 140.84 C6.15 147.07 4.45 151.61 0 146.21 Z" class="st6"/>
		</g>
		<g id="shape98-243" v:mID="98" v:groupContext="shape" transform="translate(49.1584,240.98) scale(1,-1)">
			<title>Лист.98</title>
			<path d="M0 148.19 C11.71 149.04 14.91 144.98 20.87 139.63 C15.96 146.2 9.73 149.89 0 148.19 Z" class="st6"/>
		</g>
		<g id="shape99-245" v:mID="99" v:groupContext="shape" transform="translate(98.834,240.73) rotate(180)">
			<title>Лист.99</title>
			<path d="M0 148.6 C9.33 147.37 11.39 144.05 20.75 138.68 C14.72 143.83 7.92 148.91 0 148.6 Z" class="st6"/>
		</g>
		<g id="shape100-247" v:mID="100" v:groupContext="shape" transform="translate(81.8788,-72.3592) rotate(-2)">
			<title>Лист.100</title>
			<path d="M0 148.52 C0.7 148.44 1.1 148.51 1.6 148.55 C3.64 148.73 7.38 148.47 9.66 146.65 C10.94 145.63 11.75 144.12
						 11.24 143.38 C10.64 142.52 8.2 142.73 6.65 143.33 C3.39 144.6 4.11 147.62 0 148.52 Z" class="st10"/>
		</g>
		<g id="shape101-250" v:mID="101" v:groupContext="shape" transform="translate(69.001,-71.2253) rotate(2) scale(-1,1)">
			<title>Лист.101</title>
			<path d="M0 148.52 C0.7 148.44 1.1 148.51 1.6 148.55 C3.64 148.73 7.38 148.47 9.66 146.65 C10.94 145.63 11.75 144.12
						 11.24 143.38 C10.64 142.52 8.2 142.73 6.65 143.33 C3.39 144.6 4.11 147.62 0 148.52 Z" class="st10"/>
		</g>
		<g id="shape102-253" v:mID="102" v:groupContext="shape" transform="translate(50.2217,241.306) scale(1,-1)">
			<title>Лист.102</title>
			<path d="M0 148.5 C10.7 146.71 15.94 143.15 20.11 139.44 C14.33 146.25 6.96 149.37 0 148.5 Z" class="st6"/>
		</g>
		<g id="shape103-255" v:mID="103" v:groupContext="shape" transform="translate(98.4103,241.214) rotate(180)">
			<title>Лист.103</title>
			<path d="M0 148.6 C8.16 146.01 12.73 142.27 20.71 138.6 C13.05 143.62 6.08 148.71 0 148.6 Z" class="st6"/>
		</g>
		<g id="shape104-257" v:mID="104" v:groupContext="shape" transform="translate(82.8953,-20.8737) scale(-1,1)">
			<title>Лист.104</title>
			<path d="M0 139.19 C5.3 151.08 9.84 150.23 16.07 138.89 C10.97 154.48 1.05 148.81 0 139.19 Z" class="st6"/>
		</g>
		<g id="shape105-259" v:mID="105" v:groupContext="shape" transform="translate(85.5598,-15.3323) scale(-1,1)">
			<title>Лист.105</title>
			<path d="M0 132.19 C8.53 151.92 11.65 152.91 22.52 133.44 C14.36 155.95 5.13 151.78 0 132.19 Z" class="st27"/>
		</g>
		<g id="shape106-261" v:mID="106" v:groupContext="shape" transform="translate(198.259,149.19) rotate(115)">
			<title>Лист.106</title>
			<path d="M0 148.38 C1.87 148.42 3.57 146.44 3.87 144.57 C3.95 146.62 1.21 149.46 0 148.38 Z" class="st8"/>
		</g>
		<g id="shape107-263" v:mID="107" v:groupContext="shape" transform="translate(-47.9644,149.431) rotate(65) scale(1,-1)">
			<title>Лист.107</title>
			<path d="M0 148.36 C1.87 148.41 3.57 146.42 4.37 143.48 C4.4 146.81 1.21 149.45 0 148.36 Z" class="st8"/>
		</g>
		<g id="shape108-265" v:mID="108" v:groupContext="shape" transform="translate(156.585,193.431) rotate(-30) scale(1,-1)">
			<title>Лист.108</title>
			<path d="M0 140.33 C14.89 149.45 22.86 151.56 23.98 144.01 C21.47 150.95 16.26 148.72 0 140.33 Z" class="st19"/>
		</g>
		<g id="shape109-267" v:mID="109" v:groupContext="shape" transform="translate(67.5216,-44.8901)">
			<title>Лист.109</title>
			<path d="M0 137.4 C1.15 138.48 1.48 140.25 1.89 141.56 C2.47 143.44 3.21 144.36 4.22 145.42 C4.83 146.06 5.55 146.75
						 6.37 146.91 C7.6 147.15 9.08 146.2 10.09 144.8 C11.66 142.6 12.09 139.28 14.06 137.76 C12.91 140.44 13.02
						 140.39 12.79 141.04 C12.46 141.96 11.43 144.33 10.38 145.83 C9.87 146.55 9.37 147.08 8.76 147.54 C7.78 148.28
						 6.54 148.85 5.52 148.5 C4.23 148.05 3.3 146.13 2.5 144.6 C1.91 143.44 1.39 142.51 1.03 141.65 C0.64 140.72
						 0.43 139.88 0 137.4 Z" class="st15"/>
		</g>
		<g id="shape110-269" v:mID="110" v:groupContext="shape" transform="translate(81.3431,-59.2129)">
			<title>Лист.110</title>
			<path d="M0.1 148.5 C-0.18 147.85 0.17 147.06 0.65 146.43 C1.06 145.91 1.56 145.5 1.97 145.27 C2.55 144.95 2.93 145.03
						 3.04 146.24 C3.12 147.25 3.02 149.05 0.1 148.5 Z" class="st28"/>
		</g>
		<g id="shape111-271" v:mID="111" v:groupContext="shape" transform="translate(68.5227,-58.8939) scale(-1,1)">
			<title>Лист.111</title>
			<path d="M0.09 148.51 C-0.17 147.9 0.15 147.17 0.61 146.59 C0.98 146.1 1.45 145.72 1.83 145.51 C2.37 145.21 2.72 145.28
						 2.82 146.41 C2.9 147.35 2.8 149.02 0.09 148.51 Z" class="st28"/>
		</g>
		<g id="shape112-273" v:mID="112" v:groupContext="shape" transform="translate(48.5941,-49.4606)">
			<title>Лист.112</title>
			<path d="M0 142.12 C9.16 140.69 15.49 143.82 19.63 148.6 C17.09 142.82 15.39 140.55 13.09 136.18 C9.96 138.11 6.84 140.15
						 0 142.12 Z" class="st29"/>
		</g>
		<g id="shape113-277" v:mID="113" v:groupContext="shape" transform="translate(101.701,-48.0651) scale(-1,1)">
			<title>Лист.113</title>
			<path d="M0 138.34 C8.32 142.59 6.84 136.97 21.84 148.6 C19.2 140.26 13.9 140.86 13.51 134.43 C9.37 137.45 13.34 135.75
						 0 138.34 Z" class="st29"/>
		</g>
		<g id="shape115-280" v:mID="115" v:groupContext="shape" transform="translate(32.5855,-67.4822)">
			<title>Лист.115</title>
			<path d="M41.67 130.46 C72.57 111.18 77.11 117.14 71.44 146.62 C91.85 97.01 62.08 82.84 43.09 82.84 C13.89 82.84 -13.89
						 98.43 7.66 148.6 C5.67 135.84 3.41 124.51 10.49 111.18 C33.17 117.7 41.53 130.5 41.67 130.46 Z"
					class="st30"/>
		</g>
		<g id="shape116-282" v:mID="116" v:groupContext="shape" transform="translate(74.0424,-85.877)">
			<title>Лист.116</title>
			<path d="M0 148.6 C0.31 145.8 0.65 106.02 0.5 102.08 C12.41 100.38 42.45 109.45 34.52 145.17 C31.68 127.59 5.04 143.47
						 0 148.6 Z" class="st31"/>
		</g>
		<g id="shape117-286" v:mID="117" v:groupContext="shape" transform="translate(74.8264,-86.1159)">
			<title>Лист.117</title>
			<path d="M0 148.6 C11.62 135.58 33.61 130.13 33.13 143.01 C29.76 132.17 11.19 138.98 0 148.6 Z" class="st32"/>
		</g>
		<g id="shape118-290" v:mID="118" v:groupContext="shape" transform="translate(95.6879,-102.142)">
			<title>Лист.118</title>
			<path d="M0 123.5 C10.58 138.26 5.5 140.17 14.16 148.6 C12.02 133.37 7.82 129.38 0 123.5 Z" class="st33"/>
		</g>
		<g id="shape119-294" v:mID="119" v:groupContext="shape" transform="translate(69.9932,-90.627) scale(-1,1)">
			<title>Лист.119</title>
			<path d="M0 148.6 C4.71 141.85 8.96 138.45 18.49 137.03 C9.99 140.93 9.71 140.37 0 148.6 Z" class="st32"/>
		</g>
		<g id="shape120-297" v:mID="120" v:groupContext="shape" transform="translate(96.9363,161.731) rotate(165)">
			<title>Лист.120</title>
			<path d="M0 148.6 C9.68 148.29 21.03 146.63 29.01 133.78 C17.07 144.47 12.45 145.19 0 148.6 Z" class="st34"/>
		</g>
		<g id="shape121-301" v:mID="121" v:groupContext="shape" transform="translate(49.5934,-55.2932) scale(-1,1)">
			<title>Лист.121</title>
			<path d="M10.71 96.73 C8.16 91.88 -2.55 87.16 0.56 79.79 C13.04 58.81 86.17 62.14 24.09 148.6 C40.82 98.99 20.12 80.07
						 10.71 96.73 Z" class="st35"/>
		</g>
		<g id="shape122-305" v:mID="122" v:groupContext="shape" transform="translate(80.7745,-19.8602)">
			<title>Лист.122</title>
			<path d="M16.41 54.1 C9.51 50.29 1.27 45.85 0 35.71 C4.54 5.17 90.71 6.87 39.69 148.6 C52.84 55.82 26.93 35.47 16.41
						 54.1 Z" class="st35"/>
		</g>
		<g id="shape123-308" v:mID="123" v:groupContext="shape" transform="translate(160.592,-71.5463) rotate(10) scale(-1,1)">
			<title>Лист.123</title>
			<path d="M0 148.6 C2.96 145.76 8.18 145.98 11.24 147.83 C12.17 144.01 13.1 139.79 14.02 137.35 C9.69 133.7 4.3 133 1.01
						 134.05 C0.4 140.53 0.25 142.78 -0 148.6 Z" class="st36"/>
		</g>
		<g id="shape124-310" v:mID="124" v:groupContext="shape" transform="translate(-9.98893,-78.9226) rotate(-50) scale(-1,1)">
			<title>Лист.124</title>
			<path d="M0 128.8 C0.64 139.74 3.96 143.27 13.55 148.6 C16.61 148.36 16.17 148.32 18.94 140.01 C17.42 133.84 15.49 131.9
						 14.16 130.39 C7.14 126.69 3.27 128.13 0 128.8 Z" class="st36"/>
		</g>
		<g id="shape125-312" v:mID="125" v:groupContext="shape" transform="translate(84.1353,-107.14) rotate(-20) scale(-1,1)">
			<title>Лист.125</title>
			<path d="M0.41 148.6 C7.97 144.69 13.78 143.09 17.56 145.09 C18.61 141.65 20.52 138.07 24.1 133.67 C16.82 124.23 13.52
						 121.81 3.84 121.4 C1.5 127.52 -1 134.94 0.41 148.6 Z" class="st36"/>
		</g>
		<g id="shape126-314" v:mID="126" v:groupContext="shape" transform="translate(141.736,-34.9223) rotate(5) scale(-1,1)">
			<title>Лист.126</title>
			<path d="M3 148.6 C3.9 147.56 4.51 147.04 6.34 147.22 C6.11 142.26 6.35 138.95 6.32 134.09 C5.91 133.08 2.68 131.94 -0
						 132.91 C1.05 138.93 1.5 141.32 3 148.6 Z" class="st36"/>
		</g>
		<g id="shape127-316" v:mID="127" v:groupContext="shape" transform="translate(124.767,-84.5163) scale(-1,1)">
			<title>Лист.127</title>
			<path d="M1.45 148.6 C2.61 134.45 5.72 104.69 38.95 110.39 C2.04 97.04 -3.24 137.66 1.45 148.6 Z" class="st37"/>
		</g>
		<g id="shape128-318" v:mID="128" v:groupContext="shape" transform="translate(110.257,-90.9164) scale(-1,1)">
			<title>Лист.128</title>
			<path d="M0 148.6 C3.4 144.25 7.37 131.22 18.7 141.69 C12.05 128.24 0.48 141.98 0 148.6 Z" class="st37"/>
		</g>
		<g id="shape129-320" v:mID="129" v:groupContext="shape" transform="translate(74.5259,-39.7027)">
			<title>Лист.129</title>
			<path d="M16.98 90.56 C7.95 91.91 -0.08 81.01 0 72.4 C18.15 51.94 77.68 64.69 31.76 148.6 C49.33 95.87 26.09 74.9 16.98
						 90.56 Z" class="st35"/>
		</g>
		<g id="shape130-323" v:mID="130" v:groupContext="shape" transform="translate(38.4606,-106.858) rotate(15)">
			<title>Лист.130</title>
			<path d="M0.86 148.6 C9.44 143.36 12.65 143.22 21.71 145.75 C20.92 138.64 20.96 138.19 21.15 133.19 C14.17 130.36 7.86
						 130.88 1.57 133.39 C-0.24 140.09 -0.49 141.33 0.86 148.6 Z" class="st36"/>
		</g>
		<g id="shape131-325" v:mID="131" v:groupContext="shape" transform="translate(6.81054,-76.9451)">
			<title>Лист.131</title>
			<path d="M4.91 148.6 C8.06 145.59 9.62 145.59 13.03 146.61 C12.6 142.43 12.47 140.55 12.37 137.42 C9.9 135.67 3.1 135.95
						 -0 138.6 C0.83 141.06 1.96 144.46 4.91 148.6 Z" class="st36"/>
		</g>
		<g id="shape132-327" v:mID="132" v:groupContext="shape" transform="translate(20.113,-102.538)">
			<title>Лист.132</title>
			<path d="M1.39 148.6 C1.24 134.26 4.64 124.91 13.87 116.34 C4.64 115.83 -3.3 137.66 1.39 148.6 Z" class="st37"/>
		</g>
		<g id="shape133-329" v:mID="133" v:groupContext="shape" transform="translate(35.7251,-75.8679)">
			<title>Лист.133</title>
			<path d="M1.32 148.6 C0.93 129.86 5.7 104.3 18.9 117.07 C5.93 98.03 -3.6 133.26 1.32 148.6 Z" class="st37"/>
		</g>
		<g id="shape134-331" v:mID="134" v:groupContext="shape" transform="translate(74.065,-17.0255) scale(-1,1)">
			<title>Лист.134</title>
			<path d="M19.3 58.47 C13.13 55.06 1.79 49.39 0 33.89 C13.13 1.2 94.77 23.88 24.47 148.6 C51.89 60.01 28.72 41.8 19.3
						 58.47 Z" class="st35"/>
		</g>
		<g id="shape135-334" v:mID="135" v:groupContext="shape" transform="translate(73.9379,-16.5492) scale(-1,1)">
			<title>Лист.135</title>
			<path d="M19.3 58.47 C13.13 55.06 1.79 49.39 0 33.89 C13.13 1.2 94.77 23.88 24.47 148.6 C51.89 60.01 28.72 41.8 19.3
						 58.47 Z" class="st38"/>
		</g>
		<g id="shape136-336" v:mID="136" v:groupContext="shape" transform="translate(24.9588,-62.8207)">
			<title>Лист.136</title>
			<path d="M3.68 148.6 C8.19 144.51 9.33 145.64 13.33 146.69 C12.29 140.03 12.17 138.16 12.07 135.03 C9.6 133.28 2.79 133.56
						 -0 136.07 C0.53 138.66 1.66 142.06 3.68 148.6 Z" class="st36"/>
		</g>
		<g id="shape137-338" v:mID="137" v:groupContext="shape" transform="translate(67.9799,-86.4636) rotate(20)">
			<title>Лист.137</title>
			<path d="M4.9 148.6 C11.26 144.37 14.05 144.57 19.84 145.57 C18.13 138 18.06 137.48 17.68 132.61 C11.16 131.01 7.75 130.57
						 -0 135.56 C0.62 139.19 2.32 142.57 4.9 148.6 Z" class="st36"/>
		</g>
		<g id="shape138-340" v:mID="138" v:groupContext="shape" transform="translate(99.1278,-104.168) rotate(30)">
			<title>Лист.138</title>
			<path d="M0 144.32 C12.33 137.44 15.61 141.45 23.6 148.6 C25.5 147 24.94 147.33 27.27 146.45 C24.19 131.9 12.48 122.95
						 3.52 127.26 C1.21 133.13 0.02 135.38 -0 144.32 Z" class="st36"/>
		</g>
		<g id="shape139-342" v:mID="139" v:groupContext="shape" transform="translate(74.8168,-84.8788) rotate(-20) scale(-1,1)">
			<title>Лист.139</title>
			<path d="M2.5 148.6 C5.84 146.17 11.65 144.57 15.43 146.57 C15.14 143.5 16.07 137.94 17.12 136.13 C11.94 133.09 7.77
						 131.59 -0 134.07 C0.22 139.11 0.54 141.32 2.5 148.6 Z" class="st36"/>
		</g>
		<g id="shape140-344" v:mID="140" v:groupContext="shape" transform="translate(37.6361,-90.9182) rotate(-30) scale(-1,1)">
			<title>Лист.140</title>
			<path d="M0 134.8 C7.16 136.46 9.52 137.37 16.74 148.4 C19.8 148.15 19.36 148.11 21.78 148.6 C17.09 139.69 11.08 131.17
						 13.52 125.89 C6.68 129.02 5.3 129.47 -0 134.8 Z" class="st36"/>
		</g>
		<g id="shape141-346" v:mID="141" v:groupContext="shape" transform="translate(132.097,-57.9498) rotate(5) scale(-1,1)">
			<title>Лист.141</title>
			<path d="M3.66 148.6 C4.5 147.11 6.27 146.41 7.78 147.27 C7.55 142.31 7.54 138.82 7.76 134.14 C7.35 133.13 4.12 131.99
						 -0 133.92 C1.08 139.12 1.7 141.65 3.66 148.6 Z" class="st36"/>
		</g>
	</g>
</svg>
