<?xml version="1.0" encoding="UTF-8" standalone="no"?>
<!DOCTYPE svg PUBLIC "-//W3C//DTD SVG 1.0//EN" "http://www.w3.org/TR/2001/REC-SVG-20010904/DTD/svg10.dtd">
<!-- Создано Microsoft Visio 11.0, Экспорт SVG, версия 1.0 jockers-red0.svg Страница-1 -->
<svg xmlns="http://www.w3.org/2000/svg" xmlns:xlink="http://www.w3.org/1999/xlink" xmlns:ev="http://www.w3.org/2001/xml-events"
		xmlns:v="http://schemas.microsoft.com/visio/2003/SVGExtensions/" width="1.90817in" height="1.92213in"
		viewBox="0 0 137.388 138.393" xml:space="preserve" color-interpolation-filters="sRGB" class="st42">
	<v:documentProperties v:langID="1049" v:metric="true" v:viewMarkup="false"/>

	<style type="text/css">
	<![CDATA[
		.st1 {fill:#bfbfbf;stroke:#3a0303;stroke-linecap:round;stroke-linejoin:round;stroke-width:0.24}
		.st2 {fill:url(#grad40-6);stroke:none;stroke-linecap:round;stroke-linejoin:round;stroke-width:0.24}
		.st3 {fill:url(#grad26-10);stroke:none;stroke-linecap:round;stroke-linejoin:round;stroke-width:0.24}
		.st4 {fill:#000000;fill-opacity:0.5;stroke:none;stroke-linecap:round;stroke-linejoin:round;stroke-width:0.24}
		.st5 {fill:#f2f2f2;fill-opacity:0.5;stroke:none;stroke-linecap:round;stroke-linejoin:round;stroke-width:0.24}
		.st6 {fill:url(#grad40-65);stroke:none;stroke-linecap:round;stroke-linejoin:round;stroke-width:0.24}
		.st7 {fill:#000000;fill-opacity:0.3;stroke:none;stroke-linecap:round;stroke-linejoin:round;stroke-width:0.24}
		.st8 {fill:url(#grad39-71);stroke:none;stroke-linecap:round;stroke-linejoin:round;stroke-width:0.24}
		.st9 {fill:url(#grad40-75);stroke:none;stroke-linecap:round;stroke-linejoin:round;stroke-width:0.24}
		.st10 {fill:url(#grad30-79);stroke:none;stroke-linecap:round;stroke-linejoin:round;stroke-width:0.24}
		.st11 {fill:#a5a5a5;fill-opacity:0.5;stroke:none;stroke-linecap:round;stroke-linejoin:round;stroke-width:0.24}
		.st12 {fill:#262626;stroke:none;stroke-linecap:round;stroke-linejoin:round;stroke-width:0.24}
		.st13 {fill:#000000;fill-opacity:0.4;stroke:none;stroke-linecap:round;stroke-linejoin:round;stroke-width:0.24}
		.st14 {fill:url(#grad37-101);stroke:none;stroke-linecap:round;stroke-linejoin:round;stroke-width:0.24}
		.st15 {fill:url(#grad40-105);stroke:none;stroke-linecap:round;stroke-linejoin:round;stroke-width:0.24}
		.st16 {fill:#0c0c0c;stroke:none;stroke-linecap:round;stroke-linejoin:round;stroke-width:0.24}
		.st17 {fill:#3f3f3f;fill-opacity:0.75;stroke:none;stroke-linecap:round;stroke-linejoin:round;stroke-width:0.24}
		.st18 {fill:url(#grad40-119);stroke:none;stroke-linecap:round;stroke-linejoin:round;stroke-width:0.24}
		.st19 {fill:#c00000;stroke:none;stroke-linecap:round;stroke-linejoin:round;stroke-width:0.24}
		.st20 {fill:url(#grad37-101);stroke:none;stroke-linecap:round;stroke-linejoin:round;stroke-width:0.25}
		.st21 {fill:url(#grad40-105);stroke:none;stroke-linecap:round;stroke-linejoin:round;stroke-width:0.25}
		.st22 {fill:url(#grad28-133);stroke:none;stroke-linecap:round;stroke-linejoin:round;stroke-width:0.24}
		.st23 {fill:#7f7f7f;fill-opacity:0.5;stroke:none;stroke-linecap:round;stroke-linejoin:round;stroke-width:0.24}
		.st24 {fill:#d8d8d8;stroke:none;stroke-linecap:round;stroke-linejoin:round;stroke-width:0.24}
		.st25 {fill:#d8d8d8;fill-opacity:0.5;stroke:none;stroke-linecap:round;stroke-linejoin:round;stroke-width:0.24}
		.st26 {fill:url(#grad28-149);stroke:none;stroke-linecap:round;stroke-linejoin:round;stroke-width:0.24}
		.st27 {fill:url(#grad28-153);stroke:none;stroke-linecap:round;stroke-linejoin:round;stroke-width:0.24}
		.st28 {fill:#f2f2f2;fill-opacity:0.3;stroke:none;stroke-linecap:round;stroke-linejoin:round;stroke-width:0.24}
		.st29 {fill:#f2f2f2;fill-opacity:0.7;stroke:none;stroke-linecap:round;stroke-linejoin:round;stroke-width:0.24}
		.st30 {fill:url(#grad39-175);stroke:none;stroke-linecap:round;stroke-linejoin:round;stroke-width:0.24}
		.st31 {fill:url(#grad40-192);stroke:none;stroke-linecap:round;stroke-linejoin:round;stroke-width:0.25}
		.st32 {fill:#3f3f3f;fill-opacity:0.95;stroke:none;stroke-linecap:round;stroke-linejoin:round;stroke-width:0.24}
		.st33 {fill:url(#grad40-235);stroke:none;stroke-linecap:round;stroke-linejoin:round;stroke-width:0.24}
		.st34 {fill:url(#grad30-248);stroke:none;stroke-linecap:round;stroke-linejoin:round;stroke-width:0.24}
		.st35 {fill:#000000;fill-opacity:0.6;stroke:none;stroke-linecap:round;stroke-linejoin:round;stroke-width:0.24}
		.st36 {fill:#f2f2f2;stroke:none;stroke-linecap:round;stroke-linejoin:round;stroke-width:0.24}
		.st37 {fill:url(#grad28-258);stroke:#3a0303;stroke-linecap:round;stroke-linejoin:round;stroke-width:0.24}
		.st38 {fill:url(#grad38-262);stroke:none;stroke-linecap:round;stroke-linejoin:round;stroke-width:0.24}
		.st39 {fill:#ffc000;stroke:#3a0303;stroke-linecap:round;stroke-linejoin:round;stroke-width:0.25}
		.st40 {fill:#0c0c0c;fill-opacity:0.5;stroke:none;stroke-linecap:round;stroke-linejoin:round;stroke-width:0.24}
		.st41 {fill:#c00000;fill-opacity:0.3;stroke:none;stroke-linecap:round;stroke-linejoin:round;stroke-width:0.24}
		.st42 {fill:none;fill-rule:evenodd;font-size:12;overflow:visible;stroke-linecap:square;stroke-miterlimit:3}
	]]>
	</style>

	<defs id="Patterns_And_Gradients">
		<radialGradient id="grad40-6" v:fillPattern="40" v:foreground="#000000" v:background="#17355d" cx="0.5" cy="0.5" r="0.5">
			<stop offset="0" style="stop-color:#000000;stop-opacity:1"/>
			<stop offset="1" style="stop-color:#17355d;stop-opacity:1"/>
		</radialGradient>
		<linearGradient id="grad26-10" v:fillPattern="26" v:foreground="#e4d0be" v:background="#d1b361" x1="0" y1="0" x2="1" y2="0">
			<stop offset="0" style="stop-color:#d1b361;stop-opacity:1"/>
			<stop offset="0.5" style="stop-color:#e4d0be;stop-opacity:1"/>
			<stop offset="1" style="stop-color:#d1b361;stop-opacity:1"/>
		</linearGradient>
		<radialGradient id="grad40-65" v:fillPattern="40" v:foreground="#955646" v:background="#533f37" cx="0.5" cy="0.5" r="0.5">
			<stop offset="0" style="stop-color:#955646;stop-opacity:1"/>
			<stop offset="1" style="stop-color:#533f37;stop-opacity:1"/>
		</radialGradient>
		<radialGradient id="grad39-71" v:fillPattern="39" v:foreground="#e4d0be" v:foregroundOpacity="0.2" v:background="#583f37"
				v:backgroundOpacity="0.2" cx="1" cy="1" r="1">
			<stop offset="0" style="stop-color:#e4d0be;stop-opacity:0.2"/>
			<stop offset="1" style="stop-color:#583f37;stop-opacity:0.2"/>
		</radialGradient>
		<radialGradient id="grad40-75" v:fillPattern="40" v:foreground="#e4d0be" v:foregroundOpacity="0.4" v:background="#533f37"
				v:backgroundOpacity="0.4" cx="0.5" cy="0.5" r="0.5">
			<stop offset="0" style="stop-color:#e4d0be;stop-opacity:0.4"/>
			<stop offset="1" style="stop-color:#533f37;stop-opacity:0.4"/>
		</radialGradient>
		<linearGradient id="grad30-79" v:fillPattern="30" v:foreground="#f2f2f2" v:background="#bfbfbf" x1="0" y1="1" x2="0" y2="0">
			<stop offset="0" style="stop-color:#f2f2f2;stop-opacity:1"/>
			<stop offset="1" style="stop-color:#bfbfbf;stop-opacity:1"/>
		</linearGradient>
		<radialGradient id="grad37-101" v:fillPattern="37" v:foreground="#1e1e1e" v:background="#000000" cx="1" cy="0" r="1">
			<stop offset="0" style="stop-color:#1e1e1e;stop-opacity:1"/>
			<stop offset="1" style="stop-color:#000000;stop-opacity:1"/>
		</radialGradient>
		<radialGradient id="grad40-105" v:fillPattern="40" v:foreground="#f2f2f2" v:background="#ccbaa4" cx="0.5" cy="0.5" r="0.5">
			<stop offset="0" style="stop-color:#f2f2f2;stop-opacity:1"/>
			<stop offset="1" style="stop-color:#ccbaa4;stop-opacity:1"/>
		</radialGradient>
		<radialGradient id="grad40-119" v:fillPattern="40" v:foreground="#fdd346" v:foregroundOpacity="0.9" v:background="#864f48"
				v:backgroundOpacity="0.9" cx="0.5" cy="0.5" r="0.5">
			<stop offset="0" style="stop-color:#fdd346;stop-opacity:0.9"/>
			<stop offset="1" style="stop-color:#864f48;stop-opacity:0.9"/>
		</radialGradient>
		<linearGradient id="grad28-133" v:fillPattern="28" v:foreground="#b7c9e3" v:foregroundOpacity="0.3" v:background="#7f7f7f"
				v:backgroundOpacity="0.3" x1="0" y1="0" x2="0" y2="1">
			<stop offset="0" style="stop-color:#b7c9e3;stop-opacity:0.3"/>
			<stop offset="1" style="stop-color:#7f7f7f;stop-opacity:0.3"/>
		</linearGradient>
		<linearGradient id="grad28-149" v:fillPattern="28" v:foreground="#a5a5a5" v:foregroundOpacity="0.6" v:background="#0f233e"
				v:backgroundOpacity="0.6" x1="0" y1="0" x2="0" y2="1">
			<stop offset="0" style="stop-color:#a5a5a5;stop-opacity:0.6"/>
			<stop offset="1" style="stop-color:#0f233e;stop-opacity:0.6"/>
		</linearGradient>
		<linearGradient id="grad28-153" v:fillPattern="28" v:foreground="#ffffff" v:foregroundOpacity="0.4" v:background="#262626"
				v:backgroundOpacity="0.4" x1="0" y1="0" x2="0" y2="1">
			<stop offset="0" style="stop-color:#ffffff;stop-opacity:0.4"/>
			<stop offset="1" style="stop-color:#262626;stop-opacity:0.4"/>
		</linearGradient>
		<radialGradient id="grad39-175" v:fillPattern="39" v:foreground="#ffffff" v:background="#bfbfbf" cx="1" cy="1" r="1">
			<stop offset="0" style="stop-color:#ffffff;stop-opacity:1"/>
			<stop offset="1" style="stop-color:#bfbfbf;stop-opacity:1"/>
		</radialGradient>
		<radialGradient id="grad40-192" v:fillPattern="40" v:foreground="#c5ad94" v:foregroundOpacity="0.8" v:background="#000000"
				v:backgroundOpacity="0.8" cx="0.5" cy="0.5" r="0.5">
			<stop offset="0" style="stop-color:#c5ad94;stop-opacity:0.8"/>
			<stop offset="1" style="stop-color:#000000;stop-opacity:0.8"/>
		</radialGradient>
		<radialGradient id="grad40-235" v:fillPattern="40" v:foreground="#ff0000" v:foregroundOpacity="0.5" v:background="#3a0303"
				v:backgroundOpacity="0.5" cx="0.5" cy="0.5" r="0.5">
			<stop offset="0" style="stop-color:#ff0000;stop-opacity:0.5"/>
			<stop offset="1" style="stop-color:#3a0303;stop-opacity:0.5"/>
		</radialGradient>
		<linearGradient id="grad30-248" v:fillPattern="30" v:foreground="#e3e3e3" v:foregroundOpacity="0.5" v:background="#262626"
				v:backgroundOpacity="0.5" x1="0" y1="1" x2="0" y2="0">
			<stop offset="0" style="stop-color:#e3e3e3;stop-opacity:0.5"/>
			<stop offset="1" style="stop-color:#262626;stop-opacity:0.5"/>
		</linearGradient>
		<linearGradient id="grad28-258" v:fillPattern="28" v:foreground="#ff0000" v:background="#5b0404" x1="0" y1="0" x2="0"
				y2="1">
			<stop offset="0" style="stop-color:#ff0000;stop-opacity:1"/>
			<stop offset="1" style="stop-color:#5b0404;stop-opacity:1"/>
		</linearGradient>
		<radialGradient id="grad38-262" v:fillPattern="38" v:foreground="#ffffff" v:background="#bfbfbf" cx="0" cy="1" r="1">
			<stop offset="0" style="stop-color:#ffffff;stop-opacity:1"/>
			<stop offset="1" style="stop-color:#bfbfbf;stop-opacity:1"/>
		</radialGradient>
	</defs>
	<g v:mID="0" v:index="1" v:groupContext="foregroundPage">
		<title>Страница-1</title>
		<v:pageProperties v:drawingScale="0.0393701" v:pageScale="0.0393701" v:drawingUnits="24" v:shadowOffsetX="8.50394"
				v:shadowOffsetY="-8.50394"/>
		<g id="shape1-1" v:mID="1" v:groupContext="shape" transform="translate(33.3819,-0.24)">
			<title>Лист.1</title>
			<path d="M74.61 87.88 C72.91 83.34 69.15 82.92 72.12 73.57 C73.25 70.01 75.34 65.17 76.04 59.55 C77.36 48.98 73.72 35.66
						 68.9 27.91 C62.47 17.57 53.91 17.18 43.8 17.11 C34.98 17.05 24.97 17.23 17.27 21.08 C6.7 26.37 0.47 38.59
						 0.91 51.03 C-3.06 60.1 7.35 76.2 5.73 82.8 C5.03 85.67 2.04 86.74 2.61 90.71 C4.31 100.92 7.72 100.01 10.86
						 100.67 C26.09 107.86 33.73 126.62 40.44 138.39 C53.57 115.28 55.8 111.18 58.42 107.86 C65.83 98.44 76.31
						 95.25 74.61 87.88 Z" class="st1"/>
		</g>
		<g id="shape3-3" v:mID="3" v:groupContext="shape" transform="translate(48.1159,-24.767)">
			<title>Лист.3</title>
			<path d="M49.84 118 C45.35 120.03 42.71 122.52 40.14 125.16 C38.11 127.24 36.12 129.41 34.67 131.72 C33.41 133.73 32.55
						 135.84 30.75 137.09 C28.24 138.83 23.89 138.88 20.94 136.91 C17.64 134.7 16.11 129.94 11.12 125.27 C8.56
						 122.88 5.1 120.51 0 118.4 C2.62 118.42 3.18 118.47 3.71 118.51 C9.19 118.9 12.72 118.04 17.17 122.02 C19.86
						 124.42 22.89 128.57 25.31 128.79 C26.99 128.94 28.38 127.18 29.78 125.7 C35.85 119.29 42.24 118.11 49.84
						 118 Z" class="st2"/>
		</g>
		<g id="shape4-7" v:mID="4" v:groupContext="shape" transform="translate(57.1613,-30.9417)">
			<title>Лист.4</title>
			<path d="M24.7 128.43 C24.22 128.76 23.75 129.12 23.28 129.5 C23.16 131.7 22.73 133.94 22.28 135.56 C24.04 133.88 24.41
						 131.11 24.7 128.43 ZM22.37 130.28 C21.87 130.73 21.37 131.22 20.87 131.73 C20.81 134.12 20.33 136.63 19.84
						 138.39 C21.83 136.51 22.05 133.24 22.37 130.28 ZM19.59 133.1 C19.26 133.45 18.91 133.78 18.56 134.07 C18.69
						 135.27 18.74 136.42 18.73 137.37 C19.48 136.14 19.66 134.65 19.59 133.1 ZM17.77 134.61 C17.42 134.8 17.06
						 134.93 16.69 134.96 C16.71 136.18 16.65 137.32 16.56 138.27 C17.33 137.24 17.65 135.97 17.77 134.61 ZM15.13
						 134.61 C14.83 134.46 14.53 134.27 14.21 134.05 C14.3 135.07 14.54 136.02 15.06 136.87 C15.05 136.2 15.08
						 135.43 15.13 134.61 ZM12.88 132.94 C12.42 132.52 11.95 132.05 11.49 131.57 C11.8 133.45 12.35 135.21 13.61
						 136.41 C13.34 135.43 13.07 134.23 12.88 132.94 ZM35.38 124.57 C35.05 124.61 34.73 124.66 34.41 124.71 C34.26
						 125.5 34.08 126.24 33.9 126.88 C34.57 126.25 35.04 125.46 35.38 124.57 ZM33.15 124.93 C32.73 125.01 32.31
						 125.1 31.89 125.2 C31.71 126.95 31.35 128.65 31 129.94 C32.3 128.7 32.84 126.87 33.15 124.93 ZM30.53 125.59
						 C30.05 125.74 29.58 125.9 29.12 126.08 C29.07 128.49 28.59 131.04 28.09 132.84 C29.88 131.13 30.23 128.3
						 30.53 125.59 ZM27.62 126.73 C27.15 126.96 26.68 127.2 26.21 127.47 C26.14 129.83 25.67 132.29 25.18 134.03
						 C26.99 132.32 27.33 129.46 27.62 126.73 ZM9.45 129.45 C9 129 8.57 128.57 8.13 128.19 C8.11 128.16 8.08 128.14
						 8.05 128.11 C8.34 130.39 8.83 132.6 10.33 134.03 C9.98 132.78 9.64 131.15 9.45 129.45 ZM6.83 127.14 C6.34
						 126.78 5.85 126.49 5.37 126.24 C5.68 129.09 5.96 132.16 7.86 133.97 C7.36 132.16 6.87 129.57 6.83 127.14
						 ZM4.03 125.65 C3.58 125.49 3.14 125.36 2.69 125.26 C2.98 127.68 3.44 130.08 5.03 131.59 C4.59 130 4.16 127.81
						 4.03 125.65 ZM1.91 128.64 C1.62 127.62 1.35 126.35 1.15 125 C0.77 124.96 0.39 124.92 -0 124.9 C0.34 126.36
						 0.9 127.68 1.91 128.64 Z" class="st3"/>
		</g>
		<g id="shape5-11" v:mID="5" v:groupContext="shape" transform="translate(50.6347,232.132) scale(1,-1)">
			<title>Лист.5</title>
			<path d="M0 138.39 C11.08 137.05 11.91 134.71 20.56 128.98 C13.37 135.48 14.46 138.68 0 138.39 Z" class="st4"/>
		</g>
		<g id="shape6-13" v:mID="6" v:groupContext="shape" transform="translate(50.9987,232.205) scale(1,-1)">
			<title>Лист.6</title>
			<path d="M0 138.38 C10.64 137.32 11.26 136.48 19.84 129.27 C12.68 136.48 12.68 138.75 0 138.38 Z" class="st4"/>
		</g>
		<g id="shape7-15" v:mID="7" v:groupContext="shape" transform="translate(96.8464,231.728) rotate(180)">
			<title>Лист.7</title>
			<path d="M0 138.39 C7.88 136.64 12.22 134.56 20.22 129.44 C15.87 134.3 10.77 138.27 0 138.39 Z" class="st4"/>
		</g>
		<g id="shape8-17" v:mID="8" v:groupContext="shape" transform="translate(96.4823,231.81) rotate(180)">
			<title>Лист.8</title>
			<path d="M0 138.39 C10.41 136.94 12.11 134.67 19.84 129.28 C13.53 136.65 7.86 138.35 0 138.39 Z" class="st4"/>
		</g>
		<g id="shape10-19" v:mID="10" v:groupContext="shape" transform="translate(75.5347,245.602) scale(1,-1)">
			<title>Лист.10</title>
			<path d="M0.68 131.16 C0.8 133.61 0.41 136.5 0 138.39 C1.52 136.52 1.51 133.1 1.81 130.28 C1.53 130.86 1.04 130.86 0.68
						 131.16 Z" class="st3"/>
		</g>
		<g id="shape11-22" v:mID="11" v:groupContext="shape" transform="translate(77.1826,246.684) scale(1,-1)">
			<title>Лист.11</title>
			<path d="M0.68 133.13 C0.8 134.91 0.41 137.01 0 138.39 C1.52 137.03 1.51 134.54 1.81 132.48 C1.53 132.91 1.04 132.9 0.68
						 133.13 Z" class="st3"/>
		</g>
		<g id="shape12-25" v:mID="12" v:groupContext="shape" transform="translate(78.3754,244.484) scale(1,-1)">
			<title>Лист.12</title>
			<path d="M0.68 133.13 C0.8 134.91 0.41 137.01 0 138.39 C1.52 137.03 1.51 134.54 1.81 132.48 C1.53 132.91 1.04 132.9 0.68
						 133.13 Z" class="st3"/>
		</g>
		<g id="shape13-28" v:mID="13" v:groupContext="shape" transform="translate(114.749,238.003) rotate(-15) scale(1,-1)">
			<title>Лист.13</title>
			<path d="M0.68 133.1 C0.8 134.89 0.41 137 0 138.39 C1.52 137.03 1.51 134.52 1.8 132.46 C1.52 132.89 1.04 132.88 0.68
						 133.1 Z" class="st3"/>
		</g>
		<g id="shape14-31" v:mID="14" v:groupContext="shape" transform="translate(80.5436,241.906) scale(1,-1)">
			<title>Лист.14</title>
			<path d="M0.68 134.38 C0.8 135.74 0.41 137.34 0 138.39 C1.52 137.36 1.51 135.45 1.81 133.89 C1.53 134.21 1.04 134.21
						 0.68 134.38 Z" class="st3"/>
		</g>
		<g id="shape15-34" v:mID="15" v:groupContext="shape" transform="translate(39.4521,241.758) rotate(15) scale(1,-1)">
			<title>Лист.15</title>
			<path d="M0.68 131.11 C0.8 133.57 0.41 136.48 0 138.39 C1.52 136.51 1.51 133.06 1.8 130.21 C1.52 130.8 1.04 130.8 0.68
						 131.11 Z" class="st3"/>
		</g>
		<g id="shape16-37" v:mID="16" v:groupContext="shape" transform="translate(38.4246,240.935) rotate(15) scale(1,-1)">
			<title>Лист.16</title>
			<path d="M0.68 130.36 C0.8 133.08 0.41 136.28 0 138.39 C1.52 136.32 1.51 132.51 1.8 129.37 C1.52 130.02 1.04 130.01 0.68
						 130.36 Z" class="st3"/>
		</g>
		<g id="shape17-40" v:mID="17" v:groupContext="shape" transform="translate(95.7682,243.483) rotate(170)">
			<title>Лист.17</title>
			<path d="M0.68 131.19 C0.8 133.63 0.41 136.5 0 138.39 C1.52 136.53 1.51 133.12 1.81 130.31 C1.53 130.89 1.04 130.88 0.68
						 131.19 Z" class="st3"/>
		</g>
		<g id="shape18-43" v:mID="18" v:groupContext="shape" transform="translate(97.2738,244.596) rotate(170)">
			<title>Лист.18</title>
			<path d="M0.68 131.66 C0.8 133.94 0.41 136.63 0 138.39 C1.52 136.65 1.51 133.46 1.81 130.84 C1.53 131.38 1.04 131.37
						 0.68 131.66 Z" class="st3"/>
		</g>
		<g id="shape19-46" v:mID="19" v:groupContext="shape" transform="translate(70.7188,243.886) rotate(180)">
			<title>Лист.19</title>
			<path d="M0.68 130.44 C0.8 133.13 0.41 136.3 0 138.39 C1.52 136.34 1.51 132.57 1.81 129.46 C1.53 130.11 1.04 130.1 0.68
						 130.44 Z" class="st3"/>
		</g>
		<g id="shape20-49" v:mID="20" v:groupContext="shape" transform="translate(92.9696,241.678) rotate(170)">
			<title>Лист.20</title>
			<path d="M0.82 131.15 C0.97 133.6 0.49 136.49 0 138.39 C1.85 136.52 1.83 133.09 2.19 130.26 C1.85 130.85 1.26 130.84
						 0.82 131.15 Z" class="st3"/>
		</g>
		<g id="shape21-52" v:mID="21" v:groupContext="shape" transform="translate(67.7983,243.839) rotate(180)">
			<title>Лист.21</title>
			<path d="M0.68 133.13 C0.8 134.91 0.41 137.01 0 138.39 C1.52 137.03 1.51 134.54 1.81 132.48 C1.53 132.91 1.04 132.9 0.68
						 133.13 Z" class="st3"/>
		</g>
		<g id="shape22-55" v:mID="22" v:groupContext="shape" transform="translate(32.0011,236.851) rotate(-165)">
			<title>Лист.22</title>
			<path d="M0.68 133.1 C0.8 134.89 0.41 137 0 138.39 C1.52 137.03 1.51 134.52 1.8 132.46 C1.52 132.89 1.04 132.88 0.68
						 133.1 Z" class="st3"/>
		</g>
		<g id="shape23-58" v:mID="23" v:groupContext="shape" transform="translate(67.8914,-34.4642)">
			<title>Лист.23</title>
			<path d="M0 130.74 C4.01 137.41 4.86 141.94 10.92 131.51 C7.41 139.96 3.66 141.67 0 130.74 Z" class="st5"/>
		</g>
		<g id="shape25-60" v:mID="25" v:groupContext="shape" transform="translate(83.4543,-24.7677) scale(-1,1)">
			<title>Лист.25</title>
			<path d="M0 128.98 C6.45 140.88 11.97 140.03 19.56 128.69 C13.35 144.28 1.28 138.61 0 128.98 Z" class="st4"/>
		</g>
		<g id="shape26-62" v:mID="26" v:groupContext="shape" transform="translate(45.5914,-21.933)">
			<title>Лист.26</title>
			<path d="M56.07 112.92 C51.74 113.91 48.19 116.65 45.99 118.49 C44.08 120.09 43.19 121.03 42.01 122.33 C40.67 123.81
						 38.94 125.78 37.7 127.63 C36.6 129.28 35.88 130.83 34.82 132.32 C34.12 133.3 33.28 134.26 31.47 134.67 C30.39
						 134.92 28.97 134.97 27.79 134.86 C23.91 134.49 22.62 132.3 20.57 129.74 C19.88 128.88 19.11 127.99 18.5
						 127.17 C17.84 126.29 17.37 125.51 16.5 124.48 C15.38 123.15 13.61 121.4 12.27 120.22 C10.74 118.87 9.79
						 118.28 8.25 117.38 C6.01 116.06 2.53 114.06 0 114.37 C10.72 120.11 12.12 122.5 14.91 126.93 C19.09 133.56
						 26.39 144.77 35.9 134.05 C39.83 129.62 39.06 122.61 56.07 112.92 Z" class="st6"/>
		</g>
		<g id="shape27-66" v:mID="27" v:groupContext="shape" transform="translate(85.8751,-22.0436) scale(-1,1)">
			<title>Лист.27</title>
			<path d="M0 126.79 C11.14 142.43 15.11 139.59 25.37 127.04 C15.39 144.41 6.32 139.88 0 126.79 Z" class="st7"/>
		</g>
		<g id="shape28-68" v:mID="28" v:groupContext="shape" transform="translate(109.697,-18.1972) rotate(15)">
			<title>Лист.28</title>
			<path d="M0.6 137.05 C1.66 136.21 3.44 135.63 5.42 133.93 C6.27 134.78 3.34 137.6 1.81 138.23 C1.21 138.48 0.83 138.4
						 0.51 138.27 C-0.01 138.06 -0.35 137.73 0.6 137.05 Z" class="st8"/>
		</g>
		<g id="shape29-72" v:mID="29" v:groupContext="shape" transform="translate(69.4081,-23.0025)">
			<title>Лист.29</title>
			<path d="M0.09 135.35 C0.45 134.96 3.06 135.39 2.67 136.29 C2.79 139.13 1.22 138.47 0.44 137.87 C0.07 137.6 -0.12 137.33
						 0.09 135.35 Z" class="st9"/>
		</g>
		<g id="shape30-76" v:mID="30" v:groupContext="shape" transform="translate(66.2583,-0.716571)">
			<title>Лист.30</title>
			<path d="M0 117.5 C4.74 123.11 11.01 122.98 14.25 118.09 C12.7 126.4 10.52 131.64 7.52 138.39 C5.32 134.1 2.12 126.34
						 0 117.5 Z" class="st10"/>
		</g>
		<g id="shape31-80" v:mID="31" v:groupContext="shape" transform="translate(85.9579,-60.9073) rotate(-0.148293)">
			<title>Лист.31</title>
			<path d="M0 137.79 C0.44 137.37 0.62 137.23 0.8 137.07 C2.89 135.27 4.77 132.57 6.22 130 C7.64 127.49 8.65 125.09 10.8
						 123.48 C11.85 122.69 13.18 122.09 14.23 121.79 C15.31 121.48 16.09 121.5 16.66 122.41 C17.59 123.88 17.96
						 127.71 17.71 130.61 C17.04 138.26 11.99 139.37 0 137.79 Z" class="st11"/>
		</g>
		<g id="shape32-82" v:mID="32" v:groupContext="shape" transform="translate(66.2695,-60.5445) scale(-1,1)">
			<title>Лист.32</title>
			<path d="M0 138.39 C3.86 139.06 4.8 134.08 6.08 130.33 C8.11 124.39 11 121.54 16.1 120.4 C10.15 120.97 7.8 124.47 5.82
						 127.97 C3.64 131.84 1.93 135.71 0 138.39 Z" class="st11"/>
		</g>
		<g id="shape33-84" v:mID="33" v:groupContext="shape" transform="translate(36.8296,-58.0616) rotate(-10.5915) scale(-1,1)">
			<title>Лист.33</title>
			<path d="M0 137.68 C0.38 137.25 0.66 137.18 0.92 137.09 C3.97 136.04 4.67 132.5 5.7 129.68 C6.7 126.92 8 124.87 9.67
						 123.86 C10.49 123.37 11.39 123.12 12.32 122.74 C13.29 122.34 14.28 121.8 15.11 122.36 C16.46 123.27 17.37
						 127.09 17.48 130.04 C17.78 137.86 12.52 139.64 0 137.68 Z" class="st11"/>
		</g>
		<g id="shape34-86" v:mID="34" v:groupContext="shape" transform="translate(88.1363,-60.7962) rotate(-0.148293)">
			<title>Лист.34</title>
			<path d="M0 137.83 C0.36 137.44 0.5 137.31 0.65 137.16 C2.33 135.48 3.85 132.97 5.02 130.57 C6.17 128.23 6.98 125.99
						 8.72 124.49 C9.56 123.76 10.64 123.2 11.48 122.92 C12.35 122.63 12.98 122.65 13.44 123.49 C14.19 124.87
						 14.5 128.44 14.29 131.14 C13.76 138.27 9.67 139.3 0 137.83 Z" class="st11"/>
		</g>
		<g id="shape35-88" v:mID="35" v:groupContext="shape" transform="translate(94.5064,209.291) scale(1,-1)">
			<title>Лист.35</title>
			<path d="M0 137.51 C0 136.98 0 136.89 0 136.77 C0 135.47 0 131.06 0 127.55 C0 124.13 0 121.57 0 120.31 C0 119.7 0 119.4
						 0 118.92 C0 118.43 0 117.75 0 118.45 C0 119.58 0 124.33 0 128.01 C0 137.73 0 139.95 0 137.51 Z"
					class="st11"/>
		</g>
		<g id="shape36-90" v:mID="36" v:groupContext="shape" transform="translate(95.3959,-59.2706) rotate(5.27495)">
			<title>Лист.36</title>
			<path d="M0 137.61 C0.53 137.08 0.75 136.88 0.96 136.68 C3.48 134.35 5.75 130.87 7.5 127.54 C9.21 124.29 10.42 121.19
						 13.01 119.1 C14.28 118.08 15.88 117.31 17.14 116.92 C18.44 116.53 19.38 116.55 20.07 117.72 C21.19 119.63
						 21.64 124.58 21.34 128.33 C20.53 138.22 14.44 139.65 0 137.61 Z" class="st11"/>
		</g>
		<g id="shape37-92" v:mID="37" v:groupContext="shape" transform="translate(66.039,-53.5904)">
			<title>Лист.37</title>
			<path d="M9.17 127.05 C10.2 131.02 9.64 129.04 9.92 130.17 C11.06 130.46 11.01 130.98 13.04 126.49 C12.22 131.92 13.63
						 132 14.69 131.78 C13.33 131.75 13.61 133.29 10.77 136.69 C11.91 133.86 12.47 132.75 12.42 132.59 C12.34
						 132.31 10.36 134.98 8.5 137.26 C10.33 134.91 9.95 134.43 9.6 134.08 C9 133.49 8.5 133.29 7.45 133.34 C7.07
						 133.21 6.58 133.13 6.23 133.3 C5.88 133.46 5.67 133.86 6.75 137.47 C4.78 133.16 2.49 131.78 2.79 132.68
						 C2.96 133.19 3.97 134.42 5.67 138.39 C2.94 133.01 1.8 132.72 0.1 134.42 C0.36 133.72 1.52 131.87 0 131.47
						 C0.14 131.54 0.48 131.66 0.72 131.65 C1.77 131.61 0.94 129.28 1.24 128.76 C2.09 129.89 1.7 134.42 3.5 128.76
						 C4.35 131.02 4.54 129.61 1.98 123.37 C7.09 131.59 7.75 130.17 9.17 127.05 Z" class="st4"/>
		</g>
		<g id="shape38-94" v:mID="38" v:groupContext="shape" transform="translate(105.314,-59.4956) scale(-1,1)">
			<title>Лист.38</title>
			<path d="M21.7 136.93 C16.87 134.06 18.06 133.33 13.45 128.41 C12.08 126.95 10.2 125.12 9.85 125.02 C9.42 124.88 11.36
						 127.42 11.51 128.21 C11.72 129.29 8.65 127.15 6.46 126.44 C4.7 125.86 3.52 126.2 3.3 126.48 C2.91 126.95
						 5.51 127.21 6.51 128.27 C6.91 128.7 7.05 129.27 6.68 129.37 C6.16 129.52 4.67 128.8 3.07 128.85 C2.2 128.88
						 1.3 129.14 1.16 129.31 C0.9 129.61 3.4 129.55 4.71 130.26 C5.44 130.66 5.8 131.29 5.83 131.6 C5.87 132.22
						 4.55 131.52 2.95 131.33 C1.91 131.21 0.75 131.3 0.27 131.38 C-0.87 131.58 1.84 131.75 3.88 132.37 C8.88
						 133.87 9.78 138.08 10.22 138.39 C10.41 138.53 10.52 137.92 11.2 137.66 C12.91 137.01 18.3 138.63 21.7 136.93
						 Z" class="st12"/>
		</g>
		<g id="shape39-96" v:mID="39" v:groupContext="shape" transform="translate(102.797,-60.2536) scale(-1,1)">
			<title>Лист.39</title>
			<path d="M10.69 129.15 C8.38 126.61 8.55 127.32 9.5 129.12 C9.77 129.63 10.1 130.23 9.58 130.18 C8.88 130.12 6.6 128.88
						 5.36 128.34 C4.36 127.9 4.03 127.92 3.92 128.06 C3.72 128.31 4.2 128.92 5.25 129.92 C5.67 130.33 6.2 130.81
						 5.89 130.87 C5.47 130.97 3.48 130.3 2.63 130.24 C2.17 130.21 2.05 130.37 2.09 130.49 C2.18 130.73 2.87 130.88
						 3.65 131.45 C4.08 131.76 4.53 132.21 4.65 132.48 C4.9 133.02 3.83 132.83 2.47 132.65 C1.6 132.53 0.61 132.42
						 0.21 132.4 C-0.73 132.37 1.7 132.9 3.26 133.55 C7.1 135.16 5.71 137.46 9.88 138.15 C11.71 138.45 14.63 138.44
						 16.23 138.33 C20.25 138.07 15.92 137.2 10.69 129.15 Z" class="st13"/>
		</g>
		<g id="shape40-98" v:mID="40" v:groupContext="shape" transform="translate(83.6138,-60.0841)">
			<title>Лист.40</title>
			<path d="M0 137.52 C2.43 138.21 3.1 138.35 3.81 138.39 C6.75 138.58 10.61 137.28 13.06 134.81 C14.44 133.42 15.38 131.65
						 14.66 130.84 C13.81 129.88 10.66 130.24 8.67 131.04 C4.46 132.72 5.39 136.38 0 137.52 Z" class="st14"/>
		</g>
		<g id="shape41-102" v:mID="41" v:groupContext="shape" transform="translate(84.1808,-60.571)">
			<title>Лист.41</title>
			<path d="M0 138 C0.87 138.3 1.8 138.37 2.71 138.39 C6.4 138.48 9.5 137.64 11.84 135.42 C13.16 134.17 14.24 132.48 13.62
						 131.66 C12.89 130.69 9.83 130.92 7.93 131.64 C3.92 133.16 5.1 136.87 0 138 Z" class="st15"/>
		</g>
		<g id="shape42-106" v:mID="42" v:groupContext="shape" transform="translate(79.9288,-59.8266)">
			<title>Лист.42</title>
			<path d="M0 138.31 C3.12 140.01 8.13 130.5 12.02 124.79 C18.19 115.74 21.54 116.2 24.38 117.9 C18.71 112.8 13.86 119.39
						 10.04 125.22 C5.81 131.66 2.83 137.17 0 138.31 Z" class="st16"/>
		</g>
		<g id="shape43-108" v:mID="43" v:groupContext="shape" transform="translate(83.6138,-42.8188)">
			<title>Лист.43</title>
			<path d="M0 128.19 C4.8 130.14 9.08 130.9 14.12 131.02 C16.2 131.07 18.42 131.02 19.84 130.03 C20.79 129.38 21.38 128.31
						 21.83 127.62 C22.32 132.32 18.98 136.38 16.16 138.39 C16.34 138.25 16.42 138.03 16.5 137.83 C17.13 136.22
						 17.63 135.34 17.57 133.29 C15.85 133.74 14.01 133.6 12.19 133.29 C7.44 132.48 2.87 130.48 0 128.19 Z"
					class="st17"/>
		</g>
		<g id="shape44-110" v:mID="44" v:groupContext="shape" transform="translate(55.8872,-58.7342) rotate(-3.42687) scale(-1,1)">
			<title>Лист.44</title>
			<path d="M0 137.63 C0.48 137.17 0.83 137.1 1.16 137 C5.03 135.88 5.92 132.08 7.21 129.06 C8.48 126.12 10.13 123.92 12.24
						 122.84 C13.28 122.31 14.42 122.05 15.6 121.64 C16.82 121.21 18.08 120.63 19.13 121.23 C20.83 122.2 21.99
						 126.29 22.13 129.46 C22.51 137.83 15.85 139.73 0 137.63 Z" class="st11"/>
		</g>
		<g id="shape45-112" v:mID="45" v:groupContext="shape" transform="translate(42.2929,-58.9226)">
			<title>Лист.45</title>
			<path d="M13.13 127.21 C10.3 124.09 5.81 124.53 6.86 125.02 C7.18 125.17 7.98 125.32 8.71 125.75 C9.61 126.3 10.39 127.28
						 10.28 127.5 C10.13 127.79 8.33 126.66 6.55 126.27 C5.12 125.96 3.7 126.12 3.37 126.29 C2.77 126.61 5.51
						 126.98 6.52 128.05 C6.94 128.49 7.06 129.04 6.68 129.14 C6.15 129.28 4.67 128.56 3.07 128.62 C2.2 128.65
						 1.3 128.91 1.16 129.07 C0.89 129.38 3.4 129.32 4.71 130.03 C5.44 130.42 5.8 131.06 5.82 131.36 C5.86 131.98
						 4.54 131.29 2.94 131.09 C1.91 130.96 0.76 131.04 0.28 131.13 C-0.86 131.34 1.74 131.64 3.53 132.28 C7.92
						 133.88 7.36 137.62 12.04 138.27 C14.1 138.56 17.19 138.26 19.31 138.19 C24.65 138.03 23.9 139.4 13.13 127.21
						 Z" class="st12"/>
		</g>
		<g id="shape46-114" v:mID="46" v:groupContext="shape" transform="translate(45.538,-59.9274)">
			<title>Лист.46</title>
			<path d="M10.67 129.4 C8.37 126.87 5.69 126.08 6.59 126.86 C6.85 127.1 7.44 127.47 7.86 127.97 C8.39 128.59 8.68 129.41
						 8.41 129.62 C8.05 129.91 6.67 129.09 5.34 128.61 C4.28 128.23 3.25 128.08 2.99 128.17 C2.53 128.34 4.46
						 129.26 5.26 130.16 C5.59 130.53 5.74 130.89 5.43 130.97 C5 131.07 3.72 130.64 2.53 130.47 C1.88 130.38 1.26
						 130.37 1.17 130.46 C1 130.62 2.78 131.11 3.79 131.75 C4.34 132.11 4.66 132.51 4.7 132.76 C4.79 133.24 3.78
						 133.08 2.48 132.91 C1.65 132.8 0.69 132.68 0.27 132.66 C-0.73 132.62 1.26 133.13 2.66 133.78 C6.1 135.38
						 5.98 137.86 9.84 138.31 C11.54 138.51 14.01 138.31 15.72 138.29 C20.01 138.25 19.43 139.31 10.67 129.4 Z"
					class="st13"/>
		</g>
		<g id="shape47-116" v:mID="47" v:groupContext="shape" transform="translate(83.8682,-60.6902)">
			<title>Лист.47</title>
			<path d="M0 138.29 C0.87 138.2 1.36 138.28 1.98 138.34 C4.51 138.56 9.15 138.23 11.98 135.94 C13.56 134.65 14.58 132.73
						 13.94 131.8 C13.19 130.71 10.17 130.98 8.25 131.74 C4.21 133.35 5.1 137.15 0 138.29 Z" class="st18"/>
		</g>
		<g id="shape48-120" v:mID="48" v:groupContext="shape" transform="translate(32.5855,-57.2754)">
			<title>Лист.48</title>
			<path d="M41.67 120.25 C72.57 100.98 77.11 106.93 71.44 136.41 C91.85 86.8 62.08 72.63 43.09 72.63 C13.89 72.63 -13.89
						 88.22 7.66 138.39 C5.67 125.64 3.41 114.3 10.49 100.98 C33.17 107.5 41.53 120.29 41.67 120.25 Z"
					class="st19"/>
		</g>
		<g id="shape49-122" v:mID="49" v:groupContext="shape" transform="translate(65.4721,-58.8702) scale(-1,1)">
			<title>Лист.49</title>
			<path d="M0 137.44 C1.2 138.25 2.11 138.33 3.05 138.37 C6.93 138.54 11.59 138.05 13.88 135.39 C15.17 133.9 15.71 131.72
						 14.8 130.69 C13.72 129.49 10.64 129.88 8.71 130.75 C4.64 132.6 5.71 136.62 0 137.44 Z" class="st20"/>
		</g>
		<g id="shape50-125" v:mID="50" v:groupContext="shape" transform="translate(64.7159,-59.3208) scale(-1,1)">
			<title>Лист.50</title>
			<path d="M0 138.07 C0.87 138.36 1.69 138.39 2.56 138.39 C6.13 138.43 10.62 138.16 12.81 135.88 C14.04 134.59 14.54 132.67
						 13.66 131.74 C12.63 130.65 9.69 130.93 7.87 131.68 C4.02 133.26 5.1 136.93 0 138.07 Z" class="st21"/>
		</g>
		<g id="shape51-128" v:mID="51" v:groupContext="shape" transform="translate(66.606,-59.9807) scale(-1,1)">
			<title>Лист.51</title>
			<path d="M0 137.89 C3.97 139.96 6.17 135.34 8.02 131.57 C10.96 125.61 13.04 121.82 17.86 121.26 C11.91 121.82 9.35 125.19
						 7.56 128.81 C5.58 132.81 4.54 137.13 0 137.89 Z" class="st16"/>
		</g>
		<g id="shape52-130" v:mID="52" v:groupContext="shape" transform="translate(74.0424,-75.6703)">
			<title>Лист.52</title>
			<path d="M0 138.39 C0.31 135.59 0.65 95.81 0.5 91.87 C12.41 90.17 42.45 99.24 34.52 134.96 C31.68 117.39 5.04 133.26
						 0 138.39 Z" class="st22"/>
		</g>
		<g id="shape53-134" v:mID="53" v:groupContext="shape" transform="translate(67.1729,-66.3463)">
			<title>Лист.53</title>
			<path d="M0 132.72 C2.69 134.71 7.94 135.28 15.02 133.4 C10.77 135.28 9.64 134.14 7.09 138.39 C5.1 134.71 4.25 135.84
						 0 132.72 Z" class="st23"/>
		</g>
		<g id="shape54-136" v:mID="54" v:groupContext="shape" transform="translate(56.9682,-74.5059)">
			<title>Лист.54</title>
			<path d="M0 126.99 C10.77 139.47 24.38 143.72 34.02 130.11 C22.68 140.6 18.14 142.02 0 126.99 Z" class="st23"/>
		</g>
		<g id="shape55-138" v:mID="55" v:groupContext="shape" transform="translate(53.5666,-71.4049)">
			<title>Лист.55</title>
			<path d="M0 123.33 C13.61 142.03 28.63 143.17 40.82 127.86 C26.52 139.26 21.54 143.74 0 123.33 Z" class="st23"/>
		</g>
		<g id="shape56-140" v:mID="56" v:groupContext="shape" transform="translate(72.2221,-36.2991)">
			<title>Лист.56</title>
			<path d="M1.15 117.36 C0.05 119.4 -0.51 136.98 0.62 138.39 C1.75 138.11 2.32 118.83 1.15 117.36 Z" class="st24"/>
		</g>
		<g id="shape57-142" v:mID="57" v:groupContext="shape" transform="translate(211.574,111.664) rotate(-86.0351) scale(1,-1)">
			<title>Лист.57</title>
			<path d="M0 138.39 C1.31 137.23 1.28 137.14 1.29 137.05 C1.36 136 5.83 134.67 7.49 133.3 C9.12 131.96 8.06 130.57 9.26
						 129.4 C9.85 128.83 10.98 128.3 11.78 127.96 C12.61 127.61 13.08 127.44 13.7 127.49 C14.71 127.56 16.1 128.18
						 16.64 129.02 C18.07 131.22 13.6 134.89 0 138.39 Z" class="st25"/>
		</g>
		<g id="shape58-144" v:mID="58" v:groupContext="shape" transform="translate(-65.6941,111.559) rotate(-93.9649)">
			<title>Лист.58</title>
			<path d="M0 138.39 C2.39 135.91 7.28 134.5 9.04 132.11 C9.45 131.56 9.69 130.96 10.4 130.38 C11.15 129.78 12.4 129.2
						 13.35 129.07 C14.88 128.84 15.6 129.77 15.64 130.79 C15.74 133.49 11.09 136.8 0 138.39 Z" class="st25"/>
		</g>
		<g id="shape59-146" v:mID="59" v:groupContext="shape" transform="translate(74.8264,-76.282)">
			<title>Лист.59</title>
			<path d="M0 138.39 C11.62 125.37 33.61 119.92 33.13 132.81 C29.76 121.97 11.19 128.77 0 138.39 Z" class="st26"/>
		</g>
		<g id="shape60-150" v:mID="60" v:groupContext="shape" transform="translate(95.6879,-91.935)">
			<title>Лист.60</title>
			<path d="M0 113.3 C10.58 128.05 5.5 129.97 14.16 138.39 C12.02 123.16 7.82 119.17 0 113.3 Z" class="st27"/>
		</g>
		<g id="shape61-154" v:mID="61" v:groupContext="shape" transform="translate(53.5666,-72.618)">
			<title>Лист.61</title>
			<path d="M0 122.84 C13.61 140.98 29.2 144.67 40.82 127.37 C27.34 140.19 17.78 140.59 0 122.84 Z" class="st5"/>
		</g>
		<g id="shape62-156" v:mID="62" v:groupContext="shape" transform="translate(62.2113,-70.1947)">
			<title>Лист.62</title>
			<path d="M0 131.53 C2.69 138.84 17.15 142.24 26.58 132.38 C17.72 139.41 9.64 138.25 0 131.53 Z" class="st5"/>
		</g>
		<g id="shape63-158" v:mID="63" v:groupContext="shape" transform="translate(78.4834,-45.3639)">
			<title>Лист.63</title>
			<path d="M0.19 138.21 C-0.34 136.97 0.31 135.48 1.24 134.29 C2 133.31 2.95 132.53 3.72 132.11 C4.82 131.5 5.54 131.64
						 5.74 133.93 C5.9 135.84 5.7 139.24 0.19 138.21 Z" class="st24"/>
		</g>
		<g id="shape64-160" v:mID="64" v:groupContext="shape" transform="translate(78.7952,-45.9068)">
			<title>Лист.64</title>
			<path d="M0.16 138.24 C-0.28 137.21 0.26 135.96 1.03 134.97 C1.67 134.15 2.47 133.5 3.11 133.14 C4.03 132.64 4.63 132.75
						 4.79 134.67 C4.93 136.26 4.76 139.1 0.16 138.24 Z" class="st28"/>
		</g>
		<g id="shape65-162" v:mID="65" v:groupContext="shape" transform="translate(79.398,-46.9108)">
			<title>Лист.65</title>
			<path d="M0.13 138.26 C-0.23 137.42 0.21 136.41 0.84 135.59 C1.37 134.92 2.02 134.39 2.54 134.1 C3.29 133.69 3.78 133.78
						 3.92 135.35 C4.03 136.65 3.89 138.97 0.13 138.26 Z" class="st28"/>
		</g>
		<g id="shape66-164" v:mID="66" v:groupContext="shape" transform="translate(68.0233,-46.2203) scale(-1,1)">
			<title>Лист.66</title>
			<path d="M0.15 138.25 C-0.26 137.29 0.24 136.14 0.96 135.22 C1.55 134.46 2.29 133.85 2.88 133.53 C3.73 133.06 4.29 133.17
						 4.44 134.94 C4.56 136.42 4.41 139.05 0.15 138.25 Z" class="st24"/>
		</g>
		<g id="shape67-166" v:mID="67" v:groupContext="shape" transform="translate(67.7819,-46.6407) scale(-1,1)">
			<title>Лист.67</title>
			<path d="M0.12 138.27 C-0.22 137.47 0.2 136.51 0.8 135.74 C1.29 135.11 1.91 134.6 2.4 134.33 C3.12 133.94 3.58 134.03
						 3.71 135.51 C3.81 136.74 3.68 138.94 0.12 138.27 Z" class="st28"/>
		</g>
		<g id="shape68-168" v:mID="68" v:groupContext="shape" transform="translate(67.3153,-47.4178) scale(-1,1)">
			<title>Лист.68</title>
			<path d="M0.1 138.29 C-0.18 137.64 0.17 136.85 0.65 136.23 C1.06 135.71 1.56 135.29 1.97 135.07 C2.55 134.75 2.93 134.82
						 3.03 136.04 C3.12 137.04 3.01 138.84 0.1 138.29 Z" class="st28"/>
		</g>
		<g id="shape69-170" v:mID="69" v:groupContext="shape" transform="translate(53.5666,-73.3755)">
			<title>Лист.69</title>
			<path d="M0 123.69 C14.74 141.17 29.48 143.44 40.16 128.56 C21.45 147.27 10.73 132.71 0 123.69 Z" class="st29"/>
		</g>
		<g id="shape70-172" v:mID="70" v:groupContext="shape" transform="translate(83.6138,-50.3548)">
			<title>Лист.70</title>
			<path d="M15.31 131.76 C8.5 131.19 4.54 132.32 0 135.72 C1.92 137.06 21.66 141.44 21.45 134.88 C21.52 134.33 19.84 132.32
						 15.31 131.76 Z" class="st30"/>
		</g>
		<g id="shape71-176" v:mID="71" v:groupContext="shape" transform="translate(63.1589,-47.5927) scale(-1,1)">
			<title>Лист.71</title>
			<path d="M18.1 131.26 C7.89 131.26 6.19 131.83 0 131.99 C1.09 134.05 20.22 143.21 24.33 135.23 C25.47 131.26 24.37 131.09
						 18.1 131.26 Z" class="st30"/>
		</g>
		<g id="shape72-179" v:mID="72" v:groupContext="shape" transform="translate(69.8998,-80.8562) scale(-1,1)">
			<title>Лист.72</title>
			<path d="M0 138.39 C4.71 131.64 8.96 128.24 18.49 126.82 C9.99 130.73 9.71 130.16 0 138.39 Z" class="st26"/>
		</g>
		<g id="shape73-182" v:mID="73" v:groupContext="shape" transform="translate(86.8052,-43.2267)">
			<title>Лист.73</title>
			<path d="M0 129.74 C3.88 130.93 7.43 131.41 11.94 131.58 C13.81 131.65 15.85 131.66 17.04 130.83 C17.83 130.27 18.26
						 129.35 18.14 128.81 C17.81 132.95 15.52 135.68 13.24 138.39 C13.74 137.15 14.95 135.54 14.38 133.7 C6 133.03
						 2.21 131.23 0 129.74 Z" class="st17"/>
		</g>
		<g id="shape74-184" v:mID="74" v:groupContext="shape" transform="translate(67.1729,-57.1004)">
			<title>Лист.74</title>
			<path d="M7.65 132.27 C8.5 134.25 7.94 133.4 8.5 134.25 C9.07 134.87 9.35 135.38 11.34 132.55 C10.77 135.67 11.34 134.82
						 12.6 135.28 C11.62 135.67 11.91 135.95 10.77 137.93 C13.04 135.1 11.64 135.72 10.92 136.04 C9.65 136.6 10.49
						 136.23 9.26 138.39 C9.07 137.08 8.65 137.03 8.39 136.9 C7.94 136.68 7.94 136.23 6.52 136.52 C5.67 136.23
						 5.38 136.16 5.09 136.24 C4.81 136.31 4.54 136.52 4.54 138.22 C3.12 136.23 3.59 136.23 2.42 135.77 C1.76
						 135.51 0.57 135.1 1.98 137.37 C0.85 136.52 1.62 135.67 0 136.8 C0.43 136.26 1.13 135.38 0.13 134.92 C0.24
						 134.96 0.45 134.98 0.59 134.97 C1.21 134.91 0.57 134.25 0.57 133.68 C1.13 134.82 2.79 136.52 2.55 133.68
						 C3.73 134.65 3.97 133.97 2.27 129.71 C5.95 134.53 6.55 134.14 7.65 132.27 Z" class="st4"/>
		</g>
		<g id="shape75-186" v:mID="75" v:groupContext="shape" transform="translate(64.642,-59.312) scale(-1,1)">
			<title>Лист.75</title>
			<path d="M0 138.08 C0.75 138.39 1.42 138.39 2.16 138.39 C5.15 138.4 9.06 138.39 11.78 136.18 C13.31 134.94 14.46 132.99
						 13.82 132.01 C13.07 130.85 9.84 131 7.85 131.73 C3.65 133.26 4.98 137.35 0 138.08 Z" class="st18"/>
		</g>
		<g id="shape76-189" v:mID="76" v:groupContext="shape" transform="translate(50.4485,-59.2647)">
			<title>Лист.76</title>
			<path d="M14.42 138.06 C9.2 136.9 10.31 133.15 6.38 131.53 C4.51 130.76 1.51 130.47 0.45 131.59 C-0.44 132.54 0.07 134.51
						 1.32 135.82 C3.56 138.16 8.15 138.43 11.8 138.39 C12.7 138.39 13.54 138.36 14.42 138.06 ZM12.77 137.8 C12.01
						 138.02 11.3 138.01 10.55 137.99 C7.46 137.87 3.59 137.47 1.79 135.41 C0.78 134.25 0.42 132.57 1.22 131.8
						 C2.15 130.9 4.68 131.25 6.22 131.97 C9.49 133.49 8.41 136.62 12.77 137.8 Z" class="st31"/>
		</g>
		<g id="shape77-193" v:mID="77" v:groupContext="shape" transform="translate(98.0705,-60.6981) scale(-1,1)">
			<title>Лист.77</title>
			<path d="M13.76 138.06 C9.1 137.03 10.14 133.85 6.5 131.98 C4.5 131.03 1.18 130.63 0.16 131.76 C-0.35 132.36 0.41 134.09
						 1.8 135.39 C3.96 137.89 8.23 138.58 11.42 138.36 C12.22 138.36 12.97 138.33 13.76 138.06 ZM12.29 137.84
						 C11.61 138.03 10.97 138.03 10.3 138 C7.73 138.39 3.7 136.63 2.5 135.25 C1.96 134.94 -0.17 132.55 1.04 131.83
						 C1.57 131.25 5.48 131.59 6.44 132.63 C9.36 133.99 8.39 136.78 12.29 137.84 Z" class="st31"/>
		</g>
		<g id="shape78-196" v:mID="78" v:groupContext="shape" transform="translate(30.6826,186.395) rotate(-170)">
			<title>Лист.78</title>
			<path d="M0 135.76 C4.75 140.03 8.6 139.06 12.18 133.25 C8.21 136.83 6.32 139.18 0 135.76 Z" class="st23"/>
		</g>
		<g id="shape79-198" v:mID="79" v:groupContext="shape" transform="translate(31.3344,188.499) rotate(-170)">
			<title>Лист.79</title>
			<path d="M0 135.59 C5.05 140.13 9.16 139.1 12.97 132.92 C8.74 136.73 6.73 139.23 0 135.59 Z" class="st23"/>
		</g>
		<g id="shape80-200" v:mID="80" v:groupContext="shape" transform="translate(34.1081,184.77) rotate(-170)">
			<title>Лист.80</title>
			<path d="M0 133.98 C6.25 139.71 11.61 140.34 15.41 133.02 C11.39 137.49 7.58 138.74 0 133.98 Z" class="st23"/>
		</g>
		<g id="shape81-202" v:mID="81" v:groupContext="shape" transform="translate(-8.67733,188.028) rotate(-150)">
			<title>Лист.81</title>
			<path d="M0 134.33 C7.01 140.03 12.84 139.93 17.45 133.18 C15.43 136.47 8.93 138.26 0 134.33 Z" class="st5"/>
		</g>
		<g id="shape82-204" v:mID="82" v:groupContext="shape" transform="translate(148.883,188.715) rotate(-30) scale(1,-1)">
			<title>Лист.82</title>
			<path d="M0 129.43 C15.4 137.94 26.03 141.62 25.86 135.02 C23.56 138.46 18.91 137.22 0 129.43 Z" class="st5"/>
		</g>
		<g id="shape83-206" v:mID="83" v:groupContext="shape" transform="translate(-10.7565,174.915) rotate(-150)">
			<title>Лист.83</title>
			<path d="M0 136.44 C10.79 139.39 12.7 136.38 14.34 130.04 C15.24 135.69 10.8 141.68 0 136.44 Z" class="st5"/>
		</g>
		<g id="shape84-208" v:mID="84" v:groupContext="shape" transform="translate(-9.29131,173.63) rotate(-150)">
			<title>Лист.84</title>
			<path d="M0 135.43 C12.67 140.11 14.55 136.3 16.2 129.96 C15.72 135.81 11.58 142.36 0 135.43 Z" class="st5"/>
		</g>
		<g id="shape85-210" v:mID="85" v:groupContext="shape" transform="translate(73.6926,-38.4737)">
			<title>Лист.85</title>
			<path d="M0 138.39 C1.42 127.53 1.3 123.28 1.44 122.55 C1.55 121.94 1.83 123.75 2.89 123.89 C4.41 124.08 7.54 120.78
						 7.04 122.37 C6.62 123.68 3.69 128.38 0 138.39 Z" class="st28"/>
		</g>
		<g id="shape86-212" v:mID="86" v:groupContext="shape" transform="translate(72.1695,-38.6276) scale(-1,1)">
			<title>Лист.86</title>
			<path d="M0 138.39 C-0.11 126.83 0.86 123.51 1.24 123.04 C1.56 122.64 1.48 124.19 2.31 124.31 C3.5 124.49 6.59 121.68
						 6.08 123.06 C5.65 124.21 2.73 128.25 0 138.39 Z" class="st28"/>
		</g>
		<g id="shape87-214" v:mID="87" v:groupContext="shape" transform="translate(67.416,-34.4642)">
			<title>Лист.87</title>
			<path d="M0 130.74 C4.01 137.41 4.86 141.94 10.92 131.51 C7.41 139.96 3.66 141.67 0 130.74 Z" class="st5"/>
		</g>
		<g id="shape88-216" v:mID="88" v:groupContext="shape" transform="translate(68.5902,-36.2991)">
			<title>Лист.88</title>
			<path d="M0 132.65 C3.09 136.43 3.69 138.32 5.39 137.12 C6.15 136.58 7.12 135.44 9.09 132.17 C8.03 134.91 6.82 137.39
						 4.58 138.26 C4.15 138.43 3.69 138.54 3.04 137.94 C2.33 137.29 1.39 135.81 0 132.65 Z" class="st7"/>
		</g>
		<g id="shape89-218" v:mID="89" v:groupContext="shape" transform="translate(83.9755,223.251) rotate(180)">
			<title>Лист.89</title>
			<path d="M0 137.68 C2.63 137.6 4.33 135.61 6.99 130.04 C5.46 136.18 3.2 140.15 0 137.68 Z" class="st4"/>
		</g>
		<g id="shape90-220" v:mID="90" v:groupContext="shape" transform="translate(61.3028,223.085) scale(1,-1)">
			<title>Лист.90</title>
			<path d="M0 136 C3.78 138.18 5.02 136.58 8.14 130.63 C6.15 136.86 4.45 141.4 0 136 Z" class="st4"/>
		</g>
		<g id="shape92-222" v:mID="92" v:groupContext="shape" transform="translate(64.5575,-40.0747) scale(-1,1)">
			<title>Лист.92</title>
			<path d="M0 124.5 C5.7 127.34 8.53 130.06 18.99 130.61 C21.03 130.71 23.35 130.74 22.5 133.57 C20.41 136.69 17.65 136.13
						 15.04 138.39 C15.87 135.84 17.09 134.99 19.28 132.44 C14.73 133.74 4.56 129.61 0 124.5 Z" class="st17"/>
		</g>
		<g id="shape93-224" v:mID="93" v:groupContext="shape" transform="translate(62.955,-40.3112) scale(-1,1)">
			<title>Лист.93</title>
			<path d="M0 126.31 C5.43 128.52 7.79 131.05 16.37 131.46 C18.04 131.54 19.94 131.54 20.35 133.11 C19.24 135.54 16.82
						 135.51 13.52 138.39 C14.27 134.94 17.67 133.53 17.52 132.72 C13.81 134.34 4.41 130.19 0 126.31 Z"
					class="st17"/>
		</g>
		<g id="shape94-226" v:mID="94" v:groupContext="shape" transform="translate(60.9158,-41.3395) scale(-1,1)">
			<title>Лист.94</title>
			<path d="M0 128.91 C4.01 130.87 6.84 132.9 14 132.88 C15.39 132.88 16.94 132.8 17.62 134.27 C16.86 135.89 15.09 135.99
						 11.92 138.39 C13.14 136.16 15.9 134.34 15.63 133.71 C12.2 135.02 4.01 131.72 0 128.91 Z" class="st32"/>
		</g>
		<g id="shape95-228" v:mID="95" v:groupContext="shape" transform="translate(47.8086,231.856) scale(1,-1)">
			<title>Лист.95</title>
			<path d="M0 137.98 C11.71 138.83 14.91 134.78 20.87 129.42 C15.96 136 9.73 139.68 0 137.98 Z" class="st4"/>
		</g>
		<g id="shape96-230" v:mID="96" v:groupContext="shape" transform="translate(97.4843,231.606) rotate(180)">
			<title>Лист.96</title>
			<path d="M0 138.39 C9.33 137.16 11.39 133.85 20.75 128.47 C14.72 133.62 7.92 138.7 0 138.39 Z" class="st4"/>
		</g>
		<g id="shape97-232" v:mID="97" v:groupContext="shape" transform="translate(81.1092,-61.1778) rotate(-2)">
			<title>Лист.97</title>
			<path d="M0 138.31 C0.7 138.24 1.1 138.3 1.6 138.35 C3.64 138.52 7.38 138.27 9.66 136.45 C10.94 135.43 11.75 133.91 11.24
						 133.17 C10.64 132.31 8.2 132.52 6.65 133.12 C3.39 134.4 4.11 137.41 0 138.31 Z" class="st33"/>
		</g>
		<g id="shape98-236" v:mID="98" v:groupContext="shape" transform="translate(68.0264,-59.5073) rotate(2) scale(-1,1)">
			<title>Лист.98</title>
			<path d="M0 138.3 C0.76 138.22 1.19 138.3 1.73 138.34 C3.94 138.53 7.99 138.25 10.45 136.29 C11.83 135.18 12.71 133.54
						 12.16 132.75 C11.5 131.81 8.87 132.04 7.2 132.69 C3.67 134.07 4.45 137.33 0 138.3 Z" class="st33"/>
		</g>
		<g id="shape99-239" v:mID="99" v:groupContext="shape" transform="translate(187.659,145.959) rotate(115)">
			<title>Лист.99</title>
			<path d="M0 138.17 C1.87 138.22 3.57 136.23 3.87 134.36 C3.95 136.42 1.21 139.26 0 138.17 Z" class="st13"/>
		</g>
		<g id="shape100-241" v:mID="100" v:groupContext="shape" transform="translate(-40.0637,146.2) rotate(65) scale(1,-1)">
			<title>Лист.100</title>
			<path d="M0 138.15 C1.87 138.2 3.57 136.22 4.37 133.28 C4.4 136.6 1.21 139.24 0 138.15 Z" class="st13"/>
		</g>
		<g id="shape101-243" v:mID="101" v:groupContext="shape" transform="translate(150.132,185.674) rotate(-30) scale(1,-1)">
			<title>Лист.101</title>
			<path d="M0 130.12 C14.89 139.24 22.86 141.35 23.98 133.81 C21.47 140.74 16.26 138.51 0 130.12 Z" class="st5"/>
		</g>
		<g id="shape102-245" v:mID="102" v:groupContext="shape" transform="translate(94.2946,151.872) rotate(165)">
			<title>Лист.102</title>
			<path d="M0 138.39 C9.68 138.08 21.03 136.42 29.01 123.57 C17.07 134.27 12.45 134.99 0 138.39 Z" class="st34"/>
		</g>
		<g id="shape103-249" v:mID="103" v:groupContext="shape" transform="translate(66.1718,-33.6006)">
			<title>Лист.103</title>
			<path d="M0 127.19 C1.15 128.27 1.48 130.05 1.89 131.35 C2.47 133.23 3.21 134.15 4.22 135.21 C4.83 135.85 5.55 136.54
						 6.37 136.7 C7.6 136.95 9.08 136 10.09 134.59 C11.66 132.39 12.09 129.07 14.06 127.55 C12.91 130.24 13.02
						 130.19 12.79 130.83 C12.46 131.76 11.43 134.12 10.38 135.63 C9.87 136.35 9.37 136.87 8.76 137.33 C7.78 138.08
						 6.54 138.64 5.52 138.29 C4.23 137.84 3.3 135.92 2.5 134.39 C1.91 133.24 1.39 132.3 1.03 131.44 C0.64 130.51
						 0.43 129.67 0 127.19 Z" class="st35"/>
		</g>
		<g id="shape104-251" v:mID="104" v:groupContext="shape" transform="translate(79.9933,-47.9234)">
			<title>Лист.104</title>
			<path d="M0.1 138.29 C-0.18 137.64 0.17 136.85 0.65 136.22 C1.06 135.7 1.56 135.29 1.97 135.07 C2.55 134.75 2.93 134.82
						 3.04 136.03 C3.12 137.04 3.02 138.84 0.1 138.29 Z" class="st36"/>
		</g>
		<g id="shape105-253" v:mID="105" v:groupContext="shape" transform="translate(67.1729,-47.6043) scale(-1,1)">
			<title>Лист.105</title>
			<path d="M0.09 138.3 C-0.17 137.7 0.15 136.96 0.61 136.38 C0.98 135.9 1.45 135.51 1.83 135.31 C2.37 135.01 2.72 135.08
						 2.82 136.2 C2.9 137.14 2.8 138.81 0.09 138.3 Z" class="st36"/>
		</g>
		<g id="shape106-255" v:mID="106" v:groupContext="shape" transform="translate(49.5934,-45.0865) scale(-1,1)">
			<title>Лист.106</title>
			<path d="M10.71 86.53 C8.16 81.67 -2.55 76.95 0.56 69.58 C13.04 48.6 86.17 51.94 24.09 138.39 C40.82 88.79 20.12 69.86
						 10.71 86.53 Z" class="st37"/>
		</g>
		<g id="shape107-259" v:mID="107" v:groupContext="shape" transform="translate(50.0835,-38.171)">
			<title>Лист.107</title>
			<path d="M0 131.61 C8.24 131.39 12.65 133.62 16.8 138.39 C14.25 132.61 12.55 130.34 10.25 125.97 C7.12 127.91 4 129.94
						 0 131.61 Z" class="st38"/>
		</g>
		<g id="shape108-263" v:mID="108" v:groupContext="shape" transform="translate(100.351,-36.7756) scale(-1,1)">
			<title>Лист.108</title>
			<path d="M0 128.13 C8.32 132.38 6.84 126.76 21.84 138.39 C19.2 130.05 13.9 130.65 13.51 124.23 C9.37 127.25 13.34 125.55
						 0 128.13 Z" class="st38"/>
		</g>
		<g id="shape109-266" v:mID="109" v:groupContext="shape" transform="translate(80.7745,-9.6534)">
			<title>Лист.109</title>
			<path d="M16.41 43.89 C9.51 40.08 1.27 35.64 0 25.5 C4.54 -5.04 90.71 -3.34 39.69 138.39 C52.84 45.61 26.93 25.26 16.41
						 43.89 Z" class="st37"/>
		</g>
		<g id="shape110-269" v:mID="110" v:groupContext="shape" transform="translate(158.82,-61.4946) rotate(10) scale(-1,1)">
			<title>Лист.110</title>
			<path d="M0 138.39 C2.96 135.55 8.18 135.77 11.24 137.63 C12.17 133.81 13.1 129.59 14.02 127.15 C9.69 123.49 4.3 122.8
						 1.01 123.84 C0.4 130.32 0.25 132.57 -0 138.39 Z" class="st39"/>
		</g>
		<g id="shape111-271" v:mID="111" v:groupContext="shape" transform="translate(-2.1701,-72.3619) rotate(-50) scale(-1,1)">
			<title>Лист.111</title>
			<path d="M0 118.59 C0.64 129.53 3.96 133.06 13.55 138.39 C16.61 138.15 16.17 138.11 18.94 129.81 C17.42 123.64 15.49
						 121.7 14.16 120.18 C7.14 116.49 3.27 117.92 0 118.59 Z" class="st39"/>
		</g>
		<g id="shape112-273" v:mID="112" v:groupContext="shape" transform="translate(87.6262,-97.5485) rotate(-20) scale(-1,1)">
			<title>Лист.112</title>
			<path d="M0.41 138.39 C7.97 134.49 13.78 132.88 17.56 134.89 C18.61 131.44 20.52 127.87 24.1 123.47 C16.82 114.03 13.52
						 111.61 3.84 111.19 C1.5 117.31 -1 124.74 0.41 138.39 Z" class="st39"/>
		</g>
		<g id="shape113-275" v:mID="113" v:groupContext="shape" transform="translate(140.846,-24.7544) rotate(5) scale(-1,1)">
			<title>Лист.113</title>
			<path d="M3 138.39 C3.9 137.35 4.51 136.83 6.34 137.01 C6.11 132.05 6.35 128.75 6.32 123.88 C5.91 122.87 2.68 121.73
						 -0 122.7 C1.05 128.73 1.5 131.12 3 138.39 Z" class="st39"/>
		</g>
		<g id="shape114-277" v:mID="114" v:groupContext="shape" transform="translate(124.767,-74.3095) scale(-1,1)">
			<title>Лист.114</title>
			<path d="M1.45 138.39 C2.61 124.25 5.72 94.48 38.95 100.18 C2.04 86.83 -3.24 127.45 1.45 138.39 Z" class="st40"/>
		</g>
		<g id="shape115-279" v:mID="115" v:groupContext="shape" transform="translate(110.257,-80.7097) scale(-1,1)">
			<title>Лист.115</title>
			<path d="M0 138.39 C3.4 134.05 7.37 121.01 18.7 131.48 C12.05 118.03 0.48 131.77 0 138.39 Z" class="st40"/>
		</g>
		<g id="shape116-281" v:mID="116" v:groupContext="shape" transform="translate(74.5259,-29.4959)">
			<title>Лист.116</title>
			<path d="M16.98 80.35 C7.95 81.7 -0.08 70.81 0 62.19 C18.15 41.73 77.68 54.49 31.76 138.39 C49.33 85.67 26.09 64.69 16.98
						 80.35 Z" class="st37"/>
		</g>
		<g id="shape117-284" v:mID="117" v:groupContext="shape" transform="translate(35.8189,-96.9994) rotate(15)">
			<title>Лист.117</title>
			<path d="M0.86 138.39 C9.44 133.16 12.65 133.02 21.71 135.54 C20.92 128.43 20.96 127.98 21.15 122.98 C14.17 120.15 7.86
						 120.67 1.57 123.18 C-0.24 129.88 -0.49 131.12 0.86 138.39 Z" class="st39"/>
		</g>
		<g id="shape118-286" v:mID="118" v:groupContext="shape" transform="translate(6.81054,-66.7384)">
			<title>Лист.118</title>
			<path d="M4.91 138.39 C8.06 135.38 9.62 135.38 13.03 136.4 C12.6 132.22 12.47 130.35 12.37 127.22 C9.9 125.46 3.1 125.75
						 -0 128.39 C0.83 130.85 1.96 134.25 4.91 138.39 Z" class="st39"/>
		</g>
		<g id="shape119-288" v:mID="119" v:groupContext="shape" transform="translate(20.113,-92.331)">
			<title>Лист.119</title>
			<path d="M1.39 138.39 C1.24 124.05 4.64 114.7 13.87 106.13 C4.64 105.63 -3.3 127.45 1.39 138.39 Z" class="st40"/>
		</g>
		<g id="shape120-290" v:mID="120" v:groupContext="shape" transform="translate(35.7251,-65.6612)">
			<title>Лист.120</title>
			<path d="M1.32 138.39 C0.93 119.66 5.7 94.1 18.9 106.86 C5.93 87.82 -3.6 123.06 1.32 138.39 Z" class="st40"/>
		</g>
		<g id="shape121-292" v:mID="121" v:groupContext="shape" transform="translate(74.065,-6.81876) scale(-1,1)">
			<title>Лист.121</title>
			<path d="M19.3 48.26 C13.13 44.85 1.79 39.18 0 23.69 C13.13 -9.01 94.77 13.67 24.47 138.39 C51.89 49.8 28.72 31.6 19.3
						 48.26 Z" class="st37"/>
		</g>
		<g id="shape122-295" v:mID="122" v:groupContext="shape" transform="translate(73.9379,-6.34245) scale(-1,1)">
			<title>Лист.122</title>
			<path d="M19.3 48.26 C13.13 44.85 1.79 39.18 0 23.69 C13.13 -9.01 94.77 13.67 24.47 138.39 C51.89 49.8 28.72 31.6 19.3
						 48.26 Z" class="st41"/>
		</g>
		<g id="shape123-297" v:mID="123" v:groupContext="shape" transform="translate(24.9588,-52.614)">
			<title>Лист.123</title>
			<path d="M3.68 138.39 C8.19 134.3 9.33 135.43 13.33 136.48 C12.29 129.83 12.17 127.95 12.07 124.82 C9.6 123.07 2.79 123.35
						 -0 125.86 C0.53 128.45 1.66 131.86 3.68 138.39 Z" class="st39"/>
		</g>
		<g id="shape124-299" v:mID="124" v:groupContext="shape" transform="translate(64.489,-76.8724) rotate(20)">
			<title>Лист.124</title>
			<path d="M4.9 138.39 C11.26 134.17 14.05 134.36 19.84 135.36 C18.13 127.79 18.06 127.27 17.68 122.41 C11.16 120.8 7.75
						 120.36 -0 125.35 C0.62 128.99 2.32 132.36 4.9 138.39 Z" class="st39"/>
		</g>
		<g id="shape125-301" v:mID="125" v:groupContext="shape" transform="translate(94.0245,-95.329) rotate(30)">
			<title>Лист.125</title>
			<path d="M0 134.12 C12.33 127.23 15.61 131.24 23.6 138.39 C25.5 136.79 24.94 137.12 27.27 136.24 C24.19 121.69 12.48
						 112.75 3.52 117.05 C1.21 122.93 0.02 125.18 -0 134.12 Z" class="st39"/>
		</g>
		<g id="shape126-303" v:mID="126" v:groupContext="shape" transform="translate(78.3077,-75.2876) rotate(-20) scale(-1,1)">
			<title>Лист.126</title>
			<path d="M2.5 138.39 C5.84 135.96 11.65 134.36 15.43 136.36 C15.14 133.3 16.07 127.74 17.12 125.92 C11.94 122.88 7.77
						 121.38 -0 123.86 C0.22 128.9 0.54 131.11 2.5 138.39 Z" class="st39"/>
		</g>
		<g id="shape127-305" v:mID="127" v:groupContext="shape" transform="translate(42.7395,-82.0789) rotate(-30) scale(-1,1)">
			<title>Лист.127</title>
			<path d="M0 124.6 C7.16 126.26 9.52 127.16 16.74 138.19 C19.8 137.95 19.36 137.91 21.78 138.39 C17.09 129.48 11.08 120.96
						 13.52 115.69 C6.68 118.81 5.3 119.27 -0 124.6 Z" class="st39"/>
		</g>
		<g id="shape128-307" v:mID="128" v:groupContext="shape" transform="translate(131.208,-47.7819) rotate(5) scale(-1,1)">
			<title>Лист.128</title>
			<path d="M3.66 138.39 C4.5 136.9 6.27 136.2 7.78 137.06 C7.55 132.11 7.54 128.61 7.76 123.93 C7.35 122.93 4.12 121.79
						 -0 123.71 C1.08 128.91 1.7 131.45 3.66 138.39 Z" class="st39"/>
		</g>
		<g id="shape129-309" v:mID="129" v:groupContext="shape" transform="translate(66.508,-60.2355) rotate(2) scale(-1,1)">
			<title>Лист.129</title>
			<path d="M0 138.32 C0.62 138.26 0.97 138.32 1.41 138.35 C3.21 138.51 6.5 138.28 8.51 136.68 C9.64 135.78 10.36 134.44
						 9.9 133.79 C9.37 133.03 7.22 133.22 5.86 133.75 C2.99 134.87 3.63 137.53 0 138.32 Z" class="st33"/>
		</g>
		<g id="shape130-312" v:mID="130" v:groupContext="shape" transform="translate(64.6261,-61.0026) rotate(2) scale(-1,1)">
			<title>Лист.130</title>
			<path d="M0 138.34 C0.44 138.29 0.7 138.34 1.01 138.36 C2.31 138.47 4.68 138.31 6.12 137.16 C6.93 136.51 7.45 135.55
						 7.12 135.09 C6.74 134.54 5.19 134.67 4.22 135.05 C2.15 135.86 2.61 137.77 0 138.34 Z" class="st33"/>
		</g>
		<g id="shape131-315" v:mID="131" v:groupContext="shape" transform="translate(77.2009,-61.0167) rotate(-4)">
			<title>Лист.131</title>
			<path d="M0 138.32 C0.62 138.26 0.97 138.32 1.41 138.35 C3.21 138.51 6.5 138.28 8.51 136.68 C9.64 135.78 10.36 134.44
						 9.9 133.79 C9.37 133.03 7.22 133.22 5.86 133.75 C2.99 134.87 3.63 137.53 0 138.32 Z" class="st33"/>
		</g>
		<g id="shape132-318" v:mID="132" v:groupContext="shape" transform="translate(79.0549,-61.8491) rotate(-4)">
			<title>Лист.132</title>
			<path d="M0 138.34 C0.44 138.29 0.7 138.34 1.01 138.36 C2.31 138.47 4.68 138.31 6.12 137.16 C6.93 136.51 7.45 135.55
						 7.12 135.09 C6.74 134.54 5.19 134.67 4.22 135.05 C2.15 135.86 2.61 137.77 0 138.34 Z" class="st33"/>
		</g>
	</g>
</svg>
