<?xml version="1.0" encoding="UTF-8" standalone="no"?>
<!DOCTYPE svg PUBLIC "-//W3C//DTD SVG 1.0//EN" "http://www.w3.org/TR/2001/REC-SVG-20010904/DTD/svg10.dtd">
<!-- Создано Microsoft Visio 11.0, Экспорт SVG, версия 1.0 spades.svg Страница-1 -->
<svg xmlns="http://www.w3.org/2000/svg" xmlns:xlink="http://www.w3.org/1999/xlink" xmlns:ev="http://www.w3.org/2001/xml-events"
		xmlns:v="http://schemas.microsoft.com/visio/2003/SVGExtensions/" width="1.74147in" height="2.17782in"
		viewBox="0 0 125.386 156.803" xml:space="preserve" color-interpolation-filters="sRGB" class="st7">
	<v:documentProperties v:langID="1049" v:metric="true" v:viewMarkup="false"/>

	<style type="text/css">
	<![CDATA[
		.st1 {fill:url(#grad30-5)}
		.st2 {stroke:#f5deb3;stroke-linecap:round;stroke-linejoin:round;stroke-width:6}
		.st3 {fill:url(#grad30-5);stroke:#f5deb3;stroke-linecap:round;stroke-linejoin:round;stroke-width:6}
		.st4 {stroke:none;stroke-linecap:round;stroke-linejoin:round;stroke-width:0.25}
		.st5 {fill:url(#grad30-5);stroke:none;stroke-linecap:round;stroke-linejoin:round;stroke-width:0.25}
		.st6 {fill:#000000;stroke:none;stroke-linecap:round;stroke-linejoin:round;stroke-width:0.25}
		.st7 {fill:none;fill-rule:evenodd;font-size:12;overflow:visible;stroke-linecap:square;stroke-miterlimit:3}
	]]>
	</style>

	<defs id="Patterns_And_Gradients">
		<linearGradient id="grad30-5" v:fillPattern="30" v:foreground="#000000" v:background="#000000" x1="0" y1="1" x2="0" y2="0">
			<stop offset="0" style="stop-color:#000000;stop-opacity:1"/>
			<stop offset="1" style="stop-color:#000000;stop-opacity:1"/>
		</linearGradient>
	</defs>
	<g v:mID="0" v:index="1" v:groupContext="foregroundPage">
		<title>Страница-1</title>
		<v:pageProperties v:drawingScale="0.0393701" v:pageScale="0.0393701" v:drawingUnits="24" v:shadowOffsetX="8.50394"
				v:shadowOffsetY="-8.50394"/>
		<g id="group5-1" transform="translate(6,-6)" v:mID="5" v:groupContext="group">
			<v:userDefs>
				<v:ud v:nameU="msvThemeColors" v:val="VT0(36):26"/>
				<v:ud v:nameU="msvThemeEffects" v:val="VT0(16):26"/>
			</v:userDefs>
			<title>Лист.5</title>
			<g id="shape6-2" v:mID="6" v:groupContext="shape" transform="translate(4.46483,-40.1569)">
				<title>Лист.6</title>
				<v:userDefs>
					<v:ud v:nameU="msvThemeColors" v:val="VT0(36):26"/>
					<v:ud v:nameU="msvThemeEffects" v:val="VT0(16):26"/>
				</v:userDefs>
				<path d="M52.23 78.96 L52.23 52.16 L52.23 52.16 C29.57 84.77 -10.07 94.42 2.36 136.46 L2.39 136.57 A28.3465 28.3465
							 -180 0 0 52 145.77 A28.3465 28.3465 -180 0 0 52.23 145.46 A28.3465 28.3465 -180 0 0 52.46 145.77 A28.3465
							 28.3465 -180 0 0 102.07 136.57 L102.1 136.46 C114.52 94.42 74.89 84.77 52.23 52.16 C52.23 78.96 52.23
							 95.94 52.27 111.39 a0.0460078 0.0460078 0 0 1 -0.0896272 -2.13163E-013 L52.23 78.96 Z" class="st1"/>
				<path d="M52.23 78.96 L52.23 52.16 L52.23 52.16 C29.57 84.77 -10.07 94.42 2.36 136.46 L2.39 136.57 A28.3465 28.3465
							 -180 0 0 52 145.77 A28.3465 28.3465 -180 0 0 52.23 145.46 A28.3465 28.3465 -180 0 0 52.46 145.77 A28.3465
							 28.3465 -180 0 0 102.07 136.57 L102.1 136.46 C114.52 94.42 74.89 84.77 52.23 52.16 C52.23 78.96 52.23
							 95.94 52.27 111.39 a0.0460078 0.0460078 0 0 1 -0.0896272 -2.13163E-013" class="st2"/>
			</g>
			<g id="shape7-7" v:mID="7" v:groupContext="shape">
				<title>Лист.7</title>
				<v:userDefs>
					<v:ud v:nameU="msvThemeColors" v:val="VT0(36):26"/>
					<v:ud v:nameU="msvThemeEffects" v:val="VT0(16):26"/>
				</v:userDefs>
				<path d="M113.39 152.79 C81.56 157.79 59.53 127.26 56.69 104.93 C53.86 127.26 31.83 157.79 0 152.79 C17.01 159.17
							 42.52 159.17 56.69 146.4 C70.87 159.17 96.38 159.17 113.39 152.79 Z" class="st3"/>
			</g>
		</g>
		<g id="group1-10" transform="translate(6,-6)" v:mID="1" v:groupContext="group">
			<v:userDefs>
				<v:ud v:nameU="msvThemeColors" v:val="VT0(36):26"/>
				<v:ud v:nameU="msvThemeEffects" v:val="VT0(16):26"/>
			</v:userDefs>
			<title>Лист.1</title>
			<g id="shape2-11" v:mID="2" v:groupContext="shape" transform="translate(4.46483,-40.1569)">
				<title>Лист.2</title>
				<v:userDefs>
					<v:ud v:nameU="msvThemeColors" v:val="VT0(36):26"/>
					<v:ud v:nameU="msvThemeEffects" v:val="VT0(16):26"/>
				</v:userDefs>
				<path d="M52.23 78.96 L52.23 52.16 L52.23 52.16 C29.57 84.77 -10.07 94.42 2.36 136.46 L2.39 136.57 A28.3465 28.3465
							 -180 0 0 52 145.77 A28.3465 28.3465 -180 0 0 52.23 145.46 A28.3465 28.3465 -180 0 0 52.46 145.77 A28.3465
							 28.3465 -180 0 0 102.07 136.57 L102.1 136.46 C114.52 94.42 74.89 84.77 52.23 52.16 C52.23 78.96 52.23
							 95.94 52.27 111.39 a0.0460078 0.0460078 0 0 1 -0.0896272 -2.13163E-013 L52.23 78.96 Z" class="st1"/>
				<path d="M52.23 78.96 L52.23 52.16 L52.23 52.16 C29.57 84.77 -10.07 94.42 2.36 136.46 L2.39 136.57 A28.3465 28.3465
							 -180 0 0 52 145.77 A28.3465 28.3465 -180 0 0 52.23 145.46 A28.3465 28.3465 -180 0 0 52.46 145.77 A28.3465
							 28.3465 -180 0 0 102.07 136.57 L102.1 136.46 C114.52 94.42 74.89 84.77 52.23 52.16 C52.23 78.96 52.23
							 95.94 52.27 111.39 a0.0460078 0.0460078 0 0 1 -0.0896272 -2.13163E-013" class="st4"/>
			</g>
			<g id="shape3-15" v:mID="3" v:groupContext="shape">
				<title>Лист.3</title>
				<v:userDefs>
					<v:ud v:nameU="msvThemeColors" v:val="VT0(36):26"/>
					<v:ud v:nameU="msvThemeEffects" v:val="VT0(16):26"/>
				</v:userDefs>
				<path d="M113.39 152.79 C81.56 157.79 59.53 127.26 56.69 104.93 C53.86 127.26 31.83 157.79 0 152.79 C17.01 159.17
							 42.52 159.17 56.69 146.4 C70.87 159.17 96.38 159.17 113.39 152.79 Z" class="st5"/>
			</g>
			<g id="shape4-18" v:mID="4" v:groupContext="shape" transform="translate(53.8583,-80.5039)">
				<title>Прямоугольник</title>
				<v:userDefs>
					<v:ud v:nameU="visVersion" v:val="VT0(14):26"/>
					<v:ud v:nameU="msvThemeColors" v:val="VT0(36):26"/>
					<v:ud v:nameU="msvThemeEffects" v:val="VT0(16):26"/>
				</v:userDefs>
				<rect x="0" y="98.4091" width="5.66929" height="58.3937" class="st6"/>
			</g>
		</g>
	</g>
</svg>
