<?xml version="1.0" encoding="UTF-8" standalone="no"?>
<!DOCTYPE svg PUBLIC "-//W3C//DTD SVG 1.0//EN" "http://www.w3.org/TR/2001/REC-SVG-20010904/DTD/svg10.dtd">
<!-- Создано Microsoft Visio 11.0, Экспорт SVG, версия 1.0 jockers-black.svg Страница-1 -->
<svg xmlns="http://www.w3.org/2000/svg" xmlns:xlink="http://www.w3.org/1999/xlink" xmlns:ev="http://www.w3.org/2001/xml-events"
		xmlns:v="http://schemas.microsoft.com/visio/2003/SVGExtensions/" width="2.15763in" height="1.94235in"
		viewBox="0 0 155.35 139.849" xml:space="preserve" color-interpolation-filters="sRGB" class="st41">
	<v:documentProperties v:langID="1049" v:metric="true" v:viewMarkup="false"/>

	<style type="text/css">
	<![CDATA[
		.st1 {fill:#3f3f3f;stroke:none;stroke-linecap:round;stroke-linejoin:round;stroke-width:0.24}
		.st2 {fill:#262626;stroke:none;stroke-linecap:round;stroke-linejoin:round;stroke-width:0.24}
		.st3 {fill:url(#grad40-12);stroke:#000000;stroke-linecap:round;stroke-linejoin:round;stroke-width:0.24}
		.st4 {fill:url(#grad26-16);stroke:none;stroke-linecap:round;stroke-linejoin:round;stroke-width:0.24}
		.st5 {fill:#bfbfbf;stroke:#7f7f7f;stroke-linecap:round;stroke-linejoin:round;stroke-width:0.25}
		.st6 {fill:url(#grad30-106);stroke:none;stroke-linecap:round;stroke-linejoin:round;stroke-width:0.24}
		.st7 {fill:#a5a5a5;fill-opacity:0.5;stroke:none;stroke-linecap:round;stroke-linejoin:round;stroke-width:0.24}
		.st8 {fill:#000000;fill-opacity:0.5;stroke:none;stroke-linecap:round;stroke-linejoin:round;stroke-width:0.24}
		.st9 {fill:#000000;fill-opacity:0.4;stroke:none;stroke-linecap:round;stroke-linejoin:round;stroke-width:0.24}
		.st10 {fill:url(#grad37-128);stroke:none;stroke-linecap:round;stroke-linejoin:round;stroke-width:0.24}
		.st11 {fill:url(#grad40-132);stroke:none;stroke-linecap:round;stroke-linejoin:round;stroke-width:0.24}
		.st12 {fill:#0c0c0c;stroke:none;stroke-linecap:round;stroke-linejoin:round;stroke-width:0.24}
		.st13 {fill:#3f3f3f;fill-opacity:0.75;stroke:none;stroke-linecap:round;stroke-linejoin:round;stroke-width:0.24}
		.st14 {fill:url(#grad40-146);stroke:none;stroke-linecap:round;stroke-linejoin:round;stroke-width:0.24}
		.st15 {fill:url(#grad37-128);stroke:none;stroke-linecap:round;stroke-linejoin:round;stroke-width:0.25}
		.st16 {fill:url(#grad40-132);stroke:none;stroke-linecap:round;stroke-linejoin:round;stroke-width:0.25}
		.st17 {fill:url(#grad40-162);stroke:none;stroke-linecap:round;stroke-linejoin:round;stroke-width:0.25}
		.st18 {fill:url(#grad28-166);stroke:none;stroke-linecap:round;stroke-linejoin:round;stroke-width:0.24}
		.st19 {fill:#000000;fill-opacity:0.6;stroke:none;stroke-linecap:round;stroke-linejoin:round;stroke-width:0.24}
		.st20 {fill:#7f7f7f;fill-opacity:0.5;stroke:none;stroke-linecap:round;stroke-linejoin:round;stroke-width:0.24}
		.st21 {fill:#d8d8d8;stroke:none;stroke-linecap:round;stroke-linejoin:round;stroke-width:0.24}
		.st22 {fill:#d8d8d8;fill-opacity:0.5;stroke:none;stroke-linecap:round;stroke-linejoin:round;stroke-width:0.24}
		.st23 {fill:url(#grad28-184);stroke:none;stroke-linecap:round;stroke-linejoin:round;stroke-width:0.24}
		.st24 {fill:url(#grad28-188);stroke:none;stroke-linecap:round;stroke-linejoin:round;stroke-width:0.24}
		.st25 {fill:#f2f2f2;fill-opacity:0.5;stroke:none;stroke-linecap:round;stroke-linejoin:round;stroke-width:0.24}
		.st26 {fill:#3f3f3f;fill-opacity:0.95;stroke:none;stroke-linecap:round;stroke-linejoin:round;stroke-width:0.24}
		.st27 {fill:#f2f2f2;fill-opacity:0.3;stroke:none;stroke-linecap:round;stroke-linejoin:round;stroke-width:0.24}
		.st28 {fill:#f2f2f2;fill-opacity:0.7;stroke:none;stroke-linecap:round;stroke-linejoin:round;stroke-width:0.24}
		.st29 {fill:url(#grad39-214);stroke:none;stroke-linecap:round;stroke-linejoin:round;stroke-width:0.24}
		.st30 {fill:url(#grad39-224);stroke:none;stroke-linecap:round;stroke-linejoin:round;stroke-width:0.24}
		.st31 {fill:url(#grad40-228);stroke:none;stroke-linecap:round;stroke-linejoin:round;stroke-width:0.24}
		.st32 {fill:url(#grad40-239);stroke:none;stroke-linecap:round;stroke-linejoin:round;stroke-width:0.25}
		.st33 {fill:#000000;fill-opacity:0.3;stroke:none;stroke-linecap:round;stroke-linejoin:round;stroke-width:0.24}
		.st34 {fill:url(#grad40-284);stroke:none;stroke-linecap:round;stroke-linejoin:round;stroke-width:0.24}
		.st35 {fill:#595959;stroke:none;stroke-linecap:round;stroke-linejoin:round;stroke-width:0.24}
		.st36 {fill:#7f7f7f;stroke:none;stroke-linecap:round;stroke-linejoin:round;stroke-width:0.24}
		.st37 {fill:#a5a5a5;stroke:none;stroke-linecap:round;stroke-linejoin:round;stroke-width:0.24}
		.st38 {fill:url(#grad30-323);stroke:none;stroke-linecap:round;stroke-linejoin:round;stroke-width:0.24}
		.st39 {fill:#f2f2f2;stroke:none;stroke-linecap:round;stroke-linejoin:round;stroke-width:0.24}
		.st40 {fill:url(#grad38-341);stroke:none;stroke-linecap:round;stroke-linejoin:round;stroke-width:0.24}
		.st41 {fill:none;fill-rule:evenodd;font-size:12;overflow:visible;stroke-linecap:square;stroke-miterlimit:3}
	]]>
	</style>

	<defs id="Patterns_And_Gradients">
		<radialGradient id="grad40-12" v:fillPattern="40" v:foreground="#000000" v:background="#17355d" cx="0.5" cy="0.5" r="0.5">
			<stop offset="0" style="stop-color:#000000;stop-opacity:1"/>
			<stop offset="1" style="stop-color:#17355d;stop-opacity:1"/>
		</radialGradient>
		<linearGradient id="grad26-16" v:fillPattern="26" v:foreground="#e4d0be" v:background="#d1b361" x1="0" y1="0" x2="1" y2="0">
			<stop offset="0" style="stop-color:#d1b361;stop-opacity:1"/>
			<stop offset="0.5" style="stop-color:#e4d0be;stop-opacity:1"/>
			<stop offset="1" style="stop-color:#d1b361;stop-opacity:1"/>
		</linearGradient>
		<linearGradient id="grad30-106" v:fillPattern="30" v:foreground="#f2f2f2" v:background="#bfbfbf" x1="0" y1="1" x2="0"
				y2="0">
			<stop offset="0" style="stop-color:#f2f2f2;stop-opacity:1"/>
			<stop offset="1" style="stop-color:#bfbfbf;stop-opacity:1"/>
		</linearGradient>
		<radialGradient id="grad37-128" v:fillPattern="37" v:foreground="#1e1e1e" v:background="#000000" cx="1" cy="0" r="1">
			<stop offset="0" style="stop-color:#1e1e1e;stop-opacity:1"/>
			<stop offset="1" style="stop-color:#000000;stop-opacity:1"/>
		</radialGradient>
		<radialGradient id="grad40-132" v:fillPattern="40" v:foreground="#f2f2f2" v:background="#ccbaa4" cx="0.5" cy="0.5" r="0.5">
			<stop offset="0" style="stop-color:#f2f2f2;stop-opacity:1"/>
			<stop offset="1" style="stop-color:#ccbaa4;stop-opacity:1"/>
		</radialGradient>
		<radialGradient id="grad40-146" v:fillPattern="40" v:foreground="#fdd346" v:foregroundOpacity="0.9" v:background="#864f48"
				v:backgroundOpacity="0.9" cx="0.5" cy="0.5" r="0.5">
			<stop offset="0" style="stop-color:#fdd346;stop-opacity:0.9"/>
			<stop offset="1" style="stop-color:#864f48;stop-opacity:0.9"/>
		</radialGradient>
		<radialGradient id="grad40-162" v:fillPattern="40" v:foreground="#955646" v:background="#533f37" cx="0.5" cy="0.5" r="0.5">
			<stop offset="0" style="stop-color:#955646;stop-opacity:1"/>
			<stop offset="1" style="stop-color:#533f37;stop-opacity:1"/>
		</radialGradient>
		<linearGradient id="grad28-166" v:fillPattern="28" v:foreground="#b7c9e3" v:foregroundOpacity="0.3" v:background="#7f7f7f"
				v:backgroundOpacity="0.3" x1="0" y1="0" x2="0" y2="1">
			<stop offset="0" style="stop-color:#b7c9e3;stop-opacity:0.3"/>
			<stop offset="1" style="stop-color:#7f7f7f;stop-opacity:0.3"/>
		</linearGradient>
		<linearGradient id="grad28-184" v:fillPattern="28" v:foreground="#a5a5a5" v:background="#0f233e" x1="0" y1="0" x2="0"
				y2="1">
			<stop offset="0" style="stop-color:#a5a5a5;stop-opacity:1"/>
			<stop offset="1" style="stop-color:#0f233e;stop-opacity:1"/>
		</linearGradient>
		<linearGradient id="grad28-188" v:fillPattern="28" v:foreground="#ffffff" v:foregroundOpacity="0.4" v:background="#262626"
				v:backgroundOpacity="0.4" x1="0" y1="0" x2="0" y2="1">
			<stop offset="0" style="stop-color:#ffffff;stop-opacity:0.4"/>
			<stop offset="1" style="stop-color:#262626;stop-opacity:0.4"/>
		</linearGradient>
		<radialGradient id="grad39-214" v:fillPattern="39" v:foreground="#ffffff" v:background="#bfbfbf" cx="1" cy="1" r="1">
			<stop offset="0" style="stop-color:#ffffff;stop-opacity:1"/>
			<stop offset="1" style="stop-color:#bfbfbf;stop-opacity:1"/>
		</radialGradient>
		<radialGradient id="grad39-224" v:fillPattern="39" v:foreground="#e4d0be" v:background="#583f37" cx="1" cy="1" r="1">
			<stop offset="0" style="stop-color:#e4d0be;stop-opacity:1"/>
			<stop offset="1" style="stop-color:#583f37;stop-opacity:1"/>
		</radialGradient>
		<radialGradient id="grad40-228" v:fillPattern="40" v:foreground="#e4d0be" v:foregroundOpacity="0.4" v:background="#533f37"
				v:backgroundOpacity="0.4" cx="0.5" cy="0.5" r="0.5">
			<stop offset="0" style="stop-color:#e4d0be;stop-opacity:0.4"/>
			<stop offset="1" style="stop-color:#533f37;stop-opacity:0.4"/>
		</radialGradient>
		<radialGradient id="grad40-239" v:fillPattern="40" v:foreground="#c5ad94" v:foregroundOpacity="0.8" v:background="#000000"
				v:backgroundOpacity="0.8" cx="0.5" cy="0.5" r="0.5">
			<stop offset="0" style="stop-color:#c5ad94;stop-opacity:0.8"/>
			<stop offset="1" style="stop-color:#000000;stop-opacity:0.8"/>
		</radialGradient>
		<radialGradient id="grad40-284" v:fillPattern="40" v:foreground="#ffff00" v:foregroundOpacity="0.5" v:background="#94703a"
				v:backgroundOpacity="0.5" cx="0.5" cy="0.5" r="0.5">
			<stop offset="0" style="stop-color:#ffff00;stop-opacity:0.5"/>
			<stop offset="1" style="stop-color:#94703a;stop-opacity:0.5"/>
		</radialGradient>
		<linearGradient id="grad30-323" v:fillPattern="30" v:foreground="#e3e3e3" v:foregroundOpacity="0.5" v:background="#262626"
				v:backgroundOpacity="0.5" x1="0" y1="1" x2="0" y2="0">
			<stop offset="0" style="stop-color:#e3e3e3;stop-opacity:0.5"/>
			<stop offset="1" style="stop-color:#262626;stop-opacity:0.5"/>
		</linearGradient>
		<radialGradient id="grad38-341" v:fillPattern="38" v:foreground="#ffffff" v:background="#bfbfbf" cx="0" cy="1" r="1">
			<stop offset="0" style="stop-color:#ffffff;stop-opacity:1"/>
			<stop offset="1" style="stop-color:#bfbfbf;stop-opacity:1"/>
		</radialGradient>
	</defs>
	<g v:mID="0" v:index="1" v:groupContext="foregroundPage">
		<title>Страница-1</title>
		<v:pageProperties v:drawingScale="0.0393701" v:pageScale="0.0393701" v:drawingUnits="24" v:shadowOffsetX="8.50394"
				v:shadowOffsetY="-8.50394"/>
		<g id="shape1-1" v:mID="1" v:groupContext="shape" transform="translate(82.6318,-0.799834) rotate(-9.4)">
			<title>Лист.1</title>
			<path d="M10.73 18.53 C11.38 17.91 12.33 16.23 13.28 14.84 C21.03 3.56 29.37 11.26 43.1 19.4 C42.92 20.52 33.81 40.85
						 45.92 37.11 C51.86 47.58 50.68 47.1 49.92 47.13 C47.08 47.23 49.94 54.41 48.93 55.35 C45.55 58.86 34.44
						 64.51 31.59 68.08 C29.56 70.62 31.7 72.11 32.86 74.37 C34.07 76.7 34.22 79.85 35.62 83.57 C36.84 86.79 38.98
						 90.42 43.26 88.23 C42.36 88.82 42.4 89.67 42.41 90.5 C42.45 94.12 41.83 97.19 40.42 100.13 C38.94 103.26
						 36.57 106.26 33.91 108.35 C30.64 110.92 26.94 112.14 23.42 113.74 C21.28 112.64 18.55 112.12 15.83 112.16
						 C10.93 112.24 6.06 114.17 4.6 118.5 C3.03 123.18 5.43 130.68 17.42 139.85 C-1.07 130.71 -0.81 120 0.55 113.4
						 C1.45 108.98 2.84 106.41 8.06 102.67 C11.86 106.7 12.47 106.68 13.06 106.7 C17.34 106.81 20.95 108.58 25.08
						 108.25 C27.77 108.04 30.69 106.93 31.17 104.38 C32.02 99.95 25.47 91.19 20.58 102.4 C19.89 101.43 18.76
						 99.59 17.75 97.58 C14.75 91.64 12.74 84.22 13.5 77.17 C14.38 69.01 18.96 61.34 26.25 59.88 C22.88 52.13
						 22.48 42.71 16.61 37.2 C14.61 35.32 11.96 33.9 10.38 31.53 C7.89 27.26 10.1 21.98 10.73 18.53 Z"
					class="st1"/>
		</g>
		<g id="shape2-3" v:mID="2" v:groupContext="shape" transform="translate(119.687,-40.7629)">
			<title>Лист.2</title>
			<path d="M0 137.38 C-0 137.38 -0.5 136.46 -1 135.59 C-4.44 129.58 -7.64 126.12 -9.37 120.23 C-10.97 114.8 -11.32 107.3
						 -7.12 102.7 C-2.75 97.92 6.53 96.26 4.05 98.99 C2.8 100.36 -1.42 102.83 -3.16 106.43 C-6.57 113.49 -0.44
						 124.88 3.59 126.07 C7.57 127.24 9.52 118.5 12.24 125.08 C13.58 128.31 15.1 135.24 14.08 138.05 C13.36 140.04
						 11.38 139.99 10.78 139.72 C10.05 139.39 11.36 138.73 11.14 137.02 C10.68 133.42 3.52 125.13 0 137.38 Z"
					class="st2"/>
		</g>
		<g id="shape3-5" v:mID="3" v:groupContext="shape" transform="translate(66.1924,0.926812) rotate(6.6) scale(-1,1)">
			<title>Лист.3</title>
			<path d="M10.57 18.24 C11.21 17.62 12.61 16.22 13.92 15.05 C24.52 5.55 29.21 10.97 35.64 14.57 C38.6 23.47 38.77 39.35
						 46.79 41.54 C51.69 47.29 50.52 46.81 49.75 46.84 C46.92 46.94 49.78 54.12 48.76 55.06 C45.39 58.57 34.47
						 64.26 31.36 67.78 C29.15 70.28 30.89 71.68 32.68 74.07 C34.53 76.55 36.42 80.1 37.52 83.75 C38.47 86.9 38.82
						 90.13 43.09 87.94 C42.19 88.53 42.23 89.38 42.24 90.21 C42.28 93.83 41.66 96.9 40.26 99.84 C38.77 102.97
						 36.4 105.97 33.74 108.06 C30.47 110.63 26.77 111.85 23.25 113.45 C21.11 112.35 18 111.84 15.44 111.88 C10.83
						 111.95 8 113.81 6.6 118.14 C5.1 122.82 5.27 130.39 8.59 139.85 C-1.23 130.43 -1.22 120.94 1.71 114.58 C3.67
						 110.33 6.93 107.48 11.91 104.95 C11.69 106.41 12.31 106.36 12.9 106.36 C17.21 106.37 20.68 108.78 24.95
						 107.78 C27.74 107.13 30.87 105.01 31.19 103.25 C31.74 100.17 23.77 98.16 20.42 102.11 C19.72 101.14 18.6
						 99.3 17.58 97.29 C14.58 91.35 12.57 83.93 13.33 76.88 C14.21 68.72 18.8 61.05 26.09 59.59 C22.71 51.84 22.32
						 42.42 16.45 36.91 C14.44 35.03 11.79 33.61 10.21 31.25 C7.73 26.97 9.94 21.69 10.57 18.24 Z" class="st1"/>
		</g>
		<g id="shape4-7" v:mID="4" v:groupContext="shape" transform="translate(18.6201,-38.9767)">
			<title>Лист.4</title>
			<path d="M5.01 139.85 C4.36 139.97 4.09 138.32 4.77 137.21 C6.53 134.34 14.64 135.05 14.86 138.15 C19.69 134.09 36.01
						 106.97 8.79 101.87 C26.94 120.01 14.32 127.73 11.91 129.65 C-2.55 127.38 -2.55 140.42 5.01 139.85 Z"
					class="st2"/>
		</g>
		<g id="shape5-9" v:mID="5" v:groupContext="shape" transform="translate(52.1015,-25.1027)">
			<title>Лист.5</title>
			<path d="M50.46 104.44 C45.35 107.84 42.55 112.15 39.98 116.76 C37.96 120.38 36.09 124.18 34.67 128.22 C33.45 131.72
						 32.56 135.4 30.75 137.57 C28.22 140.61 23.88 140.71 20.94 137.27 C17.64 133.42 16.11 125.12 11.11 116.98
						 C8.56 112.81 5.1 108.69 0 105 C2.62 105.05 3.16 105.03 3.69 105.03 C9.08 105.01 13.05 106.82 17.03 110.25
						 C19.43 112.32 21.84 114.98 24.26 115.4 C25.95 115.7 27.64 114.9 29.28 114.01 C36.34 110.16 42.24 104.49
						 50.46 104.44 Z" class="st3"/>
		</g>
		<g id="shape7-13" v:mID="7" v:groupContext="shape" transform="translate(81.2716,-43.5069)">
			<title>Лист.7</title>
			<path d="M1 131.57 C1.19 134.37 0.6 137.67 0 139.85 C2.25 137.71 2.23 133.79 2.67 130.56 C2.26 131.23 1.54 131.22 1 131.57
						 Z" class="st4"/>
		</g>
		<g id="shape8-17" v:mID="8" v:groupContext="shape" transform="translate(83.7044,-45.7746)">
			<title>Лист.8</title>
			<path d="M1 131.57 C1.19 134.37 0.6 137.67 0 139.85 C2.25 137.71 2.23 133.79 2.67 130.56 C2.26 131.23 1.54 131.22 1 131.57
						 Z" class="st4"/>
		</g>
		<g id="shape9-20" v:mID="9" v:groupContext="shape" transform="translate(86.6109,-48.6092)">
			<title>Лист.9</title>
			<path d="M1 131.57 C1.19 134.37 0.6 137.67 0 139.85 C2.25 137.71 2.23 133.79 2.67 130.56 C2.26 131.23 1.54 131.22 1 131.57
						 Z" class="st4"/>
		</g>
		<g id="shape10-23" v:mID="10" v:groupContext="shape" transform="translate(89.5175,-48.6092)">
			<title>Лист.10</title>
			<path d="M1 131.57 C1.19 134.37 0.6 137.67 0 139.85 C2.25 137.71 2.23 133.79 2.67 130.56 C2.26 131.23 1.54 131.22 1 131.57
						 Z" class="st4"/>
		</g>
		<g id="shape11-26" v:mID="11" v:groupContext="shape" transform="translate(92.4241,-52.3559)">
			<title>Лист.11</title>
			<path d="M1 131.57 C1.19 134.37 0.6 137.67 0 139.85 C2.25 137.71 2.23 133.79 2.67 130.56 C2.26 131.23 1.54 131.22 1 131.57
						 Z" class="st4"/>
		</g>
		<g id="shape12-29" v:mID="12" v:groupContext="shape" transform="translate(95.3307,-55.4124)">
			<title>Лист.12</title>
			<path d="M1 131.57 C1.19 134.37 0.6 137.67 0 139.85 C2.25 137.71 2.23 133.79 2.67 130.56 C2.26 131.23 1.54 131.22 1 131.57
						 Z" class="st4"/>
		</g>
		<g id="shape13-32" v:mID="13" v:groupContext="shape" transform="translate(43.959,-40.159) rotate(-15)">
			<title>Лист.13</title>
			<path d="M1 131.57 C1.19 134.37 0.6 137.67 0 139.85 C2.25 137.71 2.23 133.79 2.67 130.56 C2.26 131.23 1.54 131.22 1 131.57
						 Z" class="st4"/>
		</g>
		<g id="shape14-35" v:mID="14" v:groupContext="shape" transform="translate(42.4952,-39.0105) rotate(-15)">
			<title>Лист.14</title>
			<path d="M1 131.57 C1.19 134.37 0.6 137.67 0 139.85 C2.25 137.71 2.23 133.79 2.67 130.56 C2.26 131.23 1.54 131.22 1 131.57
						 Z" class="st4"/>
		</g>
		<g id="shape15-38" v:mID="15" v:groupContext="shape" transform="translate(73.5478,-44.9858) scale(-1,1)">
			<title>Лист.15</title>
			<path d="M1 131.57 C1.19 134.37 0.6 137.67 0 139.85 C2.25 137.71 2.23 133.79 2.67 130.56 C2.26 131.23 1.54 131.22 1 131.57
						 Z" class="st4"/>
		</g>
		<g id="shape16-41" v:mID="16" v:groupContext="shape" transform="translate(71.1151,-47.2535) scale(-1,1)">
			<title>Лист.16</title>
			<path d="M1 131.57 C1.19 134.37 0.6 137.67 0 139.85 C2.25 137.71 2.23 133.79 2.67 130.56 C2.26 131.23 1.54 131.22 1 131.57
						 Z" class="st4"/>
		</g>
		<g id="shape17-44" v:mID="17" v:groupContext="shape" transform="translate(68.2085,-50.0882) scale(-1,1)">
			<title>Лист.17</title>
			<path d="M1 131.57 C1.19 134.37 0.6 137.67 0 139.85 C2.25 137.71 2.23 133.79 2.67 130.56 C2.26 131.23 1.54 131.22 1 131.57
						 Z" class="st4"/>
		</g>
		<g id="shape18-47" v:mID="18" v:groupContext="shape" transform="translate(65.3019,-50.0882) scale(-1,1)">
			<title>Лист.18</title>
			<path d="M1 131.57 C1.19 134.37 0.6 137.67 0 139.85 C2.25 137.71 2.23 133.79 2.67 130.56 C2.26 131.23 1.54 131.22 1 131.57
						 Z" class="st4"/>
		</g>
		<g id="shape19-50" v:mID="19" v:groupContext="shape" transform="translate(62.3953,-53.8348) scale(-1,1)">
			<title>Лист.19</title>
			<path d="M1 131.57 C1.19 134.37 0.6 137.67 0 139.85 C2.25 137.71 2.23 133.79 2.67 130.56 C2.26 131.23 1.54 131.22 1 131.57
						 Z" class="st4"/>
		</g>
		<g id="shape20-53" v:mID="20" v:groupContext="shape" transform="translate(59.4888,-56.8913) scale(-1,1)">
			<title>Лист.20</title>
			<path d="M1 131.57 C1.19 134.37 0.6 137.67 0 139.85 C2.25 137.71 2.23 133.79 2.67 130.56 C2.26 131.23 1.54 131.22 1 131.57
						 Z" class="st4"/>
		</g>
		<g id="shape21-56" v:mID="21" v:groupContext="shape" transform="translate(110.86,-41.6379) rotate(15) scale(-1,1)">
			<title>Лист.21</title>
			<path d="M1 131.57 C1.19 134.37 0.6 137.67 0 139.85 C2.25 137.71 2.23 133.79 2.67 130.56 C2.26 131.23 1.54 131.22 1 131.57
						 Z" class="st4"/>
		</g>
		<g id="shape22-59" v:mID="22" v:groupContext="shape" transform="translate(112.324,-40.4894) rotate(15) scale(-1,1)">
			<title>Лист.22</title>
			<path d="M1 131.57 C1.19 134.37 0.6 137.67 0 139.85 C2.25 137.71 2.23 133.79 2.67 130.56 C2.26 131.23 1.54 131.22 1 131.57
						 Z" class="st4"/>
		</g>
		<g id="shape24-62" v:mID="24" v:groupContext="shape" transform="translate(81.1291,241.86) scale(1,-1)">
			<title>Лист.24</title>
			<path d="M1 128.48 C1.19 132.33 0.6 136.86 0 139.85 C2.25 136.91 2.23 131.53 2.67 127.09 C2.26 128.01 1.54 128 1 128.48
						 Z" class="st4"/>
		</g>
		<g id="shape25-65" v:mID="25" v:groupContext="shape" transform="translate(83.5618,243.561) scale(1,-1)">
			<title>Лист.25</title>
			<path d="M1 131.57 C1.19 134.37 0.6 137.67 0 139.85 C2.25 137.71 2.23 133.79 2.67 130.56 C2.26 131.23 1.54 131.22 1 131.57
						 Z" class="st4"/>
		</g>
		<g id="shape26-68" v:mID="26" v:groupContext="shape" transform="translate(85.3226,238.631) scale(1,-1)">
			<title>Лист.26</title>
			<path d="M1 131.57 C1.19 134.37 0.6 137.67 0 139.85 C2.25 137.71 2.23 133.79 2.67 130.56 C2.26 131.23 1.54 131.22 1 131.57
						 Z" class="st4"/>
		</g>
		<g id="shape27-71" v:mID="27" v:groupContext="shape" transform="translate(122.263,232.56) rotate(-15) scale(1,-1)">
			<title>Лист.27</title>
			<path d="M1 131.57 C1.19 134.37 0.6 137.67 0 139.85 C2.25 137.71 2.23 133.79 2.67 130.56 C2.26 131.23 1.54 131.22 1 131.57
						 Z" class="st4"/>
		</g>
		<g id="shape28-74" v:mID="28" v:groupContext="shape" transform="translate(88.5233,236.049) scale(1,-1)">
			<title>Лист.28</title>
			<path d="M1 133.53 C1.19 135.67 0.6 138.19 0 139.85 C2.25 138.22 2.23 135.22 2.67 132.76 C2.26 133.27 1.54 133.27 1 133.53
						 Z" class="st4"/>
		</g>
		<g id="shape29-77" v:mID="29" v:groupContext="shape" transform="translate(44.6333,238.512) rotate(15) scale(1,-1)">
			<title>Лист.29</title>
			<path d="M1 128.44 C1.19 132.3 0.6 136.85 0 139.85 C2.25 136.9 2.23 131.5 2.67 127.05 C2.26 127.97 1.54 127.96 1 128.44
						 Z" class="st4"/>
		</g>
		<g id="shape30-80" v:mID="30" v:groupContext="shape" transform="translate(43.1263,237.222) rotate(15) scale(1,-1)">
			<title>Лист.30</title>
			<path d="M1 127.27 C1.19 131.53 0.6 136.55 0 139.85 C2.25 136.6 2.23 130.64 2.67 125.73 C2.26 126.75 1.54 126.73 1 127.27
						 Z" class="st4"/>
		</g>
		<g id="shape31-83" v:mID="31" v:groupContext="shape" transform="translate(99.7438,239.736) rotate(170)">
			<title>Лист.31</title>
			<path d="M1 128.54 C1.19 132.37 0.6 136.88 0 139.85 C2.25 136.93 2.23 131.57 2.67 127.16 C2.26 128.07 1.54 128.06 1 128.54
						 Z" class="st4"/>
		</g>
		<g id="shape32-86" v:mID="32" v:groupContext="shape" transform="translate(101.971,241.485) rotate(170)">
			<title>Лист.32</title>
			<path d="M1 129.28 C1.19 132.86 0.6 137.07 0 139.85 C2.25 137.12 2.23 132.11 2.67 127.99 C2.26 128.84 1.54 128.83 1 129.28
						 Z" class="st4"/>
		</g>
		<g id="shape33-89" v:mID="33" v:groupContext="shape" transform="translate(74.02,239.161) rotate(180)">
			<title>Лист.33</title>
			<path d="M1 127.34 C1.19 131.58 0.6 136.56 0 139.85 C2.25 136.62 2.23 130.69 2.67 125.81 C2.26 126.82 1.54 126.81 1 127.34
						 Z" class="st4"/>
		</g>
		<g id="shape34-92" v:mID="34" v:groupContext="shape" transform="translate(95.6127,236.901) rotate(170)">
			<title>Лист.34</title>
			<path d="M1.22 128.48 C1.44 132.33 0.73 136.86 0 139.85 C2.73 136.91 2.71 131.53 3.24 127.09 C2.73 128.01 1.87 128 1.22
						 128.48 Z" class="st4"/>
		</g>
		<g id="shape35-95" v:mID="35" v:groupContext="shape" transform="translate(69.7088,239.087) rotate(180)">
			<title>Лист.35</title>
			<path d="M1 131.57 C1.19 134.37 0.6 137.67 0 139.85 C2.25 137.71 2.23 133.79 2.67 130.56 C2.26 131.23 1.54 131.22 1 131.57
						 Z" class="st4"/>
		</g>
		<g id="shape36-98" v:mID="36" v:groupContext="shape" transform="translate(33.6189,230.748) rotate(-165)">
			<title>Лист.36</title>
			<path d="M1 131.57 C1.19 134.37 0.6 137.67 0 139.85 C2.25 137.71 2.23 133.79 2.67 130.56 C2.26 131.23 1.54 131.22 1 131.57
						 Z" class="st4"/>
		</g>
		<g id="shape37-101" v:mID="37" v:groupContext="shape" transform="translate(37.8429,-4.38876)">
			<title>Лист.37</title>
			<path d="M64.97 83.72 C59.87 87.12 57.07 91.44 54.5 96.04 C52.48 99.66 50.6 103.47 49.19 107.51 C47.96 111.01 47.08 114.69
						 45.27 116.86 C42.74 119.9 38.4 119.99 35.46 116.56 C32.16 112.7 30.63 104.41 25.63 96.26 C23.08 92.1 19.62
						 87.97 14.52 84.29 C17.14 84.33 17.68 84.31 18.2 84.31 C23.59 84.3 27.56 86.1 31.55 89.54 C33.95 91.6 36.35
						 94.27 38.78 94.69 C40.46 94.98 42.16 94.19 43.79 93.3 C50.85 89.44 56.75 83.78 64.97 83.72 ZM2.61 80.89
						 C4.31 91.09 7.72 90.18 10.86 90.85 C24.69 93.78 33.22 127.38 40.03 139.85 C46.83 122.84 51.3 112.89 55.44
						 105.58 C67.19 84.86 76.31 85.42 74.61 78.05 C72.91 73.52 69.15 73.1 72.12 63.74 C73.25 60.19 75.34 55.35
						 76.04 49.73 C77.36 39.16 73.72 25.83 68.9 18.09 C62.47 7.74 53.91 7.36 43.8 7.29 C34.98 7.23 24.97 7.4 17.27
						 11.26 C6.7 16.55 0.47 28.76 0.91 41.2 C-3.06 50.27 7.35 66.38 5.73 72.98 C5.03 75.85 2.04 76.92 2.61 80.89
						 Z" class="st5"/>
		</g>
		<g id="shape38-103" v:mID="38" v:groupContext="shape" transform="translate(70.2628,-4.84519)">
			<title>Лист.38</title>
			<path d="M0 118.96 C4.74 124.56 11.01 124.43 14.25 119.55 C12.7 127.86 10.52 133.1 7.52 139.85 C5.32 135.56 2.12 127.79
						 0 118.96 Z" class="st6"/>
		</g>
		<g id="shape39-107" v:mID="39" v:groupContext="shape" transform="translate(90.4151,-76.3355) rotate(-0.148293)">
			<title>Лист.39</title>
			<path d="M0 139.24 C0.44 138.83 0.62 138.68 0.8 138.53 C2.89 136.73 4.77 134.03 6.22 131.45 C7.64 128.94 8.65 126.54
						 10.8 124.93 C11.85 124.14 13.18 123.54 14.23 123.25 C15.31 122.94 16.09 122.96 16.66 123.86 C17.59 125.34
						 17.96 129.17 17.71 132.06 C17.04 139.72 11.99 140.82 0 139.24 Z" class="st7"/>
		</g>
		<g id="shape40-109" v:mID="40" v:groupContext="shape" transform="translate(70.7304,-75.9727) scale(-1,1)">
			<title>Лист.40</title>
			<path d="M0 139.85 C3.86 140.52 4.8 135.54 6.08 131.79 C8.11 125.85 11 122.99 16.1 121.86 C10.15 122.43 7.8 125.92 5.82
						 129.42 C3.64 133.29 1.93 137.17 0 139.85 Z" class="st7"/>
		</g>
		<g id="shape41-111" v:mID="41" v:groupContext="shape" transform="translate(41.023,-73.4651) rotate(-10.5915) scale(-1,1)">
			<title>Лист.41</title>
			<path d="M0 139.14 C0.38 138.71 0.66 138.64 0.92 138.55 C3.97 137.5 4.67 133.95 5.7 131.13 C6.7 128.38 8 126.33 9.67
						 125.31 C10.49 124.82 11.39 124.58 12.32 124.19 C13.29 123.8 14.28 123.26 15.11 123.81 C16.46 124.72 17.37
						 128.54 17.48 131.5 C17.78 139.32 12.52 141.1 0 139.14 Z" class="st7"/>
		</g>
		<g id="shape42-113" v:mID="42" v:groupContext="shape" transform="translate(92.5935,-76.2245) rotate(-0.148293)">
			<title>Лист.42</title>
			<path d="M0 139.28 C0.36 138.9 0.5 138.76 0.65 138.62 C2.33 136.94 3.85 134.42 5.02 132.03 C6.17 129.68 6.98 127.45 8.72
						 125.95 C9.56 125.21 10.64 124.65 11.48 124.37 C12.35 124.09 12.98 124.1 13.44 124.95 C14.19 126.33 14.5
						 129.9 14.29 132.59 C13.76 139.73 9.67 140.76 0 139.28 Z" class="st7"/>
		</g>
		<g id="shape43-115" v:mID="43" v:groupContext="shape" transform="translate(98.9673,196.774) scale(1,-1)">
			<title>Лист.43</title>
			<path d="M0 138.96 C0 138.43 0 138.34 0 138.23 C0 136.93 0 132.51 0 129.01 C0 125.58 0 123.03 0 121.77 C0 121.16 0 120.85
						 0 120.38 C0 119.88 0 119.21 0 119.9 C0 121.03 0 125.78 0 129.46 C0 139.19 0 141.4 0 138.96 Z" class="st7"/>
		</g>
		<g id="shape44-117" v:mID="44" v:groupContext="shape" transform="translate(99.9906,-74.6927) rotate(5.27495)">
			<title>Лист.44</title>
			<path d="M0 139.06 C0.53 138.53 0.75 138.34 0.96 138.14 C3.48 135.81 5.75 132.32 7.5 128.99 C9.21 125.74 10.42 122.65
						 13.01 120.56 C14.28 119.54 15.88 118.76 17.14 118.38 C18.44 117.98 19.38 118 20.07 119.18 C21.19 121.09
						 21.64 126.04 21.34 129.78 C20.53 139.68 14.44 141.11 0 139.06 Z" class="st7"/>
		</g>
		<g id="shape45-119" v:mID="45" v:groupContext="shape" transform="translate(70.5,-69.0187)">
			<title>Лист.45</title>
			<path d="M9.17 128.51 C10.2 132.48 9.64 130.49 9.92 131.63 C11.06 131.91 11.01 132.43 13.04 127.94 C12.22 133.38 13.63
						 133.45 14.69 133.24 C13.33 133.21 13.61 134.75 10.77 138.15 C11.91 135.31 12.47 134.21 12.42 134.05 C12.34
						 133.76 10.36 136.44 8.5 138.72 C10.33 136.37 9.95 135.89 9.6 135.54 C9 134.94 8.5 134.75 7.45 134.79 C7.07
						 134.67 6.58 134.58 6.23 134.75 C5.88 134.91 5.67 135.31 6.75 138.93 C4.78 134.61 2.49 133.23 2.79 134.13
						 C2.96 134.64 3.97 135.88 5.67 139.85 C2.94 134.46 1.8 134.18 0.1 135.88 C0.36 135.17 1.52 133.33 0 132.93
						 C0.14 133 0.48 133.11 0.72 133.1 C1.77 133.06 0.94 130.74 1.24 130.21 C2.09 131.35 1.7 135.88 3.5 130.21
						 C4.35 132.48 4.54 131.06 1.98 124.83 C7.09 133.05 7.75 131.63 9.17 128.51 Z" class="st8"/>
		</g>
		<g id="shape46-121" v:mID="46" v:groupContext="shape" transform="translate(109.775,-74.9239) scale(-1,1)">
			<title>Лист.46</title>
			<path d="M21.7 138.38 C16.87 135.51 18.06 134.79 13.45 129.87 C12.08 128.41 10.2 126.58 9.85 126.47 C9.42 126.34 11.36
						 128.88 11.51 129.67 C11.72 130.74 8.65 128.61 6.46 127.89 C4.7 127.32 3.52 127.66 3.3 127.93 C2.91 128.41
						 5.51 128.67 6.51 129.72 C6.91 130.16 7.05 130.72 6.68 130.83 C6.16 130.98 4.67 130.25 3.07 130.31 C2.2 130.34
						 1.3 130.6 1.16 130.76 C0.9 131.07 3.4 131.01 4.71 131.72 C5.44 132.12 5.8 132.75 5.83 133.06 C5.87 133.67
						 4.55 132.97 2.95 132.78 C1.91 132.66 0.75 132.75 0.27 132.84 C-0.87 133.04 1.84 133.21 3.88 133.82 C8.88
						 135.33 9.78 139.53 10.22 139.85 C10.41 139.99 10.52 139.37 11.2 139.11 C12.91 138.46 18.3 140.08 21.7 138.38
						 Z" class="st2"/>
		</g>
		<g id="shape47-123" v:mID="47" v:groupContext="shape" transform="translate(107.257,-75.6819) scale(-1,1)">
			<title>Лист.47</title>
			<path d="M10.69 130.6 C8.38 128.07 8.55 128.78 9.5 130.57 C9.77 131.08 10.1 131.68 9.58 131.64 C8.88 131.58 6.6 130.34
						 5.36 129.79 C4.36 129.36 4.03 129.38 3.92 129.52 C3.72 129.76 4.2 130.38 5.25 131.38 C5.67 131.79 6.2 132.26
						 5.89 132.33 C5.47 132.42 3.48 131.76 2.63 131.7 C2.17 131.67 2.05 131.82 2.09 131.95 C2.18 132.19 2.87 132.33
						 3.65 132.9 C4.08 133.22 4.53 133.67 4.65 133.94 C4.9 134.47 3.83 134.29 2.47 134.1 C1.6 133.99 0.61 133.87
						 0.21 133.86 C-0.73 133.82 1.7 134.36 3.26 135.01 C7.1 136.61 5.71 138.92 9.88 139.6 C11.71 139.91 14.63
						 139.89 16.23 139.79 C20.25 139.52 15.92 138.66 10.69 130.6 Z" class="st9"/>
		</g>
		<g id="shape48-125" v:mID="48" v:groupContext="shape" transform="translate(88.0748,-75.5123)">
			<title>Лист.48</title>
			<path d="M0 138.97 C2.43 139.67 3.1 139.8 3.81 139.85 C6.75 140.04 10.61 138.74 13.06 136.27 C14.44 134.87 15.38 133.11
						 14.66 132.29 C13.81 131.34 10.66 131.69 8.67 132.49 C4.46 134.18 5.39 137.84 0 138.97 Z" class="st10"/>
		</g>
		<g id="shape49-129" v:mID="49" v:groupContext="shape" transform="translate(88.6417,-75.9993)">
			<title>Лист.49</title>
			<path d="M0 139.46 C0.87 139.75 1.8 139.83 2.71 139.85 C6.4 139.93 9.5 139.1 11.84 136.87 C13.16 135.62 14.24 133.94
						 13.62 133.11 C12.89 132.15 9.83 132.38 7.93 133.1 C3.92 134.62 5.1 138.33 0 139.46 Z" class="st11"/>
		</g>
		<g id="shape50-133" v:mID="50" v:groupContext="shape" transform="translate(84.3898,-75.2549)">
			<title>Лист.50</title>
			<path d="M0 139.76 C3.12 141.46 8.13 131.96 12.02 126.24 C18.19 117.19 21.54 117.65 24.38 119.35 C18.71 114.25 13.86
						 120.85 10.04 126.67 C5.81 133.12 2.83 138.63 0 139.76 Z" class="st12"/>
		</g>
		<g id="shape51-135" v:mID="51" v:groupContext="shape" transform="translate(88.0748,-58.247)">
			<title>Лист.51</title>
			<path d="M0 129.64 C4.8 131.59 9.08 132.35 14.12 132.48 C16.2 132.53 18.42 132.47 19.84 131.49 C20.79 130.83 21.38 129.77
						 21.83 129.08 C22.32 133.78 18.98 137.84 16.16 139.85 C16.34 139.7 16.42 139.49 16.5 139.28 C17.13 137.67
						 17.63 136.79 17.57 134.75 C15.85 135.2 14.01 135.06 12.19 134.75 C7.44 133.93 2.87 131.94 0 129.64 Z"
					class="st13"/>
		</g>
		<g id="shape52-137" v:mID="52" v:groupContext="shape" transform="translate(60.2611,-74.1598) rotate(-3.42687) scale(-1,1)">
			<title>Лист.52</title>
			<path d="M0 139.09 C0.48 138.63 0.83 138.55 1.16 138.46 C5.03 137.33 5.92 133.54 7.21 130.52 C8.48 127.57 10.13 125.37
						 12.24 124.29 C13.28 123.76 14.42 123.5 15.6 123.09 C16.82 122.67 18.08 122.09 19.13 122.69 C20.83 123.66
						 21.99 127.75 22.13 130.91 C22.51 139.28 15.85 141.19 0 139.09 Z" class="st7"/>
		</g>
		<g id="shape53-139" v:mID="53" v:groupContext="shape" transform="translate(46.7538,-74.3509)">
			<title>Лист.53</title>
			<path d="M13.13 128.66 C10.3 125.55 5.81 125.99 6.86 126.48 C7.18 126.62 7.98 126.77 8.71 127.21 C9.61 127.75 10.39 128.74
						 10.28 128.96 C10.13 129.25 8.33 128.12 6.55 127.73 C5.12 127.41 3.7 127.57 3.37 127.75 C2.77 128.06 5.51
						 128.43 6.52 129.5 C6.94 129.94 7.06 130.49 6.68 130.6 C6.15 130.73 4.67 130.01 3.07 130.07 C2.2 130.1 1.3
						 130.37 1.16 130.53 C0.89 130.83 3.4 130.77 4.71 131.48 C5.44 131.88 5.8 132.51 5.82 132.82 C5.86 133.44
						 4.54 132.74 2.94 132.54 C1.91 132.42 0.76 132.49 0.28 132.58 C-0.86 132.8 1.74 133.09 3.53 133.74 C7.92
						 135.33 7.36 139.07 12.04 139.73 C14.1 140.02 17.19 139.71 19.31 139.65 C24.65 139.48 23.9 140.85 13.13 128.66
						 Z" class="st2"/>
		</g>
		<g id="shape54-141" v:mID="54" v:groupContext="shape" transform="translate(49.999,-75.3557)">
			<title>Лист.54</title>
			<path d="M10.67 130.86 C8.37 128.32 5.69 127.53 6.59 128.32 C6.85 128.55 7.44 128.92 7.86 129.42 C8.39 130.05 8.68 130.87
						 8.41 131.08 C8.05 131.37 6.67 130.54 5.34 130.07 C4.28 129.69 3.25 129.54 2.99 129.63 C2.53 129.79 4.46
						 130.72 5.26 131.62 C5.59 131.98 5.74 132.35 5.43 132.42 C5 132.53 3.72 132.09 2.53 131.93 C1.88 131.84 1.26
						 131.83 1.17 131.91 C1 132.07 2.78 132.56 3.79 133.2 C4.34 133.56 4.66 133.97 4.7 134.21 C4.79 134.7 3.78
						 134.53 2.48 134.36 C1.65 134.25 0.69 134.14 0.27 134.12 C-0.73 134.08 1.26 134.58 2.66 135.23 C6.1 136.84
						 5.98 139.31 9.84 139.76 C11.54 139.96 14.01 139.77 15.72 139.75 C20.01 139.7 19.43 140.77 10.67 130.86 Z"
					class="st9"/>
		</g>
		<g id="shape55-143" v:mID="55" v:groupContext="shape" transform="translate(88.3292,-76.1185)">
			<title>Лист.55</title>
			<path d="M0 139.74 C0.87 139.65 1.36 139.74 1.98 139.79 C4.51 140.01 9.15 139.69 11.98 137.39 C13.56 136.1 14.58 134.19
						 13.94 133.26 C13.19 132.17 10.17 132.43 8.25 133.19 C4.21 134.8 5.1 138.61 0 139.74 Z" class="st14"/>
		</g>
		<g id="shape56-147" v:mID="56" v:groupContext="shape" transform="translate(37.0464,-72.7037)">
			<title>Лист.56</title>
			<path d="M41.67 121.71 C72.57 102.43 77.11 108.38 71.44 137.86 C91.85 88.26 62.08 74.09 43.09 74.09 C13.89 74.09 -13.89
						 89.68 7.66 139.85 C5.67 127.09 3.41 115.75 10.49 102.43 C33.17 108.95 41.53 121.75 41.67 121.71 Z"
					class="st2"/>
		</g>
		<g id="shape57-149" v:mID="57" v:groupContext="shape" transform="translate(69.9331,-74.2984) scale(-1,1)">
			<title>Лист.57</title>
			<path d="M0 138.89 C1.2 139.7 2.11 139.79 3.05 139.83 C6.93 140 11.59 139.5 13.88 136.85 C15.17 135.35 15.71 133.17 14.8
						 132.15 C13.72 130.95 10.64 131.33 8.71 132.21 C4.64 134.05 5.71 138.08 0 138.89 Z" class="st15"/>
		</g>
		<g id="shape58-152" v:mID="58" v:groupContext="shape" transform="translate(69.1768,-74.7491) scale(-1,1)">
			<title>Лист.58</title>
			<path d="M0 139.52 C0.87 139.82 1.69 139.84 2.56 139.85 C6.13 139.88 10.62 139.62 12.81 137.33 C14.04 136.05 14.54 134.12
						 13.66 133.19 C12.63 132.1 9.69 132.38 7.87 133.13 C4.02 134.72 5.1 138.39 0 139.52 Z" class="st16"/>
		</g>
		<g id="shape59-155" v:mID="59" v:groupContext="shape" transform="translate(71.0669,-75.4089) scale(-1,1)">
			<title>Лист.59</title>
			<path d="M0 139.35 C3.97 141.42 6.17 136.79 8.02 133.03 C10.96 127.07 13.04 123.28 17.86 122.71 C11.91 123.28 9.35 126.64
						 7.56 130.26 C5.58 134.27 4.54 138.59 0 139.35 Z" class="st12"/>
		</g>
		<g id="shape60-157" v:mID="60" v:groupContext="shape" transform="translate(68.2323,-55.1289) scale(-1,1)">
			<title>Лист.60</title>
			<path d="M0 125.96 C5.7 128.79 8.53 131.51 18.99 132.06 C21.03 132.17 23.35 132.2 22.5 135.03 C20.41 138.15 17.65 137.58
						 15.04 139.85 C15.87 137.3 17.09 136.45 19.28 133.9 C14.73 135.2 4.56 131.06 0 125.96 Z" class="st13"/>
		</g>
		<g id="shape61-159" v:mID="61" v:groupContext="shape" transform="translate(49.577,-19.4954)">
			<title>Лист.61</title>
			<path d="M56.07 96.51 C51.74 98.2 48.19 102.85 45.99 105.99 C44.08 108.71 43.19 110.3 42.01 112.51 C40.67 115.04 38.94
						 118.39 37.7 121.54 C36.6 124.34 35.88 126.98 34.82 129.52 C34.12 131.19 33.28 132.81 31.47 133.51 C30.39
						 133.93 28.97 134.03 27.79 133.83 C23.91 133.2 22.62 129.48 20.57 125.12 C19.88 123.67 19.11 122.14 18.5
						 120.76 C17.84 119.26 17.37 117.93 16.5 116.18 C15.38 113.91 13.61 110.93 12.27 108.93 C10.74 106.63 9.79
						 105.63 8.25 104.1 C6.01 101.85 2.53 98.44 0 98.97 C10.72 108.75 12.12 112.81 14.91 120.34 C19.09 131.62
						 26.39 150.7 35.9 132.47 C39.83 124.93 39.06 113 56.07 96.51 Z" class="st17"/>
		</g>
		<g id="shape62-163" v:mID="62" v:groupContext="shape" transform="translate(78.5033,-91.0985)">
			<title>Лист.62</title>
			<path d="M0 139.85 C0.31 137.05 0.65 97.27 0.5 93.33 C12.41 91.63 42.45 100.7 34.52 136.42 C31.68 118.84 5.04 134.72
						 0 139.85 Z" class="st18"/>
		</g>
		<g id="shape63-167" v:mID="63" v:groupContext="shape" transform="translate(68.7096,-47.5563)">
			<title>Лист.63</title>
			<path d="M0 125.47 C2.36 126.66 2.95 128.74 3.46 130.27 C4.2 132.48 4.78 133.56 5.97 134.87 C6.69 135.66 7.62 136.53
						 8.55 136.66 C9.95 136.85 11.32 135.35 12.34 133.48 C13.94 130.54 14.69 126.66 18.49 126.54 C16.25 128.36
						 16.35 128.69 16.1 129.62 C15.73 130.96 14.65 133.55 13.61 135.71 C13.12 136.74 12.63 137.68 11.85 138.4
						 C10.57 139.57 8.5 140.19 7.07 139.66 C5.26 138.98 4.47 136.47 3.6 134.72 C2.95 133.39 2.25 132.49 1.82 131.29
						 C1.36 130 1.22 128.36 0 125.47 Z" class="st19"/>
		</g>
		<g id="shape64-169" v:mID="64" v:groupContext="shape" transform="translate(71.6338,-81.7746)">
			<title>Лист.64</title>
			<path d="M0 134.18 C2.69 136.16 7.94 136.73 15.02 134.86 C10.77 136.73 9.64 135.6 7.09 139.85 C5.1 136.16 4.25 137.3
						 0 134.18 Z" class="st20"/>
		</g>
		<g id="shape65-171" v:mID="65" v:groupContext="shape" transform="translate(61.4291,-89.9342)">
			<title>Лист.65</title>
			<path d="M0 128.45 C10.77 140.92 24.38 145.17 34.02 131.57 C22.68 142.06 18.14 143.47 0 128.45 Z" class="st20"/>
		</g>
		<g id="shape66-173" v:mID="66" v:groupContext="shape" transform="translate(58.0275,-86.8331)">
			<title>Лист.66</title>
			<path d="M0 124.78 C13.61 143.49 28.63 144.62 40.82 129.32 C26.52 140.71 21.54 145.19 0 124.78 Z" class="st20"/>
		</g>
		<g id="shape67-175" v:mID="67" v:groupContext="shape" transform="translate(76.683,-51.7273)">
			<title>Лист.67</title>
			<path d="M1.15 118.81 C0.05 120.86 -0.51 138.43 0.62 139.85 C1.75 139.57 2.32 120.29 1.15 118.81 Z" class="st21"/>
		</g>
		<g id="shape68-177" v:mID="68" v:groupContext="shape" transform="translate(217.487,97.7916) rotate(-86.0351) scale(1,-1)">
			<title>Лист.68</title>
			<path d="M0 139.85 C1.31 138.68 1.28 138.59 1.29 138.5 C1.36 137.46 5.83 136.13 7.49 134.75 C9.12 133.41 8.06 132.03
						 9.26 130.85 C9.85 130.28 10.98 129.76 11.78 129.42 C12.61 129.06 13.08 128.9 13.7 128.94 C14.71 129.01 16.1
						 129.64 16.64 130.47 C18.07 132.68 13.6 136.35 0 139.85 Z" class="st22"/>
		</g>
		<g id="shape69-179" v:mID="69" v:groupContext="shape" transform="translate(-62.6851,97.6867) rotate(-93.9649)">
			<title>Лист.69</title>
			<path d="M0 139.85 C2.39 137.37 7.28 135.96 9.04 133.57 C9.45 133.02 9.69 132.41 10.4 131.83 C11.15 131.23 12.4 130.66
						 13.35 130.52 C14.88 130.3 15.6 131.23 15.64 132.25 C15.74 134.94 11.09 138.25 0 139.85 Z" class="st22"/>
		</g>
		<g id="shape70-181" v:mID="70" v:groupContext="shape" transform="translate(79.2874,-91.7103)">
			<title>Лист.70</title>
			<path d="M0 139.85 C11.62 126.82 33.61 121.38 33.13 134.26 C29.76 123.42 11.19 130.23 0 139.85 Z" class="st23"/>
		</g>
		<g id="shape71-185" v:mID="71" v:groupContext="shape" transform="translate(100.149,-107.363)">
			<title>Лист.71</title>
			<path d="M0 114.75 C10.58 129.5 5.5 131.42 14.16 139.85 C12.02 124.62 7.82 120.62 0 114.75 Z" class="st24"/>
		</g>
		<g id="shape72-189" v:mID="72" v:groupContext="shape" transform="translate(58.0275,-88.0462)">
			<title>Лист.72</title>
			<path d="M0 124.29 C13.61 142.44 29.2 146.12 40.82 128.83 C27.34 141.65 17.78 142.05 0 124.29 Z" class="st25"/>
		</g>
		<g id="shape73-191" v:mID="73" v:groupContext="shape" transform="translate(66.6723,-85.6229)">
			<title>Лист.73</title>
			<path d="M0 132.98 C2.69 140.3 17.15 143.7 26.58 133.83 C17.72 140.86 9.64 139.7 0 132.98 Z" class="st25"/>
		</g>
		<g id="shape74-193" v:mID="74" v:groupContext="shape" transform="translate(66.6298,-55.3654) scale(-1,1)">
			<title>Лист.74</title>
			<path d="M0 127.76 C5.43 129.98 7.79 132.51 16.37 132.92 C18.04 133 19.94 133 20.35 134.56 C19.24 137 16.82 136.97 13.52
						 139.85 C14.27 136.4 17.67 134.98 17.52 134.17 C13.81 135.8 4.41 131.65 0 127.76 Z" class="st13"/>
		</g>
		<g id="shape75-195" v:mID="75" v:groupContext="shape" transform="translate(64.5906,-56.3937) scale(-1,1)">
			<title>Лист.75</title>
			<path d="M0 130.36 C4.01 132.33 6.84 134.35 14 134.34 C15.39 134.34 16.94 134.26 17.62 135.73 C16.86 137.35 15.09 137.45
						 11.92 139.85 C13.14 137.61 15.9 135.8 15.63 135.16 C12.2 136.48 4.01 133.18 0 130.36 Z" class="st26"/>
		</g>
		<g id="shape76-197" v:mID="76" v:groupContext="shape" transform="translate(82.9444,-60.7921)">
			<title>Лист.76</title>
			<path d="M0.19 139.66 C-0.34 138.43 0.31 136.94 1.24 135.75 C2 134.76 2.95 133.98 3.72 133.56 C4.82 132.96 5.54 133.1
						 5.74 135.39 C5.9 137.3 5.7 140.69 0.19 139.66 Z" class="st21"/>
		</g>
		<g id="shape77-199" v:mID="77" v:groupContext="shape" transform="translate(83.2562,-61.3351)">
			<title>Лист.77</title>
			<path d="M0.16 139.69 C-0.28 138.66 0.26 137.42 1.03 136.42 C1.67 135.6 2.47 134.95 3.11 134.6 C4.03 134.09 4.63 134.21
						 4.79 136.12 C4.93 137.72 4.76 140.55 0.16 139.69 Z" class="st27"/>
		</g>
		<g id="shape78-201" v:mID="78" v:groupContext="shape" transform="translate(83.859,-62.3391)">
			<title>Лист.78</title>
			<path d="M0.13 139.72 C-0.23 138.88 0.21 137.86 0.84 137.05 C1.37 136.38 2.02 135.84 2.54 135.56 C3.29 135.14 3.78 135.24
						 3.92 136.8 C4.03 138.11 3.89 140.43 0.13 139.72 Z" class="st27"/>
		</g>
		<g id="shape79-203" v:mID="79" v:groupContext="shape" transform="translate(72.4842,-61.6486) scale(-1,1)">
			<title>Лист.79</title>
			<path d="M0.15 139.7 C-0.26 138.75 0.24 137.6 0.96 136.68 C1.55 135.91 2.29 135.31 2.88 134.98 C3.73 134.51 4.29 134.62
						 4.44 136.4 C4.56 137.87 4.41 140.5 0.15 139.7 Z" class="st21"/>
		</g>
		<g id="shape80-205" v:mID="80" v:groupContext="shape" transform="translate(72.2429,-62.0689) scale(-1,1)">
			<title>Лист.80</title>
			<path d="M0.12 139.73 C-0.22 138.93 0.2 137.97 0.8 137.2 C1.29 136.56 1.91 136.06 2.4 135.79 C3.12 135.39 3.58 135.48
						 3.71 136.97 C3.81 138.2 3.68 140.39 0.12 139.73 Z" class="st27"/>
		</g>
		<g id="shape81-207" v:mID="81" v:groupContext="shape" transform="translate(71.7762,-62.8461) scale(-1,1)">
			<title>Лист.81</title>
			<path d="M0.1 139.75 C-0.18 139.1 0.17 138.31 0.65 137.68 C1.06 137.16 1.56 136.75 1.97 136.53 C2.55 136.21 2.93 136.28
						 3.03 137.49 C3.12 138.5 3.01 140.3 0.1 139.75 Z" class="st27"/>
		</g>
		<g id="shape82-209" v:mID="82" v:groupContext="shape" transform="translate(58.0275,-88.8038)">
			<title>Лист.82</title>
			<path d="M0 125.14 C14.74 142.63 29.48 144.89 40.16 130.02 C21.45 148.72 10.73 134.17 0 125.14 Z" class="st28"/>
		</g>
		<g id="shape83-211" v:mID="83" v:groupContext="shape" transform="translate(88.0748,-65.7831)">
			<title>Лист.83</title>
			<path d="M15.31 133.21 C8.5 132.64 4.54 133.78 0 137.18 C1.92 138.52 21.66 142.89 21.45 136.33 C21.52 135.79 19.84 133.78
						 15.31 133.21 Z" class="st29"/>
		</g>
		<g id="shape84-215" v:mID="84" v:groupContext="shape" transform="translate(67.6199,-63.021) scale(-1,1)">
			<title>Лист.84</title>
			<path d="M18.1 132.72 C7.89 132.72 6.19 133.28 0 133.45 C1.09 135.5 20.22 144.66 24.33 136.69 C25.47 132.72 24.37 132.55
						 18.1 132.72 Z" class="st29"/>
		</g>
		<g id="shape85-218" v:mID="85" v:groupContext="shape" transform="translate(74.3608,-96.2845) scale(-1,1)">
			<title>Лист.85</title>
			<path d="M0 139.85 C4.71 133.1 8.96 129.7 18.49 128.28 C9.99 132.18 9.71 131.61 0 139.85 Z" class="st23"/>
		</g>
		<g id="shape86-221" v:mID="86" v:groupContext="shape" transform="translate(78.6827,-22.6006)">
			<title>Лист.86</title>
			<path d="M0.6 138.5 C1.66 137.67 3.44 137.08 5.42 135.38 C6.27 136.23 3.34 139.05 1.81 139.69 C1.21 139.94 0.83 139.85
						 0.51 139.72 C-0.01 139.51 -0.35 139.19 0.6 138.5 Z" class="st30"/>
		</g>
		<g id="shape87-225" v:mID="87" v:groupContext="shape" transform="translate(75.2388,-22.1053)">
			<title>Лист.87</title>
			<path d="M0.09 136.8 C0.45 136.42 3.06 136.85 2.67 137.74 C2.79 140.59 1.22 139.93 0.44 139.33 C0.07 139.05 -0.12 138.79
						 0.09 136.8 Z" class="st31"/>
		</g>
		<g id="shape88-229" v:mID="88" v:groupContext="shape" transform="translate(91.2661,-58.655)">
			<title>Лист.88</title>
			<path d="M0 131.2 C3.88 132.38 7.43 132.87 11.94 133.03 C13.81 133.1 15.85 133.12 17.04 132.28 C17.83 131.73 18.26 130.8
						 18.14 130.27 C17.81 134.4 15.52 137.14 13.24 139.85 C13.74 138.6 14.95 137 14.38 135.16 C6 134.48 2.21 132.68
						 0 131.2 Z" class="st13"/>
		</g>
		<g id="shape89-231" v:mID="89" v:groupContext="shape" transform="translate(71.6338,-72.5286)">
			<title>Лист.89</title>
			<path d="M7.65 133.72 C8.5 135.71 7.94 134.85 8.5 135.71 C9.07 136.32 9.35 136.84 11.34 134 C10.77 137.12 11.34 136.27
						 12.6 136.74 C11.62 137.12 11.91 137.41 10.77 139.39 C13.04 136.56 11.64 137.17 10.92 137.49 C9.65 138.06
						 10.49 137.69 9.26 139.85 C9.07 138.54 8.65 138.49 8.39 138.36 C7.94 138.14 7.94 137.69 6.52 137.97 C5.67
						 137.69 5.38 137.62 5.09 137.69 C4.81 137.76 4.54 137.97 4.54 139.67 C3.12 137.69 3.59 137.69 2.42 137.23
						 C1.76 136.97 0.57 136.56 1.98 138.82 C0.85 137.97 1.62 137.12 0 138.26 C0.43 137.72 1.13 136.84 0.13 136.37
						 C0.24 136.41 0.45 136.43 0.59 136.42 C1.21 136.37 0.57 135.71 0.57 135.14 C1.13 136.27 2.79 137.97 2.55
						 135.14 C3.73 136.1 3.97 135.42 2.27 131.17 C5.95 135.99 6.55 135.59 7.65 133.72 Z" class="st8"/>
		</g>
		<g id="shape90-233" v:mID="90" v:groupContext="shape" transform="translate(69.103,-74.7402) scale(-1,1)">
			<title>Лист.90</title>
			<path d="M0 139.54 C0.75 139.84 1.42 139.85 2.16 139.85 C5.15 139.86 9.06 139.85 11.78 137.64 C13.31 136.39 14.46 134.45
						 13.82 133.46 C13.07 132.3 9.84 132.46 7.85 133.18 C3.65 134.72 4.98 138.8 0 139.54 Z" class="st14"/>
		</g>
		<g id="shape91-236" v:mID="91" v:groupContext="shape" transform="translate(54.9094,-74.693)">
			<title>Лист.91</title>
			<path d="M14.42 139.51 C9.2 138.35 10.31 134.6 6.38 132.98 C4.51 132.21 1.51 131.93 0.45 133.04 C-0.44 133.99 0.07 135.96
						 1.32 137.28 C3.56 139.61 8.15 139.88 11.8 139.85 C12.7 139.84 13.54 139.81 14.42 139.51 ZM12.77 139.26 C12.01
						 139.48 11.3 139.47 10.55 139.44 C7.46 139.33 3.59 138.93 1.79 136.87 C0.78 135.71 0.42 134.02 1.22 133.25
						 C2.15 132.35 4.68 132.71 6.22 133.43 C9.49 134.95 8.41 138.08 12.77 139.26 Z" class="st32"/>
		</g>
		<g id="shape92-240" v:mID="92" v:groupContext="shape" transform="translate(102.531,-76.1264) scale(-1,1)">
			<title>Лист.92</title>
			<path d="M13.76 139.52 C9.1 138.48 10.14 135.3 6.5 133.43 C4.5 132.48 1.18 132.09 0.16 133.21 C-0.35 133.82 0.41 135.55
						 1.8 136.85 C3.96 139.35 8.23 140.04 11.42 139.82 C12.22 139.81 12.97 139.79 13.76 139.52 ZM12.29 139.29
						 C11.61 139.49 10.97 139.48 10.3 139.46 C7.73 139.85 3.7 138.09 2.5 136.7 C1.96 136.4 -0.17 134 1.04 133.29
						 C1.57 132.7 5.48 133.05 6.44 134.09 C9.36 135.45 8.39 138.24 12.29 139.29 Z" class="st32"/>
		</g>
		<g id="shape93-243" v:mID="93" v:groupContext="shape" transform="translate(34.8908,173.855) rotate(-170)">
			<title>Лист.93</title>
			<path d="M0 137.21 C4.75 141.48 8.6 140.52 12.18 134.7 C8.21 138.28 6.32 140.63 0 137.21 Z" class="st20"/>
		</g>
		<g id="shape94-245" v:mID="94" v:groupContext="shape" transform="translate(35.5426,175.959) rotate(-170)">
			<title>Лист.94</title>
			<path d="M0 137.04 C5.05 141.59 9.16 140.56 12.97 134.37 C8.74 138.18 6.73 140.68 0 137.04 Z" class="st20"/>
		</g>
		<g id="shape95-247" v:mID="95" v:groupContext="shape" transform="translate(38.3163,172.23) rotate(-170)">
			<title>Лист.95</title>
			<path d="M0 135.44 C6.25 141.17 11.61 141.79 15.41 134.48 C11.39 138.95 7.58 140.2 0 135.44 Z" class="st20"/>
		</g>
		<g id="shape96-249" v:mID="96" v:groupContext="shape" transform="translate(-4.94413,175.316) rotate(-150)">
			<title>Лист.96</title>
			<path d="M0 135.79 C7.01 141.48 12.84 141.38 17.45 134.63 C15.43 137.93 8.93 139.71 0 135.79 Z" class="st25"/>
		</g>
		<g id="shape97-251" v:mID="97" v:groupContext="shape" transform="translate(154.072,176.003) rotate(-30) scale(1,-1)">
			<title>Лист.97</title>
			<path d="M0 130.89 C15.4 139.39 26.03 143.07 25.86 136.48 C23.56 139.92 18.91 138.67 0 130.89 Z" class="st25"/>
		</g>
		<g id="shape98-253" v:mID="98" v:groupContext="shape" transform="translate(-7.02333,162.203) rotate(-150)">
			<title>Лист.98</title>
			<path d="M0 137.89 C10.79 140.85 12.7 137.84 14.34 131.5 C15.24 137.14 10.8 143.13 0 137.89 Z" class="st25"/>
		</g>
		<g id="shape99-255" v:mID="99" v:groupContext="shape" transform="translate(-5.55811,160.918) rotate(-150)">
			<title>Лист.99</title>
			<path d="M0 136.89 C12.67 141.57 14.55 137.75 16.2 131.41 C15.72 137.26 11.58 143.82 0 136.89 Z" class="st25"/>
		</g>
		<g id="shape100-257" v:mID="100" v:groupContext="shape" transform="translate(78.1535,-53.9019)">
			<title>Лист.100</title>
			<path d="M0 139.85 C1.42 128.98 1.3 124.73 1.44 124 C1.55 123.4 1.83 125.21 2.89 125.34 C4.41 125.53 7.54 122.24 7.04
						 123.82 C6.62 125.14 3.69 129.83 0 139.85 Z" class="st27"/>
		</g>
		<g id="shape101-259" v:mID="101" v:groupContext="shape" transform="translate(76.6305,-54.0559) scale(-1,1)">
			<title>Лист.101</title>
			<path d="M0 139.85 C-0.11 128.29 0.86 124.97 1.24 124.49 C1.56 124.1 1.48 125.65 2.31 125.77 C3.5 125.94 6.59 123.13
						 6.08 124.51 C5.65 125.66 2.73 129.71 0 139.85 Z" class="st27"/>
		</g>
		<g id="shape102-261" v:mID="102" v:groupContext="shape" transform="translate(71.877,-49.8925)">
			<title>Лист.102</title>
			<path d="M0 132.2 C4.01 138.86 4.86 143.4 10.92 132.97 C7.41 141.42 3.66 143.13 0 132.2 Z" class="st25"/>
		</g>
		<g id="shape103-263" v:mID="103" v:groupContext="shape" transform="translate(73.0512,-51.7273)">
			<title>Лист.103</title>
			<path d="M0 134.11 C3.09 137.89 3.69 139.77 5.39 138.57 C6.15 138.04 7.12 136.9 9.09 133.62 C8.03 136.37 6.82 138.84
						 4.58 139.72 C4.15 139.88 3.69 139.99 3.04 139.39 C2.33 138.74 1.39 137.26 0 134.11 Z" class="st33"/>
		</g>
		<g id="shape104-265" v:mID="104" v:groupContext="shape" transform="translate(88.4365,210.734) rotate(180)">
			<title>Лист.104</title>
			<path d="M0 139.14 C2.63 139.05 4.33 137.07 6.99 131.5 C5.46 137.64 3.2 141.6 0 139.14 Z" class="st8"/>
		</g>
		<g id="shape105-267" v:mID="105" v:groupContext="shape" transform="translate(65.7637,210.568) scale(1,-1)">
			<title>Лист.105</title>
			<path d="M0 137.46 C3.78 139.64 5.02 138.04 8.14 132.08 C6.15 138.32 4.45 142.86 0 137.46 Z" class="st8"/>
		</g>
		<g id="shape106-269" v:mID="106" v:groupContext="shape" transform="translate(52.2696,219.339) scale(1,-1)">
			<title>Лист.106</title>
			<path d="M0 139.43 C11.71 140.29 14.91 136.23 20.87 130.88 C15.96 137.45 9.73 141.14 0 139.43 Z" class="st8"/>
		</g>
		<g id="shape107-271" v:mID="107" v:groupContext="shape" transform="translate(101.945,219.088) rotate(180)">
			<title>Лист.107</title>
			<path d="M0 139.85 C9.33 138.62 11.39 135.3 20.75 129.93 C14.72 135.08 7.92 140.15 0 139.85 Z" class="st8"/>
		</g>
		<g id="shape108-273" v:mID="108" v:groupContext="shape" transform="translate(104.216,-11.8323)">
			<title>Лист.108</title>
			<path d="M8.92 139.85 C-4.24 129.15 3.13 115.54 20.18 119.37 C5.69 105.34 -10.47 133.69 8.92 139.85 Z" class="st2"/>
		</g>
		<g id="shape109-275" v:mID="109" v:groupContext="shape" transform="translate(48.9784,-6.77067) scale(-1,1)">
			<title>Лист.109</title>
			<path d="M4.94 139.85 C0.02 124.66 1.74 113.65 18.78 117.47 C2.86 104.81 -6.21 128.06 4.94 139.85 Z" class="st2"/>
		</g>
		<g id="shape110-277" v:mID="110" v:groupContext="shape" transform="translate(34.9341,-92.9033)">
			<title>Лист.110</title>
			<path d="M3.26 139.85 C-0.15 122.06 3.25 112.71 12.48 104.14 C3.25 103.64 -4.69 125.47 3.26 139.85 Z" class="st12"/>
		</g>
		<g id="shape111-279" v:mID="111" v:groupContext="shape" transform="translate(116.438,-98.1257) scale(-1,1)">
			<title>Лист.111</title>
			<path d="M1.46 139.85 C0.3 123.03 4.27 112.55 14.75 105.8 C4.55 106.59 -3.38 123.6 1.46 139.85 Z" class="st12"/>
		</g>
		<g id="shape112-281" v:mID="112" v:groupContext="shape" transform="translate(85.5193,-76.6052) rotate(-2)">
			<title>Лист.112</title>
			<path d="M0 139.77 C0.7 139.69 1.1 139.76 1.6 139.8 C3.64 139.98 7.38 139.72 9.66 137.9 C10.94 136.88 11.75 135.36 11.24
						 134.63 C10.64 133.76 8.2 133.98 6.65 134.58 C3.39 135.85 4.11 138.87 0 139.77 Z" class="st34"/>
		</g>
		<g id="shape113-285" v:mID="113" v:groupContext="shape" transform="translate(71.9761,-75.1867) rotate(2) scale(-1,1)">
			<title>Лист.113</title>
			<path d="M0 139.77 C0.7 139.69 1.1 139.76 1.6 139.8 C3.64 139.98 7.38 139.72 9.66 137.9 C10.94 136.88 11.75 135.36 11.24
						 134.63 C10.64 133.76 8.2 133.98 6.65 134.58 C3.39 135.85 4.11 138.87 0 139.77 Z" class="st34"/>
		</g>
		<g id="shape114-288" v:mID="114" v:groupContext="shape" transform="translate(70.4855,-44.5097) rotate(-21.7)">
			<title>Лист.114</title>
			<path d="M8.22 139.61 C-1.69 133.24 0.42 121.35 13.27 115.08 C0.66 105.96 -6.51 144.43 8.22 139.61 Z" class="st2"/>
		</g>
		<g id="shape115-290" v:mID="115" v:groupContext="shape" transform="translate(52.3566,-6.35725) scale(-1,1)">
			<title>Лист.115</title>
			<path d="M5.12 139.85 C-0.29 122.54 6.23 114.89 9.86 110.3 C0.85 116.87 -4.54 127.08 5.12 139.85 Z" class="st35"/>
		</g>
		<g id="shape116-292" v:mID="116" v:groupContext="shape" transform="translate(52.2093,-15.2683) scale(-1,1)">
			<title>Лист.116</title>
			<path d="M0.42 139.85 C2.69 130.32 5.36 123 9.71 119.21 C0.98 125.22 -1 132.02 0.42 139.85 Z" class="st36"/>
		</g>
		<g id="shape117-294" v:mID="117" v:groupContext="shape" transform="translate(52.1533,-21.1192) scale(-1,1)">
			<title>Лист.117</title>
			<path d="M0 139.85 C0.61 138.06 3.14 131.08 8.06 126.29 C1.78 131.92 0.93 135.38 0 139.85 Z" class="st37"/>
		</g>
		<g id="shape118-296" v:mID="118" v:groupContext="shape" transform="translate(53.3328,219.665) scale(1,-1)">
			<title>Лист.118</title>
			<path d="M0 139.75 C10.7 137.96 15.94 134.4 20.11 130.69 C14.33 137.5 6.96 140.61 0 139.75 Z" class="st8"/>
		</g>
		<g id="shape119-298" v:mID="119" v:groupContext="shape" transform="translate(101.521,219.573) rotate(180)">
			<title>Лист.119</title>
			<path d="M0 139.85 C8.16 137.26 12.73 133.52 20.71 129.85 C13.05 134.87 6.08 139.96 0 139.85 Z" class="st8"/>
		</g>
		<g id="shape120-300" v:mID="120" v:groupContext="shape" transform="translate(86.0064,-25.0125) scale(-1,1)">
			<title>Лист.120</title>
			<path d="M0 130.44 C5.3 142.33 9.84 141.48 16.07 130.14 C10.97 145.73 1.05 140.06 0 130.44 Z" class="st8"/>
		</g>
		<g id="shape121-302" v:mID="121" v:groupContext="shape" transform="translate(88.671,-19.4711) scale(-1,1)">
			<title>Лист.121</title>
			<path d="M0 123.44 C8.53 143.17 11.65 144.16 22.52 124.69 C14.36 147.19 5.13 143.03 0 123.44 Z" class="st33"/>
		</g>
		<g id="shape122-304" v:mID="122" v:groupContext="shape" transform="translate(-98.0823,19.5624) rotate(-60)">
			<title>Лист.122</title>
			<path d="M0 135.42 C8.15 142.17 14.11 141.39 23.25 131.82 C14.66 138.64 10.39 139.24 0 135.42 Z" class="st25"/>
		</g>
		<g id="shape123-306" v:mID="123" v:groupContext="shape" transform="translate(126.933,-54.7612) scale(-1,1)">
			<title>Лист.123</title>
			<path d="M6.99 138.96 C7.4 138.97 7.76 138.78 8.1 138.58 C9.45 137.73 10.17 136.65 10.84 135.4 C11.83 133.58 12.71 131.4
						 12.77 129.17 C12.83 126.92 12.06 124.62 11.38 122.64 C10.84 121.06 10.37 119.69 9.6 118.29 C8.27 115.85
						 6.06 113.31 2.27 112.12 C3.76 112.95 4.17 114.32 4.62 115.47 C5.58 117.98 6.69 119.43 7.13 121.47 C7.62
						 123.73 7.3 126.72 6.08 130.24 C4.93 133.55 2.98 137.34 -0 138.67 C1.23 139.63 2.09 140.14 3.62 139.69 C4.81
						 139.34 6.39 138.4 6.99 138.96 Z" class="st12"/>
		</g>
		<g id="shape124-308" v:mID="124" v:groupContext="shape" transform="translate(243.197,16.9887) rotate(60) scale(-1,1)">
			<title>Лист.124</title>
			<path d="M0.25 133.94 C-2.28 141.16 15.1 142.91 22.06 133.03 C14.38 139.39 2.35 137.83 0.25 133.94 Z" class="st25"/>
		</g>
		<g id="shape125-310" v:mID="125" v:groupContext="shape" transform="translate(247.036,14.4196) rotate(60) scale(-1,1)">
			<title>Лист.125</title>
			<path d="M0 134.97 C2.06 140.44 18.33 145.15 23.48 127.05 C14.71 143.97 3.99 136.74 0 134.97 Z" class="st25"/>
		</g>
		<g id="shape126-312" v:mID="126" v:groupContext="shape" transform="translate(82.4827,143.44) rotate(165)">
			<title>Лист.126</title>
			<path d="M0 137.23 C5.24 139.53 12 145 20.47 127.61 C11.14 139.36 6.89 137.77 0 137.23 Z" class="st25"/>
		</g>
		<g id="shape127-314" v:mID="127" v:groupContext="shape" transform="translate(193.439,132.601) rotate(115)">
			<title>Лист.127</title>
			<path d="M0 139.63 C1.87 139.67 3.57 137.69 3.87 135.81 C3.95 137.87 1.21 140.71 0 139.63 Z" class="st9"/>
		</g>
		<g id="shape128-316" v:mID="128" v:groupContext="shape" transform="translate(-36.9218,132.843) rotate(65) scale(1,-1)">
			<title>Лист.128</title>
			<path d="M0 139.61 C1.87 139.66 3.57 137.67 4.37 134.73 C4.4 138.06 1.21 140.7 0 139.61 Z" class="st9"/>
		</g>
		<g id="shape129-318" v:mID="129" v:groupContext="shape" transform="translate(155.32,172.962) rotate(-30) scale(1,-1)">
			<title>Лист.129</title>
			<path d="M0 131.58 C14.89 140.69 22.86 142.8 23.98 135.26 C21.47 142.2 16.26 139.97 0 131.58 Z" class="st25"/>
		</g>
		<g id="shape130-320" v:mID="130" v:groupContext="shape" transform="translate(99.1322,139.305) rotate(165)">
			<title>Лист.130</title>
			<path d="M0 139.85 C9.68 139.54 21.03 137.88 29.01 125.03 C17.07 135.72 12.45 136.44 0 139.85 Z" class="st38"/>
		</g>
		<g id="shape131-324" v:mID="131" v:groupContext="shape" transform="translate(70.6328,-49.0288)">
			<title>Лист.131</title>
			<path d="M0 128.65 C1.15 129.73 1.48 131.5 1.89 132.81 C2.47 134.69 3.21 135.61 4.22 136.67 C4.83 137.3 5.55 137.99 6.37
						 138.16 C7.6 138.4 9.08 137.45 10.09 136.04 C11.66 133.84 12.09 130.53 14.06 129.01 C12.91 131.69 13.02 131.64
						 12.79 132.29 C12.46 133.21 11.43 135.57 10.38 137.08 C9.87 137.8 9.37 138.33 8.76 138.79 C7.78 139.53 6.54
						 140.1 5.52 139.74 C4.23 139.3 3.3 137.38 2.5 135.85 C1.91 134.69 1.39 133.76 1.03 132.9 C0.64 131.97 0.43
						 131.13 0 128.65 Z" class="st19"/>
		</g>
		<g id="shape132-326" v:mID="132" v:groupContext="shape" transform="translate(84.4543,-63.3516)">
			<title>Лист.132</title>
			<path d="M0.1 139.75 C-0.18 139.1 0.17 138.31 0.65 137.68 C1.06 137.16 1.56 136.74 1.97 136.52 C2.55 136.2 2.93 136.28
						 3.04 137.49 C3.12 138.5 3.02 140.3 0.1 139.75 Z" class="st39"/>
		</g>
		<g id="shape133-328" v:mID="133" v:groupContext="shape" transform="translate(71.6338,-63.0326) scale(-1,1)">
			<title>Лист.133</title>
			<path d="M0.09 139.76 C-0.17 139.15 0.15 138.42 0.61 137.83 C0.98 137.35 1.45 136.97 1.83 136.76 C2.37 136.46 2.72 136.53
						 2.82 137.66 C2.9 138.6 2.8 140.26 0.09 139.76 Z" class="st39"/>
		</g>
		<g id="shape134-330" v:mID="134" v:groupContext="shape" transform="translate(193.902,-15.7014) rotate(27) scale(-1,1)">
			<title>Лист.134</title>
			<path d="M5.52 139.85 C0.12 122.54 6.64 114.89 5.74 110.05 C0.81 116.62 -4.14 127.08 5.52 139.85 Z" class="st35"/>
		</g>
		<g id="shape135-332" v:mID="135" v:groupContext="shape" transform="translate(197.644,-23.7959) rotate(27) scale(-1,1)">
			<title>Лист.135</title>
			<path d="M0.62 139.85 C2.89 130.32 5.57 123 5.34 119.05 C-0.03 125.27 -0.79 132.02 0.62 139.85 Z" class="st36"/>
		</g>
		<g id="shape136-334" v:mID="136" v:groupContext="shape" transform="translate(217.402,-18.963) rotate(35) scale(-1,1)">
			<title>Лист.136</title>
			<path d="M0 139.85 C0.61 138.06 3.14 131.08 7.52 126.16 C1.78 131.92 0.93 135.38 0 139.85 Z" class="st37"/>
		</g>
		<g id="shape137-336" v:mID="137" v:groupContext="shape" transform="translate(22.841,-48.6926)">
			<title>Лист.137</title>
			<path d="M7.86 139.24 C8.27 139.25 8.64 139.06 8.97 138.86 C10.32 138.01 11.05 136.93 11.72 135.68 C12.69 133.85 13.55
						 131.69 13.64 129.44 C13.73 127.2 13.05 124.87 12.23 122.92 C11.57 121.37 10.83 120.06 10.01 118.67 C8.59
						 116.25 6.93 113.59 4.96 111.98 C4.63 113.23 5.14 114.35 5.56 115.55 C6.49 118.19 6.97 121.23 6.98 124.34
						 C6.99 127.8 6.42 131.35 5 133.98 C3.66 136.45 1.58 138.11 -0 139.85 C2.53 139.22 3.26 139.24 4.67 139.06
						 C5.76 138.93 7.26 138.68 7.86 139.24 Z" class="st12"/>
		</g>
		<g id="shape138-338" v:mID="138" v:groupContext="shape" transform="translate(51.7052,-53.5993)">
			<title>Лист.138</title>
			<path d="M0 133.37 C9.16 131.94 15.49 135.07 19.63 139.85 C17.09 134.07 15.39 131.8 13.09 127.43 C9.96 129.36 6.84 131.39
						 0 133.37 Z" class="st40"/>
		</g>
		<g id="shape139-342" v:mID="139" v:groupContext="shape" transform="translate(104.812,-52.2038) scale(-1,1)">
			<title>Лист.139</title>
			<path d="M0 129.59 C8.32 133.84 6.84 128.22 21.84 139.85 C19.2 131.51 13.9 132.1 13.51 125.68 C9.37 128.7 13.34 127 0
						 129.59 Z" class="st40"/>
		</g>
		<g id="shape140-345" v:mID="140" v:groupContext="shape" transform="translate(113.264,-93.6995)">
			<title>Лист.140</title>
			<path d="M10.81 130.51 C7.13 122.01 5.99 119.18 0 111.03 C3.72 135.05 1.03 129.65 0.93 139.85 L10.81 130.51 L10.81 130.51
						 Z" class="st12"/>
		</g>
		<g id="shape141-347" v:mID="141" v:groupContext="shape" transform="translate(93.9059,164.128) rotate(-160)">
			<title>Лист.141</title>
			<path d="M0 135.2 C13.04 146.42 8.97 135.23 12.99 124.72 C6.02 138.72 10.38 140.76 0 135.2 Z" class="st25"/>
		</g>
	</g>
</svg>
