<?xml version="1.0" encoding="UTF-8" standalone="no"?>
<!DOCTYPE svg PUBLIC "-//W3C//DTD SVG 1.0//EN" "http://www.w3.org/TR/2001/REC-SVG-20010904/DTD/svg10.dtd">
<!-- Создано Microsoft Visio 11.0, Экспорт SVG, версия 1.0 diamonds.svg Страница-1 -->
<svg xmlns="http://www.w3.org/2000/svg" xmlns:xlink="http://www.w3.org/1999/xlink" xmlns:ev="http://www.w3.org/2001/xml-events"
		xmlns:v="http://schemas.microsoft.com/visio/2003/SVGExtensions/" width="1.74147in" height="2.13517in"
		viewBox="0 0 125.386 153.732" xml:space="preserve" color-interpolation-filters="sRGB" class="st3">
	<v:documentProperties v:langID="1049" v:metric="true" v:viewMarkup="false"/>

	<style type="text/css">
	<![CDATA[
		.st1 {fill:#ab312d;stroke:#f5deb3;stroke-linecap:round;stroke-linejoin:round;stroke-width:6}
		.st2 {fill:#c00000;stroke:#000000;stroke-linecap:round;stroke-linejoin:round;stroke-width:4.5}
		.st3 {fill:none;fill-rule:evenodd;font-size:12;overflow:visible;stroke-linecap:square;stroke-miterlimit:3}
	]]>
	</style>

	<g v:mID="0" v:index="1" v:groupContext="foregroundPage">
		<title>Страница-1</title>
		<v:pageProperties v:drawingScale="0.0393701" v:pageScale="0.0393701" v:drawingUnits="24" v:shadowOffsetX="8.50394"
				v:shadowOffsetY="-8.50394"/>
		<g id="shape1-1" v:mID="1" v:groupContext="shape" transform="translate(6,-6)">
			<title>Лист.1</title>
			<path d="M113.39 82.87 A65.9023 22.0767 56.11 0 1 56.69 12 A65.9023 22.0767 123.89 0 1 0 82.87 A65.9023 22.0767 56.11
						 0 1 56.69 153.73 A65.9023 22.0767 123.89 0 1 113.39 82.87 Z" class="st1"/>
		</g>
		<g id="shape2-3" v:mID="2" v:groupContext="shape" transform="translate(6,-6)">
			<title>Лист.2</title>
			<path d="M113.39 82.87 A65.9023 22.0767 56.11 0 1 56.69 12 A65.9023 22.0767 123.89 0 1 0 82.87 A65.9023 22.0767 56.11
						 0 1 56.69 153.73 A65.9023 22.0767 123.89 0 1 113.39 82.87 Z" class="st2"/>
		</g>
	</g>
</svg>
