<?xml version="1.0" encoding="UTF-8" standalone="no"?>
<!DOCTYPE svg PUBLIC "-//W3C//DTD SVG 1.0//EN" "http://www.w3.org/TR/2001/REC-SVG-20010904/DTD/svg10.dtd">
<!-- Создано Microsoft Visio 11.0, Экспорт SVG, версия 1.0 hearts.svg Страница-1 -->
<svg xmlns="http://www.w3.org/2000/svg" xmlns:xlink="http://www.w3.org/1999/xlink" xmlns:ev="http://www.w3.org/2001/xml-events"
		xmlns:v="http://schemas.microsoft.com/visio/2003/SVGExtensions/" width="1.61745in" height="1.62008in"
		viewBox="0 0 116.456 116.646" xml:space="preserve" color-interpolation-filters="sRGB" class="st3">
	<v:documentProperties v:langID="1049" v:metric="true" v:viewMarkup="false"/>

	<style type="text/css">
	<![CDATA[
		.st1 {fill:#ab312d;stroke:#f5deb3;stroke-linecap:round;stroke-linejoin:round;stroke-width:6}
		.st2 {fill:#c00000;stroke:#000000;stroke-linecap:round;stroke-linejoin:round;stroke-width:4.5}
		.st3 {fill:none;fill-rule:evenodd;font-size:12;overflow:visible;stroke-linecap:square;stroke-miterlimit:3}
	]]>
	</style>

	<g v:mID="0" v:index="1" v:groupContext="foregroundPage">
		<title>Страница-1</title>
		<v:pageProperties v:drawingScale="0.0393701" v:pageScale="0.0393701" v:drawingUnits="24" v:shadowOffsetX="8.50394"
				v:shadowOffsetY="-8.50394"/>
		<g id="shape1-1" v:mID="1" v:groupContext="shape" transform="translate(6,-6)">
			<title>Лист.1</title>
			<path d="M52.23 116.65 L52.23 116.52 L52.23 116.52 C52.23 116.56 52.23 116.6 52.23 116.65 ZM52.23 116.65 C52.39 116.41
						 52.55 116.18 52.72 115.95 C75.45 83.89 114.43 74.08 102.1 32.35 L102.07 32.24 A28.3465 28.3465 -180 0 0
						 52.46 23.04 A28.3465 28.3465 -180 0 0 52.23 23.34 A28.3465 28.3465 -180 0 0 52 23.04 A28.3465 28.3465 -180
						 0 0 2.39 32.24 L2.36 32.35 C-10.06 74.35 29.51 84.01 52.18 116.57 C52.2 116.6 52.21 116.62 52.23 116.65
						 Z" class="st1"/>
		</g>
		<g id="shape2-3" v:mID="2" v:groupContext="shape" transform="translate(6,-6)">
			<title>Лист.2</title>
			<path d="M52.23 116.65 L52.23 116.52 L52.23 116.52 C52.23 116.56 52.23 116.6 52.23 116.65 ZM52.23 116.65 C52.39 116.41
						 52.55 116.18 52.72 115.95 C75.45 83.89 114.43 74.08 102.1 32.35 L102.07 32.24 A28.3465 28.3465 -180 0 0
						 52.46 23.04 A28.3465 28.3465 -180 0 0 52.23 23.34 A28.3465 28.3465 -180 0 0 52 23.04 A28.3465 28.3465 -180
						 0 0 2.39 32.24 L2.36 32.35 C-10.06 74.35 29.51 84.01 52.18 116.57 C52.2 116.6 52.21 116.62 52.23 116.65
						 Z" class="st2"/>
		</g>
	</g>
</svg>
