<?xml version="1.0" encoding="UTF-8" standalone="no"?>
<!DOCTYPE svg PUBLIC "-//W3C//DTD SVG 1.0//EN" "http://www.w3.org/TR/2001/REC-SVG-20010904/DTD/svg10.dtd">
<!-- Создано Microsoft Visio 11.0, Экспорт SVG, версия 1.0 armor.svg Страница-1 -->
<svg xmlns="http://www.w3.org/2000/svg" xmlns:xlink="http://www.w3.org/1999/xlink" xmlns:ev="http://www.w3.org/2001/xml-events"
		xmlns:v="http://schemas.microsoft.com/visio/2003/SVGExtensions/" width="2.01017in" height="2.01017in"
		viewBox="0 0 144.732 144.732" xml:space="preserve" color-interpolation-filters="sRGB" class="st3">
	<v:documentProperties v:langID="1033" v:metric="true" v:viewMarkup="false"/>

	<style type="text/css">
	<![CDATA[
		.st1 {fill:url(#grad40-4);stroke:#510000;stroke-linecap:round;stroke-linejoin:round;stroke-width:1.5}
		.st2 {fill:url(#grad37-8);stroke:#510000;stroke-linecap:round;stroke-linejoin:round;stroke-width:3}
		.st3 {fill:none;fill-rule:evenodd;font-size:12;overflow:visible;stroke-linecap:square;stroke-miterlimit:3}
	]]>
	</style>

	<defs id="Patterns_And_Gradients">
		<radialGradient id="grad40-4" v:fillPattern="40" v:foreground="#ffffcc" v:background="#dead78" cx="0.5" cy="0.5" r="0.5">
			<stop offset="0" style="stop-color:#ffffcc;stop-opacity:1"/>
			<stop offset="1" style="stop-color:#dead78;stop-opacity:1"/>
		</radialGradient>
		<radialGradient id="grad37-8" v:fillPattern="37" v:foreground="#ffffcc" v:background="#500000" cx="1" cy="0" r="1">
			<stop offset="0" style="stop-color:#ffffcc;stop-opacity:1"/>
			<stop offset="1" style="stop-color:#500000;stop-opacity:1"/>
		</radialGradient>
	</defs>
	<g v:mID="0" v:index="1" v:groupContext="foregroundPage">
		<title>Страница-1</title>
		<v:pageProperties v:drawingScale="0.0393701" v:pageScale="0.0393701" v:drawingUnits="24" v:shadowOffsetX="8.50394"
				v:shadowOffsetY="-8.50394"/>
		<g id="shape2-1" v:mID="2" v:groupContext="shape" transform="translate(1.5,-1.5)">
			<title>Квадрат.212</title>
			<v:userDefs>
				<v:ud v:nameU="visVersion" v:val="VT0(14):26"/>
			</v:userDefs>
			<rect x="0" y="3" width="141.732" height="141.732" class="st1"/>
		</g>
		<g id="shape3-5" v:mID="3" v:groupContext="shape" transform="translate(24.1772,-16.1705)">
			<title>Лист.3</title>
			<path d="M96.73 113.79 L96.73 67.54 L96.73 48.29 A60.9945 63.4252 -180 0 0 0 47.95 L0 66.63 L0 114.69 L0 125.58 A60.9945
						 63.4252 -180 0 0 23.39 144.69 L23.39 142.59 L23.39 80.65 A40.748 14.9457 0 0 1 7.09 68.69 A40.748 14.9457
						 0 0 1 88.58 68.69 A40.748 14.9457 0 0 1 72.99 80.45 L72.99 142.59 L72.99 144.73 A60.9945 63.4252 -180 0
						 0 96.73 125.24 L96.73 113.79 Z" class="st2"/>
		</g>
	</g>
</svg>
