<?xml version="1.0" encoding="UTF-8" standalone="no"?>
<!DOCTYPE svg PUBLIC "-//W3C//DTD SVG 1.0//EN" "http://www.w3.org/TR/2001/REC-SVG-20010904/DTD/svg10.dtd">
<!-- Создано Microsoft Visio 11.0, Экспорт SVG, версия 1.0 bleeding.svg Страница-1 -->
<svg xmlns="http://www.w3.org/2000/svg" xmlns:xlink="http://www.w3.org/1999/xlink" xmlns:ev="http://www.w3.org/2001/xml-events"
		xmlns:v="http://schemas.microsoft.com/visio/2003/SVGExtensions/" width="0.951549in" height="1.56685in"
		viewBox="0 0 68.5115 112.813" xml:space="preserve" color-interpolation-filters="sRGB" class="st2">
	<v:documentProperties v:langID="1033" v:metric="true" v:viewMarkup="false"/>

	<style type="text/css">
	<![CDATA[
		.st1 {fill:#500000;stroke:#500000;stroke-linecap:round;stroke-linejoin:round;stroke-width:0.24}
		.st2 {fill:none;fill-rule:evenodd;font-size:12;overflow:visible;stroke-linecap:square;stroke-miterlimit:3}
	]]>
	</style>

	<g v:mID="0" v:index="1" v:groupContext="foregroundPage">
		<title>Страница-1</title>
		<v:pageProperties v:drawingScale="0.0393701" v:pageScale="0.0393701" v:drawingUnits="24" v:shadowOffsetX="8.50394"
				v:shadowOffsetY="-8.50394"/>
		<g id="shape4-1" v:mID="4" v:groupContext="shape" transform="translate(39.925,-0.24)">
			<title>Лист.4</title>
			<path d="M2.97 86.7 A14.1732 16.198 -180 0 0 0.5 92.37 A14.1732 16.198 -180 0 0 0 96.61 A14.1732 16.198 -180 0 0 1.52
						 103.9 A14.1732 16.198 -180 0 0 26.83 103.9 A14.1732 16.198 -180 0 0 28.35 96.61 A14.1732 16.198 -180 0 0
						 27.85 92.37 A14.1732 16.198 -180 0 0 25.38 86.7 L14.17 60.98 L2.97 86.7 Z" class="st1"/>
		</g>
		<g id="shape5-3" v:mID="5" v:groupContext="shape" transform="translate(0.24,-36.1995)">
			<title>Лист.5</title>
			<path d="M2.37 91.92 A11.3386 12.9584 -180 0 0 0.4 96.46 A11.3386 12.9584 -180 0 0 0 99.85 A11.3386 12.9584 -180 0 0
						 1.21 105.69 A11.3386 12.9584 -180 0 0 21.46 105.69 A11.3386 12.9584 -180 0 0 22.68 99.85 A11.3386 12.9584
						 -180 0 0 22.28 96.46 A11.3386 12.9584 -180 0 0 20.3 91.92 L11.34 71.35 L2.37 91.92 Z" class="st1"/>
		</g>
		<g id="shape6-5" v:mID="6" v:groupContext="shape" transform="translate(45.5943,-81.4728)">
			<title>Лист.6</title>
			<path d="M1.78 97.14 A8.50394 9.71879 -180 0 0 0.3 100.55 A8.50394 9.71879 -180 0 0 0 103.09 A8.50394 9.71879 -180 0
						 0 0.91 107.47 A8.50394 9.71879 -180 0 0 16.1 107.47 A8.50394 9.71879 -180 0 0 17.01 103.09 A8.50394 9.71879
						 -180 0 0 16.71 100.55 A8.50394 9.71879 -180 0 0 15.23 97.14 L8.5 81.71 L1.78 97.14 Z" class="st1"/>
		</g>
	</g>
</svg>
