<?xml version="1.0" encoding="UTF-8" standalone="no"?>
<!DOCTYPE svg PUBLIC "-//W3C//DTD SVG 1.0//EN" "http://www.w3.org/TR/2001/REC-SVG-20010904/DTD/svg10.dtd">
<!-- Создано Microsoft Visio 11.0, Экспорт SVG, версия 1.0 burning.svg Страница-1 -->
<svg xmlns="http://www.w3.org/2000/svg" xmlns:xlink="http://www.w3.org/1999/xlink" xmlns:ev="http://www.w3.org/2001/xml-events"
		xmlns:v="http://schemas.microsoft.com/visio/2003/SVGExtensions/" width="1.3519in" height="1.75755in"
		viewBox="0 0 97.3369 126.544" xml:space="preserve" color-interpolation-filters="sRGB" class="st3">
	<v:documentProperties v:langID="1033" v:metric="true" v:viewMarkup="false"/>

	<style type="text/css">
	<![CDATA[
		.st1 {fill:none;stroke:#510000;stroke-linecap:round;stroke-linejoin:round;stroke-width:3}
		.st2 {fill:none;stroke:#510000;stroke-linecap:round;stroke-linejoin:round;stroke-width:1.5}
		.st3 {fill:none;fill-rule:evenodd;font-size:12;overflow:visible;stroke-linecap:square;stroke-miterlimit:3}
	]]>
	</style>

	<g v:mID="0" v:index="1" v:groupContext="foregroundPage">
		<title>Страница-1</title>
		<v:pageProperties v:drawingScale="0.0393701" v:pageScale="0.0393701" v:drawingUnits="24" v:shadowOffsetX="8.50394"
				v:shadowOffsetY="-8.50394"/>
		<g id="shape3-1" v:mID="3" v:groupContext="shape" transform="translate(3,-3)">
			<title>Лист.3</title>
			<path d="M15.59 112.3 C29.76 131.29 53.86 130.72 80.79 115.13 C89.63 102.38 89.29 105.21 88.89 90.28 C89.63 89.06 86.79
						 85.94 87.36 80.55 C93.54 66.94 92.13 60.99 85.8 46.05 C86.46 58.44 77.95 56.46 75.17 71.2 C42.29 38.6 82.54
						 45.69 43.99 6 C51.36 48.52 30.1 31.51 26.93 62.69 C24.16 66.94 21.6 64.11 16.94 58.05 C14.17 49.94 19.9
						 55.61 3.17 34.35 C7.42 66.94 -11 58.72 11.17 89.08 C8.84 100.96 9.05 100.42 15.59 112.3 Z" class="st1"/>
		</g>
		<g id="shape4-3" v:mID="4" v:groupContext="shape" transform="translate(10.1213,-6.82134)">
			<title>Лист.4</title>
			<path d="M13.29 114.43 C25.35 130.58 45.84 130.1 68.75 116.84 C71.74 111.87 75.99 108.4 75.65 95.69 C74.58 92.59 73.86
						 92 74.35 87.42 C79.61 75.84 78.4 70.78 76 62.26 C73.58 68.61 73.16 80.69 63.98 79.46 C41.98 59.43 47.65
						 46.67 53.32 37.6 C33.29 41.34 26.39 56.59 26.39 60.28 C26.39 70.77 20.72 73.6 15.05 77.85 C6.55 77.85 10.8
						 65.1 2.29 55.18 C6.34 75.84 -9.33 68.85 9.53 94.68 C7.55 104.78 7.72 104.32 13.29 114.43 Z" class="st2"/>
		</g>
	</g>
</svg>
