<?xml version="1.0" encoding="UTF-8" standalone="no"?>
<!DOCTYPE svg PUBLIC "-//W3C//DTD SVG 1.0//EN" "http://www.w3.org/TR/2001/REC-SVG-20010904/DTD/svg10.dtd">
<!-- Создано Microsoft Visio 11.0, Экспорт SVG, версия 1.0 burning.svg Страница-1 -->
<svg xmlns="http://www.w3.org/2000/svg" xmlns:xlink="http://www.w3.org/1999/xlink" xmlns:ev="http://www.w3.org/2001/xml-events"
		xmlns:v="http://schemas.microsoft.com/visio/2003/SVGExtensions/" width="2.01017in" height="2.01017in"
		viewBox="0 0 144.732 144.732" xml:space="preserve" color-interpolation-filters="sRGB" class="st4">
	<v:documentProperties v:langID="1033" v:metric="true" v:viewMarkup="false"/>

	<style type="text/css">
	<![CDATA[
		.st1 {fill:url(#grad40-4);stroke:#510000;stroke-linecap:round;stroke-linejoin:round;stroke-width:1.5}
		.st2 {fill:none;stroke:#510000;stroke-linecap:round;stroke-linejoin:round;stroke-width:3}
		.st3 {fill:none;stroke:#510000;stroke-linecap:round;stroke-linejoin:round;stroke-width:1.5}
		.st4 {fill:none;fill-rule:evenodd;font-size:12;overflow:visible;stroke-linecap:square;stroke-miterlimit:3}
	]]>
	</style>

	<defs id="Patterns_And_Gradients">
		<radialGradient id="grad40-4" v:fillPattern="40" v:foreground="#ffffcc" v:background="#dead78" cx="0.5" cy="0.5" r="0.5">
			<stop offset="0" style="stop-color:#ffffcc;stop-opacity:1"/>
			<stop offset="1" style="stop-color:#dead78;stop-opacity:1"/>
		</radialGradient>
	</defs>
	<g v:mID="0" v:index="1" v:groupContext="foregroundPage">
		<title>Страница-1</title>
		<v:pageProperties v:drawingScale="0.0393701" v:pageScale="0.0393701" v:drawingUnits="24" v:shadowOffsetX="8.50394"
				v:shadowOffsetY="-8.50394"/>
		<g id="shape2-1" v:mID="2" v:groupContext="shape" transform="translate(1.5,-1.5)">
			<title>Квадрат.238</title>
			<v:userDefs>
				<v:ud v:nameU="visVersion" v:val="VT0(14):26"/>
			</v:userDefs>
			<rect x="0" y="3" width="141.732" height="141.732" class="st1"/>
		</g>
		<g id="shape3-5" v:mID="3" v:groupContext="shape" transform="translate(26.3836,-14.1848)">
			<title>Лист.3</title>
			<path d="M15.59 130.49 C29.76 149.48 53.86 148.91 80.79 133.32 C89.63 120.57 89.29 123.4 88.89 108.47 C89.63 107.24 86.79
						 104.13 87.36 98.74 C93.54 85.13 92.13 79.18 85.8 64.24 C86.46 76.63 77.95 74.65 75.17 89.39 C42.29 56.79
						 82.54 63.87 43.99 24.19 C51.36 66.71 30.1 49.7 26.93 80.88 C24.16 85.13 21.6 82.3 16.94 76.24 C14.17 68.13
						 19.9 73.8 3.17 52.54 C7.42 85.13 -11 76.91 11.17 107.27 C8.84 119.15 9.05 118.61 15.59 130.49 Z"
					class="st2"/>
		</g>
		<g id="shape1-7" v:mID="1" v:groupContext="shape" transform="translate(33.5049,-18.0062)">
			<title>Лист.1</title>
			<path d="M13.29 132.61 C25.35 148.77 45.84 148.29 68.75 135.03 C71.74 130.06 75.99 126.59 75.65 113.88 C74.58 110.78
						 73.86 110.19 74.35 105.61 C79.61 94.03 78.4 88.97 76 80.45 C73.58 86.8 73.16 98.88 63.98 97.65 C41.98 77.62
						 47.65 64.86 53.32 55.79 C33.29 59.53 26.39 74.78 26.39 78.47 C26.39 88.95 20.72 91.79 15.05 96.04 C6.55
						 96.04 10.8 83.29 2.29 73.36 C6.34 94.03 -9.33 87.04 9.53 112.86 C7.55 122.97 7.72 122.51 13.29 132.61 Z"
					class="st3"/>
		</g>
	</g>
</svg>
