<?xml version="1.0" encoding="UTF-8" standalone="no"?>
<!DOCTYPE svg PUBLIC "-//W3C//DTD SVG 1.0//EN" "http://www.w3.org/TR/2001/REC-SVG-20010904/DTD/svg10.dtd">
<!-- Создано Microsoft Visio 11.0, Экспорт SVG, версия 1.0 dazed.svg Страница-1 -->
<svg xmlns="http://www.w3.org/2000/svg" xmlns:xlink="http://www.w3.org/1999/xlink" xmlns:ev="http://www.w3.org/2001/xml-events"
		xmlns:v="http://schemas.microsoft.com/visio/2003/SVGExtensions/" width="1.20716in" height="1.71724in"
		viewBox="0 0 86.9153 123.641" xml:space="preserve" color-interpolation-filters="sRGB" class="st2">
	<v:documentProperties v:langID="1033" v:metric="true" v:viewMarkup="false"/>

	<style type="text/css">
	<![CDATA[
		.st1 {fill:#500000;stroke:#500000;stroke-linecap:round;stroke-linejoin:round;stroke-width:0.24}
		.st2 {fill:none;fill-rule:evenodd;font-size:12;overflow:visible;stroke-linecap:square;stroke-miterlimit:3}
	]]>
	</style>

	<g v:mID="0" v:index="1" v:groupContext="foregroundPage">
		<title>Страница-1</title>
		<v:pageProperties v:drawingScale="0.0393701" v:pageScale="0.0393701" v:drawingUnits="24" v:shadowOffsetX="8.50394"
				v:shadowOffsetY="-8.50394"/>
		<g id="shape1-1" v:mID="1" v:groupContext="shape" transform="translate(37.2464,-0.24)">
			<title>Пятиконечная звезда</title>
			<v:userDefs>
				<v:ud v:nameU="visVersion" v:val="VT0(14):26"/>
			</v:userDefs>
			<path d="M29.78 93.86 L24.09 75.45 L18.11 93.86 L-1.24 93.86 L14.42 105.23 L8.44 123.64 L24.09 112.27 L39.75 123.64 L33.77
						 105.23 L49.43 93.86 L29.78 93.86 Z" class="st1"/>
		</g>
		<g id="shape2-3" v:mID="2" v:groupContext="shape" transform="translate(32.0007,-45.6734) rotate(15)">
			<title>Пятиконечная звезда.2</title>
			<v:userDefs>
				<v:ud v:nameU="visVersion" v:val="VT0(14):26"/>
			</v:userDefs>
			<path d="M19.43 104.21 L15.72 92.2 L11.82 104.21 L-0.81 104.21 L9.41 111.63 L5.5 123.64 L15.72 116.22 L25.93 123.64 L22.03
						 111.63 L32.25 104.21 L19.43 104.21 Z" class="st1"/>
		</g>
		<g id="shape3-5" v:mID="3" v:groupContext="shape" transform="translate(130.745,-71.3923) rotate(45)">
			<title>Пятиконечная звезда.3</title>
			<v:userDefs>
				<v:ud v:nameU="visVersion" v:val="VT0(14):26"/>
			</v:userDefs>
			<path d="M14.02 109.63 L11.34 100.96 L8.52 109.63 L-0.58 109.63 L6.78 114.98 L3.97 123.64 L11.34 118.29 L18.71 123.64
						 L15.89 114.98 L23.26 109.63 L14.02 109.63 Z" class="st1"/>
		</g>
	</g>
</svg>
