<?xml version="1.0" encoding="UTF-8" standalone="no"?>
<!DOCTYPE svg PUBLIC "-//W3C//DTD SVG 1.0//EN" "http://www.w3.org/TR/2001/REC-SVG-20010904/DTD/svg10.dtd">
<!-- Создано Microsoft Visio 11.0, Экспорт SVG, версия 1.0 fast-color.svg Страница-1 -->
<svg xmlns="http://www.w3.org/2000/svg" xmlns:xlink="http://www.w3.org/1999/xlink" xmlns:ev="http://www.w3.org/2001/xml-events"
		xmlns:v="http://schemas.microsoft.com/visio/2003/SVGExtensions/" width="2.01017in" height="2.01017in"
		viewBox="0 0 144.732 144.732" xml:space="preserve" color-interpolation-filters="sRGB" class="st5">
	<v:documentProperties v:langID="1033" v:metric="true" v:viewMarkup="false"/>

	<style type="text/css">
	<![CDATA[
		.st1 {fill:#ffffff;stroke:#000000;stroke-linecap:round;stroke-linejoin:round;stroke-width:1.5}
		.st2 {fill:url(#grad30-6);stroke:#000000;stroke-linecap:round;stroke-linejoin:round;stroke-width:3}
		.st3 {stroke:#000000;stroke-linecap:round;stroke-linejoin:round;stroke-width:1.5}
		.st4 {fill:#000000;stroke:none;stroke-linecap:round;stroke-linejoin:round;stroke-width:0.24}
		.st5 {fill:none;fill-rule:evenodd;font-size:12;overflow:visible;stroke-linecap:square;stroke-miterlimit:3}
	]]>
	</style>

	<defs id="Patterns_And_Gradients">
		<linearGradient id="grad30-6" v:fillPattern="30" v:foreground="#b7c9e3" v:background="#e8eef7" x1="0" y1="1" x2="0" y2="0">
			<stop offset="0" style="stop-color:#b7c9e3;stop-opacity:1"/>
			<stop offset="1" style="stop-color:#e8eef7;stop-opacity:1"/>
		</linearGradient>
	</defs>
	<g v:mID="0" v:index="1" v:groupContext="foregroundPage">
		<title>Страница-1</title>
		<v:pageProperties v:drawingScale="0.0393701" v:pageScale="0.0393701" v:drawingUnits="24" v:shadowOffsetX="8.50394"
				v:shadowOffsetY="-8.50394"/>
		<g id="shape3-1" v:mID="3" v:groupContext="shape" transform="translate(1.5,-1.5)">
			<title>Квадрат.18</title>
			<v:userDefs>
				<v:ud v:nameU="visVersion" v:val="VT0(14):26"/>
			</v:userDefs>
			<rect x="0" y="3" width="141.732" height="141.732" class="st1"/>
		</g>
		<g id="shape4-3" v:mID="4" v:groupContext="shape" transform="translate(40.3806,-34.7732)">
			<title>Лист.4</title>
			<path d="M0.65 138.2 C7.04 139.45 12.38 127.14 25.08 123.09 C38.99 118.66 61.75 124.15 72.17 142.89 C75.29 147.19 83.11
						 143.28 78.81 138.2 C82.33 143.67 88.97 135.46 80.17 132.08 C78.76 129.82 77.34 129.25 74.51 125.56 C97.18
						 122.73 81.59 104.3 70.99 106.93 C70.99 97.16 68.06 90.32 57.32 84.46 C57.32 91.3 58.03 97.21 63.18 105.96
						 C55.75 92.86 53.41 89.35 45.98 84.46 C44.61 95.21 50.48 102.05 55.75 106.93 C30.57 100.05 26.32 106.29 17.81
						 114.23 C13.56 111.39 11.58 112.81 7.89 107.71 C5.06 115.64 4.21 119.04 10.73 119.9 C1.94 126.98 -0.9 130.95
						 0.24 137.75 L0.8 138.32 L0.8 138.32 C-0.33 132.65 0.24 130.95 0.65 138.2 Z" class="st2"/>
		</g>
		<g id="shape5-7" v:mID="5" v:groupContext="shape" transform="translate(67.2638,212.846) rotate(180)">
			<title>Лист.5</title>
			<path d="M0 144.73 L47.34 144.73" class="st3"/>
		</g>
		<g id="shape6-10" v:mID="6" v:groupContext="shape" transform="translate(114.886,-65.2795)">
			<title>Круг</title>
			<v:userDefs>
				<v:ud v:nameU="visVersion" v:val="VT0(14):26"/>
			</v:userDefs>
			<path d="M0 143.31 A1.41732 1.41732 0 0 1 2.83 143.31 A1.41732 1.41732 0 1 1 -0 143.31 Z" class="st4"/>
		</g>
		<g id="shape7-12" v:mID="7" v:groupContext="shape" transform="translate(78.6024,205.76) rotate(180)">
			<title>Лист.7</title>
			<path d="M0 144.73 L44.5 144.73" class="st3"/>
		</g>
		<g id="shape8-15" v:mID="8" v:groupContext="shape" transform="translate(81.437,197.256) rotate(180)">
			<title>Лист.8</title>
			<path d="M0 144.73 L27.5 144.73" class="st3"/>
		</g>
		<g id="shape9-18" v:mID="9" v:groupContext="shape" transform="translate(38.3504,223.164) rotate(180)">
			<title>Лист.9</title>
			<path d="M0 144.73 L26.93 144.73" class="st3"/>
		</g>
		<g id="shape10-21" v:mID="10" v:groupContext="shape" transform="translate(32.6811,245.445) rotate(180)">
			<title>Лист.10</title>
			<path d="M0 144.73 L11.34 144.73" class="st3"/>
		</g>
		<g id="shape11-24" v:mID="11" v:groupContext="shape" transform="translate(34.0984,234.106) rotate(180)">
			<title>Лист.11</title>
			<path d="M0 144.73 L18.43 144.73" class="st3"/>
		</g>
		<g id="shape12-27" v:mID="12" v:groupContext="shape" transform="translate(120.839,227.02) scale(1,-1)">
			<title>Треугольник.128</title>
			<v:userDefs>
				<v:ud v:nameU="visVersion" v:val="VT0(14):26"/>
			</v:userDefs>
			<path d="M2.75 144.73 L1.28 142.31 L-0.2 144.73 L2.75 144.73 Z" class="st4"/>
		</g>
	</g>
</svg>
