<?xml version="1.0" encoding="UTF-8" standalone="no"?>
<!DOCTYPE svg PUBLIC "-//W3C//DTD SVG 1.0//EN" "http://www.w3.org/TR/2001/REC-SVG-20010904/DTD/svg10.dtd">
<!-- Создано Microsoft Visio 11.0, Экспорт SVG, версия 1.0 gremlins.svg Страница-1 -->
<svg xmlns="http://www.w3.org/2000/svg" xmlns:xlink="http://www.w3.org/1999/xlink" xmlns:ev="http://www.w3.org/2001/xml-events"
		xmlns:v="http://schemas.microsoft.com/visio/2003/SVGExtensions/" width="1.22717in" height="1.31599in"
		viewBox="0 0 88.3564 94.7512" xml:space="preserve" color-interpolation-filters="sRGB" class="st4">
	<v:documentProperties v:langID="1049" v:metric="true" v:viewMarkup="false"/>

	<style type="text/css">
	<![CDATA[
		.st1 {fill:url(#grad40-4);stroke:none;stroke-linecap:round;stroke-linejoin:round;stroke-width:0.24}
		.st2 {fill:url(#grad40-8);stroke:none;stroke-linecap:round;stroke-linejoin:round;stroke-width:0.24}
		.st3 {fill:url(#grad29-30);stroke:none;stroke-linecap:round;stroke-linejoin:round;stroke-width:0.24}
		.st4 {fill:none;fill-rule:evenodd;font-size:12;overflow:visible;stroke-linecap:square;stroke-miterlimit:3}
	]]>
	</style>

	<defs id="Patterns_And_Gradients">
		<radialGradient id="grad40-4" v:fillPattern="40" v:foreground="#a67260" v:background="#500000" cx="0.5" cy="0.5" r="0.5">
			<stop offset="0" style="stop-color:#a67260;stop-opacity:1"/>
			<stop offset="1" style="stop-color:#500000;stop-opacity:1"/>
		</radialGradient>
		<radialGradient id="grad40-8" v:fillPattern="40" v:foreground="#ffffcc" v:background="#f3e1cd" cx="0.5" cy="0.5" r="0.5">
			<stop offset="0" style="stop-color:#ffffcc;stop-opacity:1"/>
			<stop offset="1" style="stop-color:#f3e1cd;stop-opacity:1"/>
		</radialGradient>
		<linearGradient id="grad29-30" v:fillPattern="29" v:foreground="#bb9486" v:background="#500000" x1="0" y1="0" x2="0" y2="1">
			<stop offset="0" style="stop-color:#500000;stop-opacity:1"/>
			<stop offset="0.5" style="stop-color:#bb9486;stop-opacity:1"/>
			<stop offset="1" style="stop-color:#500000;stop-opacity:1"/>
		</linearGradient>
	</defs>
	<g v:mID="0" v:index="1" v:groupContext="foregroundPage">
		<title>Страница-1</title>
		<v:pageProperties v:drawingScale="0.0393701" v:pageScale="0.0393701" v:drawingUnits="24" v:shadowOffsetX="8.50394"
				v:shadowOffsetY="-8.50394"/>
		<g id="shape2-1" v:mID="2" v:groupContext="shape" transform="translate(0.24,-0.24)">
			<title>Лист.2</title>
			<path d="M1.71 2.77 C0.57 3.33 -0.04 4.23 0 4.97 C0.05 5.78 0.88 6.4 1.31 6.89 C1.87 7.51 1.79 7.91 1.72 8.3 C1.24 10.9
						 1.18 12.99 2.1 15.87 C2.22 16.24 2.35 16.62 2.47 17.28 C2.68 18.41 2.86 20.37 3.89 21.77 C4.47 22.57 5.33
						 23.19 5.82 23.89 C6.31 24.57 6.45 25.34 6.79 26.23 C7.15 27.18 7.74 28.29 8.32 29.34 C9.09 30.75 9.84 32.07
						 9.82 32.87 C9.79 33.83 8.65 34.03 10.59 34.39 C13.18 34.87 21.25 35.63 20.49 38.77 C20.16 40.14 18.15 41.96
						 17.01 43.22 C15.22 45.18 15.57 45.73 15.62 46.64 C15.72 48.37 14.76 51.38 14.96 54.6 C15.08 56.7 15.7 58.89
						 16.62 60.7 C18.29 64.01 20.97 66.06 24.24 67.53 C27.28 68.9 30.83 69.77 32.6 73.04 C33.04 73.86 33.37 74.83
						 33.66 75.85 C28.24 74.22 19.06 71.2 14.75 63.14 C16.39 74.12 28.92 81.83 36.78 83.99 C36.91 84.1 37.06 84.19
						 37.21 84.27 C38.21 84.8 39.57 84.75 40.1 85.24 C40.6 85.71 40.34 86.67 40.8 87.25 C41.52 88.17 44.08 88.1
						 45.18 89.02 C46.18 89.86 45.96 91.51 46.32 89.93 C46.55 88.9 47.02 86.52 47.5 88.69 C47.53 88.86 47.57 89.05
						 47.6 89.15 C47.67 89.44 47.62 88.82 47.72 88.35 C48.14 86.35 51.16 86.81 53.27 85.77 C53.56 85.62 53.84
						 85.45 54.1 85.27 C55.78 84.09 56.65 82.73 57.17 81.36 C64.99 78.55 75.66 71.23 77.17 61.16 C73.04 68.86
						 64.47 71.96 58.99 73.64 C59.34 72.34 59.73 71.28 60.22 70.39 C61.64 67.81 63.91 66.69 66.97 65.49 C68.79
						 64.78 70.89 64.05 72.39 62.44 C74.95 59.72 75.81 54.51 75.25 49.86 C74.95 47.41 74.26 45.13 72.85 42.73
						 C71.5 40.43 69.48 38.04 69.88 36.78 C70.32 35.37 73.8 35.38 76.12 34.23 C78.41 33.1 79.58 30.83 80.48 28.97
						 C82.02 25.79 82.78 23.79 85.15 18.77 C85.73 17.53 86.42 16.1 86.64 15.26 C86.74 14.9 86.75 14.64 86.75 14.34
						 C86.75 13.81 86.69 13.12 86.79 12.44 C86.92 11.42 87.39 10.41 87.42 9.45 C87.49 7.46 85.68 5.72 86.87 3.55
						 C87.21 2.93 87.8 2.27 87.88 1.68 C87.96 1.04 87.46 0.48 86.93 0.48 C86.22 0.48 85.45 1.47 84.57 2.09 C83.06
						 3.17 81.23 3.14 79.52 3.35 C77.95 3.55 76.47 3.95 74.97 4.2 C72.78 4.58 70.55 4.64 68.33 5.59 C63.53 7.63
						 58.81 13.77 57.98 13.82 C57.79 13.83 57.8 13.54 58.12 12.69 C58.38 11.99 58.84 10.91 58.69 10.99 C58.54
						 11.06 57.89 12.1 57.41 12.55 C56.95 12.97 56.65 12.87 56.86 11.86 C57.04 11.03 57.56 9.6 57.71 8.99 C58.06
						 7.62 56.57 10.41 55.31 11.46 C53.44 13.02 52.09 10.73 50.64 9.37 C48.04 6.93 45.08 7.45 42.52 8.16 C41.07
						 8.55 39.75 9 38.09 10.07 C35.52 11.71 32.15 14.82 30.07 13.57 C29.19 13.04 28.55 11.74 27.66 10.72 C25.84
						 8.64 23.02 7.73 20.14 7.31 C17.56 6.93 14.93 6.96 12.25 6.21 C8.89 5.28 5.45 3.14 3.94 4.2 C3.63 4.41 3.41
						 4.75 1.71 2.77 ZM61.52 81.91 A8.22047 8.22047 0 0 1 56.81 83.27 A10.9134 9.6378 0 0 1 35.95 85.18 A8.22047
						 8.22047 0 0 1 30.55 84.03 A15.5906 12.8268 -180 0 0 61.52 81.92 L61.52 81.91 Z" class="st1"/>
		</g>
		<g id="shape4-5" v:mID="4" v:groupContext="shape" transform="translate(57.224,-49.988)">
			<title>Круг</title>
			<v:userDefs>
				<v:ud v:nameU="visVersion" v:val="VT0(14):26"/>
			</v:userDefs>
			<path d="M0 93.62 A1.13386 1.13386 0 1 1 2.27 93.62 A1.13386 1.13386 0 0 1 0 93.62 Z" class="st2"/>
		</g>
		<g id="shape5-9" v:mID="5" v:groupContext="shape" transform="translate(31.7122,-49.1376)">
			<title>Круг.9</title>
			<v:userDefs>
				<v:ud v:nameU="visVersion" v:val="VT0(14):26"/>
			</v:userDefs>
			<path d="M0 93.62 A1.13386 1.13386 0 0 1 2.27 93.62 A1.13386 1.13386 0 1 1 0 93.62 Z" class="st2"/>
		</g>
		<g id="shape7-12" v:mID="7" v:groupContext="shape" transform="translate(77.0665,156.239) rotate(180)">
			<title>Лист.7</title>
			<path d="M0 94.75 C2.55 77.74 35.69 70.59 20.81 79.89 C20.31 80.21 19.75 80.54 16.91 81.73 C12.88 83.41 4.25 86.81 0
						 94.75 Z" class="st2"/>
		</g>
		<g id="shape9-15" v:mID="9" v:groupContext="shape" transform="translate(31.9956,-27.1599)">
			<title>Лист.9</title>
			<path d="M8.69 62.59 C8.12 59.19 6.94 57.97 6.01 56.89 C0.07 50.1 3.76 48.99 5.2 47.38 C6.73 45.67 5.72 43.4 7.95 40.22
						 C9.1 38.58 11.11 36.7 13.19 36.26 C15.49 35.77 17.88 37.04 19.59 38.89 C20.64 40.03 21.43 41.38 21.93 41.39
						 C22.25 41.4 22.44 40.89 22.79 40.91 C23.67 40.97 25.48 44.45 27.87 46.64 C29.18 47.84 30.66 48.66 30.56
						 48.35 C30.5 48.16 29.87 47.58 29.38 46.96 C27.85 45.01 27.57 42.61 28.31 40.71 C30.04 36.24 37.42 34.56
						 43.18 33.94 C46.18 33.62 48.74 33.58 51.48 31.61 C53.15 30.41 54.88 28.5 55.29 28.55 C55.61 28.6 55.13 29.84
						 54.41 30.85 C51.28 35.26 43.65 35.15 38.26 37.69 C34.78 39.34 32.23 42.09 32.14 45.27 C32.08 47.61 33.35
						 50.19 34.8 52.13 C36.21 54.05 37.79 55.35 37.18 53.86 C36.94 53.26 36.34 52.21 36.87 52.33 C37.54 52.47
						 40.01 54.47 41.09 55.38 C42.81 56.81 41.02 55.49 39 52.3 C37.88 50.54 36.69 48.21 36.94 47.89 C37.26 47.48
						 39.89 50.29 40.44 50.68 C41.1 51.14 38.79 48.14 37.97 46.69 C37.15 45.23 37.83 45.34 38.16 45.01 C38.98
						 44.16 37.45 40.38 43.44 38.15 C45.23 37.49 47.71 36.96 49.8 35.65 C51.09 34.86 52.23 33.77 53.04 33.3 C56.47
						 31.32 53.96 40.35 52.08 44.97 C51.01 47.6 50.14 48.8 48.36 49.95 C47.2 50.7 45.65 51.44 46.22 51.99 C46.62
						 52.37 48.05 52.67 48.41 52.98 C48.75 53.26 48.2 53.55 47.8 53.95 C46.76 54.98 46.61 56.76 43.14 57.32 C41.51
						 57.58 39.15 57.57 39.32 57.76 C39.47 57.93 41.78 58.27 42.11 58.58 C42.48 58.93 40.38 59.25 38.91 59.18
						 C34.75 58.97 35.63 55.61 32.5 52.95 C30.7 51.41 27.56 50.11 27.28 50.45 C27.06 50.71 28.5 51.93 28.03 52.84
						 C27.51 53.87 24.59 54.51 24.88 54.62 C25.14 54.71 28.14 54.35 29.15 54.82 C29.67 55.06 29.65 55.54 29.6
						 55.23 C29.55 54.95 29.48 54.06 29.58 53.54 C29.95 51.61 32.75 54.71 34.67 57.61 C36.14 59.81 37.1 61.89
						 35.15 60.43 C34.19 59.72 32.54 58.16 32.07 57.91 C31.11 57.41 34.79 62.08 34.6 64.1 C34.48 65.3 33 65.55
						 32.37 64.99 C31.96 64.63 31.91 63.91 31.74 63.89 C31.47 63.86 30.92 65.36 29.75 65.61 C29.1 65.75 28.28
						 65.52 28.01 65.53 C27.62 65.55 28.36 66.07 28.57 66.51 C29.09 67.61 26.4 68.25 24.48 69.9 C23.19 71.01 22.24
						 72.57 21.63 72.84 C21.11 73.07 20.83 72.39 20.42 71.8 C19.9 71.07 19.19 70.5 17.89 70.5 C17.05 70.51 15.97
						 70.75 15.41 70.9 C13.81 71.32 16.52 70.95 18.63 72.44 C19.89 73.34 20.95 74.9 21.49 75.08 C22 75.24 22.07
						 74.22 23.42 75.52 C24.12 76.19 25.16 77.48 25.53 77.82 C26.22 78.45 24.58 75.76 24.52 75.18 C24.44 74.4
						 27.28 77.49 29.25 76.99 C30.21 76.75 30.96 75.64 30.66 75.19 C30.27 74.58 27.95 75.18 27.13 75.04 C26.55
						 74.93 26.73 74.45 27.23 74.05 C27.89 73.52 29.09 73.14 29.81 72.03 C30.38 71.12 30.64 69.74 31.04 69.12
						 C32.07 67.58 34.08 70.97 35.36 74.16 C36.09 75.98 36.57 77.73 35.97 78.18 C35.22 78.72 32.81 77.25 31.83
						 77.34 C30.9 77.43 31.27 78.92 30.09 79.05 C29.06 79.17 26.85 78.27 26.83 78.47 C26.81 78.66 28.89 79.9 30.05
						 80.91 C32.28 82.85 31.09 83.93 30.34 85.62 C28.94 88.8 29.11 94.18 26.48 86.03 C25.77 83.82 24.85 80.62
						 24.61 79.74 C24.31 78.69 24.99 80.99 25.7 85.9 C26.13 88.89 26.57 92.84 26.51 93.82 C26.42 95.29 25.22 90.21
						 24.54 87.65 C23.14 82.42 23.9 87.76 24.44 90.81 C25.11 94.6 25.44 94.86 23 90.36 C22.08 88.67 20.77 86.31
						 21.27 88 C21.57 89.02 22.52 91.5 23.03 93 C24.86 98.43 20.8 90.95 18.51 86.84 C16.59 83.39 15.89 82.31 15.05
						 81.3 C14.66 80.83 14.23 80.38 13.22 81.02 C12.22 81.65 10.64 83.36 9.94 83.55 C9.12 83.77 9.54 81.85 11
						 80.24 C11.78 79.4 12.85 78.64 12.82 78.64 C12.75 78.64 9.6 80.76 8.66 80.79 C7.98 80.81 8.46 79.74 9.22
						 78.79 C10.07 77.74 11.27 76.84 10.98 77 C10.66 77.18 8.48 78.7 7.74 78.98 C6.78 79.34 8.25 77.62 8.17 76.11
						 C8.13 75.24 7.57 74.44 7.63 73.75 C7.78 72.01 11.85 70.97 10.83 71.03 C10.32 71.06 8.52 71.36 7.58 71.83
						 C5.88 72.67 6.91 74.05 5.6 73.21 C4.58 72.55 2.14 70.54 0.94 68.58 C-1.33 64.84 0.9 61.26 3.42 62.15 C4.94
						 62.69 6.57 64.88 6.72 65.75 C6.85 66.58 5.66 66.23 6.15 66.86 C6.64 67.5 8.87 69.16 9.69 67.93 C10.19 67.18
						 10.16 65.35 10.11 64.88 C10.06 64.39 9.98 65.46 9.41 65.69 C7.91 66.3 3.06 61.2 2.39 59.07 C2.04 57.98 2.78
						 57.66 3.44 57.71 C5.15 57.83 6.42 60.32 8.69 62.59 Z" class="st2"/>
		</g>
		<g id="shape10-18" v:mID="10" v:groupContext="shape" transform="translate(44.0712,-15.6321)">
			<title>Лист.10</title>
			<path d="M0.4 92.71 C0.54 92.57 0.71 92.57 0.88 92.57 C1.61 92.57 2.3 92.72 2.92 92.65 C3.24 92.62 3.54 92.53 3.83 92.31
						 C4.07 92.13 4.3 91.86 4.45 91.92 C4.59 91.97 4.65 92.31 4.82 92.48 C5.07 92.74 5.55 92.65 5.87 92.43 C6.03
						 92.31 6.14 92.16 6.29 92.14 C6.47 92.12 6.7 92.27 6.89 92.29 C7.09 92.3 7.24 92.14 7.43 92 C7.52 91.93 7.61
						 91.87 7.68 91.86 C7.94 91.84 7.88 92.62 7.54 92.88 C7.34 93.03 7.04 93 6.83 93.05 C6.55 93.12 6.43 93.33
						 6.26 93.62 C6.1 93.9 5.89 94.25 5.64 94.24 C5.41 94.23 5.14 93.91 4.96 93.84 C4.74 93.77 4.64 94.08 4.42
						 94.3 C4.24 94.48 3.96 94.61 3.71 94.47 C3.55 94.38 3.4 94.17 3.26 94.13 C2.98 94.05 2.76 94.67 2.44 94.75
						 C2.17 94.81 1.84 94.51 1.53 94.52 C1.32 94.53 1.11 94.69 0.94 94.69 C0.69 94.7 0.49 94.39 0.28 94.13 C0.15
						 93.95 0.01 93.8 -0 93.62 C-0.02 93.29 0.39 92.9 0.4 92.71 Z" class="st2"/>
		</g>
		<g id="shape11-21" v:mID="11" v:groupContext="shape" transform="translate(30.5783,-9.73606)">
			<title>Лист.11</title>
			<path d="M0.21 93.52 A8.22047 8.22047 -180 0 0 5.62 94.68 A10.9134 9.6378 0 0 1 4.82 91.07 A10.9134 9.6378 0 0 1 11.51
						 82.18 A8.22047 8.22047 -180 0 0 9.16 79.74 A15.5906 12.8268 -180 0 0 -0 91.42 A15.5906 12.8268 -180 0 0
						 0.21 93.52 Z" class="st2"/>
		</g>
		<g id="shape12-24" v:mID="12" v:groupContext="shape" transform="translate(49.4622,-11.7203)">
			<title>Лист.12</title>
			<path d="M12.3 93.39 A15.5906 12.8268 -180 0 0 1.5 81.2 A8.22047 8.22047 -180 0 0 0 83.82 A10.9134 9.6378 0 0 1 7.76
						 93.05 A10.9134 9.6378 0 0 1 7.59 94.75 A8.22047 8.22047 -180 0 0 12.3 93.39 Z" class="st2"/>
		</g>
		<g id="shape13-27" v:mID="13" v:groupContext="shape" transform="translate(45.6012,-38.9329)">
			<title>Лист.13</title>
			<path d="M4.54 75.48 C4.81 75.12 4.87 74.64 4.96 74.2 C5.17 73.18 5.57 72.39 6.29 71.65 C6.68 71.25 7.16 70.86 7.14 70.51
						 C7.13 70.24 6.81 69.99 6.52 69.95 C5.11 69.74 4.38 74.39 4.54 75.48 ZM2.84 77.18 C2.28 77.11 2.1 77.67 2.13
						 78.03 C2.18 78.72 3.01 78.69 3.46 79.16 C3.72 79.43 3.85 79.86 4.08 80.01 C4.51 80.29 5.29 79.64 5.81 79.16
						 C6.45 78.56 6.69 78.21 6.86 77.6 C7.18 76.44 7.27 74.35 8.28 73.21 C8.73 72.69 9.38 72.36 10.06 71.93 C10.45
						 71.69 10.84 71.42 10.91 71.28 C11.08 70.96 9.47 71.4 8.33 71.93 C6.63 72.73 6.01 73.74 5.9 75.25 C5.82 76.22
						 5.96 77.39 5.39 78.08 C4.57 79.08 2.3 79.08 2.84 77.18 ZM8.5 94.75 C9.37 93.69 3.99 90.25 4.37 89.51 C4.46
						 89.33 4.9 89.31 5.44 89.51 C6.16 89.77 7.06 90.41 7.43 90.56 C8.21 90.86 6.66 88.92 4.48 88.09 C2.52 87.34
						 0.05 87.48 0 87.66 C-0.04 87.82 1.6 88.01 2.7 88.66 C3.91 89.37 4.47 90.64 5.33 91.49 C6.15 92.3 7.24 92.72
						 7.88 93.96 C8.03 94.25 8.16 94.59 8.5 94.75 Z" class="st3"/>
		</g>
	</g>
</svg>
