<?xml version="1.0" encoding="UTF-8" standalone="no"?>
<!DOCTYPE svg PUBLIC "-//W3C//DTD SVG 1.0//EN" "http://www.w3.org/TR/2001/REC-SVG-20010904/DTD/svg10.dtd">
<!-- Создано Microsoft Visio 11.0, Экспорт SVG, версия 1.0 intoxication.svg Страница-1 -->
<svg xmlns="http://www.w3.org/2000/svg" xmlns:xlink="http://www.w3.org/1999/xlink" xmlns:ev="http://www.w3.org/2001/xml-events"
		xmlns:v="http://schemas.microsoft.com/visio/2003/SVGExtensions/" width="0.673885in" height="1.71297in"
		viewBox="0 0 48.5197 123.334" xml:space="preserve" color-interpolation-filters="sRGB" class="st3">
	<v:documentProperties v:langID="1033" v:metric="true" v:viewMarkup="false"/>

	<style type="text/css">
	<![CDATA[
		.st1 {fill:none;stroke:#510000;stroke-linecap:round;stroke-linejoin:round;stroke-width:3}
		.st2 {fill:#500000;stroke:#510000;stroke-linecap:round;stroke-linejoin:round;stroke-width:3}
		.st3 {fill:none;fill-rule:evenodd;font-size:12;overflow:visible;stroke-linecap:square;stroke-miterlimit:3}
	]]>
	</style>

	<g v:mID="0" v:index="1" v:groupContext="foregroundPage">
		<title>Страница-1</title>
		<v:pageProperties v:drawingScale="0.0393701" v:pageScale="0.0393701" v:drawingUnits="24" v:shadowOffsetX="8.50394"
				v:shadowOffsetY="-8.50394"/>
		<g id="shape2-1" v:mID="2" v:groupContext="shape" transform="translate(31.3465,-79.9404)">
			<title>Круг</title>
			<v:userDefs>
				<v:ud v:nameU="visVersion" v:val="VT0(14):26"/>
			</v:userDefs>
			<path d="M0 116.6 A6.73228 6.73228 0 1 1 13.46 116.6 A6.73228 6.73228 0 1 1 0 116.6 Z" class="st1"/>
		</g>
		<g id="shape1-3" v:mID="1" v:groupContext="shape" transform="translate(3.70866,-89.8616)">
			<title>Круг.1</title>
			<v:userDefs>
				<v:ud v:nameU="visVersion" v:val="VT0(14):26"/>
			</v:userDefs>
			<path d="M0 118.37 A4.96063 4.96063 0 1 1 9.92 118.37 A4.96063 4.96063 0 1 1 -0 118.37 Z" class="st1"/>
		</g>
		<g id="shape3-5" v:mID="3" v:groupContext="shape" transform="translate(24.2598,-111.83)">
			<title>Круг.3</title>
			<v:userDefs>
				<v:ud v:nameU="visVersion" v:val="VT0(14):26"/>
			</v:userDefs>
			<path d="M0 119.08 A4.25197 4.25197 0 1 1 8.5 119.08 A4.25197 4.25197 0 1 1 -0 119.08 Z" class="st1"/>
		</g>
		<g id="shape5-7" v:mID="5" v:groupContext="shape" transform="translate(3,-49.2139)">
			<title>Лист.5</title>
			<path d="M1 117.78 C3.35 121.89 10.61 124.34 15.59 122.94 C18.68 122.07 20.89 119.73 23.81 118.12 C28.05 115.79 33.77
						 115 37.98 118.97 C39.04 119.96 40 121.25 40.96 122.22 A181.669 42.4976 -90 0 0 42.52 108.94 A21.2598 9.24219
						 -180 0 0 21.26 99.69 A21.2598 9.24219 -180 0 0 -0 108.94 A181.669 42.4976 -90 0 0 1 117.78 Z" class="st1"/>
		</g>
		<g id="shape6-9" v:mID="6" v:groupContext="shape" transform="translate(4.00171,-3)">
			<title>Лист.6</title>
			<path d="M0 71.57 A181.669 42.4976 -90 0 0 2.76 91.2 L2.75 91.2 A181.669 43.951 -90 0 0 6.49 109.83 L6.54 109.83 A181.669
						 46.6757 -90 0 0 10.45 123.33 L30.08 123.33 A181.669 46.6757 -90 0 0 33.98 109.83 L34.02 109.83 A181.669
						 43.951 -90 0 0 37.77 91.2 L37.76 91.2 A181.669 42.4976 -90 0 0 39.96 76.01 C39 75.04 38.04 73.75 36.98 72.76
						 C32.76 68.79 27.05 69.57 22.81 71.91 C19.89 73.51 17.67 75.86 14.59 76.72 C9.6 78.13 2.35 75.67 0 71.57
						 Z" class="st2"/>
		</g>
	</g>
</svg>
