<?xml version="1.0" encoding="UTF-8" standalone="no"?>
<!DOCTYPE svg PUBLIC "-//W3C//DTD SVG 1.0//EN" "http://www.w3.org/TR/2001/REC-SVG-20010904/DTD/svg10.dtd">
<!-- Создано Microsoft Visio 11.0, Экспорт SVG, версия 1.0 masks.svg Страница-1 -->
<svg xmlns="http://www.w3.org/2000/svg" xmlns:xlink="http://www.w3.org/1999/xlink" xmlns:ev="http://www.w3.org/2001/xml-events"
		xmlns:v="http://schemas.microsoft.com/visio/2003/SVGExtensions/" width="1.65814in" height="2.05184in"
		viewBox="0 0 119.386 147.732" xml:space="preserve" color-interpolation-filters="sRGB" class="st15">
	<v:documentProperties v:langID="1049" v:metric="true" v:viewMarkup="false"/>

	<style type="text/css">
	<![CDATA[
		.st1 {fill:url(#grad40-4);stroke:#000000;stroke-linecap:round;stroke-linejoin:round;stroke-width:3}
		.st2 {fill:url(#grad28-8);stroke:none;stroke-linecap:round;stroke-linejoin:round;stroke-width:0.24}
		.st3 {fill:url(#grad28-12);stroke:none;stroke-linecap:round;stroke-linejoin:round;stroke-width:0.24}
		.st4 {fill:url(#grad28-16);stroke:none;stroke-linecap:round;stroke-linejoin:round;stroke-width:0.24}
		.st5 {fill:url(#grad28-20);stroke:none;stroke-linecap:round;stroke-linejoin:round;stroke-width:0.24}
		.st6 {fill:url(#grad38-24);stroke:#000000;stroke-linecap:round;stroke-linejoin:round;stroke-width:0.75}
		.st7 {fill:url(#grad28-28);stroke:none;stroke-linecap:round;stroke-linejoin:round;stroke-width:0.25}
		.st8 {fill:url(#grad40-32);stroke:none;stroke-linecap:round;stroke-linejoin:round;stroke-width:0.24}
		.st9 {fill:url(#grad40-36);stroke:none;stroke-linecap:round;stroke-linejoin:round;stroke-width:0.24}
		.st10 {fill:url(#grad35-40);stroke:#000000;stroke-linecap:round;stroke-linejoin:round;stroke-width:0.75}
		.st11 {fill:url(#grad28-54);stroke:#000000;stroke-linecap:round;stroke-linejoin:round;stroke-width:1.5}
		.st12 {fill:url(#grad40-58);stroke:none;stroke-linecap:round;stroke-linejoin:round;stroke-width:0.24}
		.st13 {fill:url(#grad28-71);stroke:none;stroke-linecap:round;stroke-linejoin:round;stroke-width:0.24}
		.st14 {fill:url(#grad28-75);stroke:none;stroke-linecap:round;stroke-linejoin:round;stroke-width:0.24}
		.st15 {fill:none;fill-rule:evenodd;font-size:12;overflow:visible;stroke-linecap:square;stroke-miterlimit:3}
	]]>
	</style>

	<defs id="Patterns_And_Gradients">
		<radialGradient id="grad40-4" v:fillPattern="40" v:foreground="#ff0000" v:background="#c00000" cx="0.5" cy="0.5" r="0.5">
			<stop offset="0" style="stop-color:#ff0000;stop-opacity:1"/>
			<stop offset="1" style="stop-color:#c00000;stop-opacity:1"/>
		</radialGradient>
		<linearGradient id="grad28-8" v:fillPattern="28" v:foreground="#990000" v:background="#510000" x1="0" y1="0" x2="0" y2="1">
			<stop offset="0" style="stop-color:#990000;stop-opacity:1"/>
			<stop offset="1" style="stop-color:#510000;stop-opacity:1"/>
		</linearGradient>
		<linearGradient id="grad28-12" v:fillPattern="28" v:foreground="#ff0000" v:background="#990000" x1="0" y1="0" x2="0" y2="1">
			<stop offset="0" style="stop-color:#ff0000;stop-opacity:1"/>
			<stop offset="1" style="stop-color:#990000;stop-opacity:1"/>
		</linearGradient>
		<linearGradient id="grad28-16" v:fillPattern="28" v:foreground="#990000" v:foregroundOpacity="0.5" v:background="#510000"
				v:backgroundOpacity="0.5" x1="0" y1="0" x2="0" y2="1">
			<stop offset="0" style="stop-color:#990000;stop-opacity:0.5"/>
			<stop offset="1" style="stop-color:#510000;stop-opacity:0.5"/>
		</linearGradient>
		<linearGradient id="grad28-20" v:fillPattern="28" v:foreground="#ff0000" v:foregroundOpacity="0.5" v:background="#990000"
				v:backgroundOpacity="0.5" x1="0" y1="0" x2="0" y2="1">
			<stop offset="0" style="stop-color:#ff0000;stop-opacity:0.5"/>
			<stop offset="1" style="stop-color:#990000;stop-opacity:0.5"/>
		</linearGradient>
		<radialGradient id="grad38-24" v:fillPattern="38" v:foreground="#1e1e1e" v:background="#000000" cx="0" cy="1" r="1">
			<stop offset="0" style="stop-color:#1e1e1e;stop-opacity:1"/>
			<stop offset="1" style="stop-color:#000000;stop-opacity:1"/>
		</radialGradient>
		<linearGradient id="grad28-28" v:fillPattern="28" v:foreground="#1e1e1e" v:background="#000000" x1="0" y1="0" x2="0" y2="1">
			<stop offset="0" style="stop-color:#1e1e1e;stop-opacity:1"/>
			<stop offset="1" style="stop-color:#000000;stop-opacity:1"/>
		</linearGradient>
		<radialGradient id="grad40-32" v:fillPattern="40" v:foreground="#db31df" v:background="#000000" cx="0.5" cy="0.5" r="0.5">
			<stop offset="0" style="stop-color:#db31df;stop-opacity:1"/>
			<stop offset="1" style="stop-color:#000000;stop-opacity:1"/>
		</radialGradient>
		<radialGradient id="grad40-36" v:fillPattern="40" v:foreground="#ffffff" v:foregroundOpacity="0.2" v:background="#db31df"
				v:backgroundOpacity="0.2" cx="0.5" cy="0.5" r="0.5">
			<stop offset="0" style="stop-color:#ffffff;stop-opacity:0.2"/>
			<stop offset="1" style="stop-color:#db31df;stop-opacity:0.2"/>
		</radialGradient>
		<pattern id="grad35-40" v:fillPattern="35" v:foreground="#200e23" v:background="#000000" x="0" y="0" width="1" height="1"
				patternContentUnits="objectBoundingBox">
			<path d="M 0.5 0.5 L 0 0 L 0 1 z" style="fill:url(#grad27-41)"/>
			<path d="M 0.5 0.5 L 1 0 L 1 1 z" style="fill:url(#grad25-42)"/>
			<path d="M 0.5 0.5 L 0 0 L 1 0 z" style="fill:url(#grad30-43)"/>
			<path d="M 0.5 0.5 L 0 1 L 1 1 z" style="fill:url(#grad28-44)"/>
		</pattern>
		<linearGradient id="grad27-41" v:fillPattern="35" v:foreground="#200e23" v:background="#000000" x1="1" y1="0" x2="0" y2="0">
			<stop offset="0" style="stop-color:#200e23;stop-opacity:1"/>
			<stop offset="1" style="stop-color:#000000;stop-opacity:1"/>
		</linearGradient>
		<linearGradient id="grad25-42" v:fillPattern="35" v:foreground="#200e23" v:background="#000000" x1="0" y1="0" x2="1" y2="0">
			<stop offset="0" style="stop-color:#200e23;stop-opacity:1"/>
			<stop offset="1" style="stop-color:#000000;stop-opacity:1"/>
		</linearGradient>
		<linearGradient id="grad30-43" v:fillPattern="35" v:foreground="#200e23" v:background="#000000" x1="0" y1="1" x2="0" y2="0">
			<stop offset="0" style="stop-color:#200e23;stop-opacity:1"/>
			<stop offset="1" style="stop-color:#000000;stop-opacity:1"/>
		</linearGradient>
		<linearGradient id="grad28-44" v:fillPattern="35" v:foreground="#200e23" v:background="#000000" x1="0" y1="0" x2="0" y2="1">
			<stop offset="0" style="stop-color:#200e23;stop-opacity:1"/>
			<stop offset="1" style="stop-color:#000000;stop-opacity:1"/>
		</linearGradient>
		<linearGradient id="grad28-54" v:fillPattern="28" v:foreground="#f0f0f0" v:background="#7b408e" x1="0" y1="0" x2="0" y2="1">
			<stop offset="0" style="stop-color:#f0f0f0;stop-opacity:1"/>
			<stop offset="1" style="stop-color:#7b408e;stop-opacity:1"/>
		</linearGradient>
		<radialGradient id="grad40-58" v:fillPattern="40" v:foreground="#ffffff" v:foregroundOpacity="0.45" v:background="#db31df"
				v:backgroundOpacity="0.45" cx="0.5" cy="0.5" r="0.5">
			<stop offset="0" style="stop-color:#ffffff;stop-opacity:0.45"/>
			<stop offset="1" style="stop-color:#db31df;stop-opacity:0.45"/>
		</radialGradient>
		<linearGradient id="grad28-71" v:fillPattern="28" v:foreground="#745889" v:background="#f5e8f7" x1="0" y1="0" x2="0" y2="1">
			<stop offset="0" style="stop-color:#745889;stop-opacity:1"/>
			<stop offset="1" style="stop-color:#f5e8f7;stop-opacity:1"/>
		</linearGradient>
		<linearGradient id="grad28-75" v:fillPattern="28" v:foreground="#2f2437" v:background="#a26fae" x1="0" y1="0" x2="0" y2="1">
			<stop offset="0" style="stop-color:#2f2437;stop-opacity:1"/>
			<stop offset="1" style="stop-color:#a26fae;stop-opacity:1"/>
		</linearGradient>
	</defs>
	<g v:mID="0" v:index="1" v:groupContext="foregroundPage">
		<title>Страница-1</title>
		<v:pageProperties v:drawingScale="0.0393701" v:pageScale="0.0393701" v:drawingUnits="24" v:shadowOffsetX="8.50394"
				v:shadowOffsetY="-8.50394"/>
		<g id="shape1-1" v:mID="1" v:groupContext="shape" transform="translate(3,-3)">
			<title>Лист.1</title>
			<path d="M113.39 76.87 A65.9023 22.0767 56.11 0 1 56.69 6 A65.9023 22.0767 123.89 0 1 0 76.87 A65.9023 22.0767 56.11
						 0 1 56.69 147.73 A65.9023 22.0767 123.89 0 1 113.39 76.87 Z" class="st1"/>
		</g>
		<g id="shape4-5" v:mID="4" v:groupContext="shape" transform="translate(59.6929,222.732) scale(1,-1)">
			<title>Лист.4</title>
			<path d="M0 80.83 C10.77 99.54 15.49 116.55 53.19 147.73 C14.64 129.31 9.82 116.55 0 80.83 Z" class="st2"/>
		</g>
		<g id="shape5-9" v:mID="5" v:groupContext="shape" transform="translate(59.7974,-72.7323)">
			<title>Лист.5</title>
			<path d="M0 80.83 C9.82 99.54 15.49 116.55 53.19 147.73 C14.64 129.31 9.82 116.55 0 80.83 Z" class="st3"/>
		</g>
		<g id="shape7-13" v:mID="7" v:groupContext="shape" transform="translate(59.6929,222.732) rotate(180)">
			<title>Лист.7</title>
			<path d="M0 80.83 C10.77 99.54 15.49 116.55 53.19 147.73 C14.64 129.31 9.82 116.55 0 80.83 Z" class="st4"/>
		</g>
		<g id="shape8-17" v:mID="8" v:groupContext="shape" transform="translate(59.5884,-72.7323) scale(-1,1)">
			<title>Лист.8</title>
			<path d="M0 80.83 C9.82 99.54 15.49 116.55 53.19 147.73 C14.64 129.31 9.82 116.55 0 80.83 Z" class="st5"/>
		</g>
		<g id="shape9-21" v:mID="9" v:groupContext="shape" transform="translate(55.3265,-77.5843) scale(-1,1)">
			<title>Лист.9</title>
			<path d="M5.92 131.35 A209.612 19.1398 92.63 0 1 6.17 130.64 A27.86 18.9761 -73.72 0 0 6.22 130.96 A1.76072 1.09503 95.36
						 0 1 5.92 131.35 ZM11.72 141.38 A10.6577 5.69513 -62.95 0 0 3.9 147.73 A118.283 27.6879 117.54 0 1 15.31
						 142.4 A40.2164 37.7139 8.06 0 1 6.63 129.39 A209.612 19.1398 92.63 0 1 9.33 123.99 A69.9316 29.4099 90.51
						 0 1 0.96 98.69 A58.5324 16.0376 -75.72 0 0 -0 106.57 A28.0598 3.38664 89.06 0 1 1.67 110.13 A41.2791 11.2217
						 -90.69 0 0 5.86 123.99 A18.6456 3.83368 -90 0 0 3.25 140.62 A209.612 19.1398 92.63 0 1 5.87 131.5 A29.0492
						 19.6735 -78.72 0 0 11.72 141.38 Z" class="st6"/>
		</g>
		<g id="shape10-25" v:mID="10" v:groupContext="shape" transform="translate(18.4195,-20.3911)">
			<title>Лист.10</title>
			<path d="M78.93 47.06 C68.39 107.01 8.79 91.2 3.39 44.99 C-4.52 73.11 2.29 110.96 14.77 137.46 C14.65 110.59 68.07 112.17
						 71.17 147.73 C84.64 107.01 84.64 83.3 78.93 47.06 Z" class="st7"/>
		</g>
		<g id="shape11-29" v:mID="11" v:groupContext="shape" transform="translate(35.9607,-61.8359)">
			<title>Эллипс.85</title>
			<v:userDefs>
				<v:ud v:nameU="visVersion" v:val="VT0(14):26"/>
			</v:userDefs>
			<path d="M0 138.53 A5.15918 9.20085 0 0 1 10.32 138.53 A5.15918 9.20085 0 0 1 -0 138.53 Z" class="st8"/>
		</g>
		<g id="shape12-33" v:mID="12" v:groupContext="shape" transform="translate(39.6458,-65.4505)">
			<title>Эллипс.25</title>
			<v:userDefs>
				<v:ud v:nameU="visVersion" v:val="VT0(14):26"/>
			</v:userDefs>
			<path d="M0 142.15 A1.10554 5.58623 0 0 1 2.21 142.15 A1.10554 5.58623 0 0 1 0 142.15 Z" class="st9"/>
		</g>
		<g id="shape13-37" v:mID="13" v:groupContext="shape" transform="translate(58.2756,-12.7164) scale(-1,1)">
			<title>Лист.13</title>
			<path d="M0.49 147.73 A28.2547 4.91474 89.03 0 1 0.62 121.96 A3.18389 1.08507 -87.65 0 0 1.92 119.75 A6.28658 1.03785
						 -93.66 0 0 3.12 122.69 A45.5297 9.20736 -93.41 0 0 0.49 147.73 Z" class="st10"/>
		</g>
		<g id="shape14-45" v:mID="14" v:groupContext="shape" transform="translate(42.9872,-22.2302) rotate(-4) scale(-1,1)">
			<title>Лист.14</title>
			<path d="M0.44 147.73 A20.4495 4.50218 88.75 0 1 0.57 129.08 a2.30542 0.993524 -86.77 0 0 1.18457 -1.59885 a4.55522 0.949624
						 -94.71 0 0 1.10031 2.13179 A32.9854 8.426 -94.43 0 0 0.44 147.73 Z" class="st10"/>
		</g>
		<g id="shape15-48" v:mID="15" v:groupContext="shape" transform="translate(33.528,-33.3674) rotate(-5) scale(-1,1)">
			<title>Лист.15</title>
			<path d="M0.37 147.73 A10.777 3.70495 87.89 0 1 0.47 137.91 a1.21863 0.815137 -82.54 0 0 0.975172 -0.842287 a2.41217
						 0.777728 -97.84 0 0 0.905805 1.12305 A17.4597 6.90368 -97.65 0 0 0.37 147.73 Z" class="st10"/>
		</g>
		<g id="shape16-51" v:mID="16" v:groupContext="shape" transform="translate(18.4195,-20.3911)">
			<title>Лист.16</title>
			<path d="M62.05 105.61 A10.1312 10.8766 0 0 1 60.09 106.22 A10.1312 10.8766 0 0 1 49.62 101.2 A8.78169 2.44394 -54.31
						 0 0 58.03 92.34 A8.78169 2.44394 -54.31 0 0 59.52 88.68 A3.62231 9.48432 0 0 1 60.26 87.95 A13.9187 5.27198
						 -176.38 0 0 62.9 88.85 A13.9187 5.27198 -176.38 0 0 65.41 89.42 C67.97 84.13 67.67 85.06 69.05 82.07 L64.23
						 77.81 C42.84 97.64 7.49 80.08 3.39 44.99 C-4.52 73.11 2.29 110.96 14.77 137.46 C14.65 110.59 68.07 112.17
						 71.17 147.73 C84.64 107.01 84.64 83.3 78.93 47.06 C76.85 58.88 72.86 67.76 67.76 74.04 C69.6 77.79 69.1
						 77.36 71.04 82.07 C67.83 87.25 67.7 87.44 66.26 89.57 A13.9187 5.27198 -176.38 0 0 79.25 89.08 A16.4234
						 4.46797 -45.67 0 0 64.81 102.22 C64.88 102.2 64.94 102.18 64.99 102.19 C64.99 106.08 65.35 104.71 65.96
						 106.33 L65.06 109.76 L65.06 109.76 C66.7 115.31 66.01 112.69 68.69 122.18 C66.34 116.68 65.9 117.05 62.06
						 110.67 C62.23 107.68 62.03 109.23 62.05 105.61 ZM26.67 93.23 A8.78169 2.44394 -125.69 0 0 34.56 101.2 A10.8766
						 10.1312 90 0 1 24.37 106.27 A10.8766 10.1312 90 0 1 21.54 105.33 L21.47 105.29 A16.4234 4.46797 -134.33
						 0 0 4.94 89.08 A13.9187 5.27198 -3.62 0 0 21.7 88.73 A13.9187 5.27198 -3.62 0 0 24.12 87.87 A3.62231 9.48432
						 0 0 1 24.59 88.22 A8.78169 2.44394 -125.69 0 0 26.67 93.23 Z" class="st11"/>
		</g>
		<g id="shape17-55" v:mID="17" v:groupContext="shape" transform="translate(38.0079,-64.7953)">
			<title>Эллипс.86</title>
			<v:userDefs>
				<v:ud v:nameU="visVersion" v:val="VT0(14):26"/>
			</v:userDefs>
			<path d="M0 141.78 A2.97638 5.95276 0 1 1 5.95 141.78 A2.97638 5.95276 0 1 1 0 141.78 Z" class="st12"/>
		</g>
		<g id="shape18-59" v:mID="18" v:groupContext="shape" transform="translate(38.7165,-66.2126)">
			<title>Эллипс.133</title>
			<v:userDefs>
				<v:ud v:nameU="visVersion" v:val="VT0(14):26"/>
			</v:userDefs>
			<path d="M0 143.2 A2.26772 4.53543 0 0 1 4.54 143.2 A2.26772 4.53543 0 1 1 0 143.2 Z" class="st12"/>
		</g>
		<g id="shape19-62" v:mID="19" v:groupContext="shape" transform="translate(39.1417,-67.063)">
			<title>Эллипс.134</title>
			<v:userDefs>
				<v:ud v:nameU="visVersion" v:val="VT0(14):26"/>
			</v:userDefs>
			<path d="M0 144.05 A1.84252 3.68504 0 1 1 3.69 144.05 A1.84252 3.68504 0 0 1 0 144.05 Z" class="st12"/>
		</g>
		<g id="shape20-65" v:mID="20" v:groupContext="shape" transform="translate(39.5669,-67.6299)">
			<title>Эллипс.135</title>
			<v:userDefs>
				<v:ud v:nameU="visVersion" v:val="VT0(14):26"/>
			</v:userDefs>
			<path d="M0 144.9 A1.41732 2.83465 0 1 1 2.83 144.9 A1.41732 2.83465 0 1 1 0 144.9 Z" class="st12"/>
		</g>
		<g id="shape21-68" v:mID="21" v:groupContext="shape" transform="translate(21.6042,-82.3701)">
			<title>Лист.21</title>
			<path d="M0.1 110.88 C4.92 126.19 10.1 141.5 32.21 147.73 C10.39 142.63 -1.24 125.62 0.1 110.88 Z" class="st13"/>
		</g>
		<g id="shape22-72" v:mID="22" v:groupContext="shape" transform="translate(99.378,227.551) rotate(180)">
			<title>Лист.22</title>
			<path d="M9.35 103.8 C3.23 122.95 1.42 131.31 0 147.73 C2.83 127.89 8.5 122.5 9.35 103.8 Z" class="st14"/>
		</g>
	</g>
</svg>
