<?xml version="1.0" encoding="UTF-8" standalone="no"?>
<!DOCTYPE svg PUBLIC "-//W3C//DTD SVG 1.0//EN" "http://www.w3.org/TR/2001/REC-SVG-20010904/DTD/svg10.dtd">
<!-- Создано Microsoft Visio 11.0, Экспорт SVG, версия 1.0 neverborn.svg Страница-1 -->
<svg xmlns="http://www.w3.org/2000/svg" xmlns:xlink="http://www.w3.org/1999/xlink" xmlns:ev="http://www.w3.org/2001/xml-events"
		xmlns:v="http://schemas.microsoft.com/visio/2003/SVGExtensions/" width="1.18815in" height="1.46871in"
		viewBox="0 0 85.5469 105.747" xml:space="preserve" color-interpolation-filters="sRGB" class="st8">
	<v:documentProperties v:langID="1049" v:metric="true" v:viewMarkup="false"/>

	<style type="text/css">
	<![CDATA[
		.st1 {fill:url(#grad28-4);stroke:none;stroke-linecap:round;stroke-linejoin:round;stroke-width:0.25}
		.st2 {fill:url(#grad40-8);stroke:none;stroke-linecap:round;stroke-linejoin:round;stroke-width:0.24}
		.st3 {fill:url(#grad40-12);stroke:none;stroke-linecap:round;stroke-linejoin:round;stroke-width:0.24}
		.st4 {fill:url(#grad28-16);stroke:#000000;stroke-linecap:round;stroke-linejoin:round;stroke-width:1.5}
		.st5 {fill:url(#grad40-20);stroke:none;stroke-linecap:round;stroke-linejoin:round;stroke-width:0.24}
		.st6 {fill:url(#grad28-33);stroke:none;stroke-linecap:round;stroke-linejoin:round;stroke-width:0.24}
		.st7 {fill:url(#grad28-37);stroke:none;stroke-linecap:round;stroke-linejoin:round;stroke-width:0.24}
		.st8 {fill:none;fill-rule:evenodd;font-size:12;overflow:visible;stroke-linecap:square;stroke-miterlimit:3}
	]]>
	</style>

	<defs id="Patterns_And_Gradients">
		<linearGradient id="grad28-4" v:fillPattern="28" v:foreground="#1e1e1e" v:background="#000000" x1="0" y1="0" x2="0" y2="1">
			<stop offset="0" style="stop-color:#1e1e1e;stop-opacity:1"/>
			<stop offset="1" style="stop-color:#000000;stop-opacity:1"/>
		</linearGradient>
		<radialGradient id="grad40-8" v:fillPattern="40" v:foreground="#db31df" v:background="#000000" cx="0.5" cy="0.5" r="0.5">
			<stop offset="0" style="stop-color:#db31df;stop-opacity:1"/>
			<stop offset="1" style="stop-color:#000000;stop-opacity:1"/>
		</radialGradient>
		<radialGradient id="grad40-12" v:fillPattern="40" v:foreground="#ffffff" v:foregroundOpacity="0.2" v:background="#db31df"
				v:backgroundOpacity="0.2" cx="0.5" cy="0.5" r="0.5">
			<stop offset="0" style="stop-color:#ffffff;stop-opacity:0.2"/>
			<stop offset="1" style="stop-color:#db31df;stop-opacity:0.2"/>
		</radialGradient>
		<linearGradient id="grad28-16" v:fillPattern="28" v:foreground="#f0f0f0" v:background="#7b408e" x1="0" y1="0" x2="0" y2="1">
			<stop offset="0" style="stop-color:#f0f0f0;stop-opacity:1"/>
			<stop offset="1" style="stop-color:#7b408e;stop-opacity:1"/>
		</linearGradient>
		<radialGradient id="grad40-20" v:fillPattern="40" v:foreground="#ffffff" v:foregroundOpacity="0.45" v:background="#db31df"
				v:backgroundOpacity="0.45" cx="0.5" cy="0.5" r="0.5">
			<stop offset="0" style="stop-color:#ffffff;stop-opacity:0.45"/>
			<stop offset="1" style="stop-color:#db31df;stop-opacity:0.45"/>
		</radialGradient>
		<linearGradient id="grad28-33" v:fillPattern="28" v:foreground="#745889" v:background="#f5e8f7" x1="0" y1="0" x2="0" y2="1">
			<stop offset="0" style="stop-color:#745889;stop-opacity:1"/>
			<stop offset="1" style="stop-color:#f5e8f7;stop-opacity:1"/>
		</linearGradient>
		<linearGradient id="grad28-37" v:fillPattern="28" v:foreground="#2f2437" v:background="#a26fae" x1="0" y1="0" x2="0" y2="1">
			<stop offset="0" style="stop-color:#2f2437;stop-opacity:1"/>
			<stop offset="1" style="stop-color:#a26fae;stop-opacity:1"/>
		</linearGradient>
	</defs>
	<g v:mID="0" v:index="1" v:groupContext="foregroundPage">
		<title>Страница-1</title>
		<v:pageProperties v:drawingScale="0.0393701" v:pageScale="0.0393701" v:drawingUnits="24" v:shadowOffsetX="8.50394"
				v:shadowOffsetY="-8.50394"/>
		<g id="shape10-1" v:mID="10" v:groupContext="shape" transform="translate(1.5,-1.5)">
			<title>Лист.10</title>
			<path d="M78.93 5.07 C68.39 65.02 8.79 49.21 3.39 3 C-4.52 31.13 2.29 68.97 14.77 95.47 C14.65 68.6 68.07 70.18 71.17
						 105.75 C84.64 65.02 84.64 41.31 78.93 5.07 Z" class="st1"/>
		</g>
		<g id="shape11-5" v:mID="11" v:groupContext="shape" transform="translate(19.0412,-42.9448)">
			<title>Эллипс.85</title>
			<v:userDefs>
				<v:ud v:nameU="visVersion" v:val="VT0(14):26"/>
			</v:userDefs>
			<path d="M0 96.55 A5.15918 9.20085 0 0 1 10.32 96.55 A5.15918 9.20085 0 0 1 -0 96.55 Z" class="st2"/>
		</g>
		<g id="shape12-9" v:mID="12" v:groupContext="shape" transform="translate(22.7263,-46.5594)">
			<title>Эллипс.25</title>
			<v:userDefs>
				<v:ud v:nameU="visVersion" v:val="VT0(14):26"/>
			</v:userDefs>
			<path d="M0 100.16 A1.10554 5.58623 0 0 1 2.21 100.16 A1.10554 5.58623 0 0 1 0 100.16 Z" class="st3"/>
		</g>
		<g id="shape16-13" v:mID="16" v:groupContext="shape" transform="translate(1.5,-1.5)">
			<title>Лист.16</title>
			<path d="M62.05 63.62 A10.1312 10.8766 0 0 1 60.09 64.23 A10.1312 10.8766 0 0 1 49.62 59.22 A8.78169 2.44394 -54.31 0
						 0 58.03 50.35 A8.78169 2.44394 -54.31 0 0 59.52 46.69 A3.62231 9.48432 0 0 1 60.26 45.97 A13.9187 5.27198
						 -176.38 0 0 62.9 46.87 A13.9187 5.27198 -176.38 0 0 65.41 47.44 C67.97 42.14 67.67 43.07 69.05 40.08 L64.23
						 35.83 C42.84 55.65 7.49 38.09 3.39 3 C-4.52 31.13 2.29 68.97 14.77 95.47 C14.65 68.6 68.07 70.18 71.17 105.75
						 C84.64 65.02 84.64 41.31 78.93 5.07 C76.85 16.9 72.86 25.77 67.76 32.05 C69.6 35.81 69.1 35.37 71.04 40.08
						 C67.83 45.26 67.7 45.46 66.26 47.58 A13.9187 5.27198 -176.38 0 0 79.25 47.09 A16.4234 4.46797 -45.67 0 0
						 64.81 60.24 C64.88 60.21 64.94 60.2 64.99 60.21 C64.99 64.09 65.35 62.72 65.96 64.35 L65.06 67.77 L65.06
						 67.77 C66.7 73.33 66.01 70.7 68.69 80.19 C66.34 74.69 65.9 75.07 62.06 68.69 C62.23 65.69 62.03 67.24 62.05
						 63.62 ZM26.67 51.24 A8.78169 2.44394 -125.69 0 0 34.56 59.22 A10.8766 10.1312 90 0 1 24.37 64.28 A10.8766
						 10.1312 90 0 1 21.54 63.34 L21.47 63.31 A16.4234 4.46797 -134.33 0 0 4.94 47.09 A13.9187 5.27198 -3.62 0
						 0 21.7 46.75 A13.9187 5.27198 -3.62 0 0 24.12 45.88 A3.62231 9.48432 0 0 1 24.59 46.23 A8.78169 2.44394
						 -125.69 0 0 26.67 51.24 Z" class="st4"/>
		</g>
		<g id="shape17-17" v:mID="17" v:groupContext="shape" transform="translate(21.0884,-45.9042)">
			<title>Эллипс.86</title>
			<v:userDefs>
				<v:ud v:nameU="visVersion" v:val="VT0(14):26"/>
			</v:userDefs>
			<path d="M0 99.79 A2.97638 5.95276 0 1 1 5.95 99.79 A2.97638 5.95276 0 1 1 0 99.79 Z" class="st5"/>
		</g>
		<g id="shape18-21" v:mID="18" v:groupContext="shape" transform="translate(21.7971,-47.3215)">
			<title>Эллипс.133</title>
			<v:userDefs>
				<v:ud v:nameU="visVersion" v:val="VT0(14):26"/>
			</v:userDefs>
			<path d="M0 101.21 A2.26772 4.53543 0 0 1 4.54 101.21 A2.26772 4.53543 0 1 1 0 101.21 Z" class="st5"/>
		</g>
		<g id="shape19-24" v:mID="19" v:groupContext="shape" transform="translate(22.2223,-48.1719)">
			<title>Эллипс.134</title>
			<v:userDefs>
				<v:ud v:nameU="visVersion" v:val="VT0(14):26"/>
			</v:userDefs>
			<path d="M0 102.06 A1.84252 3.68504 0 1 1 3.69 102.06 A1.84252 3.68504 0 0 1 0 102.06 Z" class="st5"/>
		</g>
		<g id="shape20-27" v:mID="20" v:groupContext="shape" transform="translate(22.6475,-48.7388)">
			<title>Эллипс.135</title>
			<v:userDefs>
				<v:ud v:nameU="visVersion" v:val="VT0(14):26"/>
			</v:userDefs>
			<path d="M0 102.91 A1.41732 2.83465 0 1 1 2.83 102.91 A1.41732 2.83465 0 1 1 0 102.91 Z" class="st5"/>
		</g>
		<g id="shape21-30" v:mID="21" v:groupContext="shape" transform="translate(4.68469,-63.479)">
			<title>Лист.21</title>
			<path d="M0.1 68.9 C4.92 84.2 10.1 99.51 32.21 105.75 C10.39 100.64 -1.24 83.64 0.1 68.9 Z" class="st6"/>
		</g>
		<g id="shape22-34" v:mID="22" v:groupContext="shape" transform="translate(82.4585,162.471) rotate(180)">
			<title>Лист.22</title>
			<path d="M9.35 61.81 C3.23 80.96 1.42 89.32 0 105.75 C2.83 85.9 8.5 80.52 9.35 61.81 Z" class="st7"/>
		</g>
	</g>
</svg>
