<?xml version="1.0" encoding="UTF-8" standalone="no"?>
<!DOCTYPE svg PUBLIC "-//W3C//DTD SVG 1.0//EN" "http://www.w3.org/TR/2001/REC-SVG-20010904/DTD/svg10.dtd">
<!-- Создано Microsoft Visio 11.0, Экспорт SVG, версия 1.0 paralyzed.svg Страница-1 -->
<svg xmlns="http://www.w3.org/2000/svg" xmlns:xlink="http://www.w3.org/1999/xlink" xmlns:ev="http://www.w3.org/2001/xml-events"
		xmlns:v="http://schemas.microsoft.com/visio/2003/SVGExtensions/" width="2.01017in" height="2.01017in"
		viewBox="0 0 144.732 144.732" xml:space="preserve" color-interpolation-filters="sRGB" class="st3">
	<v:documentProperties v:langID="1033" v:metric="true" v:viewMarkup="false"/>

	<style type="text/css">
	<![CDATA[
		.st1 {fill:url(#grad40-4);stroke:#510000;stroke-linecap:round;stroke-linejoin:round;stroke-width:1.5}
		.st2 {fill:none;stroke:#510000;stroke-linecap:round;stroke-linejoin:round;stroke-width:3}
		.st3 {fill:none;fill-rule:evenodd;font-size:12;overflow:visible;stroke-linecap:square;stroke-miterlimit:3}
	]]>
	</style>

	<defs id="Patterns_And_Gradients">
		<radialGradient id="grad40-4" v:fillPattern="40" v:foreground="#ffffcc" v:background="#dead78" cx="0.5" cy="0.5" r="0.5">
			<stop offset="0" style="stop-color:#ffffcc;stop-opacity:1"/>
			<stop offset="1" style="stop-color:#dead78;stop-opacity:1"/>
		</radialGradient>
	</defs>
	<g v:mID="0" v:index="1" v:groupContext="foregroundPage">
		<title>Страница-1</title>
		<v:pageProperties v:drawingScale="0.0393701" v:pageScale="0.0393701" v:drawingUnits="24" v:shadowOffsetX="8.50394"
				v:shadowOffsetY="-8.50394"/>
		<g id="shape1-1" v:mID="1" v:groupContext="shape" transform="translate(1.5,-1.5)">
			<title>Квадрат.118</title>
			<v:userDefs>
				<v:ud v:nameU="visVersion" v:val="VT0(14):26"/>
			</v:userDefs>
			<rect x="0" y="3" width="141.732" height="141.732" class="st1"/>
		</g>
		<g id="shape3-5" v:mID="3" v:groupContext="shape" transform="translate(56.0669,-93.626)">
			<title>Круг</title>
			<v:userDefs>
				<v:ud v:nameU="visVersion" v:val="VT0(14):26"/>
			</v:userDefs>
			<path d="M0 128.43 A16.2992 16.2992 0 0 1 32.6 128.43 A16.2992 16.2992 0 1 1 0 128.43 Z" class="st2"/>
		</g>
		<g id="shape4-7" v:mID="4" v:groupContext="shape" transform="translate(54.2953,-54.6496)">
			<title>Лист.4</title>
			<path d="M32.9 144.73 A165.872 36.123 -90 0 0 36.14 118.45 A18.0709 8.43852 -180 0 0 18.07 110.01 A18.0709 8.43852 -180
						 0 0 -0 118.45 A165.872 36.123 -90 0 0 3.24 144.73 L32.9 144.73 Z" class="st2"/>
		</g>
		<g id="shape6-9" v:mID="6" v:groupContext="shape" transform="translate(57.9726,-32.3268)">
			<title>Лист.6</title>
			<path d="M25.71 144.73 A165.872 36.123 -90 0 0 28.79 127.72 L0 127.72 A165.872 36.123 -90 0 0 3.08 144.73 L25.71 144.73
						 Z" class="st2"/>
		</g>
		<g id="shape7-11" v:mID="7" v:groupContext="shape" transform="translate(61.6554,-14.6102)">
			<title>Лист.7</title>
			<path d="M18.31 144.73 A165.872 36.123 -90 0 0 21.42 131.98 L0 131.98 A165.872 36.123 -90 0 0 3.11 144.73 L18.31 144.73
						 Z" class="st2"/>
		</g>
	</g>
</svg>
