<?xml version="1.0" encoding="UTF-8" standalone="no"?>
<!DOCTYPE svg PUBLIC "-//W3C//DTD SVG 1.0//EN" "http://www.w3.org/TR/2001/REC-SVG-20010904/DTD/svg10.dtd">
<!-- Создано Microsoft Visio 11.0, Экспорт SVG, версия 1.0 poison-color.svg Страница-1 -->
<svg xmlns="http://www.w3.org/2000/svg" xmlns:xlink="http://www.w3.org/1999/xlink" xmlns:ev="http://www.w3.org/2001/xml-events"
		xmlns:v="http://schemas.microsoft.com/visio/2003/SVGExtensions/" width="2.01017in" height="2.01017in"
		viewBox="0 0 144.732 144.732" xml:space="preserve" color-interpolation-filters="sRGB" class="st5">
	<v:documentProperties v:langID="1033" v:metric="true" v:viewMarkup="false"/>

	<style type="text/css">
	<![CDATA[
		.st1 {fill:#ffffff;stroke:#000000;stroke-linecap:round;stroke-linejoin:round;stroke-width:1.5}
		.st2 {fill:none;stroke:#000000;stroke-linecap:round;stroke-linejoin:round;stroke-width:3}
		.st3 {fill:#c4d6a0;stroke:#50632a;stroke-linecap:round;stroke-linejoin:round;stroke-width:0.24}
		.st4 {fill:#c4d6a0;stroke:#50632a;stroke-linecap:round;stroke-linejoin:round;stroke-width:0.25}
		.st5 {fill:none;fill-rule:evenodd;font-size:12;overflow:visible;stroke-linecap:square;stroke-miterlimit:3}
	]]>
	</style>

	<g v:mID="0" v:index="1" v:groupContext="foregroundPage">
		<title>Страница-1</title>
		<v:pageProperties v:drawingScale="0.0393701" v:pageScale="0.0393701" v:drawingUnits="24" v:shadowOffsetX="8.50394"
				v:shadowOffsetY="-8.50394"/>
		<v:layer v:name="Соединительная линия" v:index="0"/>
		<v:layer v:name="Блок-схема" v:index="1"/>
		<g id="shape2-1" v:mID="2" v:groupContext="shape" transform="translate(1.5,-1.5)">
			<title>Квадрат</title>
			<v:userDefs>
				<v:ud v:nameU="visVersion" v:val="VT0(14):26"/>
			</v:userDefs>
			<rect x="0" y="3" width="141.732" height="141.732" class="st1"/>
		</g>
		<g id="shape3-3" v:mID="3" v:groupContext="shape" transform="translate(52.5236,-117.72)">
			<title>Лист.3</title>
			<path d="M34.02 144.73 L41.1 144.73 L41.1 130.56 L0 130.56 L0 144.73 L7.09 144.73 L34.02 144.73 Z" class="st2"/>
		</g>
		<g id="shape4-5" v:mID="4" v:groupContext="shape" transform="translate(29.8465,-11.4213)">
			<title>Лист.4</title>
			<path d="M56.69 62.12 L56.69 38.43 L29.76 38.43 L29.76 61.65 A42.5197 42.5197 -180 0 0 0 102.21 A42.5197 42.5197 -180
						 0 0 85.04 102.21 A42.5197 42.5197 -180 0 0 56.69 62.12 Z" class="st2"/>
		</g>
		<g id="shape5-7" v:mID="5" v:groupContext="shape" transform="translate(35.5157,-16.6094)">
			<title>Лист.5</title>
			<path d="M72.78 99.71 C42.78 110.91 44.41 73.55 1.18 98.61 A36.8504 36.8504 -180 0 0 0 107.88 A36.8504 36.8504 -180 0
						 0 73.7 107.88 A36.8504 36.8504 -180 0 0 72.78 99.71 Z" class="st3"/>
		</g>
		<g id="shape6-9" v:mID="6" v:groupContext="shape" v:layerMember="0;1" transform="translate(63.7205,-102.272)">
			<title>Ссылка на текущую страницу.6</title>
			<v:userDefs>
				<v:ud v:nameU="visVersion" v:prompt="" v:val="VT0(14):26"/>
			</v:userDefs>
			<path d="M0 138.92 A5.81102 5.81102 0 1 1 11.62 138.92 A5.81102 5.81102 0 1 1 -0 138.92 Z" class="st4"/>
		</g>
		<g id="shape7-11" v:mID="7" v:groupContext="shape" v:layerMember="0;1" transform="translate(72.3661,-86.5394)">
			<title>Ссылка на текущую страницу.7</title>
			<v:userDefs>
				<v:ud v:nameU="visVersion" v:prompt="" v:val="VT0(14):26"/>
			</v:userDefs>
			<path d="M0 139.63 A5.10236 5.10236 0 0 1 10.2 139.63 A5.10236 5.10236 0 1 1 0 139.63 Z" class="st4"/>
		</g>
		<g id="shape8-13" v:mID="8" v:groupContext="shape" v:layerMember="0;1" transform="translate(57.3425,-78.8858)">
			<title>Ссылка на текущую страницу.116</title>
			<v:userDefs>
				<v:ud v:nameU="visVersion" v:prompt="" v:val="VT0(14):26"/>
			</v:userDefs>
			<path d="M0 141.05 A3.68504 3.68504 0 1 1 7.37 141.05 A3.68504 3.68504 0 0 1 -0 141.05 Z" class="st4"/>
		</g>
		<g id="shape9-15" v:mID="9" v:groupContext="shape" v:layerMember="0;1" transform="translate(97.878,-63.8622)">
			<title>Ссылка на текущую страницу.141</title>
			<v:userDefs>
				<v:ud v:nameU="visVersion" v:prompt="" v:val="VT0(14):26"/>
			</v:userDefs>
			<path d="M0 143.31 A1.41732 1.41732 0 0 1 2.83 143.31 A1.41732 1.41732 0 1 1 -0 143.31 Z" class="st4"/>
		</g>
		<g id="shape10-17" v:mID="10" v:groupContext="shape" v:layerMember="0;1" transform="translate(86.5394,-71.2323)">
			<title>Ссылка на текущую страницу.142</title>
			<v:userDefs>
				<v:ud v:nameU="visVersion" v:prompt="" v:val="VT0(14):26"/>
			</v:userDefs>
			<path d="M0 142.18 A2.55118 2.55118 0 0 1 5.1 142.18 A2.55118 2.55118 0 1 1 0 142.18 Z" class="st4"/>
		</g>
		<g id="shape11-19" v:mID="11" v:groupContext="shape" v:layerMember="0;1" transform="translate(44.0197,-70.3819)">
			<title>Ссылка на текущую страницу.143</title>
			<v:userDefs>
				<v:ud v:nameU="visVersion" v:prompt="" v:val="VT0(14):26"/>
			</v:userDefs>
			<path d="M0 143.17 A1.55906 1.55906 0 0 1 3.12 143.17 A1.55906 1.55906 0 1 1 0 143.17 Z" class="st4"/>
		</g>
		<g id="shape12-21" v:mID="12" v:groupContext="shape" v:layerMember="0;1" transform="translate(72.3661,-73.089)">
			<title>Ссылка на текущую страницу.144</title>
			<v:userDefs>
				<v:ud v:nameU="visVersion" v:prompt="" v:val="VT0(14):26"/>
			</v:userDefs>
			<path d="M0 142.62 A2.11181 2.11181 0 0 1 4.22 142.62 A2.11181 2.11181 0 1 1 0 142.62 Z" class="st4"/>
		</g>
	</g>
</svg>
