<?xml version="1.0" encoding="UTF-8" standalone="no"?>
<!DOCTYPE svg PUBLIC "-//W3C//DTD SVG 1.0//EN" "http://www.w3.org/TR/2001/REC-SVG-20010904/DTD/svg10.dtd">
<!-- Создано Microsoft Visio 11.0, Экспорт SVG, версия 1.0 reactivate-color.svg Страница-1 -->
<svg xmlns="http://www.w3.org/2000/svg" xmlns:xlink="http://www.w3.org/1999/xlink" xmlns:ev="http://www.w3.org/2001/xml-events"
		xmlns:v="http://schemas.microsoft.com/visio/2003/SVGExtensions/" width="1.42401in" height="1.42388in"
		viewBox="0 0 102.529 102.519" xml:space="preserve" color-interpolation-filters="sRGB" class="st6">
	<v:documentProperties v:langID="1033" v:metric="true" v:viewMarkup="false"/>

	<style type="text/css">
	<![CDATA[
		.st1 {fill:#50632a;stroke:none;stroke-linecap:round;stroke-linejoin:round;stroke-width:0.24}
		.st2 {fill:#50632a;fill-opacity:0.8;stroke:none;stroke-linecap:round;stroke-linejoin:round;stroke-width:0.24}
		.st3 {fill:#50632a;fill-opacity:0.7;stroke:none;stroke-linecap:round;stroke-linejoin:round;stroke-width:0.24}
		.st4 {fill:#50632a;fill-opacity:0.6;stroke:none;stroke-linecap:round;stroke-linejoin:round;stroke-width:0.24}
		.st5 {fill:#50632a;fill-opacity:0.5;stroke:none;stroke-linecap:round;stroke-linejoin:round;stroke-width:0.24}
		.st6 {fill:none;fill-rule:evenodd;font-size:12;overflow:visible;stroke-linecap:square;stroke-miterlimit:3}
	]]>
	</style>

	<g v:mID="0" v:index="1" v:groupContext="foregroundPage">
		<title>Страница-1</title>
		<v:pageProperties v:drawingScale="0.0393701" v:pageScale="0.0393701" v:drawingUnits="24" v:shadowOffsetX="8.50394"
				v:shadowOffsetY="-8.50394"/>
		<g id="shape4-1" v:mID="4" v:groupContext="shape" transform="translate(0.24,-0.24)">
			<title>Лист.4</title>
			<path d="M99.96 37.06 L83.5 41.38 A34.0163 34.0163 0 0 1 85.04 51.5 A34.0163 34.0163 0 0 1 17.01 51.5 A34.0163 34.0163
						 0 0 1 23.31 31.78 L31.92 40.39 L35.33 8.59 L3.53 12 L11.17 19.64 A51.0244 51.0244 -180 0 0 -0 51.5 A51.0244
						 51.0244 -180 0 0 102.05 51.5 A51.0244 51.0244 -180 0 0 99.96 37.06 Z" class="st1"/>
		</g>
		<g id="shape5-3" v:mID="5" v:groupContext="shape" transform="translate(77.3127,-63.4645)">
			<title>Лист.5</title>
			<path d="M21.11 95.24 A51.0244 51.0244 -180 0 0 14.02 83.13 L0 92.84 A34.0163 34.0163 0 0 1 5.7 102.52 L21.11 95.24 Z"
					class="st2"/>
		</g>
		<g id="shape6-5" v:mID="6" v:groupContext="shape" transform="translate(69.3494,-74.7435)">
			<title>Лист.6</title>
			<path d="M18.5 90.43 A51.0244 51.0244 -180 0 0 8.58 82.5 L0 97.19 A34.0163 34.0163 0 0 1 6.53 102.52 L18.5 90.43 Z"
					class="st3"/>
		</g>
		<g id="shape7-7" v:mID="7" v:groupContext="shape" transform="translate(60.0213,-81.0201)">
			<title>Лист.7</title>
			<path d="M13.51 86.37 A51.0244 51.0244 -180 0 0 4.49 83 L0 99.41 A34.0163 34.0163 0 0 1 7.73 102.52 L13.51 86.37 Z"
					class="st4"/>
		</g>
		<g id="shape8-9" v:mID="8" v:groupContext="shape" transform="translate(52.2435,-84.584)">
			<title>Лист.8</title>
			<path d="M7.27 85.49 A51.0244 51.0244 -180 0 0 -0 84.82 L0.23 101.84 A34.0163 34.0163 0 0 1 5.87 102.52 L7.27 85.49 Z"
					class="st5"/>
		</g>
	</g>
</svg>
