<?xml version="1.0" encoding="UTF-8" standalone="no"?>
<!DOCTYPE svg PUBLIC "-//W3C//DTD SVG 1.0//EN" "http://www.w3.org/TR/2001/REC-SVG-20010904/DTD/svg10.dtd">
<!-- Создано Microsoft Visio 11.0, Экспорт SVG, версия 1.0 ressurect.svg Страница-1 -->
<svg xmlns="http://www.w3.org/2000/svg" xmlns:xlink="http://www.w3.org/1999/xlink" xmlns:ev="http://www.w3.org/2001/xml-events"
		xmlns:v="http://schemas.microsoft.com/visio/2003/SVGExtensions/" width="1.58869in" height="1.91767in"
		viewBox="0 0 114.386 138.072" xml:space="preserve" color-interpolation-filters="sRGB" class="st3">
	<v:documentProperties v:langID="1049" v:metric="true" v:viewMarkup="false"/>

	<style type="text/css">
	<![CDATA[
		.st1 {fill:url(#grad28-4);stroke:#000000;stroke-linecap:round;stroke-linejoin:round;stroke-width:0.5}
		.st2 {fill:url(#grad40-8);stroke:none;stroke-linecap:round;stroke-linejoin:round;stroke-width:0.25}
		.st3 {fill:none;fill-rule:evenodd;font-size:12;overflow:visible;stroke-linecap:square;stroke-miterlimit:3}
	]]>
	</style>

	<defs id="Patterns_And_Gradients">
		<linearGradient id="grad28-4" v:fillPattern="28" v:foreground="#92d050" v:background="#009648" x1="0" y1="0" x2="0" y2="1">
			<stop offset="0" style="stop-color:#92d050;stop-opacity:1"/>
			<stop offset="1" style="stop-color:#009648;stop-opacity:1"/>
		</linearGradient>
		<radialGradient id="grad40-8" v:fillPattern="40" v:foreground="#b3d54d" v:foregroundOpacity="0.6" v:background="#00b536"
				v:backgroundOpacity="0.6" cx="0.5" cy="0.5" r="0.5">
			<stop offset="0" style="stop-color:#b3d54d;stop-opacity:0.6"/>
			<stop offset="1" style="stop-color:#00b536;stop-opacity:0.6"/>
		</radialGradient>
	</defs>
	<g v:mID="0" v:index="1" v:groupContext="foregroundPage">
		<title>Страница-1</title>
		<v:pageProperties v:drawingScale="0.0393701" v:pageScale="0.0393701" v:drawingUnits="24" v:shadowOffsetX="8.50394"
				v:shadowOffsetY="-8.50394"/>
		<g id="shape7-1" v:mID="7" v:groupContext="shape" transform="translate(0.5,-0.968984)">
			<title>Лист.7</title>
			<path d="M54.52 58.45 C53.67 58.73 54.25 59.69 53.95 59.58 C52.02 58.5 47.16 56.72 47.43 61 C45.44 62.13 42.61 59.3 41.76
						 63.83 C44.03 61.28 46.81 63.15 46.86 63.26 C46.71 63.64 46.42 63.6 46.15 63.6 C45.1 63.61 44.58 64.18 43.18
						 63.83 C43.91 65.78 46.86 66.5 48.85 65.25 C49.03 66.9 48.77 68.24 47.71 69.5 C48.56 70.07 49.41 69.78 49.7
						 69.22 C50.03 70.57 48.32 71.64 47.43 71.77 C48.01 72.47 48.57 72.54 49.7 72.34 C49.81 72.93 49.53 72.9 49.27
						 72.9 C47.13 72.88 46.64 74.7 44.17 74.45 C11.95 64.5 58.74 14.97 52.53 1.47 C52.89 9.06 46.17 17.58 38.65
						 26.62 C39.51 22.99 39.59 19.72 38.36 17.06 C38.6 23.38 32.02 31.61 24.97 40.34 C25.34 37.48 25.18 34.86
						 24.19 32.65 C22.47 41.48 17.9 48.77 13.9 55.1 C13.51 55.72 13.12 56.33 12.74 56.94 C12.36 54.63 11.59 52.63
						 10.29 51.08 C11.33 54.42 10.5 58.87 8.78 63.91 C8.27 65.01 7.84 66.08 7.54 67.13 C7.03 66.85 6.44 66.72
						 5.76 66.77 C7.17 67.77 6.33 71.48 7.79 74.48 C8.96 77.11 11.47 79.66 15.88 82.22 C14.71 82.59 13.68 83.16
						 12.85 83.99 C15.64 83.1 19.51 84.23 23.93 86.3 L23.85 86.04 A22.337 22.337 -135 0 0 28.49 86.88 C26.93 88.46
						 25.82 90.17 25.31 92.03 C27.25 89.53 30.82 87.75 35.29 86.34 A22.337 22.337 -135 0 0 39.99 84.65 A22.2836
						 22.2836 -144.74 0 0 41.7 83.73 A22.2836 22.2836 -144.72 0 0 42.41 83.3 C46.88 84.5 49.81 87.74 50.87 92
						 C50.86 92.13 50.85 92.26 50.83 92.39 C49.92 99.11 39.35 106.87 21.35 107.77 C31.26 108.15 38.4 107.92 43.54
						 106.76 C37.71 112.14 28.44 117.1 15.68 119.96 C25.08 120.08 32.34 119.28 37.94 117.61 C37.05 118.35 36.14
						 119.06 35.2 119.74 C36.38 118.99 37.48 118.22 38.52 117.43 C38.57 117.41 38.63 117.4 38.68 117.38 C37.62
						 118.19 36.49 118.98 35.29 119.74 C27.63 125.31 18.22 129.03 7.46 129.14 C48.79 129.05 55.63 112.48 56.74
						 90.1 C57.84 112.48 64.68 129.05 106.01 129.14 C94.2 127.53 85.02 124.07 78.18 119.74 C77.23 119.04 76.3
						 118.32 75.4 117.57 C81.02 119.27 88.31 120.08 97.8 119.96 C85.03 117.1 75.76 112.14 69.93 106.76 C75.08
						 107.92 82.22 108.15 92.13 107.77 C74.13 106.87 63.56 99.11 62.64 92.39 C62.63 92.26 62.61 92.13 62.6 92
						 C63.67 87.74 66.6 84.5 71.07 83.3 A22.2836 22.2836 -35.28 0 0 71.77 83.73 A22.2836 22.2836 -35.26 0 0 73.49
						 84.65 A22.337 22.337 -45 0 0 78.19 86.34 C82.65 87.75 86.22 89.53 88.17 92.03 C87.66 90.17 86.54 88.46 84.98
						 86.88 A22.337 22.337 -45 0 0 89.62 86.04 L89.55 86.3 C93.97 84.23 97.83 83.1 100.63 83.99 C99.79 83.16 98.77
						 82.59 97.6 82.22 C102 79.66 104.52 77.11 105.68 74.48 C107.15 71.48 106.3 67.77 107.72 66.77 C107.04 66.72
						 106.45 66.85 105.94 67.13 C105.63 66.08 105.21 65.01 104.7 63.91 C102.98 58.87 102.15 54.42 103.18 51.08
						 C101.89 52.63 101.12 54.63 100.73 56.94 C100.35 56.33 99.97 55.72 99.57 55.1 C95.58 48.77 91.01 41.48 89.29
						 32.65 C88.3 34.86 88.13 37.48 88.5 40.34 C81.46 31.61 74.87 23.38 75.12 17.06 C73.89 19.72 73.97 22.99 74.83
						 26.62 C67.31 17.58 60.59 9.06 60.94 1.47 C54.73 14.97 101.52 64.5 69.3 74.45 C66.84 74.7 66.34 72.88 64.2
						 72.9 C63.95 72.9 63.66 72.93 63.78 72.34 C64.91 72.54 65.47 72.47 66.05 71.77 C65.16 71.64 63.45 70.57 63.78
						 69.22 C64.06 69.78 64.91 70.07 65.76 69.5 C64.7 68.24 64.45 66.9 64.63 65.25 C66.62 66.5 69.57 65.78 70.3
						 63.83 C68.9 64.18 68.37 63.61 67.32 63.6 C67.06 63.6 66.76 63.64 66.61 63.26 C66.66 63.15 69.45 61.28 71.72
						 63.83 C70.87 59.3 68.03 62.13 66.05 61 C66.32 56.72 61.45 58.5 59.53 59.58 C59.23 59.69 59.81 58.73 58.96
						 58.45 C58.14 60.35 57.14 61.11 56.74 63.03 C56.33 61.11 55.33 60.35 54.52 58.45 ZM35.2 119.74 C28.37 124.07
						 19.19 127.53 7.37 129.14 C18.13 129.03 27.54 125.31 35.2 119.74 ZM0 134.5 C17.01 140.17 42.52 140.17 56.69
						 128.83 C70.87 140.17 96.38 140.17 113.39 134.5 C110.87 134.85 108.41 135.01 106.01 134.98 C64.07 134.89
						 57.65 117.83 56.69 94.94 C55.74 117.83 49.31 134.89 7.37 134.98 C4.98 135.01 2.52 134.85 0 134.5 Z"
					class="st1"/>
		</g>
		<g id="shape8-5" v:mID="8" v:groupContext="shape" transform="translate(0.5,-0.25)">
			<title>Лист.8</title>
			<path d="M54.52 58.45 C53.67 58.73 54.25 59.69 53.95 59.58 C52.02 58.5 47.16 56.72 47.43 61 C45.44 62.13 42.61 59.3 41.76
						 63.83 C44.03 61.28 46.81 63.15 46.86 63.26 C46.71 63.64 46.42 63.6 46.15 63.6 C45.1 63.61 44.58 64.18 43.18
						 63.83 C43.91 65.78 46.86 66.5 48.85 65.25 C49.03 66.9 48.77 68.24 47.71 69.5 C48.56 70.07 49.41 69.78 49.7
						 69.22 C50.03 70.57 48.32 71.64 47.43 71.77 C48.01 72.47 48.57 72.54 49.7 72.34 C49.81 72.93 49.53 72.9 49.27
						 72.9 C47.13 72.88 46.64 74.7 44.17 74.45 C11.95 64.5 58.74 14.97 52.53 1.47 C52.89 9.06 46.17 17.58 38.65
						 26.62 C39.51 22.99 39.59 19.72 38.36 17.06 C38.6 23.38 32.02 31.61 24.97 40.34 C25.34 37.48 25.18 34.86
						 24.19 32.65 C22.47 41.48 17.9 48.77 13.9 55.1 C13.51 55.72 13.12 56.33 12.74 56.94 C12.36 54.63 11.59 52.63
						 10.29 51.08 C11.33 54.42 10.5 58.87 8.78 63.91 C8.27 65.01 7.84 66.08 7.54 67.13 C7.03 66.85 6.44 66.72
						 5.76 66.77 C7.17 67.77 6.33 71.48 7.79 74.48 C8.96 77.11 11.47 79.66 15.88 82.22 C14.71 82.59 13.68 83.16
						 12.85 83.99 C15.64 83.1 19.51 84.23 23.93 86.3 L23.85 86.04 A22.337 22.337 -135 0 0 28.49 86.88 C26.93 88.46
						 25.82 90.17 25.31 92.03 C27.25 89.53 30.82 87.75 35.29 86.34 A22.337 22.337 -135 0 0 39.99 84.65 A22.2836
						 22.2836 -144.74 0 0 41.7 83.73 A22.2836 22.2836 -144.72 0 0 42.41 83.3 C46.88 84.5 49.81 87.74 50.87 92
						 C50.86 92.13 50.85 92.26 50.83 92.39 C49.92 99.11 39.35 106.87 21.35 107.77 C31.26 108.15 38.4 107.92 43.54
						 106.76 C37.71 112.14 28.44 117.1 15.68 119.96 C25.08 120.08 32.34 119.28 37.94 117.61 C37.05 118.35 36.14
						 119.06 35.2 119.74 C36.38 118.99 37.48 118.22 38.52 117.43 C38.57 117.41 38.63 117.4 38.68 117.38 C37.62
						 118.19 36.49 118.98 35.29 119.74 C27.63 125.31 18.22 129.03 7.46 129.14 C48.79 129.05 55.63 112.48 56.74
						 90.1 C57.84 112.48 64.68 129.05 106.01 129.14 C94.2 127.53 85.02 124.07 78.18 119.74 C77.23 119.04 76.3
						 118.32 75.4 117.57 C81.02 119.27 88.31 120.08 97.8 119.96 C85.03 117.1 75.76 112.14 69.93 106.76 C75.08
						 107.92 82.22 108.15 92.13 107.77 C74.13 106.87 63.56 99.11 62.64 92.39 C62.63 92.26 62.61 92.13 62.6 92
						 C63.67 87.74 66.6 84.5 71.07 83.3 A22.2836 22.2836 -35.28 0 0 71.77 83.73 A22.2836 22.2836 -35.26 0 0 73.49
						 84.65 A22.337 22.337 -45 0 0 78.19 86.34 C82.65 87.75 86.22 89.53 88.17 92.03 C87.66 90.17 86.54 88.46 84.98
						 86.88 A22.337 22.337 -45 0 0 89.62 86.04 L89.55 86.3 C93.97 84.23 97.83 83.1 100.63 83.99 C99.79 83.16 98.77
						 82.59 97.6 82.22 C102 79.66 104.52 77.11 105.68 74.48 C107.15 71.48 106.3 67.77 107.72 66.77 C107.04 66.72
						 106.45 66.85 105.94 67.13 C105.63 66.08 105.21 65.01 104.7 63.91 C102.98 58.87 102.15 54.42 103.18 51.08
						 C101.89 52.63 101.12 54.63 100.73 56.94 C100.35 56.33 99.97 55.72 99.57 55.1 C95.58 48.77 91.01 41.48 89.29
						 32.65 C88.3 34.86 88.13 37.48 88.5 40.34 C81.46 31.61 74.87 23.38 75.12 17.06 C73.89 19.72 73.97 22.99 74.83
						 26.62 C67.31 17.58 60.59 9.06 60.94 1.47 C54.73 14.97 101.52 64.5 69.3 74.45 C66.84 74.7 66.34 72.88 64.2
						 72.9 C63.95 72.9 63.66 72.93 63.78 72.34 C64.91 72.54 65.47 72.47 66.05 71.77 C65.16 71.64 63.45 70.57 63.78
						 69.22 C64.06 69.78 64.91 70.07 65.76 69.5 C64.7 68.24 64.45 66.9 64.63 65.25 C66.62 66.5 69.57 65.78 70.3
						 63.83 C68.9 64.18 68.37 63.61 67.32 63.6 C67.06 63.6 66.76 63.64 66.61 63.26 C66.66 63.15 69.45 61.28 71.72
						 63.83 C70.87 59.3 68.03 62.13 66.05 61 C66.32 56.72 61.45 58.5 59.53 59.58 C59.23 59.69 59.81 58.73 58.96
						 58.45 C58.14 60.35 57.14 61.11 56.74 63.03 C56.33 61.11 55.33 60.35 54.52 58.45 ZM35.2 119.74 C28.37 124.07
						 19.19 127.53 7.37 129.14 C18.13 129.03 27.54 125.31 35.2 119.74 ZM0 134.5 C17.01 140.17 42.52 140.17 56.69
						 128.83 C70.87 140.17 96.38 140.17 113.39 134.5 C110.87 134.85 108.41 135.01 106.01 134.98 C64.07 134.89
						 57.65 117.83 56.69 94.94 C55.74 117.83 49.31 134.89 7.37 134.98 C4.98 135.01 2.52 134.85 0 134.5 Z"
					class="st2"/>
		</g>
	</g>
</svg>
