<?xml version="1.0" encoding="UTF-8" standalone="no"?>
<!DOCTYPE svg PUBLIC "-//W3C//DTD SVG 1.0//EN" "http://www.w3.org/TR/2001/REC-SVG-20010904/DTD/svg10.dtd">
<!-- Создано Microsoft Visio 11.0, Экспорт SVG, версия 1.0 suffocating.svg Страница-1 -->
<svg xmlns="http://www.w3.org/2000/svg" xmlns:xlink="http://www.w3.org/1999/xlink" xmlns:ev="http://www.w3.org/2001/xml-events"
		xmlns:v="http://schemas.microsoft.com/visio/2003/SVGExtensions/" width="0.859744in" height="0.987697in"
		viewBox="0 0 61.9016 71.1142" xml:space="preserve" color-interpolation-filters="sRGB" class="st3">
	<v:documentProperties v:langID="1033" v:metric="true" v:viewMarkup="false"/>

	<style type="text/css">
	<![CDATA[
		.st1 {fill:none;stroke:#500000;stroke-linecap:round;stroke-linejoin:round;stroke-width:2.25}
		.st2 {stroke:#500000;stroke-linecap:round;stroke-linejoin:round;stroke-width:2.25}
		.st3 {fill:none;fill-rule:evenodd;font-size:12;overflow:visible;stroke-linecap:square;stroke-miterlimit:3}
	]]>
	</style>

	<g v:mID="0" v:index="1" v:groupContext="foregroundPage">
		<title>Страница-1</title>
		<v:pageProperties v:drawingScale="0.0393701" v:pageScale="0.0393701" v:drawingUnits="24" v:shadowOffsetX="8.50394"
				v:shadowOffsetY="-8.50394"/>
		<g id="shape2-1" v:mID="2" v:groupContext="shape" transform="translate(2.25,-33.4311)">
			<title>Эллипс</title>
			<v:userDefs>
				<v:ud v:nameU="visVersion" v:val="VT0(14):26"/>
			</v:userDefs>
			<path d="M0 53.96 A11.6929 17.1496 0 1 1 23.39 53.96 A11.6929 17.1496 0 1 1 0 53.96 Z" class="st1"/>
		</g>
		<g id="shape3-3" v:mID="3" v:groupContext="shape" transform="translate(36.4075,-43.0878)">
			<title>Эллипс.3</title>
			<v:userDefs>
				<v:ud v:nameU="visVersion" v:val="VT0(14):26"/>
			</v:userDefs>
			<path d="M0 58.23 A8.7874 12.8882 0 0 1 17.57 58.23 A8.7874 12.8882 0 0 1 0 58.23 Z" class="st1"/>
		</g>
		<g id="shape5-5" v:mID="5" v:groupContext="shape" transform="translate(41.806,-1.47347) rotate(33.1113)">
			<title>Лист.5</title>
			<path d="M0 71.11 L15.57 71.11" class="st2"/>
		</g>
		<g id="shape6-8" v:mID="6" v:groupContext="shape" transform="translate(-57.4909,39.982) rotate(-66.0375)">
			<title>Лист.6</title>
			<path d="M0 71.11 L16.75 71.11" class="st2"/>
		</g>
		<g id="shape7-11" v:mID="7" v:groupContext="shape" transform="translate(43.543,-11.3369) rotate(21.8014)">
			<title>Лист.7</title>
			<path d="M0 71.11 L15.27 71.11" class="st2"/>
		</g>
		<g id="shape8-14" v:mID="8" v:groupContext="shape" transform="translate(-44.3205,38.5684) rotate(-70.71)">
			<title>Лист.8</title>
			<path d="M0 71.11 L12.01 71.11" class="st2"/>
		</g>
		<g id="shape9-17" v:mID="9" v:groupContext="shape" transform="translate(-31.926,37.6643) rotate(-72.3499)">
			<title>Лист.9</title>
			<path d="M0 71.11 L13.09 71.11" class="st2"/>
		</g>
		<g id="shape10-20" v:mID="10" v:groupContext="shape" transform="translate(55.2234,-16.2488) rotate(19.6538)">
			<title>Лист.10</title>
			<path d="M0 71.11 L16.86 71.11" class="st2"/>
		</g>
		<g id="shape11-23" v:mID="11" v:groupContext="shape" transform="translate(-11.9461,23.583) rotate(-62.5256)">
			<title>Лист.11</title>
			<path d="M0 71.11 L15.97 71.11" class="st2"/>
		</g>
		<g id="shape12-26" v:mID="12" v:groupContext="shape" transform="translate(90.9815,-11.8382) rotate(36.8699)">
			<title>Лист.12</title>
			<path d="M0 71.11 L14.17 71.11" class="st2"/>
		</g>
	</g>
</svg>
