<?xml version="1.0" encoding="UTF-8" standalone="no"?>
<!DOCTYPE svg PUBLIC "-//W3C//DTD SVG 1.0//EN" "http://www.w3.org/TR/2001/REC-SVG-20010904/DTD/svg10.dtd">
<!-- Создано Microsoft Visio 11.0, Экспорт SVG, версия 1.0 tomes.svg Страница-1 -->
<svg xmlns="http://www.w3.org/2000/svg" xmlns:xlink="http://www.w3.org/1999/xlink" xmlns:ev="http://www.w3.org/2001/xml-events"
		xmlns:v="http://schemas.microsoft.com/visio/2003/SVGExtensions/" width="1.52986in" height="1.93816in"
		viewBox="0 0 110.15 139.547" xml:space="preserve" color-interpolation-filters="sRGB" class="st21">
	<v:documentProperties v:langID="1049" v:metric="true" v:viewMarkup="false"/>

	<style type="text/css">
	<![CDATA[
		.st1 {fill:#795c42;stroke:none;stroke-linecap:round;stroke-linejoin:round;stroke-width:3}
		.st2 {fill:#000000;stroke:none;stroke-linecap:round;stroke-linejoin:round;stroke-width:0.25}
		.st3 {fill:url(#grad40-8);stroke:none;stroke-linecap:round;stroke-linejoin:round;stroke-width:0.25}
		.st4 {fill:url(#grad29-12);stroke:none;stroke-linecap:round;stroke-linejoin:round;stroke-width:0.24}
		.st5 {fill:url(#grad28-16);stroke:#000000;stroke-linecap:round;stroke-linejoin:round;stroke-width:0.5}
		.st6 {fill:url(#grad28-16);stroke:#000000;stroke-linecap:round;stroke-linejoin:round;stroke-width:0.25}
		.st7 {fill:#fbf7f0;stroke:#000000;stroke-linecap:round;stroke-linejoin:round;stroke-width:0.5}
		.st8 {fill:url(#grad26-28);stroke:none;stroke-linecap:round;stroke-linejoin:round;stroke-width:0.75}
		.st9 {fill:url(#grad25-37);stroke:#000000;stroke-linecap:round;stroke-linejoin:round;stroke-width:0.25}
		.st10 {fill:#fbf7f0;stroke:#000000;stroke-linecap:round;stroke-linejoin:round;stroke-width:0.75}
		.st11 {fill:#000000;stroke:none;stroke-linecap:round;stroke-linejoin:round;stroke-width:0.5}
		.st12 {fill:#000000;stroke:#000000;stroke-linecap:round;stroke-linejoin:round;stroke-width:0.5}
		.st13 {fill:#000000;stroke:#000000;stroke-linecap:round;stroke-linejoin:round;stroke-width:0.24}
		.st14 {fill:url(#grad28-61);stroke:#000000;stroke-linecap:round;stroke-linejoin:round;stroke-width:0.24}
		.st15 {stroke:#000000;stroke-linecap:round;stroke-linejoin:round;stroke-width:1.5}
		.st16 {fill:url(#grad28-92);stroke:#000000;stroke-linecap:round;stroke-linejoin:round;stroke-width:0.24}
		.st17 {fill:#3064af;stroke:#000000;stroke-linecap:round;stroke-linejoin:round;stroke-width:0.24}
		.st18 {stroke:none;stroke-linecap:round;stroke-linejoin:round;stroke-width:0.25}
		.st19 {fill:url(#grad40-145);stroke:none;stroke-linecap:round;stroke-linejoin:round;stroke-width:0.24}
		.st20 {fill:url(#grad40-149);stroke:none;stroke-linecap:round;stroke-linejoin:round;stroke-width:0.24}
		.st21 {fill:none;fill-rule:evenodd;font-size:12;overflow:visible;stroke-linecap:square;stroke-miterlimit:3}
	]]>
	</style>

	<defs id="Patterns_And_Gradients">
		<radialGradient id="grad40-8" v:fillPattern="40" v:foreground="#5a9fba" v:foregroundOpacity="0.9" v:background="#343a4b"
				v:backgroundOpacity="0.9" cx="0.5" cy="0.5" r="0.5">
			<stop offset="0" style="stop-color:#5a9fba;stop-opacity:0.9"/>
			<stop offset="1" style="stop-color:#343a4b;stop-opacity:0.9"/>
		</radialGradient>
		<linearGradient id="grad29-12" v:fillPattern="29" v:foreground="#81cdd6" v:foregroundOpacity="0.5" v:background="#000000"
				v:backgroundOpacity="0.5" x1="0" y1="0" x2="0" y2="1">
			<stop offset="0" style="stop-color:#000000;stop-opacity:0.5"/>
			<stop offset="0.5" style="stop-color:#81cdd6;stop-opacity:0.5"/>
			<stop offset="1" style="stop-color:#000000;stop-opacity:0.5"/>
		</linearGradient>
		<linearGradient id="grad28-16" v:fillPattern="28" v:foreground="#81cdd6" v:background="#000000" x1="0" y1="0" x2="0" y2="1">
			<stop offset="0" style="stop-color:#81cdd6;stop-opacity:1"/>
			<stop offset="1" style="stop-color:#000000;stop-opacity:1"/>
		</linearGradient>
		<linearGradient id="grad26-28" v:fillPattern="26" v:foreground="#ffffff" v:foregroundOpacity="0.5" v:background="#534837"
				v:backgroundOpacity="0.5" x1="0" y1="0" x2="1" y2="0">
			<stop offset="0" style="stop-color:#534837;stop-opacity:0.5"/>
			<stop offset="0.5" style="stop-color:#ffffff;stop-opacity:0.5"/>
			<stop offset="1" style="stop-color:#534837;stop-opacity:0.5"/>
		</linearGradient>
		<linearGradient id="grad25-37" v:fillPattern="25" v:foreground="#002060" v:background="#3064af" x1="0" y1="0" x2="1" y2="0">
			<stop offset="0" style="stop-color:#002060;stop-opacity:1"/>
			<stop offset="1" style="stop-color:#3064af;stop-opacity:1"/>
		</linearGradient>
		<linearGradient id="grad28-61" v:fillPattern="28" v:foreground="#779fdb" v:background="#3064af" x1="0" y1="0" x2="0" y2="1">
			<stop offset="0" style="stop-color:#779fdb;stop-opacity:1"/>
			<stop offset="1" style="stop-color:#3064af;stop-opacity:1"/>
		</linearGradient>
		<linearGradient id="grad28-92" v:fillPattern="28" v:foreground="#a0bce7" v:foregroundOpacity="0.5" v:background="#3064af"
				v:backgroundOpacity="0.5" x1="0" y1="0" x2="0" y2="1">
			<stop offset="0" style="stop-color:#a0bce7;stop-opacity:0.5"/>
			<stop offset="1" style="stop-color:#3064af;stop-opacity:0.5"/>
		</linearGradient>
		<radialGradient id="grad37-140" v:fillPattern="37" v:foreground="#f0e9e3" v:foregroundOpacity="0.4" v:background="#795c42"
				v:backgroundOpacity="0.4" cx="1" cy="0" r="1">
			<stop offset="0" style="stop-color:#f0e9e3;stop-opacity:0.4"/>
			<stop offset="1" style="stop-color:#795c42;stop-opacity:0.4"/>
		</radialGradient>
		<radialGradient id="grad40-145" v:fillPattern="40" v:foreground="#ffffff" v:foregroundOpacity="0.7" v:background="#81cdd6"
				v:backgroundOpacity="0.7" cx="0.5" cy="0.5" r="0.5">
			<stop offset="0" style="stop-color:#ffffff;stop-opacity:0.7"/>
			<stop offset="1" style="stop-color:#81cdd6;stop-opacity:0.7"/>
		</radialGradient>
		<radialGradient id="grad40-149" v:fillPattern="40" v:foreground="#ffffff" v:foregroundOpacity="0.5" v:background="#81cdd6"
				v:backgroundOpacity="0.5" cx="0.5" cy="0.5" r="0.5">
			<stop offset="0" style="stop-color:#ffffff;stop-opacity:0.5"/>
			<stop offset="1" style="stop-color:#81cdd6;stop-opacity:0.5"/>
		</radialGradient>
	</defs>
	<g v:mID="0" v:index="1" v:groupContext="foregroundPage">
		<title>Страница-1</title>
		<v:pageProperties v:drawingScale="0.0393701" v:pageScale="0.0393701" v:drawingUnits="24" v:shadowOffsetX="8.50394"
				v:shadowOffsetY="-8.50394"/>
		<g id="shape1-1" v:mID="1" v:groupContext="shape" transform="translate(3,-3)">
			<title>Лист.1</title>
			<path d="M9.52 139.55 C29.9 137.2 33.58 140.03 51.63 130.62 C69.58 139.46 81.07 138.37 94.33 139.2 C79.79 136.06 55 115.81
						 52.04 93.5 A28.3465 28.7992 -180 0 0 52.24 93.76 A28.3465 28.7992 -180 0 0 101.85 84.42 L101.88 84.31 C108.63
						 61.09 100 47.6 80.35 48.52 A44.8158 37.4846 -172.73 0 0 86.02 27.46 A35.3811 29.6027 -180 0 0 17.99 27.46
						 A49.2323 41.0365 -20.89 0 0 26.5 50.22 C4.95 47.62 -4.62 61.09 2.14 84.31 L2.17 84.42 A28.3465 28.7992 -180
						 0 0 51.78 93.76 A28.3465 28.7992 -180 0 0 51.98 93.5 C49.01 115.81 29.33 135.21 9.52 139.55 ZM51.96 57.7
						 L52.05 57.7 C52.05 58.08 52.05 58.46 52.05 58.84 a0.0460078 0.0467427 0 0 1 -0.0896272 9.166E-013 L51.96
						 57.7 Z" class="st1"/>
		</g>
		<g id="shape2-3" v:mID="2" v:groupContext="shape" transform="translate(3,-3.08314)">
			<title>Лист.2</title>
			<path d="M9.49 139.55 C20.26 138.13 35 140.96 52.01 130.48 C69.01 140.96 83.19 137.56 95.09 139.55 C71.56 131.51 55 115.89
						 52.04 93.58 A28.3465 28.7992 -180 0 0 52.24 93.85 A28.3465 28.7992 -180 0 0 101.85 84.5 L101.88 84.39 C108.63
						 61.17 100 47.68 80.35 48.6 A44.8158 37.4846 -172.73 0 0 86.02 27.54 A35.3811 29.6027 -180 0 0 17.99 27.54
						 A49.2323 41.0365 -20.89 0 0 26.5 50.3 C4.95 47.7 -4.62 61.17 2.14 84.39 L2.17 84.5 A28.3465 28.7992 -180
						 0 0 51.78 93.85 A28.3465 28.7992 -180 0 0 51.98 93.58 C49.01 115.89 35 132.46 9.49 139.55 ZM51.96 57.78
						 L52.05 57.78 C52.05 58.16 52.05 58.54 52.05 58.92 a0.0460078 0.0467427 0 0 1 -0.0896272 -1.72662E-012 L51.96
						 57.78 Z" class="st2"/>
		</g>
		<g id="shape3-5" v:mID="3" v:groupContext="shape" transform="translate(35.8823,-66.2482)">
			<title>Лист.3</title>
			<path d="M0 120.27 A19.2756 19.2756 -180 1 0 38.55 120.27 A19.2756 19.2756 -180 1 0 0 120.27 ZM5.52 122.7 A13.9648 13.9648
						 0 1 1 33.03 117.85 A13.9648 13.9648 0 1 1 5.52 122.7 Z" class="st3"/>
		</g>
		<g id="shape4-9" v:mID="4" v:groupContext="shape" transform="translate(15.067,-60.7551) rotate(-10)">
			<title>Лист.4</title>
			<path d="M0 120 A19.5507 19.5507 -180 0 0 39.1 120 A19.5507 19.5507 -180 0 0 0 120 ZM5.59 120 A13.9648 13.9648 0 1 1
						 33.52 120 A13.9648 13.9648 0 1 1 5.59 120 Z" class="st4"/>
		</g>
		<g id="shape5-13" v:mID="5" v:groupContext="shape" transform="translate(31.5124,-61.8783)">
			<title>Лист.5</title>
			<path d="M0.03 113.44 L1.71 115.58 L0 118.02 A23.7402 23.7402 -98.97 0 0 0.27 120.02 A23.7402 23.7402 -98.97 0 0 0.7
						 122 L3.14 123.71 L2.3 126.29 A23.7402 23.7402 -98.97 0 0 5.21 130.86 L7.91 131.19 L8.42 134.12 A23.7402
						 23.7402 -98.97 0 0 11.73 136.44 L14.66 135.92 L15.9 138.34 A23.7402 23.7402 -98.97 0 0 21.19 139.51 L23.32
						 137.84 L25.76 139.55 A23.7402 23.7402 -98.97 0 0 29.74 138.85 L31.45 136.41 L34.03 137.25 A23.7402 23.7402
						 -98.97 0 0 38.6 134.34 L38.93 131.64 L41.86 131.12 A23.7402 23.7402 -98.97 0 0 44.18 127.81 L43.66 124.88
						 L46.09 123.65 A23.7402 23.7402 -98.97 0 0 47.26 118.36 L45.58 116.22 L47.29 113.78 A23.7402 23.7402 -98.97
						 0 0 47.02 111.78 A23.7402 23.7402 -98.97 0 0 46.59 109.81 L44.15 108.1 L44.99 105.51 A23.7402 23.7402 -98.97
						 0 0 42.08 100.94 L39.38 100.62 L38.87 97.68 A23.7402 23.7402 -98.97 0 0 35.56 95.37 L32.63 95.88 L31.39
						 93.46 A23.7402 23.7402 -98.97 0 0 26.11 92.29 L23.97 93.96 L21.53 92.26 A23.7402 23.7402 -98.97 0 0 17.55
						 92.96 L15.84 95.4 L13.26 94.55 A23.7402 23.7402 -98.97 0 0 8.69 97.47 L8.36 100.16 L5.43 100.68 A23.7402
						 23.7402 -98.97 0 0 3.11 103.99 L3.63 106.92 L1.21 108.15 A23.7402 23.7402 -98.97 0 0 0.03 113.44 ZM4.39
						 119.3 A19.5507 19.5507 0 0 1 42.9 112.51 A19.5507 19.5507 0 0 1 4.39 119.3 Z" class="st5"/>
		</g>
		<g id="shape6-17" v:mID="6" v:groupContext="shape" transform="translate(35.6072,-65.9731)">
			<title>Лист.6</title>
			<path d="M0.3 123.39 A19.5507 19.5507 -180 0 0 38.8 116.6 A19.5507 19.5507 -180 0 0 0.3 123.39 ZM0.28 120 A19.2756 19.2756
						 0 0 1 38.83 120 A19.2756 19.2756 0 1 1 0.28 120 Z" class="st3"/>
		</g>
		<g id="shape7-20" v:mID="7" v:groupContext="shape" transform="translate(41.1931,-71.559)">
			<title>Лист.7</title>
			<path d="M0.21 128.01 A13.9648 13.9648 -180 1 0 27.72 123.16 A13.9648 13.9648 -180 1 0 0.21 128.01 ZM17.27 116.49 L23.49
						 123.9 L20.18 132.99 L10.66 134.67 L4.44 127.26 L7.75 118.17 L17.27 116.49 Z" class="st6"/>
		</g>
		<g id="shape8-23" v:mID="8" v:groupContext="shape" transform="translate(-4.07219,-45.2628) rotate(-30) scale(-1,1)">
			<title>Лист.8</title>
			<path d="M12.51 139.55 C26.65 135.83 29.89 134.59 51.56 133.34 C41.1 117.15 40.6 115.91 33.62 108.44 C13.7 115.91 1.25
						 118.24 0 130.85 C2.14 131.18 5.47 142.09 7.29 132.43 C7.57 130.96 7.81 129.02 12.51 139.55 Z" class="st7"/>
		</g>
		<g id="shape9-25" v:mID="9" v:groupContext="shape" transform="translate(-43.7799,-14.9134) rotate(-52.2) scale(-1,1)">
			<title>Лист.9</title>
			<path d="M14.1 139.55 C27.33 126.84 31.32 125.79 49.42 117.03 C38.89 108.42 39.5 107.82 24.74 98.88 C8.56 109.49 12.23
						 108.39 0 124.38 C9.43 114.98 16.24 129.55 14.1 139.55 Z" class="st8"/>
		</g>
		<g id="shape10-29" v:mID="10" v:groupContext="shape" transform="translate(-4.06117,-45.2438) rotate(-30) scale(-1,1)">
			<title>Лист.10</title>
			<path d="M12.45 139.55 C21.79 135.65 29.26 130.67 52.8 126.35 C43.09 110.91 40.6 109.66 33.62 102.19 C13.7 109.66 1.25
						 111.99 0 124.6 C2.14 124.93 4.15 129.95 8.85 133.15 C9.57 133.64 10.35 134.09 12.45 139.55 Z" class="st7"/>
		</g>
		<g id="shape11-31" v:mID="11" v:groupContext="shape" transform="translate(-33.6886,-26.7702) rotate(-44.5) scale(-1,1)">
			<title>Лист.11</title>
			<path d="M14.1 139.55 C27.33 126.84 31.32 125.79 48.64 116.72 C38.89 108.42 39.5 107.82 24.74 98.88 C8.56 109.49 12.23
						 108.39 0 124.38 C9.43 114.98 16.24 129.55 14.1 139.55 Z" class="st8"/>
		</g>
		<g id="shape12-34" v:mID="12" v:groupContext="shape" transform="translate(123.864,-36.7468) rotate(30)">
			<title>Лист.12</title>
			<path d="M0 138.8 C18.18 133.47 30.14 133.17 38.63 133.01 C38.36 133.32 38.36 133.82 38.6 134.32 C30.77 134.49 14.07
						 135.69 0 139.55 L0 138.8 L0 138.8 Z" class="st9"/>
		</g>
		<g id="shape13-38" v:mID="13" v:groupContext="shape" transform="translate(114.086,-44.718) rotate(30)">
			<title>Лист.13</title>
			<path d="M12.51 139.55 C26.65 135.83 29.89 134.59 51.56 133.34 C41.1 117.15 40.6 115.91 33.62 108.44 C13.7 115.91 1.25
						 118.24 0 130.85 C2.14 131.18 5.47 142.09 7.29 132.43 C7.57 130.96 7.81 129.02 12.51 139.55 Z" class="st7"/>
		</g>
		<g id="shape14-40" v:mID="14" v:groupContext="shape" transform="translate(153.584,-14.5699) rotate(52.2)">
			<title>Лист.14</title>
			<path d="M14.1 139.55 C27.33 126.84 31.32 125.79 49.42 117.03 C38.89 108.42 39.5 107.82 24.74 98.88 C8.56 109.49 12.23
						 108.39 0 124.38 C9.43 114.98 16.24 129.55 14.1 139.55 Z" class="st8"/>
		</g>
		<g id="shape15-43" v:mID="15" v:groupContext="shape" transform="translate(114.075,-44.699) rotate(30)">
			<title>Лист.15</title>
			<path d="M12.45 139.55 C21.79 135.65 29.26 130.67 52.8 126.35 C43.09 110.91 40.6 109.66 33.62 102.19 C13.7 109.66 1.25
						 111.99 0 124.6 C2.14 124.93 4.15 129.95 8.85 133.15 C9.57 133.64 10.35 134.09 12.45 139.55 Z" class="st7"/>
		</g>
		<g id="shape16-45" v:mID="16" v:groupContext="shape" transform="translate(143.512,-26.8039) rotate(44.5)">
			<title>Лист.16</title>
			<path d="M14.1 139.55 C27.33 126.84 31.32 125.79 48.64 116.72 C38.89 108.42 39.5 107.82 24.74 98.88 C8.56 109.49 12.23
						 108.39 0 124.38 C9.43 114.98 16.24 129.55 14.1 139.55 Z" class="st8"/>
		</g>
		<g id="shape17-48" v:mID="17" v:groupContext="shape" transform="translate(111.814,-46.711) rotate(30)">
			<title>Лист.17</title>
			<path d="M15.4 139.55 C24.74 130.83 32.21 125.85 46.53 121.99 C38.56 111.53 30.58 105 19.76 97.83 C16.64 99.07 4.19 107.17
						 0 113 C5.09 120.11 6.91 121.96 12.02 132.07 C12.79 133.61 13.65 135.35 15.4 139.55 Z" class="st10"/>
		</g>
		<g id="shape18-50" v:mID="18" v:groupContext="shape" transform="translate(124.957,-38.8572) rotate(30)">
			<title>Лист.18</title>
			<path d="M26.33 123.2 C14.8 127.48 8.33 131.46 0 139.55 C12.81 132.71 14.43 130.59 30 126.85 C28.5 124.74 27.75 124.36
						 26.33 123.2 Z" class="st11"/>
		</g>
		<g id="shape19-52" v:mID="19" v:groupContext="shape" transform="translate(125.726,-38.2442) rotate(30)">
			<title>Лист.19</title>
			<path d="M30.87 128.35 C20.31 130.82 13.58 132.81 0 139.55 C16.32 134.18 18.44 133.81 33.38 132.31 C32.39 130.07 31.51
						 129.2 30.87 128.35 Z" class="st12"/>
		</g>
		<g id="shape20-54" v:mID="20" v:groupContext="shape" transform="translate(111.791,-47.4738) rotate(30)">
			<title>Лист.20</title>
			<path d="M15.57 139.55 C9.6 126.44 7.05 121.51 0 113.94 C3.37 119.64 10.34 130.85 15.57 139.55 Z" class="st13"/>
		</g>
		<g id="shape21-56" v:mID="21" v:groupContext="shape" transform="translate(124.237,-37.3939) rotate(30)">
			<title>Лист.21</title>
			<path d="M0 138.3 C18.18 132.97 30.14 132.67 39.1 132.08 C38.94 132.98 39.23 132.45 38.6 133.82 C30.77 134 14.07 135.19
						 0 139.55 L0 138.3 L0 138.3 Z" class="st13"/>
		</g>
		<g id="shape22-58" v:mID="22" v:groupContext="shape" transform="translate(134.796,-19.567) rotate(30)">
			<title>Лист.22</title>
			<path d="M0 125.26 C2.23 125.13 1.42 132.36 1.88 136.1 C2.09 137.82 2.57 138.8 3.96 139.55 C3.62 137.98 4.31 136.94 5.18
						 136.25 C4.95 135.88 6.05 138.33 7.96 137.98 C5.7 134.16 9.7 125.83 5.6 124.71 C3.11 124.66 2.24 124.78 0
						 125.26 Z" class="st14"/>
		</g>
		<g id="shape23-62" v:mID="23" v:groupContext="shape" transform="translate(111.859,-46.1809) rotate(30)">
			<title>Лист.23</title>
			<path d="M15.4 139.55 C23.78 130.21 30.27 126.14 46.04 121.12 C37.59 111.55 30.58 105 19.76 97.83 C15.19 99.93 4.19 107.17
						 0 113 C6.47 118.93 13.28 133.51 15.4 139.55 Z" class="st8"/>
		</g>
		<g id="shape24-65" v:mID="24" v:groupContext="shape" transform="translate(38.523,-83.2066) rotate(-8.65981)">
			<title>Лист.24</title>
			<path d="M0 139.55 C3.5 139.16 4.08 138.83 7.97 139.55" class="st15"/>
		</g>
		<g id="shape25-68" v:mID="25" v:groupContext="shape" transform="translate(58.485,-82.8046) rotate(-3.69007)">
			<title>Лист.25</title>
			<path d="M0 139.55 C1.97 139.36 2.3 139.2 4.49 139.55" class="st15"/>
		</g>
		<g id="shape26-71" v:mID="26" v:groupContext="shape" transform="translate(37.0528,-75.8601) rotate(-10.0303)">
			<title>Лист.26</title>
			<path d="M0 139.55 C1.79 139.36 2.08 139.2 4.07 139.55" class="st15"/>
		</g>
		<g id="shape27-74" v:mID="27" v:groupContext="shape" transform="translate(60.7973,-78.4171) rotate(-3.34071)">
			<title>Лист.27</title>
			<path d="M0 139.55 C2.49 139.36 2.9 139.2 5.66 139.55" class="st15"/>
		</g>
		<g id="shape28-77" v:mID="28" v:groupContext="shape" transform="translate(87.8433,-78.5855) rotate(4.44003)">
			<title>Лист.28</title>
			<path d="M0 139.55 C1.62 139.36 1.9 139.2 3.7 139.55" class="st15"/>
		</g>
		<g id="shape29-80" v:mID="29" v:groupContext="shape" transform="translate(45.7416,-68.8923) rotate(-6.8699)">
			<title>Лист.29</title>
			<path d="M0 139.55 C1.37 139.36 1.59 139.2 3.11 139.55" class="st15"/>
		</g>
		<g id="shape30-83" v:mID="30" v:groupContext="shape" transform="translate(70.7189,-70.3189) rotate(0.642246)">
			<title>Лист.30</title>
			<path d="M0 139.55 C3.01 139.36 3.51 139.2 6.86 139.55" class="st15"/>
		</g>
		<g id="shape31-86" v:mID="31" v:groupContext="shape" transform="translate(45.7282,-65.8803) rotate(-6.8699)">
			<title>Лист.31</title>
			<path d="M0 139.55 C2.31 139.36 2.69 139.2 5.26 139.55" class="st15"/>
		</g>
		<g id="shape32-89" v:mID="32" v:groupContext="shape" transform="translate(134.794,-19.5642) rotate(30)">
			<title>Лист.32</title>
			<path d="M0 125.26 C2.23 125.13 1.42 132.36 1.88 136.1 C2.09 137.82 2.57 138.8 3.96 139.55 C3.62 137.98 4.31 136.94 5.18
						 136.25 C4.95 135.88 6.05 138.33 7.96 137.98 C5.7 134.16 9.7 125.83 5.6 124.71 C3.11 124.66 2.24 124.78 0
						 125.26 Z" class="st16"/>
		</g>
		<g id="shape33-93" v:mID="33" v:groupContext="shape" transform="translate(-13.8497,-37.2916) rotate(-30) scale(-1,1)">
			<title>Лист.33</title>
			<path d="M0 138.8 C18.18 133.47 30.14 133.17 38.63 133.01 C38.36 133.32 38.36 133.82 38.6 134.32 C30.77 134.49 14.07
						 135.69 0 139.55 L0 138.8 L0 138.8 Z" class="st9"/>
		</g>
		<g id="shape34-96" v:mID="34" v:groupContext="shape" transform="translate(-1.77495,-47.2558) rotate(-30) scale(-1,1)">
			<title>Лист.34</title>
			<path d="M15.4 139.55 C24.74 130.83 32.21 125.85 46.53 121.99 C38.56 111.53 30.58 105 19.76 97.83 C16.64 99.07 4.19 107.17
						 0 113 C5.09 120.11 6.91 121.96 12.02 132.07 C12.79 133.61 13.65 135.35 15.4 139.55 Z" class="st10"/>
		</g>
		<g id="shape35-98" v:mID="35" v:groupContext="shape" transform="translate(-14.9434,-39.402) rotate(-30) scale(-1,1)">
			<title>Лист.35</title>
			<path d="M26.33 123.2 C14.8 127.48 8.33 131.46 0 139.55 C12.81 132.71 14.43 130.59 30 126.85 C28.5 124.74 27.75 124.36
						 26.33 123.2 Z" class="st11"/>
		</g>
		<g id="shape36-100" v:mID="36" v:groupContext="shape" transform="translate(-15.7123,-38.789) rotate(-30) scale(-1,1)">
			<title>Лист.36</title>
			<path d="M30.87 128.35 C20.31 130.82 13.58 132.81 0 139.55 C16.32 134.18 18.44 133.81 33.38 132.31 C32.39 130.07 31.51
						 129.2 30.87 128.35 Z" class="st12"/>
		</g>
		<g id="shape37-102" v:mID="37" v:groupContext="shape" transform="translate(-1.65247,-46.7184) rotate(-30) scale(-1,1)">
			<title>Лист.37</title>
			<path d="M14.91 139.55 C10.57 125.61 6.4 121.66 0 112.93 C2.85 119.07 8.9 130.88 14.91 139.55 Z" class="st13"/>
		</g>
		<g id="shape38-104" v:mID="38" v:groupContext="shape" transform="translate(-14.2233,-37.9387) rotate(-30) scale(-1,1)">
			<title>Лист.38</title>
			<path d="M0 138.3 C18.18 132.97 30.14 132.67 39.1 132.08 C38.94 132.98 39.23 132.45 38.6 133.82 C30.77 134 14.07 135.19
						 0 139.55 L0 138.3 L0 138.3 Z" class="st13"/>
		</g>
		<g id="shape39-106" v:mID="39" v:groupContext="shape" transform="translate(-1.6896,-46.8718) rotate(-30) scale(-1,1)">
			<title>Лист.39</title>
			<path d="M15.4 139.55 C23.78 130.21 30.27 126.14 46.04 121.12 C37.59 111.55 30.58 105 19.76 97.83 C15.19 99.93 4.19 107.17
						 0 113 C6.47 118.93 13.28 133.51 15.4 139.55 Z" class="st8"/>
		</g>
		<g id="shape40-109" v:mID="40" v:groupContext="shape" transform="translate(40.661,-84.3899) scale(-1,1)">
			<title>Лист.40</title>
			<path d="M0 139.55 C3.98 139.16 4.65 138.83 9.07 139.55" class="st15"/>
		</g>
		<g id="shape41-112" v:mID="41" v:groupContext="shape" transform="translate(56.1619,-78.7148) rotate(3.69007) scale(-1,1)">
			<title>Лист.41</title>
			<path d="M0 139.55 C1.97 139.36 2.3 139.2 4.49 139.55" class="st15"/>
		</g>
		<g id="shape42-115" v:mID="42" v:groupContext="shape" transform="translate(73.9867,-70.1112) rotate(10.0303) scale(-1,1)">
			<title>Лист.42</title>
			<path d="M0 139.55 C1.79 139.36 2.08 139.2 4.07 139.55" class="st15"/>
		</g>
		<g id="shape43-118" v:mID="43" v:groupContext="shape" transform="translate(42.0783,-72.4844) scale(-1,1)">
			<title>Лист.43</title>
			<path d="M0 139.55 C2.74 139.36 3.19 139.2 6.24 139.55" class="st15"/>
		</g>
		<g id="shape44-121" v:mID="44" v:groupContext="shape" transform="translate(19.3697,-71.2152) rotate(-4.44003) scale(-1,1)">
			<title>Лист.44</title>
			<path d="M0 139.55 C1.91 139.36 2.23 139.2 4.35 139.55" class="st15"/>
		</g>
		<g id="shape45-124" v:mID="45" v:groupContext="shape" transform="translate(59.6207,-66.3801) rotate(6.8699) scale(-1,1)">
			<title>Лист.45</title>
			<path d="M0 139.55 C1.37 139.36 1.59 139.2 3.11 139.55" class="st15"/>
		</g>
		<g id="shape46-127" v:mID="46" v:groupContext="shape" transform="translate(11.4833,-64.9164) rotate(-9.46232) scale(-1,1)">
			<title>Лист.46</title>
			<path d="M0 139.55 C3.78 139.36 4.42 139.2 8.62 139.55" class="st15"/>
		</g>
		<g id="shape47-130" v:mID="47" v:groupContext="shape" transform="translate(67.0796,-62.5255) rotate(6.8699) scale(-1,1)">
			<title>Лист.47</title>
			<path d="M0 139.55 C3.28 139.36 3.83 139.2 7.47 139.55" class="st15"/>
		</g>
		<g id="shape48-133" v:mID="48" v:groupContext="shape" transform="translate(62.0926,-51.4956) rotate(5)">
			<title>Лист.48</title>
			<path d="M8.82 135.66 C10.3 136.67 10.57 137.4 10.28 137.93 C9.7 139.01 6.84 139.3 4.42 139.46 C2.64 139.58 1.1 139.63
						 0.43 139.26 C-0.41 138.79 0.09 137.67 0.97 136.36 C2.83 134.93 7.24 135.21 8.82 135.66 Z" class="st17"/>
		</g>
		<g id="shape49-135" v:mID="49" v:groupContext="shape" transform="translate(65.239,-51.6459) rotate(6)">
			<title>Лист.49</title>
			<path d="M4.19 134.3 C8.69 136.57 8.89 137.46 8.65 138.05 C8.17 139.26 5.9 139.27 3.72 139.42 C2.11 139.54 0.55 139.73
						 0.12 139.21 C-0.41 138.56 0.82 136.81 3.1 134.18 C3.54 134.31 3.46 134.29 4.19 134.3 Z" class="st13"/>
		</g>
		<g id="shape50-137" v:mID="50" v:groupContext="shape" transform="translate(54.634,-59.7169) scale(-1,1)">
			<title>Лист.50</title>
			<path d="M0 110.76 L2.12 122.93 L3.89 131.78 L5.28 137.32 L6.31 139.55 C11.42 129.91 14.25 133.31 24.82 107.4 L16.65
						 113.19 L10.08 116.41 L5.12 117.08 L1.76 115.2 L0 110.76" class="st18"/>
		</g>
		<g id="shape51-142" v:mID="51" v:groupContext="shape" transform="translate(88.8246,-104.696) rotate(12.9)">
			<title>Прямоугольник</title>
			<v:userDefs>
				<v:ud v:nameU="visVersion" v:val="VT0(14):26"/>
			</v:userDefs>
			<rect x="0" y="138.995" width="5.10734" height="0.552621" class="st19"/>
		</g>
		<g id="shape52-146" v:mID="52" v:groupContext="shape" transform="translate(146.99,-79.6158) rotate(35.2)">
			<title>Прямоугольник.280</title>
			<v:userDefs>
				<v:ud v:nameU="visVersion" v:val="VT0(14):26"/>
			</v:userDefs>
			<rect x="0" y="138.744" width="3.52886" height="0.802962" class="st20"/>
		</g>
	</g>
</svg>
