<?xml version="1.0" encoding="UTF-8" standalone="no"?>
<!DOCTYPE svg PUBLIC "-//W3C//DTD SVG 1.0//EN" "http://www.w3.org/TR/2001/REC-SVG-20010904/DTD/svg10.dtd">
<!-- Создано Microsoft Visio 11.0, Экспорт SVG, версия 1.0 useless-limb.svg Страница-1 -->
<svg xmlns="http://www.w3.org/2000/svg" xmlns:xlink="http://www.w3.org/1999/xlink" xmlns:ev="http://www.w3.org/2001/xml-events"
		xmlns:v="http://schemas.microsoft.com/visio/2003/SVGExtensions/" width="0.848494in" height="1.44506in"
		viewBox="0 0 61.0915 104.044" xml:space="preserve" color-interpolation-filters="sRGB" class="st2">
	<v:documentProperties v:langID="1033" v:metric="true" v:viewMarkup="false"/>

	<style type="text/css">
	<![CDATA[
		.st1 {fill:#500000;stroke:#000000;stroke-linecap:round;stroke-linejoin:round;stroke-width:0.24}
		.st2 {fill:none;fill-rule:evenodd;font-size:12;overflow:visible;stroke-linecap:square;stroke-miterlimit:3}
	]]>
	</style>

	<g v:mID="0" v:index="1" v:groupContext="foregroundPage">
		<title>Страница-1</title>
		<v:pageProperties v:drawingScale="0.0393701" v:pageScale="0.0393701" v:drawingUnits="24" v:shadowOffsetX="8.50394"
				v:shadowOffsetY="-8.50394"/>
		<g id="group1-1" transform="translate(104.221,-12.4857) rotate(78.6)" v:mID="1" v:groupContext="group">
			<title>Лист.1</title>
			<g id="shape2-2" v:mID="2" v:groupContext="shape">
				<title>Лист.2</title>
				<path d="M42.42 91.69 L24.28 76.47 A11.3386 7.55906 -130 0 0 7.69 64.44 A11.3386 7.55906 -130 0 0 6.16 72.51 A11.3386
							 7.55906 -180 0 0 0 79.23 A11.3386 7.55906 -180 0 0 16.35 86.01 L37.84 104.04 L36.96 98.84 L39.44 99.46
							 L38.06 94.24 L41.74 94.24 L42.42 91.69 Z" class="st1"/>
			</g>
			<g id="shape3-4" v:mID="3" v:groupContext="shape" transform="translate(149.382,129.296) rotate(130)">
				<title>Лист.3</title>
				<path d="M42.42 91.69 L24.28 76.47 A11.3386 7.55906 -130 0 0 7.69 64.44 A11.3386 7.55906 -130 0 0 6.16 72.51 A11.3386
							 7.55906 -180 0 0 0 79.23 A11.3386 7.55906 -180 0 0 16.35 86.01 L37.84 104.04 L36.96 98.84 L39.44 99.46
							 L38.06 94.24 L41.74 94.24 L42.42 91.69 Z" class="st1"/>
			</g>
		</g>
	</g>
</svg>
