<?xml version="1.0" encoding="UTF-8" standalone="no"?>
<!DOCTYPE svg PUBLIC "-//W3C//DTD SVG 1.0//EN" "http://www.w3.org/TR/2001/REC-SVG-20010904/DTD/svg10.dtd">
<!-- Создано Microsoft Visio 11.0, Экспорт SVG, версия 1.0 crow.svg Страница-1 -->
<svg xmlns="http://www.w3.org/2000/svg" xmlns:xlink="http://www.w3.org/1999/xlink" xmlns:ev="http://www.w3.org/2001/xml-events"
		xmlns:v="http://schemas.microsoft.com/visio/2003/SVGExtensions/" width="0.203517in" height="0.203517in"
		viewBox="0 0 14.6532 14.6532" xml:space="preserve" color-interpolation-filters="sRGB" class="st3">
	<v:documentProperties v:langID="1049" v:metric="true" v:viewMarkup="false"/>

	<style type="text/css">
	<![CDATA[
		.st1 {fill:#ffffff;stroke:none;stroke-linecap:round;stroke-linejoin:round;stroke-width:0.24}
		.st2 {fill:#000000;stroke:none;stroke-linecap:round;stroke-linejoin:round;stroke-width:0.25}
		.st3 {fill:none;fill-rule:evenodd;font-size:12;overflow:visible;stroke-linecap:square;stroke-miterlimit:3}
	]]>
	</style>

	<g v:mID="0" v:index="1" v:groupContext="foregroundPage">
		<title>Страница-1</title>
		<v:pageProperties v:drawingScale="0.0393701" v:pageScale="0.0393701" v:drawingUnits="24" v:shadowOffsetX="9"
				v:shadowOffsetY="-9"/>
		<g id="shape1-1" v:mID="1" v:groupContext="shape" transform="translate(0.24,-0.24)">
			<title>Круг</title>
			<v:userDefs>
				<v:ud v:nameU="visVersion" v:val="VT0(14):26"/>
			</v:userDefs>
			<path d="M0 7.57 A7.08661 7.08661 0 1 1 14.17 7.57 A7.08661 7.08661 0 1 1 -0 7.57 Z" class="st1"/>
		</g>
		<g id="shape4-3" v:mID="4" v:groupContext="shape" transform="translate(3.49984,-1.99233)">
			<title>Лист.4</title>
			<path d="M3.94 8.86 C4.41 8.16 5.8 5.61 7.65 3.98 C6.03 4.45 4.41 6.07 3.25 8.39 C2.55 7 1.62 5.84 0.23 5.38 C0.93 6.3
						 2.09 7.7 2.78 9.09 C2.55 9.55 1.86 10.25 1.39 10.94 C1.16 11.64 1.17 12.02 1.39 12.33 C0.93 13.03 0.7 13.49
						 -0 14.42 L0.35 14.65 C2.09 12.8 2.25 11.22 3.48 10.01 C4.17 11.41 5.57 12.8 6.73 13.96 C6.69 13.94 7.02
						 13.9 6.96 13.73 C6.93 13.62 6.49 13.03 5.8 12.33 C5.33 11.64 5.33 11.87 5.33 10.94 C4.87 10.01 4.5 9.72
						 3.94 8.86 Z" class="st2"/>
		</g>
	</g>
</svg>
