<?xml version="1.0" encoding="UTF-8" standalone="no"?>
<!DOCTYPE svg PUBLIC "-//W3C//DTD SVG 1.0//EN" "http://www.w3.org/TR/2001/REC-SVG-20010904/DTD/svg10.dtd">
<!-- Создано Microsoft Visio 11.0, Экспорт SVG, версия 1.0 melee.svg Страница-1 -->
<svg xmlns="http://www.w3.org/2000/svg" xmlns:xlink="http://www.w3.org/1999/xlink" xmlns:ev="http://www.w3.org/2001/xml-events"
		xmlns:v="http://schemas.microsoft.com/visio/2003/SVGExtensions/" width="0.203517in" height="0.203517in"
		viewBox="0 0 14.6532 14.6532" xml:space="preserve" color-interpolation-filters="sRGB" class="st3">
	<v:documentProperties v:langID="1049" v:metric="true" v:viewMarkup="false"/>

	<style type="text/css">
	<![CDATA[
		.st1 {fill:#ffffff;stroke:none;stroke-linecap:round;stroke-linejoin:round;stroke-width:0.24}
		.st2 {fill:#000000;stroke:none;stroke-linecap:round;stroke-linejoin:round;stroke-width:0.25}
		.st3 {fill:none;fill-rule:evenodd;font-size:12;overflow:visible;stroke-linecap:square;stroke-miterlimit:3}
	]]>
	</style>

	<g v:mID="0" v:index="1" v:groupContext="foregroundPage">
		<title>Страница-1</title>
		<v:pageProperties v:drawingScale="0.0393701" v:pageScale="0.0393701" v:drawingUnits="24" v:shadowOffsetX="9"
				v:shadowOffsetY="-9"/>
		<g id="shape2-1" v:mID="2" v:groupContext="shape" transform="translate(0.24,-0.24)">
			<title>Круг.2</title>
			<v:userDefs>
				<v:ud v:nameU="visVersion" v:val="VT0(14):26"/>
			</v:userDefs>
			<path d="M0 7.57 A7.08661 7.08661 0 1 1 14.17 7.57 A7.08661 7.08661 0 1 1 -0 7.57 Z" class="st1"/>
		</g>
		<g id="shape4-3" v:mID="4" v:groupContext="shape" transform="translate(9.53613,-3.64157)">
			<title>Лист.4</title>
			<path d="M0.48 14.65 C0.26 12.02 0.77 9.83 2.75 8.13 C-0.37 8.98 -0.37 12.95 0.48 14.65 Z" class="st2"/>
		</g>
		<g id="shape5-5" v:mID="5" v:groupContext="shape" transform="translate(6.87084,-2.22425)">
			<title>Лист.5</title>
			<path d="M0.03 14.65 C1.16 9.83 2.58 7.28 4.57 5.58 C1.45 7 -0.25 10.68 0.03 14.65 Z" class="st2"/>
		</g>
		<g id="shape6-7" v:mID="6" v:groupContext="shape" transform="translate(4.35024,-1.37386)">
			<title>Лист.6</title>
			<path d="M0 14.65 C1.7 8.42 3.4 5.87 5.7 3.88 C2.27 5.58 0.28 8.7 0 14.65 Z" class="st2"/>
		</g>
		<g id="shape7-9" v:mID="7" v:groupContext="shape" transform="translate(2.36598,-3.07465)">
			<title>Лист.7</title>
			<path d="M0 14.65 C2.27 8.7 3.97 6.72 6.83 4.45 C3.12 6.43 1.13 8.42 0 14.65 Z" class="st2"/>
		</g>
	</g>
</svg>
