<?xml version="1.0" encoding="UTF-8" standalone="no"?>
<!DOCTYPE svg PUBLIC "-//W3C//DTD SVG 1.0//EN" "http://www.w3.org/TR/2001/REC-SVG-20010904/DTD/svg10.dtd">
<!-- Создано Microsoft Visio 11.0, Экспорт SVG, версия 1.0 plus.svg Страница-1 -->
<svg xmlns="http://www.w3.org/2000/svg" xmlns:xlink="http://www.w3.org/1999/xlink" xmlns:ev="http://www.w3.org/2001/xml-events"
		xmlns:v="http://schemas.microsoft.com/visio/2003/SVGExtensions/" width="0.203517in" height="0.203517in"
		viewBox="0 0 14.6532 14.6532" xml:space="preserve" color-interpolation-filters="sRGB" class="st4">
	<v:documentProperties v:langID="1049" v:metric="true" v:viewMarkup="false"/>

	<style type="text/css">
	<![CDATA[
		.st1 {fill:#ffffff;stroke:none;stroke-linecap:round;stroke-linejoin:round;stroke-width:0.24}
		.st2 {fill:#000000;stroke:#000000;stroke-linecap:round;stroke-linejoin:round;stroke-width:1}
		.st3 {stroke:#ffffff;stroke-linecap:round;stroke-linejoin:round;stroke-width:1}
		.st4 {fill:none;fill-rule:evenodd;font-size:12;overflow:visible;stroke-linecap:square;stroke-miterlimit:3}
	]]>
	</style>

	<g v:mID="0" v:index="1" v:groupContext="foregroundPage">
		<title>Страница-1</title>
		<v:pageProperties v:drawingScale="0.0393701" v:pageScale="0.0393701" v:drawingUnits="24" v:shadowOffsetX="9"
				v:shadowOffsetY="-9"/>
		<g id="shape2-1" v:mID="2" v:groupContext="shape" transform="translate(0.24,-0.24)">
			<title>Круг.2</title>
			<v:userDefs>
				<v:ud v:nameU="visVersion" v:val="VT0(14):26"/>
			</v:userDefs>
			<path d="M0 7.57 A7.08661 7.08661 0 1 1 14.17 7.57 A7.08661 7.08661 0 1 1 -0 7.57 Z" class="st1"/>
		</g>
		<g id="shape3-3" v:mID="3" v:groupContext="shape" transform="translate(-4.79676,5.89069) rotate(70) scale(1,-1)">
			<title>Скругленный прямоугольник</title>
			<v:userDefs>
				<v:ud v:nameU="visVersion" v:val="VT0(14):26"/>
			</v:userDefs>
			<path d="M10.34 14.65 a0.566934 0.566934 -180 0 0 0.566929 -0.566929 L10.9 7.48 a0.566934 0.566934 -180 0 0 -0.566929
						 -0.566929 L0.57 6.91 a0.566934 0.566934 -180 0 0 -0.566929 0.566929 L0 14.09 a0.566934 0.566934 -180 0 0
						 0.566929 0.566929 L10.34 14.65 Z" class="st2"/>
		</g>
		<g id="shape4-5" v:mID="4" v:groupContext="shape" transform="translate(4.75011,-7.19717)">
			<title>Лист.4</title>
			<path d="M0 14.65 L4.9 14.65" class="st3"/>
		</g>
		<g id="shape5-8" v:mID="5" v:groupContext="shape" transform="translate(21.8381,5.0589) rotate(90)">
			<title>Лист.5</title>
			<path d="M0 14.65 L4.9 14.65" class="st3"/>
		</g>
	</g>
</svg>
