<?xml version="1.0" encoding="UTF-8" standalone="no"?>
<!DOCTYPE svg PUBLIC "-//W3C//DTD SVG 1.0//EN" "http://www.w3.org/TR/2001/REC-SVG-20010904/DTD/svg10.dtd">
<!-- Создано Microsoft Visio 11.0, Экспорт SVG, версия 1.0 projectile.svg Страница-1 -->
<svg xmlns="http://www.w3.org/2000/svg" xmlns:xlink="http://www.w3.org/1999/xlink" xmlns:ev="http://www.w3.org/2001/xml-events"
		xmlns:v="http://schemas.microsoft.com/visio/2003/SVGExtensions/" width="0.203517in" height="0.203517in"
		viewBox="0 0 14.6532 14.6532" xml:space="preserve" color-interpolation-filters="sRGB" class="st3">
	<v:documentProperties v:langID="1049" v:metric="true" v:viewMarkup="false"/>

	<style type="text/css">
	<![CDATA[
		.st1 {fill:#ffffff;stroke:none;stroke-linecap:round;stroke-linejoin:round;stroke-width:0.24}
		.st2 {fill:#000000;stroke:none;stroke-linecap:round;stroke-linejoin:round;stroke-width:0.24}
		.st3 {fill:none;fill-rule:evenodd;font-size:12;overflow:visible;stroke-linecap:square;stroke-miterlimit:3}
	]]>
	</style>

	<g v:mID="0" v:index="1" v:groupContext="foregroundPage">
		<title>Страница-1</title>
		<v:pageProperties v:drawingScale="0.0393701" v:pageScale="0.0393701" v:drawingUnits="24" v:shadowOffsetX="9"
				v:shadowOffsetY="-9"/>
		<g id="shape2-1" v:mID="2" v:groupContext="shape" transform="translate(0.24,-0.24)">
			<title>Круг.2</title>
			<v:userDefs>
				<v:ud v:nameU="visVersion" v:val="VT0(14):26"/>
			</v:userDefs>
			<path d="M0 7.57 A7.08661 7.08661 0 1 1 14.17 7.57 A7.08661 7.08661 0 1 1 -0 7.57 Z" class="st1"/>
		</g>
		<g id="shape3-3" v:mID="3" v:groupContext="shape" transform="translate(1.36586,-4.15134)">
			<title>Лист.3</title>
			<path d="M11.86 8.3 C3.34 8.3 3.18 8.25 3.06 9.6 C3.04 9.84 3.02 10.13 2.79 10.25 C2.65 10.32 2.42 10.33 2.22 10.44 C1.7
						 10.71 1.33 11.59 0.75 12.43 C0.41 12.93 -0.01 13.42 0 13.64 C0.01 13.76 0.12 13.8 0.27 13.87 C0.63 14.04
						 1.16 14.34 1.56 14.51 C1.86 14.63 2.09 14.69 2.23 14.64 C2.61 14.5 2.35 13.59 2.4 12.84 C2.43 12.29 2.63
						 11.82 3.21 11.65 C3.91 11.44 5.16 11.67 5.5 11.2 C5.82 10.76 5.32 9.71 7.63 9.58 C8.73 9.51 10.45 9.66 11.26
						 9.71 C12.2 9.78 11.86 9.72 11.86 8.3 Z" class="st2"/>
		</g>
	</g>
</svg>
