<?xml version="1.0" encoding="UTF-8" standalone="no"?>
<!DOCTYPE svg PUBLIC "-//W3C//DTD SVG 1.0//EN" "http://www.w3.org/TR/2001/REC-SVG-20010904/DTD/svg10.dtd">
<!-- Создано Microsoft Visio 11.0, Экспорт SVG, версия 1.0 ram.svg Страница-1 -->
<svg xmlns="http://www.w3.org/2000/svg" xmlns:xlink="http://www.w3.org/1999/xlink" xmlns:ev="http://www.w3.org/2001/xml-events"
		xmlns:v="http://schemas.microsoft.com/visio/2003/SVGExtensions/" width="0.203517in" height="0.203517in"
		viewBox="0 0 14.6532 14.6532" xml:space="preserve" color-interpolation-filters="sRGB" class="st3">
	<v:documentProperties v:langID="1049" v:metric="true" v:viewMarkup="false"/>

	<style type="text/css">
	<![CDATA[
		.st1 {fill:#ffffff;stroke:none;stroke-linecap:round;stroke-linejoin:round;stroke-width:0.24}
		.st2 {fill:#000000;stroke:none;stroke-linecap:round;stroke-linejoin:round;stroke-width:0.24}
		.st3 {fill:none;fill-rule:evenodd;font-size:12;overflow:visible;stroke-linecap:square;stroke-miterlimit:3}
	]]>
	</style>

	<g v:mID="0" v:index="1" v:groupContext="foregroundPage">
		<title>Страница-1</title>
		<v:pageProperties v:drawingScale="0.0393701" v:pageScale="0.0393701" v:drawingUnits="24" v:shadowOffsetX="9"
				v:shadowOffsetY="-9"/>
		<g id="shape2-1" v:mID="2" v:groupContext="shape" transform="translate(0.24,-0.24)">
			<title>Круг.2</title>
			<v:userDefs>
				<v:ud v:nameU="visVersion" v:val="VT0(14):26"/>
			</v:userDefs>
			<path d="M0 7.57 A7.08661 7.08661 0 1 1 14.17 7.57 A7.08661 7.08661 0 1 1 -0 7.57 Z" class="st1"/>
		</g>
		<g id="shape3-3" v:mID="3" v:groupContext="shape" transform="translate(3.44599,-1.58781)">
			<title>Лист.3</title>
			<path d="M6.43 8.06 C6.56 7.82 6.47 7.57 6.38 7.36 C6.26 7.07 6.15 6.85 5.98 6.79 C5.74 6.69 5.38 6.91 5.3 7.21 C5.18
						 7.63 5.55 8.2 5.98 8.4 C6.79 8.79 7.8 7.82 7.85 6.93 C7.9 6.16 7.22 5.45 6.38 5.23 C5.79 5.08 5.12 5.16
						 4.59 5.37 C3.95 5.63 3.5 6.06 3.31 6.7 C3.06 7.51 3.24 8.65 3.71 9.16 C4.03 9.51 4.5 9.57 4.78 9.8 C5.02
						 10 5.13 10.32 4.94 10.64 C4.6 11.22 3.29 11.81 2.74 12.23 C2.43 12.46 2.35 12.64 2.14 13.28 C1.97 13.8 1.72
						 14.64 1.46 14.65 C1.22 14.67 0.98 13.95 0.69 13.65 C0.48 13.42 0.24 13.42 0.11 13.29 C-0.14 13.02 0.09 12.2
						 0.17 11.31 C0.28 10.01 0.07 8.55 0.24 7.75 C0.35 7.24 0.62 6.99 0.86 6.88 C1 6.81 1.13 6.78 1.26 6.63 C1.49
						 6.37 1.71 5.72 2.02 5.24 C2.55 4.4 3.33 4.04 4.28 3.81 C5.16 3.6 6.18 3.51 7.01 3.81 C7.83 4.11 8.46 4.8
						 8.72 5.57 C8.97 6.29 8.9 7.09 8.7 7.79 C8.5 8.48 8.16 9.08 7.25 9.29 C6.69 9.43 5.9 9.41 5.38 9.23 C4.78
						 9.02 4.53 8.6 4.45 8.11 C4.37 7.57 4.48 6.93 4.8 6.55 C5.05 6.26 5.43 6.12 5.7 6.04 C5.86 6 5.98 5.97 6.13
						 6.06 C6.57 6.32 7.2 7.61 6.43 8.06 Z" class="st2"/>
		</g>
		<g id="shape4-5" v:mID="4" v:groupContext="shape" transform="translate(4.91717,-6.61795)">
			<title>Круг</title>
			<v:userDefs>
				<v:ud v:nameU="visVersion" v:val="VT0(14):26"/>
			</v:userDefs>
			<path d="M0 14.16 a0.496063 0.496063 0 0 1 0.992126 0 a0.496063 0.496063 0 1 1 -0.992126 0 Z" class="st1"/>
		</g>
	</g>
</svg>
