<?xml version="1.0" encoding="UTF-8" standalone="no"?>
<!DOCTYPE svg PUBLIC "-//W3C//DTD SVG 1.0//EN" "http://www.w3.org/TR/2001/REC-SVG-20010904/DTD/svg10.dtd">
<!-- Создано Microsoft Visio 11.0, Экспорт SVG, версия 1.0 tome.svg Страница-1 -->
<svg xmlns="http://www.w3.org/2000/svg" xmlns:xlink="http://www.w3.org/1999/xlink" xmlns:ev="http://www.w3.org/2001/xml-events"
		xmlns:v="http://schemas.microsoft.com/visio/2003/SVGExtensions/" width="0.203517in" height="0.203517in"
		viewBox="0 0 14.6532 14.6532" xml:space="preserve" color-interpolation-filters="sRGB" class="st3">
	<v:documentProperties v:langID="1049" v:metric="true" v:viewMarkup="false"/>

	<style type="text/css">
	<![CDATA[
		.st1 {fill:#ffffff;stroke:none;stroke-linecap:round;stroke-linejoin:round;stroke-width:0.24}
		.st2 {fill:#000000;stroke:none;stroke-linecap:round;stroke-linejoin:round;stroke-width:0.24}
		.st3 {fill:none;fill-rule:evenodd;font-size:12;overflow:visible;stroke-linecap:square;stroke-miterlimit:3}
	]]>
	</style>

	<g v:mID="0" v:index="1" v:groupContext="foregroundPage">
		<title>Страница-1</title>
		<v:pageProperties v:drawingScale="0.0393701" v:pageScale="0.0393701" v:drawingUnits="24" v:shadowOffsetX="9"
				v:shadowOffsetY="-9"/>
		<g id="shape2-1" v:mID="2" v:groupContext="shape" transform="translate(0.24,-0.24)">
			<title>Круг.2</title>
			<v:userDefs>
				<v:ud v:nameU="visVersion" v:val="VT0(14):26"/>
			</v:userDefs>
			<path d="M0 7.57 A7.08661 7.08661 0 1 1 14.17 7.57 A7.08661 7.08661 0 1 1 -0 7.57 Z" class="st1"/>
		</g>
		<g id="shape3-3" v:mID="3" v:groupContext="shape" transform="translate(1.55811,-3.6168)">
			<title>Лист.3</title>
			<path d="M4.85 14.24 a0.836015 0.418008 -180 0 0 1.67203 0 a0.836015 0.418008 -180 0 0 -0.00149398 -0.0249787 C7.84 13.61
						 10.15 13.01 11.54 13.57 C10.87 11.89 10.87 9.55 10.87 7.88 C9.2 7.21 6.86 6.88 5.35 7.71 C4.51 7.21 2.51
						 7.21 0.17 7.88 C0.5 9.89 0.5 12.23 -0 14.24 C1.61 13.76 3.29 13.41 4.86 14.16 a0.836015 0.418008 -180 0
						 0 -0.0149713 0.0787532 Z" class="st2"/>
		</g>
	</g>
</svg>
