<?xml version="1.0" encoding="UTF-8" standalone="no"?>
<!DOCTYPE svg PUBLIC "-//W3C//DTD SVG 1.0//EN" "http://www.w3.org/TR/2001/REC-SVG-20010904/DTD/svg10.dtd">
<!-- Создано Microsoft Visio 11.0, Экспорт SVG, версия 1.0 crows.svg Страница-1 -->
<svg xmlns="http://www.w3.org/2000/svg" xmlns:xlink="http://www.w3.org/1999/xlink" xmlns:ev="http://www.w3.org/2001/xml-events"
		xmlns:v="http://schemas.microsoft.com/visio/2003/SVGExtensions/" width="1.65814in" height="2.09448in"
		viewBox="0 0 119.386 150.803" xml:space="preserve" color-interpolation-filters="sRGB" class="st9">
	<v:documentProperties v:langID="1049" v:metric="true" v:viewMarkup="false"/>

	<style type="text/css">
	<![CDATA[
		.st1 {fill:#000000;stroke:#f5deb3;stroke-linecap:round;stroke-linejoin:round;stroke-width:3}
		.st2 {fill:#000000}
		.st3 {stroke:#f5deb3;stroke-linecap:round;stroke-linejoin:round;stroke-width:3}
		.st4 {stroke:none;stroke-linecap:round;stroke-linejoin:round;stroke-width:0.24}
		.st5 {fill:#000000;stroke:#000000;stroke-linecap:round;stroke-linejoin:round;stroke-width:0.24}
		.st6 {fill:#000000;stroke:none;stroke-linecap:round;stroke-linejoin:round;stroke-width:0.24}
		.st7 {fill:url(#grad28-16);stroke:#000000;stroke-linecap:round;stroke-linejoin:round;stroke-width:0.5}
		.st8 {fill:url(#grad40-20);stroke:none;stroke-linecap:round;stroke-linejoin:round;stroke-width:0.25}
		.st9 {fill:none;fill-rule:evenodd;font-size:12;overflow:visible;stroke-linecap:square;stroke-miterlimit:3}
	]]>
	</style>

	<defs id="Patterns_And_Gradients">
		<linearGradient id="grad28-16" v:fillPattern="28" v:foreground="#92d050" v:background="#009648" x1="0" y1="0" x2="0" y2="1">
			<stop offset="0" style="stop-color:#92d050;stop-opacity:1"/>
			<stop offset="1" style="stop-color:#009648;stop-opacity:1"/>
		</linearGradient>
		<radialGradient id="grad40-20" v:fillPattern="40" v:foreground="#b3d54d" v:foregroundOpacity="0.6" v:background="#00b536"
				v:backgroundOpacity="0.6" cx="0.5" cy="0.5" r="0.5">
			<stop offset="0" style="stop-color:#b3d54d;stop-opacity:0.6"/>
			<stop offset="1" style="stop-color:#00b536;stop-opacity:0.6"/>
		</radialGradient>
	</defs>
	<g v:mID="0" v:index="1" v:groupContext="foregroundPage">
		<title>Страница-1</title>
		<v:pageProperties v:drawingScale="0.0393701" v:pageScale="0.0393701" v:drawingUnits="24" v:shadowOffsetX="8.50394"
				v:shadowOffsetY="-8.50394"/>
		<g id="shape2-1" v:mID="2" v:groupContext="shape" transform="translate(3,-3)">
			<title>Лист.2</title>
			<path d="M113.39 146.79 C81.56 151.79 59.53 121.26 56.69 98.93 C53.86 121.26 31.83 151.79 0 146.79 C17.01 153.17 42.52
						 153.17 56.69 140.4 C70.87 153.17 96.38 153.17 113.39 146.79 Z" class="st1"/>
		</g>
		<g id="shape3-3" v:mID="3" v:groupContext="shape" transform="translate(7.46483,-43.1569)">
			<title>Лист.3</title>
			<path d="M52.23 72.96 L52.23 46.16 L52.23 46.16 C29.57 78.77 -10.07 88.42 2.36 130.46 L2.39 130.57 A28.3465 28.3465 -180
						 0 0 52 139.77 A28.3465 28.3465 -180 0 0 52.23 139.46 A28.3465 28.3465 -180 0 0 52.46 139.77 A28.3465 28.3465
						 -180 0 0 102.07 130.57 L102.1 130.46 C114.52 88.42 74.89 78.77 52.23 46.16 C52.23 72.96 52.23 89.94 52.27
						 105.39 a0.0460078 0.0460078 0 0 1 -0.0896272 -2.13163E-013 L52.23 72.96 Z" class="st2"/>
			<path d="M52.23 72.96 L52.23 46.16 L52.23 46.16 C29.57 78.77 -10.07 88.42 2.36 130.46 L2.39 130.57 A28.3465 28.3465 -180
						 0 0 52 139.77 A28.3465 28.3465 -180 0 0 52.23 139.46 A28.3465 28.3465 -180 0 0 52.46 139.77 A28.3465 28.3465
						 -180 0 0 102.07 130.57 L102.1 130.46 C114.52 88.42 74.89 78.77 52.23 46.16 C52.23 72.96 52.23 89.94 52.27
						 105.39 a0.0460078 0.0460078 0 0 1 -0.0896272 -2.13163E-013" class="st3"/>
		</g>
		<g id="shape4-6" v:mID="4" v:groupContext="shape" transform="translate(7.46483,-43.1569)">
			<title>Лист.4</title>
			<path d="M52.23 72.96 L52.23 46.16 L52.23 46.16 C29.57 78.77 -10.07 88.42 2.36 130.46 L2.39 130.57 A28.3465 28.3465 -180
						 0 0 52 139.77 A28.3465 28.3465 -180 0 0 52.23 139.46 A28.3465 28.3465 -180 0 0 52.46 139.77 A28.3465 28.3465
						 -180 0 0 102.07 130.57 L102.1 130.46 C114.52 88.42 74.89 78.77 52.23 46.16 C52.23 72.96 52.23 89.94 52.27
						 105.39 a0.0460078 0.0460078 0 0 1 -0.0896272 -2.13163E-013 L52.23 72.96 Z" class="st2"/>
			<path d="M52.23 72.96 L52.23 46.16 L52.23 46.16 C29.57 78.77 -10.07 88.42 2.36 130.46 L2.39 130.57 A28.3465 28.3465 -180
						 0 0 52 139.77 A28.3465 28.3465 -180 0 0 52.23 139.46 A28.3465 28.3465 -180 0 0 52.46 139.77 A28.3465 28.3465
						 -180 0 0 102.07 130.57 L102.1 130.46 C114.52 88.42 74.89 78.77 52.23 46.16 C52.23 72.96 52.23 89.94 52.27
						 105.39 a0.0460078 0.0460078 0 0 1 -0.0896272 -2.13163E-013" class="st4"/>
		</g>
		<g id="shape5-9" v:mID="5" v:groupContext="shape" transform="translate(3,-3)">
			<title>Лист.5</title>
			<path d="M113.39 146.79 C81.56 151.79 59.53 121.26 56.69 98.93 C53.86 121.26 31.83 151.79 0 146.79 C17.01 153.17 42.52
						 153.17 56.69 140.4 C70.87 153.17 96.38 153.17 113.39 146.79 Z" class="st5"/>
		</g>
		<g id="shape6-11" v:mID="6" v:groupContext="shape" transform="translate(56.8583,-83.5039)">
			<title>Прямоугольник.13</title>
			<v:userDefs>
				<v:ud v:nameU="visVersion" v:val="VT0(14):26"/>
			</v:userDefs>
			<rect x="0" y="92.4091" width="5.66929" height="58.3937" class="st6"/>
		</g>
		<g id="shape7-13" v:mID="7" v:groupContext="shape" transform="translate(3,-3.56693)">
			<title>Лист.7</title>
			<path d="M54.52 71.18 C53.67 71.46 54.25 72.42 53.95 72.31 C52.02 71.23 47.16 69.45 47.43 73.73 C45.44 74.86 42.61 72.03
						 41.76 76.56 C44.03 74.01 46.81 75.88 46.86 76 C46.71 76.37 46.42 76.33 46.15 76.34 C45.1 76.34 44.58 76.91
						 43.18 76.56 C43.91 78.51 46.86 79.23 48.85 77.98 C49.03 79.63 48.77 80.97 47.71 82.23 C48.56 82.8 49.41
						 82.51 49.7 81.95 C50.03 83.3 48.32 84.37 47.43 84.5 C48.01 85.2 48.57 85.27 49.7 85.07 C49.81 85.66 49.53
						 85.64 49.27 85.63 C47.13 85.61 46.64 87.43 44.17 87.18 C11.95 77.23 58.74 27.7 52.53 14.2 C52.89 21.79 46.17
						 30.31 38.65 39.35 C39.51 35.72 39.59 32.45 38.36 29.79 C38.6 36.12 32.02 44.34 24.97 53.07 C25.34 50.21
						 25.18 47.59 24.19 45.38 C22.47 54.22 17.9 61.5 13.9 67.83 C13.51 68.45 13.12 69.06 12.74 69.67 C12.36 67.36
						 11.59 65.36 10.29 63.81 C11.33 67.15 10.5 71.6 8.78 76.65 C8.27 77.74 7.84 78.81 7.54 79.86 C7.03 79.58
						 6.44 79.45 5.76 79.5 C7.17 80.5 6.33 84.22 7.79 87.21 C8.96 89.84 11.47 92.39 15.88 94.96 C14.71 95.32 13.68
						 95.89 12.85 96.72 C15.64 95.83 19.51 96.97 23.93 99.04 L23.85 98.77 A22.337 22.337 -135 0 0 28.49 99.61
						 C26.93 101.19 25.82 102.9 25.31 104.77 C27.25 102.26 30.82 100.48 35.29 99.07 A22.337 22.337 -135 0 0 39.99
						 97.39 A22.2836 22.2836 -144.74 0 0 41.7 96.46 A22.2836 22.2836 -144.72 0 0 42.41 96.03 C46.88 97.23 49.81
						 100.47 50.87 104.73 C50.86 104.86 50.85 104.99 50.83 105.12 C49.92 111.85 39.35 119.6 21.35 120.5 C31.26
						 120.88 38.4 120.65 43.54 119.49 C37.71 124.87 28.44 129.83 15.68 132.69 C25.08 132.81 32.34 132.01 37.94
						 130.34 C37.05 131.08 36.14 131.79 35.2 132.47 C36.38 131.72 37.48 130.95 38.52 130.16 C38.57 130.14 38.63
						 130.13 38.68 130.11 C37.62 130.92 36.49 131.71 35.29 132.47 C27.63 138.05 18.22 141.76 7.46 141.87 C48.79
						 141.78 55.63 125.22 56.74 102.83 C57.84 125.22 64.68 141.78 106.01 141.87 C94.2 140.26 85.02 136.8 78.18
						 132.47 C77.23 131.77 76.3 131.05 75.4 130.3 C81.02 132 88.31 132.81 97.8 132.69 C85.03 129.83 75.76 124.87
						 69.93 119.49 C75.08 120.65 82.22 120.88 92.13 120.5 C74.13 119.6 63.56 111.85 62.64 105.12 C62.63 104.99
						 62.61 104.86 62.6 104.73 C63.67 100.47 66.6 97.23 71.07 96.03 A22.2836 22.2836 -35.28 0 0 71.77 96.46 A22.2836
						 22.2836 -35.26 0 0 73.49 97.39 A22.337 22.337 -45 0 0 78.19 99.07 C82.65 100.48 86.22 102.26 88.17 104.77
						 C87.66 102.9 86.54 101.19 84.98 99.61 A22.337 22.337 -45 0 0 89.62 98.77 L89.55 99.04 C93.97 96.97 97.83
						 95.83 100.63 96.72 C99.79 95.89 98.77 95.32 97.6 94.96 C102 92.39 104.52 89.84 105.68 87.21 C107.15 84.22
						 106.3 80.5 107.72 79.5 C107.04 79.45 106.45 79.58 105.94 79.86 C105.63 78.81 105.21 77.74 104.7 76.65 C102.98
						 71.6 102.15 67.15 103.18 63.81 C101.89 65.36 101.12 67.36 100.73 69.67 C100.35 69.06 99.97 68.45 99.57 67.83
						 C95.58 61.5 91.01 54.22 89.29 45.38 C88.3 47.59 88.13 50.21 88.5 53.07 C81.46 44.34 74.87 36.12 75.12 29.79
						 C73.89 32.45 73.97 35.72 74.83 39.35 C67.31 30.31 60.59 21.79 60.94 14.2 C54.73 27.7 101.52 77.23 69.3 87.18
						 C66.84 87.43 66.34 85.61 64.2 85.63 C63.95 85.64 63.66 85.66 63.78 85.07 C64.91 85.27 65.47 85.2 66.05 84.5
						 C65.16 84.37 63.45 83.3 63.78 81.95 C64.06 82.51 64.91 82.8 65.76 82.23 C64.7 80.97 64.45 79.63 64.63 77.98
						 C66.62 79.23 69.57 78.51 70.3 76.56 C68.9 76.91 68.37 76.34 67.32 76.34 C67.06 76.33 66.76 76.37 66.61 76
						 C66.66 75.88 69.45 74.01 71.72 76.56 C70.87 72.03 68.03 74.86 66.05 73.73 C66.32 69.45 61.45 71.23 59.53
						 72.31 C59.23 72.42 59.81 71.46 58.96 71.18 C58.14 73.08 57.14 73.84 56.74 75.76 C56.33 73.84 55.33 73.08
						 54.52 71.18 ZM35.2 132.47 C28.37 136.8 19.19 140.26 7.37 141.87 C18.13 141.76 27.54 138.05 35.2 132.47 ZM0
						 147.23 C17.01 152.9 42.52 152.9 56.69 141.56 C70.87 152.9 96.38 152.9 113.39 147.23 C110.87 147.59 108.41
						 147.74 106.01 147.72 C64.07 147.62 57.65 130.56 56.69 107.67 C55.74 130.56 49.31 147.62 7.37 147.72 C4.98
						 147.74 2.52 147.59 0 147.23 Z" class="st7"/>
		</g>
		<g id="shape8-17" v:mID="8" v:groupContext="shape" transform="translate(3,-2.84795)">
			<title>Лист.8</title>
			<path d="M54.52 71.18 C53.67 71.46 54.25 72.42 53.95 72.31 C52.02 71.23 47.16 69.45 47.43 73.73 C45.44 74.86 42.61 72.03
						 41.76 76.56 C44.03 74.01 46.81 75.88 46.86 76 C46.71 76.37 46.42 76.33 46.15 76.34 C45.1 76.34 44.58 76.91
						 43.18 76.56 C43.91 78.51 46.86 79.23 48.85 77.98 C49.03 79.63 48.77 80.97 47.71 82.23 C48.56 82.8 49.41
						 82.51 49.7 81.95 C50.03 83.3 48.32 84.37 47.43 84.5 C48.01 85.2 48.57 85.27 49.7 85.07 C49.81 85.66 49.53
						 85.64 49.27 85.63 C47.13 85.61 46.64 87.43 44.17 87.18 C11.95 77.23 58.74 27.7 52.53 14.2 C52.89 21.79 46.17
						 30.31 38.65 39.35 C39.51 35.72 39.59 32.45 38.36 29.79 C38.6 36.12 32.02 44.34 24.97 53.07 C25.34 50.21
						 25.18 47.59 24.19 45.38 C22.47 54.22 17.9 61.5 13.9 67.83 C13.51 68.45 13.12 69.06 12.74 69.67 C12.36 67.36
						 11.59 65.36 10.29 63.81 C11.33 67.15 10.5 71.6 8.78 76.65 C8.27 77.74 7.84 78.81 7.54 79.86 C7.03 79.58
						 6.44 79.45 5.76 79.5 C7.17 80.5 6.33 84.22 7.79 87.21 C8.96 89.84 11.47 92.39 15.88 94.96 C14.71 95.32 13.68
						 95.89 12.85 96.72 C15.64 95.83 19.51 96.97 23.93 99.04 L23.85 98.77 A22.337 22.337 -135 0 0 28.49 99.61
						 C26.93 101.19 25.82 102.9 25.31 104.77 C27.25 102.26 30.82 100.48 35.29 99.07 A22.337 22.337 -135 0 0 39.99
						 97.39 A22.2836 22.2836 -144.74 0 0 41.7 96.46 A22.2836 22.2836 -144.72 0 0 42.41 96.03 C46.88 97.23 49.81
						 100.47 50.87 104.73 C50.86 104.86 50.85 104.99 50.83 105.12 C49.92 111.85 39.35 119.6 21.35 120.5 C31.26
						 120.88 38.4 120.65 43.54 119.49 C37.71 124.87 28.44 129.83 15.68 132.69 C25.08 132.81 32.34 132.01 37.94
						 130.34 C37.05 131.08 36.14 131.79 35.2 132.47 C36.38 131.72 37.48 130.95 38.52 130.16 C38.57 130.14 38.63
						 130.13 38.68 130.11 C37.62 130.92 36.49 131.71 35.29 132.47 C27.63 138.05 18.22 141.76 7.46 141.87 C48.79
						 141.78 55.63 125.22 56.74 102.83 C57.84 125.22 64.68 141.78 106.01 141.87 C94.2 140.26 85.02 136.8 78.18
						 132.47 C77.23 131.77 76.3 131.05 75.4 130.3 C81.02 132 88.31 132.81 97.8 132.69 C85.03 129.83 75.76 124.87
						 69.93 119.49 C75.08 120.65 82.22 120.88 92.13 120.5 C74.13 119.6 63.56 111.85 62.64 105.12 C62.63 104.99
						 62.61 104.86 62.6 104.73 C63.67 100.47 66.6 97.23 71.07 96.03 A22.2836 22.2836 -35.28 0 0 71.77 96.46 A22.2836
						 22.2836 -35.26 0 0 73.49 97.39 A22.337 22.337 -45 0 0 78.19 99.07 C82.65 100.48 86.22 102.26 88.17 104.77
						 C87.66 102.9 86.54 101.19 84.98 99.61 A22.337 22.337 -45 0 0 89.62 98.77 L89.55 99.04 C93.97 96.97 97.83
						 95.83 100.63 96.72 C99.79 95.89 98.77 95.32 97.6 94.96 C102 92.39 104.52 89.84 105.68 87.21 C107.15 84.22
						 106.3 80.5 107.72 79.5 C107.04 79.45 106.45 79.58 105.94 79.86 C105.63 78.81 105.21 77.74 104.7 76.65 C102.98
						 71.6 102.15 67.15 103.18 63.81 C101.89 65.36 101.12 67.36 100.73 69.67 C100.35 69.06 99.97 68.45 99.57 67.83
						 C95.58 61.5 91.01 54.22 89.29 45.38 C88.3 47.59 88.13 50.21 88.5 53.07 C81.46 44.34 74.87 36.12 75.12 29.79
						 C73.89 32.45 73.97 35.72 74.83 39.35 C67.31 30.31 60.59 21.79 60.94 14.2 C54.73 27.7 101.52 77.23 69.3 87.18
						 C66.84 87.43 66.34 85.61 64.2 85.63 C63.95 85.64 63.66 85.66 63.78 85.07 C64.91 85.27 65.47 85.2 66.05 84.5
						 C65.16 84.37 63.45 83.3 63.78 81.95 C64.06 82.51 64.91 82.8 65.76 82.23 C64.7 80.97 64.45 79.63 64.63 77.98
						 C66.62 79.23 69.57 78.51 70.3 76.56 C68.9 76.91 68.37 76.34 67.32 76.34 C67.06 76.33 66.76 76.37 66.61 76
						 C66.66 75.88 69.45 74.01 71.72 76.56 C70.87 72.03 68.03 74.86 66.05 73.73 C66.32 69.45 61.45 71.23 59.53
						 72.31 C59.23 72.42 59.81 71.46 58.96 71.18 C58.14 73.08 57.14 73.84 56.74 75.76 C56.33 73.84 55.33 73.08
						 54.52 71.18 ZM35.2 132.47 C28.37 136.8 19.19 140.26 7.37 141.87 C18.13 141.76 27.54 138.05 35.2 132.47 ZM0
						 147.23 C17.01 152.9 42.52 152.9 56.69 141.56 C70.87 152.9 96.38 152.9 113.39 147.23 C110.87 147.59 108.41
						 147.74 106.01 147.72 C64.07 147.62 57.65 130.56 56.69 107.67 C55.74 130.56 49.31 147.62 7.37 147.72 C4.98
						 147.74 2.52 147.59 0 147.23 Z" class="st8"/>
		</g>
	</g>
</svg>
