<?xml version="1.0" encoding="UTF-8" standalone="no"?>
<!DOCTYPE svg PUBLIC "-//W3C//DTD SVG 1.0//EN" "http://www.w3.org/TR/2001/REC-SVG-20010904/DTD/svg10.dtd">
<!-- Создано Microsoft Visio 11.0, Экспорт SVG, версия 1.0 armor.svg Страница-1 -->
<svg xmlns="http://www.w3.org/2000/svg" xmlns:xlink="http://www.w3.org/1999/xlink" xmlns:ev="http://www.w3.org/2001/xml-events"
		xmlns:v="http://schemas.microsoft.com/visio/2003/SVGExtensions/" width="1.42684in" height="1.76934in"
		viewBox="0 0 102.732 127.392" xml:space="preserve" color-interpolation-filters="sRGB" class="st2">
	<v:documentProperties v:langID="1033" v:metric="true" v:viewMarkup="false"/>

	<style type="text/css">
	<![CDATA[
		.st1 {fill:url(#grad37-4);stroke:#510000;stroke-linecap:round;stroke-linejoin:round;stroke-width:3}
		.st2 {fill:none;fill-rule:evenodd;font-size:12;overflow:visible;stroke-linecap:square;stroke-miterlimit:3}
	]]>
	</style>

	<defs id="Patterns_And_Gradients">
		<radialGradient id="grad37-4" v:fillPattern="37" v:foreground="#ffffcc" v:background="#500000" cx="1" cy="0" r="1">
			<stop offset="0" style="stop-color:#ffffcc;stop-opacity:1"/>
			<stop offset="1" style="stop-color:#500000;stop-opacity:1"/>
		</radialGradient>
	</defs>
	<g v:mID="0" v:index="1" v:groupContext="foregroundPage">
		<title>Страница-1</title>
		<v:pageProperties v:drawingScale="0.0393701" v:pageScale="0.0393701" v:drawingUnits="24" v:shadowOffsetX="8.50394"
				v:shadowOffsetY="-8.50394"/>
		<g id="shape3-1" v:mID="3" v:groupContext="shape" transform="translate(3,-3)">
			<title>Лист.3</title>
			<path d="M96.73 96.45 L96.73 50.2 L96.73 30.96 A60.9945 63.4252 -180 0 0 0 30.61 L0 49.29 L0 97.35 L0 108.24 A60.9945
						 63.4252 -180 0 0 23.39 127.35 L23.39 125.25 L23.39 63.31 A40.748 14.9457 0 0 1 7.09 51.35 A40.748 14.9457
						 0 0 1 88.58 51.35 A40.748 14.9457 0 0 1 72.99 63.11 L72.99 125.25 L72.99 127.39 A60.9945 63.4252 -180 0
						 0 96.73 107.9 L96.73 96.45 Z" class="st1"/>
		</g>
	</g>
</svg>
