<?xml version="1.0" encoding="UTF-8" standalone="no"?>
<!DOCTYPE svg PUBLIC "-//W3C//DTD SVG 1.0//EN" "http://www.w3.org/TR/2001/REC-SVG-20010904/DTD/svg10.dtd">
<!-- Создано Microsoft Visio 11.0, Экспорт SVG, версия 1.0 blight.svg Страница-1 -->
<svg xmlns="http://www.w3.org/2000/svg" xmlns:xlink="http://www.w3.org/1999/xlink" xmlns:ev="http://www.w3.org/2001/xml-events"
		xmlns:v="http://schemas.microsoft.com/visio/2003/SVGExtensions/" width="1.12956in" height="1.26652in"
		viewBox="0 0 81.328 91.1891" xml:space="preserve" color-interpolation-filters="sRGB" class="st2">
	<v:documentProperties v:langID="1033" v:metric="true" v:viewMarkup="false"/>

	<style type="text/css">
	<![CDATA[
		.st1 {fill:url(#grad37-4);stroke:#000000;stroke-linecap:round;stroke-linejoin:round;stroke-width:0.24}
		.st2 {fill:none;fill-rule:evenodd;font-size:12;overflow:visible;stroke-linecap:square;stroke-miterlimit:3}
	]]>
	</style>

	<defs id="Patterns_And_Gradients">
		<radialGradient id="grad37-4" v:fillPattern="37" v:foreground="#b9ae53" v:background="#50632a" cx="1" cy="0" r="1">
			<stop offset="0" style="stop-color:#b9ae53;stop-opacity:1"/>
			<stop offset="1" style="stop-color:#50632a;stop-opacity:1"/>
		</radialGradient>
	</defs>
	<g v:mID="0" v:index="1" v:groupContext="foregroundPage">
		<title>Страница-1</title>
		<v:pageProperties v:drawingScale="0.0393701" v:pageScale="0.0393701" v:drawingUnits="24" v:shadowOffsetX="8.50394"
				v:shadowOffsetY="-8.50394"/>
		<g id="shape2-1" v:mID="2" v:groupContext="shape" transform="translate(27.5686,-63.1505)">
			<title>Лист.2</title>
			<path d="M20.21 91.17 L19.08 91.17 C14.55 90.63 12.09 86.97 12.98 82.95 C13.47 80.78 14.93 78.51 14.69 77 C14.27 74.39
						 8.82 74.02 4.62 71.89 C1.78 70.45 -0.48 68.2 0.09 66.23 C0.51 64.75 2.51 63.43 4.34 63.39 C7.47 63.33 10.11
						 67.02 13.13 67.93 C15.93 68.76 19.06 67.19 22.48 66.22 C26.15 65.19 30.16 64.86 32.83 67.08 C34.53 68.49
						 35.68 70.93 34.53 72.46 C33.69 73.57 31.64 74.21 30.99 75.01 C29.79 76.48 33.17 78.5 36.37 78.98 C40.3 79.56
						 43.95 77.81 47 79.26 C48.83 80.14 50.44 82.17 50.4 83.52 C50.33 86.5 42.2 86.13 36.65 85.5 C33.2 85.11 30.74
						 84.62 27.73 83.8 C25.97 83.33 24.02 82.74 22.62 83.23 C21.16 83.75 20.29 85.45 20.78 87.2 C21.4 89.42 24.2
						 91.74 20.21 91.17 Z" class="st1"/>
		</g>
		<g id="shape3-5" v:mID="3" v:groupContext="shape" transform="translate(3.55062,-48.8245)">
			<title>Лист.3</title>
			<path d="M4.55 91.02 C12.91 91.84 20.28 89.92 21.27 82.51 C21.65 79.73 21.12 76.16 22.69 74.86 C23.61 74.1 25.26 74.11
						 26.66 73.44 C29.41 72.12 31.21 68.15 30.2 66.36 C29.13 64.46 24.91 65.01 21.55 64.65 C17.85 64.26 15.18
						 62.76 11.35 62.39 C8.57 62.11 5.17 62.43 4.26 63.52 C3.16 64.85 5.75 67.33 7.95 70.04 C9.66 72.15 11.13
						 74.4 10.5 75.71 C9.72 77.33 5.73 77.53 2.99 79.11 C1.14 80.18 -0.13 81.87 0.01 83.36 C0.11 84.43 0.93 85.38
						 1.29 86.48 C2.02 88.76 0.72 91.64 4.55 91.02 Z" class="st1"/>
		</g>
		<g id="shape4-8" v:mID="4" v:groupContext="shape" transform="translate(0.24,-0.24)">
			<title>Лист.4</title>
			<path d="M75.32 70.78 C74.97 71.38 75.49 71.62 75.75 71.91 C76.17 72.4 75.87 73.05 75.43 73.47 C74.39 74.47 72.56 74.18
						 71.21 73.47 C69.08 72.34 68.18 70.15 67.24 68.09 C66.69 66.88 66.13 65.71 65.91 64.26 C65.72 62.96 65.81
						 61.44 66.11 61.42 C66.46 61.41 67.11 63.5 68.01 64.97 C70.1 68.38 73.54 68.4 75.32 70.78 ZM2.19 50.94 C2.53
						 52.06 0.43 52.58 0.06 53.49 C-0.32 54.43 1.17 55.78 1.62 57.17 C2.16 58.82 1.23 60.52 1.05 62.28 C0.78 64.91
						 2.19 67.65 4.46 69.36 C7.05 71.32 10.76 71.91 13.81 71.06 C17.19 70.12 19.75 67.41 22.74 67.38 C25.03 67.35
						 27.58 68.92 28.27 71.35 C28.93 73.69 27.86 76.84 27.98 79.57 C28.18 84.23 31.85 87.68 35.64 89.77 C36.99
						 90.52 38.35 91.09 39.89 91.19 C42.85 91.37 46.45 89.76 48.82 87.79 C50.64 86.27 51.74 84.54 52.22 82.4 C52.74
						 80.07 52.54 77.26 53.78 75.88 C55.69 73.76 61.02 75.06 65.26 76.45 C68.71 77.58 71.43 78.78 74.47 78.43
						 C77.15 78.13 80.07 76.62 80.71 74.46 C81.38 72.19 79.52 69.19 77.16 66.81 C75.13 64.76 72.72 63.16 72.2
						 61.14 C71.65 58.98 73.27 56.32 75.04 54.34 C76.1 53.15 77.21 52.2 77.73 50.94 C78.75 48.46 77.54 44.78 75.46
						 42.15 C73.44 39.58 70.6 38.03 69.09 35.35 C67.82 33.12 67.47 30.11 65.68 28.83 C64.03 27.64 61.15 27.93
						 58.88 28.83 C56.05 29.95 54.17 32.02 51.65 33.36 C48.47 35.06 44.25 35.57 40.74 33.93 C38.43 32.85 36.42
						 30.83 34.5 30.53 C31.92 30.13 29.49 32.84 27.98 35.91 C26.05 39.86 25.64 44.41 22.6 46.4 C19.65 48.32 14.24
						 47.85 9.56 47.82 C6.36 47.8 3.49 47.98 2.19 50.94 ZM29.97 56.61 C32.28 56.29 33.32 54.49 33.79 52.35 C34.17
						 50.67 34.19 48.77 35.13 47.68 C35.75 46.95 36.78 46.57 37.76 46.68 C40.04 46.94 42.07 49.81 44.2 49.94 C45.75
						 50.04 47.35 48.68 48.9 47.82 C49.99 47.22 51.05 46.86 52.3 46.69 C54.1 46.43 56.29 46.54 57.41 48.1 C57.96
						 48.88 58.25 50.01 58.03 50.79 C57.57 52.42 54.89 52.54 53.44 53.49 C51.44 54.8 51.77 57.7 51.62 60.57 C51.54
						 62.14 51.32 63.7 50.26 63.98 C49.78 64.1 49.12 63.96 48.53 63.69 C46.9 62.96 45.89 61.29 44.42 60.29 C43.26
						 59.5 41.82 59.12 40.4 59.16 C38.94 59.19 37.5 59.66 36.09 59.72 C34.88 59.78 33.7 59.53 32.46 59.16 C30.99
						 58.71 29.46 58.08 29.97 56.61 Z" class="st1"/>
		</g>
	</g>
</svg>
