<?xml version="1.0" encoding="UTF-8" standalone="no"?>
<!DOCTYPE svg PUBLIC "-//W3C//DTD SVG 1.0//EN" "http://www.w3.org/TR/2001/REC-SVG-20010904/DTD/svg10.dtd">
<!-- Создано Microsoft Visio 11.0, Экспорт SVG, версия 1.0 burning-color.svg Страница-1 -->
<svg xmlns="http://www.w3.org/2000/svg" xmlns:xlink="http://www.w3.org/1999/xlink" xmlns:ev="http://www.w3.org/2001/xml-events"
		xmlns:v="http://schemas.microsoft.com/visio/2003/SVGExtensions/" width="1.3519in" height="1.75755in"
		viewBox="0 0 97.3369 126.544" xml:space="preserve" color-interpolation-filters="sRGB" class="st3">
	<v:documentProperties v:langID="1033" v:metric="true" v:viewMarkup="false"/>

	<style type="text/css">
	<![CDATA[
		.st1 {fill:url(#grad32-4);stroke:#c00000;stroke-linecap:round;stroke-linejoin:round;stroke-width:3}
		.st2 {fill:url(#grad37-10);stroke:none;stroke-linecap:round;stroke-linejoin:round;stroke-width:1.5}
		.st3 {fill:none;fill-rule:evenodd;font-size:12;overflow:visible;stroke-linecap:square;stroke-miterlimit:3}
	]]>
	</style>

	<defs id="Patterns_And_Gradients">
		<pattern id="grad32-4" v:fillPattern="32" v:foreground="#ffce3c" v:background="#cc5200" x="0" y="0" width="1" height="1"
				patternContentUnits="objectBoundingBox">
			<path d="M 0 1 L 0 0 L 1 0 z" style="fill:url(#grad27-5)"/>
			<path d="M 0 1 L 1 1 L 1 0 z" style="fill:url(#grad28-6)"/>
		</pattern>
		<linearGradient id="grad27-5" v:fillPattern="32" v:foreground="#ffce3c" v:background="#cc5200" x1="1" y1="0" x2="0" y2="0">
			<stop offset="0" style="stop-color:#ffce3c;stop-opacity:1"/>
			<stop offset="1" style="stop-color:#cc5200;stop-opacity:1"/>
		</linearGradient>
		<linearGradient id="grad28-6" v:fillPattern="32" v:foreground="#ffce3c" v:background="#cc5200" x1="0" y1="0" x2="0" y2="1">
			<stop offset="0" style="stop-color:#ffce3c;stop-opacity:1"/>
			<stop offset="1" style="stop-color:#cc5200;stop-opacity:1"/>
		</linearGradient>
		<radialGradient id="grad37-10" v:fillPattern="37" v:foreground="#ffff00" v:background="#e18013" cx="1" cy="0" r="1">
			<stop offset="0" style="stop-color:#ffff00;stop-opacity:1"/>
			<stop offset="1" style="stop-color:#e18013;stop-opacity:1"/>
		</radialGradient>
	</defs>
	<g v:mID="0" v:index="1" v:groupContext="foregroundPage">
		<title>Страница-1</title>
		<v:pageProperties v:drawingScale="0.0393701" v:pageScale="0.0393701" v:drawingUnits="24" v:shadowOffsetX="8.50394"
				v:shadowOffsetY="-8.50394"/>
		<g id="shape3-1" v:mID="3" v:groupContext="shape" transform="translate(3,-3)">
			<title>Лист.3</title>
			<path d="M15.59 112.3 C29.76 131.29 53.86 130.72 80.79 115.13 C89.63 102.38 89.29 105.21 88.89 90.28 C89.63 89.06 86.79
						 85.94 87.36 80.55 C93.54 66.94 92.13 60.99 85.8 46.05 C86.46 58.44 77.95 56.46 75.17 71.2 C42.29 38.6 82.54
						 45.69 43.99 6 C51.36 48.52 30.1 31.51 26.93 62.69 C24.16 66.94 21.6 64.11 16.94 58.05 C14.17 49.94 19.9
						 55.61 3.17 34.35 C7.42 66.94 -11 58.72 11.17 89.08 C8.84 100.96 9.05 100.42 15.59 112.3 Z" class="st1"/>
		</g>
		<g id="shape4-7" v:mID="4" v:groupContext="shape" transform="translate(10.1213,-6.82134)">
			<title>Лист.4</title>
			<path d="M13.29 114.43 C25.35 130.58 45.84 130.1 68.75 116.84 C71.74 111.87 75.99 108.4 75.65 95.69 C74.58 92.59 73.86
						 92 74.35 87.42 C79.61 75.84 78.4 70.78 79.11 63.11 C73.58 68.61 73.16 80.69 63.98 79.46 C41.98 59.43 50.77
						 46.1 51.9 37.6 C45.1 46.1 29.79 40.44 26.39 60.28 C26.39 70.77 20.72 73.6 15.05 77.85 C6.55 77.85 10.8 65.1
						 2.29 55.18 C6.34 75.84 -9.33 68.85 9.53 94.68 C7.55 104.78 7.72 104.32 13.29 114.43 Z" class="st2"/>
		</g>
	</g>
</svg>
