<?xml version="1.0" encoding="UTF-8" standalone="no"?>
<!DOCTYPE svg PUBLIC "-//W3C//DTD SVG 1.0//EN" "http://www.w3.org/TR/2001/REC-SVG-20010904/DTD/svg10.dtd">
<!-- Создано Microsoft Visio 11.0, Экспорт SVG, версия 1.0 defensive.svg Страница-1 -->
<svg xmlns="http://www.w3.org/2000/svg" xmlns:xlink="http://www.w3.org/1999/xlink" xmlns:ev="http://www.w3.org/2001/xml-events"
		xmlns:v="http://schemas.microsoft.com/visio/2003/SVGExtensions/" width="1.60367in" height="1.74147in"
		viewBox="0 0 115.465 125.386" xml:space="preserve" color-interpolation-filters="sRGB" class="st3">
	<v:documentProperties v:langID="1033" v:metric="true" v:viewMarkup="false"/>

	<style type="text/css">
	<![CDATA[
		.st1 {fill:none;stroke:#510000;stroke-linecap:round;stroke-linejoin:round;stroke-width:6}
		.st2 {fill:none;stroke:#510000;stroke-linecap:round;stroke-linejoin:round;stroke-width:1.5}
		.st3 {fill:none;fill-rule:evenodd;font-size:12;overflow:visible;stroke-linecap:square;stroke-miterlimit:3}
	]]>
	</style>

	<g v:mID="0" v:index="1" v:groupContext="foregroundPage">
		<title>Страница-1</title>
		<v:pageProperties v:drawingScale="0.0393701" v:pageScale="0.0393701" v:drawingUnits="24" v:shadowOffsetX="8.50394"
				v:shadowOffsetY="-8.50394"/>
		<g id="shape3-1" v:mID="3" v:groupContext="shape" transform="translate(6,-6)">
			<title>Лист.3</title>
			<path d="M51.73 125.39 A205.732 103.411 -90 0 0 103.46 22.47 A51.7323 10.4664 0 0 0 51.73 12 A51.7323 10.4664 -180 0
						 0 0 22.47 A205.732 103.411 -90 0 0 51.73 125.39 Z" class="st1"/>
		</g>
		<g id="shape4-3" v:mID="4" v:groupContext="shape" transform="translate(14.7874,-17.622)">
			<title>Лист.4</title>
			<path d="M43.01 125.39 A171.04 85.9727 -90 0 0 86.02 39.82 A43.0087 8.70144 0 0 0 43.01 31.12 A43.0087 8.70144 -180 0
						 0 -0 39.82 A171.04 85.9727 -90 0 0 43.01 125.39 Z" class="st2"/>
		</g>
	</g>
</svg>
