<?xml version="1.0" encoding="UTF-8" standalone="no"?>
<!DOCTYPE svg PUBLIC "-//W3C//DTD SVG 1.0//EN" "http://www.w3.org/TR/2001/REC-SVG-20010904/DTD/svg10.dtd">
<!-- Создано Microsoft Visio 11.0, Экспорт SVG, версия 1.0 fast.svg Страница-1 -->
<svg xmlns="http://www.w3.org/2000/svg" xmlns:xlink="http://www.w3.org/1999/xlink" xmlns:ev="http://www.w3.org/2001/xml-events"
		xmlns:v="http://schemas.microsoft.com/visio/2003/SVGExtensions/" width="1.2556in" height="0.920418in"
		viewBox="0 0 90.4033 66.2701" xml:space="preserve" color-interpolation-filters="sRGB" class="st4">
	<v:documentProperties v:langID="1033" v:metric="true" v:viewMarkup="false"/>

	<style type="text/css">
	<![CDATA[
		.st1 {fill:none;stroke:#510000;stroke-linecap:round;stroke-linejoin:round;stroke-width:3}
		.st2 {stroke:#510000;stroke-linecap:round;stroke-linejoin:round;stroke-width:1.5}
		.st3 {fill:#510000;stroke:none;stroke-linecap:round;stroke-linejoin:round;stroke-width:0.24}
		.st4 {fill:none;fill-rule:evenodd;font-size:12;overflow:visible;stroke-linecap:square;stroke-miterlimit:3}
	]]>
	</style>

	<g v:mID="0" v:index="1" v:groupContext="foregroundPage">
		<title>Страница-1</title>
		<v:pageProperties v:drawingScale="0.0393701" v:pageScale="0.0393701" v:drawingUnits="24" v:shadowOffsetX="8.50394"
				v:shadowOffsetY="-8.50394"/>
		<g id="shape2-1" v:mID="2" v:groupContext="shape" transform="translate(23.1109,-3)">
			<title>Лист.2</title>
			<path d="M0.48 59.74 C5.25 60.99 9.24 48.68 18.71 44.63 C29.1 40.19 46.08 45.69 53.85 64.43 C56.19 68.73 62.02 64.82
						 58.81 59.74 C61.44 65.21 66.39 57 59.83 53.62 C58.77 51.35 57.71 50.79 55.6 47.1 C72.52 44.27 60.89 25.84
						 52.98 28.47 C52.98 18.7 50.79 11.86 42.77 6 C42.77 12.84 43.31 18.75 47.15 27.49 C41.6 14.4 39.85 10.89
						 34.31 6 C33.29 16.75 37.67 23.59 41.6 28.47 C22.81 21.59 19.64 27.83 13.29 35.76 C10.12 32.93 8.64 34.35
						 5.89 29.24 C3.77 37.18 3.14 40.58 8 41.43 C1.45 48.52 -0.67 52.49 0.18 59.29 L0.6 59.86 L0.6 59.86 C-0.25
						 54.19 0.18 52.49 0.48 59.74 Z" class="st1"/>
		</g>
		<g id="shape3-3" v:mID="3" v:groupContext="shape" transform="translate(43.1723,87.6953) rotate(180)">
			<title>Лист.3</title>
			<path d="M0 66.27 L35.33 66.27" class="st2"/>
		</g>
		<g id="shape4-6" v:mID="4" v:groupContext="shape" transform="translate(78.7102,-33.5063)">
			<title>Круг.251</title>
			<v:userDefs>
				<v:ud v:nameU="visVersion" v:val="VT0(14):26"/>
			</v:userDefs>
			<path d="M0 64.85 A1.05767 1.41732 0 0 1 2.12 64.85 A1.05767 1.41732 0 0 1 0 64.85 Z" class="st3"/>
		</g>
		<g id="shape5-8" v:mID="5" v:groupContext="shape" transform="translate(51.6337,80.6087) rotate(180)">
			<title>Лист.5</title>
			<path d="M0 66.27 L33.21 66.27" class="st2"/>
		</g>
		<g id="shape6-11" v:mID="6" v:groupContext="shape" transform="translate(53.7491,72.1048) rotate(180)">
			<title>Лист.6</title>
			<path d="M0 66.27 L20.52 66.27" class="st2"/>
		</g>
		<g id="shape7-14" v:mID="7" v:groupContext="shape" transform="translate(21.5958,98.013) rotate(180)">
			<title>Лист.7</title>
			<path d="M0 66.27 L20.1 66.27" class="st2"/>
		</g>
		<g id="shape8-17" v:mID="8" v:groupContext="shape" transform="translate(17.3651,120.294) rotate(180)">
			<title>Лист.8</title>
			<path d="M0 66.27 L8.46 66.27" class="st2"/>
		</g>
		<g id="shape9-20" v:mID="9" v:groupContext="shape" transform="translate(18.4228,108.955) rotate(180)">
			<title>Лист.9</title>
			<path d="M0 66.27 L13.75 66.27" class="st2"/>
		</g>
		<g id="shape10-23" v:mID="10" v:groupContext="shape" transform="translate(83.1524,101.869) scale(1,-1)">
			<title>Треугольник.128</title>
			<v:userDefs>
				<v:ud v:nameU="visVersion" v:val="VT0(14):26"/>
			</v:userDefs>
			<path d="M2.05 66.27 L0.95 63.84 L-0.15 66.27 L2.05 66.27 Z" class="st3"/>
		</g>
	</g>
</svg>
