<?xml version="1.0" encoding="UTF-8" standalone="no"?>
<!DOCTYPE svg PUBLIC "-//W3C//DTD SVG 1.0//EN" "http://www.w3.org/TR/2001/REC-SVG-20010904/DTD/svg10.dtd">
<!-- Создано Microsoft Visio 11.0, Экспорт SVG, версия 1.0 paralyzed.svg Страница-1 -->
<svg xmlns="http://www.w3.org/2000/svg" xmlns:xlink="http://www.w3.org/1999/xlink" xmlns:ev="http://www.w3.org/2001/xml-events"
		xmlns:v="http://schemas.microsoft.com/visio/2003/SVGExtensions/" width="0.585302in" height="1.63353in"
		viewBox="0 0 42.1417 117.614" xml:space="preserve" color-interpolation-filters="sRGB" class="st2">
	<v:documentProperties v:langID="1033" v:metric="true" v:viewMarkup="false"/>

	<style type="text/css">
	<![CDATA[
		.st1 {fill:none;stroke:#510000;stroke-linecap:round;stroke-linejoin:round;stroke-width:3}
		.st2 {fill:none;fill-rule:evenodd;font-size:12;overflow:visible;stroke-linecap:square;stroke-miterlimit:3}
	]]>
	</style>

	<g v:mID="0" v:index="1" v:groupContext="foregroundPage">
		<title>Страница-1</title>
		<v:pageProperties v:drawingScale="0.0393701" v:pageScale="0.0393701" v:drawingUnits="24" v:shadowOffsetX="8.50394"
				v:shadowOffsetY="-8.50394"/>
		<g id="shape3-1" v:mID="3" v:groupContext="shape" transform="translate(4.77165,-82.0157)">
			<title>Круг</title>
			<v:userDefs>
				<v:ud v:nameU="visVersion" v:val="VT0(14):26"/>
			</v:userDefs>
			<path d="M0 101.31 A16.2992 16.2992 0 0 1 32.6 101.31 A16.2992 16.2992 0 1 1 0 101.31 Z" class="st1"/>
		</g>
		<g id="shape4-3" v:mID="4" v:groupContext="shape" transform="translate(3,-43.0394)">
			<title>Лист.4</title>
			<path d="M32.9 117.61 A165.872 36.123 -90 0 0 36.14 91.33 A18.0709 8.43852 -180 0 0 18.07 82.89 A18.0709 8.43852 -180
						 0 0 -0 91.33 A165.872 36.123 -90 0 0 3.24 117.61 L32.9 117.61 Z" class="st1"/>
		</g>
		<g id="shape6-5" v:mID="6" v:groupContext="shape" transform="translate(6.67736,-20.7165)">
			<title>Лист.6</title>
			<path d="M25.71 117.61 A165.872 36.123 -90 0 0 28.79 100.61 L0 100.61 A165.872 36.123 -90 0 0 3.08 117.61 L25.71 117.61
						 Z" class="st1"/>
		</g>
		<g id="shape7-7" v:mID="7" v:groupContext="shape" transform="translate(10.3601,-3)">
			<title>Лист.7</title>
			<path d="M18.31 117.61 A165.872 36.123 -90 0 0 21.42 104.86 L0 104.86 A165.872 36.123 -90 0 0 3.11 117.61 L18.31 117.61
						 Z" class="st1"/>
		</g>
	</g>
</svg>
