<?xml version="1.0" encoding="UTF-8" standalone="no"?>
<!DOCTYPE svg PUBLIC "-//W3C//DTD SVG 1.0//EN" "http://www.w3.org/TR/2001/REC-SVG-20010904/DTD/svg10.dtd">
<!-- Создано Microsoft Visio 11.0, Экспорт SVG, версия 1.0 poison.svg Страница-1 -->
<svg xmlns="http://www.w3.org/2000/svg" xmlns:xlink="http://www.w3.org/1999/xlink" xmlns:ev="http://www.w3.org/2001/xml-events"
		xmlns:v="http://schemas.microsoft.com/visio/2003/SVGExtensions/" width="1.26444in" height="1.75656in"
		viewBox="0 0 91.0394 126.472" xml:space="preserve" color-interpolation-filters="sRGB" class="st4">
	<v:documentProperties v:langID="1033" v:metric="true" v:viewMarkup="false"/>

	<style type="text/css">
	<![CDATA[
		.st1 {fill:none;stroke:#510000;stroke-linecap:round;stroke-linejoin:round;stroke-width:3}
		.st2 {fill:#510000;stroke:#510000;stroke-linecap:round;stroke-linejoin:round;stroke-width:0.24}
		.st3 {fill:#510000;stroke:#510000;stroke-linecap:round;stroke-linejoin:round;stroke-width:0.25}
		.st4 {fill:none;fill-rule:evenodd;font-size:12;overflow:visible;stroke-linecap:square;stroke-miterlimit:3}
	]]>
	</style>

	<g v:mID="0" v:index="1" v:groupContext="foregroundPage">
		<title>Страница-1</title>
		<v:pageProperties v:drawingScale="0.0393701" v:pageScale="0.0393701" v:drawingUnits="24" v:shadowOffsetX="8.50394"
				v:shadowOffsetY="-8.50394"/>
		<v:layer v:name="Соединительная линия" v:index="0"/>
		<v:layer v:name="Блок-схема" v:index="1"/>
		<g id="shape3-1" v:mID="3" v:groupContext="shape" transform="translate(25.6772,-109.299)">
			<title>Лист.3</title>
			<path d="M34.02 126.47 L41.1 126.47 L41.1 112.3 L0 112.3 L0 126.47 L7.09 126.47 L34.02 126.47 Z" class="st1"/>
		</g>
		<g id="shape4-3" v:mID="4" v:groupContext="shape" transform="translate(3,-3)">
			<title>Лист.4</title>
			<path d="M56.69 43.86 L56.69 20.17 L29.76 20.17 L29.76 43.39 A42.5197 42.5197 -180 0 0 0 83.95 A42.5197 42.5197 -180
						 0 0 85.04 83.95 A42.5197 42.5197 -180 0 0 56.69 43.86 Z" class="st1"/>
		</g>
		<g id="shape5-5" v:mID="5" v:groupContext="shape" transform="translate(8.66929,-8.18815)">
			<title>Лист.5</title>
			<path d="M72.78 81.45 C42.78 92.65 44.41 55.29 1.18 80.35 A36.8504 36.8504 -180 0 0 0 89.62 A36.8504 36.8504 -180 0 0
						 73.7 89.62 A36.8504 36.8504 -180 0 0 72.78 81.45 Z" class="st2"/>
		</g>
		<g id="shape6-7" v:mID="6" v:groupContext="shape" v:layerMember="0;1" transform="translate(36.874,-93.8504)">
			<title>Ссылка на текущую страницу.6</title>
			<v:userDefs>
				<v:ud v:nameU="visVersion" v:prompt="" v:val="VT0(14):26"/>
			</v:userDefs>
			<path d="M0 120.66 A5.81102 5.81102 0 1 1 11.62 120.66 A5.81102 5.81102 0 1 1 -0 120.66 Z" class="st3"/>
		</g>
		<g id="shape7-9" v:mID="7" v:groupContext="shape" v:layerMember="0;1" transform="translate(45.5197,-78.1181)">
			<title>Ссылка на текущую страницу.7</title>
			<v:userDefs>
				<v:ud v:nameU="visVersion" v:prompt="" v:val="VT0(14):26"/>
			</v:userDefs>
			<path d="M0 121.37 A5.10236 5.10236 0 0 1 10.2 121.37 A5.10236 5.10236 0 1 1 0 121.37 Z" class="st3"/>
		</g>
		<g id="shape8-11" v:mID="8" v:groupContext="shape" v:layerMember="0;1" transform="translate(30.4961,-70.4646)">
			<title>Ссылка на текущую страницу.116</title>
			<v:userDefs>
				<v:ud v:nameU="visVersion" v:prompt="" v:val="VT0(14):26"/>
			</v:userDefs>
			<path d="M0 122.79 A3.68504 3.68504 0 1 1 7.37 122.79 A3.68504 3.68504 0 0 1 -0 122.79 Z" class="st3"/>
		</g>
		<g id="shape9-13" v:mID="9" v:groupContext="shape" v:layerMember="0;1" transform="translate(71.0315,-55.4409)">
			<title>Ссылка на текущую страницу.141</title>
			<v:userDefs>
				<v:ud v:nameU="visVersion" v:prompt="" v:val="VT0(14):26"/>
			</v:userDefs>
			<path d="M0 125.06 A1.41732 1.41732 0 0 1 2.83 125.06 A1.41732 1.41732 0 1 1 -0 125.06 Z" class="st3"/>
		</g>
		<g id="shape10-15" v:mID="10" v:groupContext="shape" v:layerMember="0;1" transform="translate(59.6929,-62.811)">
			<title>Ссылка на текущую страницу.142</title>
			<v:userDefs>
				<v:ud v:nameU="visVersion" v:prompt="" v:val="VT0(14):26"/>
			</v:userDefs>
			<path d="M0 123.92 A2.55118 2.55118 0 0 1 5.1 123.92 A2.55118 2.55118 0 1 1 0 123.92 Z" class="st3"/>
		</g>
		<g id="shape11-17" v:mID="11" v:groupContext="shape" v:layerMember="0;1" transform="translate(17.1732,-61.9606)">
			<title>Ссылка на текущую страницу.143</title>
			<v:userDefs>
				<v:ud v:nameU="visVersion" v:prompt="" v:val="VT0(14):26"/>
			</v:userDefs>
			<path d="M0 124.91 A1.55906 1.55906 0 0 1 3.12 124.91 A1.55906 1.55906 0 1 1 0 124.91 Z" class="st3"/>
		</g>
		<g id="shape12-19" v:mID="12" v:groupContext="shape" v:layerMember="0;1" transform="translate(45.5197,-64.6677)">
			<title>Ссылка на текущую страницу.144</title>
			<v:userDefs>
				<v:ud v:nameU="visVersion" v:prompt="" v:val="VT0(14):26"/>
			</v:userDefs>
			<path d="M0 124.36 A2.11181 2.11181 0 0 1 4.22 124.36 A2.11181 2.11181 0 1 1 0 124.36 Z" class="st3"/>
		</g>
	</g>
</svg>
