<?xml version="1.0" encoding="UTF-8" standalone="no"?>
<!DOCTYPE svg PUBLIC "-//W3C//DTD SVG 1.0//EN" "http://www.w3.org/TR/2001/REC-SVG-20010904/DTD/svg10.dtd">
<!-- Создано Microsoft Visio 11.0, Экспорт SVG, версия 1.0 redtape.svg Страница-1 -->
<svg xmlns="http://www.w3.org/2000/svg" xmlns:xlink="http://www.w3.org/1999/xlink" xmlns:ev="http://www.w3.org/2001/xml-events"
		xmlns:v="http://schemas.microsoft.com/visio/2003/SVGExtensions/" width="1.18777in" height="0.596713in"
		viewBox="0 0 85.5194 42.9633" xml:space="preserve" color-interpolation-filters="sRGB" class="st2">
	<v:documentProperties v:langID="1033" v:metric="true" v:viewMarkup="false"/>

	<style type="text/css">
	<![CDATA[
		.st1 {fill:url(#grad37-4);stroke:#0f233e;stroke-linecap:round;stroke-linejoin:round;stroke-width:0.24}
		.st2 {fill:none;fill-rule:evenodd;font-size:12;overflow:visible;stroke-linecap:square;stroke-miterlimit:3}
	]]>
	</style>

	<defs id="Patterns_And_Gradients">
		<radialGradient id="grad37-4" v:fillPattern="37" v:foreground="#fb0000" v:background="#c00000" cx="1" cy="0" r="1">
			<stop offset="0" style="stop-color:#fb0000;stop-opacity:1"/>
			<stop offset="1" style="stop-color:#c00000;stop-opacity:1"/>
		</radialGradient>
	</defs>
	<g v:mID="0" v:index="1" v:groupContext="foregroundPage">
		<title>Страница-1</title>
		<v:pageProperties v:drawingScale="0.0393701" v:pageScale="0.0393701" v:drawingUnits="24" v:shadowOffsetX="8.50394"
				v:shadowOffsetY="-8.50394"/>
		<g id="shape1-1" v:mID="1" v:groupContext="shape" transform="translate(0.319496,-22.9999)">
			<title>Лист.1</title>
			<path d="M0 23.24 L0 32.04 L40.75 42.96 L57.18 38.56 L0 23.24 Z" class="st1"/>
		</g>
		<g id="shape2-5" v:mID="2" v:groupContext="shape" transform="translate(57.1766,-11.5109)">
			<title>Лист.2</title>
			<path d="M27.86 34.16 L16.43 31.1 L0 35.5 L27.86 42.96 L27.86 34.16 Z" class="st1"/>
		</g>
		<g id="shape3-8" v:mID="3" v:groupContext="shape" transform="translate(0.24,-3.65283)">
			<title>Лист.3</title>
			<path d="M85.04 20.18 L85.04 11.37 L57.18 18.84 L40.75 23.24 L0 34.16 L0 42.96 L57.18 27.64 L73.61 23.24 L85.04 20.18
						 Z" class="st1"/>
		</g>
		<g id="shape4-11" v:mID="4" v:groupContext="shape" transform="translate(0.24,-0.24)">
			<title>Лист.4</title>
			<path d="M85.04 34.32 L0 30.82 L0 39.45 L85.04 42.96 L85.04 34.32 Z" class="st1"/>
		</g>
	</g>
</svg>
