<?xml version="1.0" encoding="UTF-8" standalone="no"?>
<!DOCTYPE svg PUBLIC "-//W3C//DTD SVG 1.0//EN" "http://www.w3.org/TR/2001/REC-SVG-20010904/DTD/svg10.dtd">
<!-- Создано Microsoft Visio 11.0, Экспорт SVG, версия 1.0 slow.svg Страница-1 -->
<svg xmlns="http://www.w3.org/2000/svg" xmlns:xlink="http://www.w3.org/1999/xlink" xmlns:ev="http://www.w3.org/2001/xml-events"
		xmlns:v="http://schemas.microsoft.com/visio/2003/SVGExtensions/" width="1.31396in" height="1.26072in"
		viewBox="0 0 94.6051 90.7721" xml:space="preserve" color-interpolation-filters="sRGB" class="st4">
	<v:documentProperties v:langID="1033" v:metric="true" v:viewMarkup="false"/>

	<style type="text/css">
	<![CDATA[
		.st1 {fill:none;stroke:#510000;stroke-linecap:round;stroke-linejoin:round;stroke-width:3}
		.st2 {stroke:#510000;stroke-linecap:round;stroke-linejoin:round;stroke-width:3}
		.st3 {fill:#510000;stroke:#510000;stroke-linecap:round;stroke-linejoin:round;stroke-width:3}
		.st4 {fill:none;fill-rule:evenodd;font-size:12;overflow:visible;stroke-linecap:square;stroke-miterlimit:3}
	]]>
	</style>

	<g v:mID="0" v:index="1" v:groupContext="foregroundPage">
		<title>Страница-1</title>
		<v:pageProperties v:drawingScale="0.0393701" v:pageScale="0.0393701" v:drawingUnits="24" v:shadowOffsetX="8.50394"
				v:shadowOffsetY="-8.50394"/>
		<g id="shape3-1" v:mID="3" v:groupContext="shape" transform="translate(17.4744,-3)">
			<title>Лист.3</title>
			<path d="M0 90.11 C20.69 90.11 67.23 99.82 58.61 46.67 C84.47 33.73 51.72 6 44.82 42.97 C41.38 80.87 25.86 77.63 0 90.11
						 Z" class="st1"/>
		</g>
		<g id="shape4-3" v:mID="4" v:groupContext="shape" transform="translate(166.84,19.1154) rotate(98.7475)">
			<title>Лист.4</title>
			<path d="M0 90.77 L16.52 90.77" class="st2"/>
		</g>
		<g id="shape5-6" v:mID="5" v:groupContext="shape" transform="translate(75.3998,-83.1506)">
			<title>Круг</title>
			<v:userDefs>
				<v:ud v:nameU="visVersion" v:val="VT0(14):26"/>
			</v:userDefs>
			<path d="M0 88.46 A1.72397 2.31073 0 0 1 3.45 88.46 A1.72397 2.31073 0 1 1 0 88.46 Z" class="st3"/>
		</g>
		<g id="shape6-8" v:mID="6" v:groupContext="shape" transform="translate(170.847,48.6587) rotate(116.878)">
			<title>Лист.6</title>
			<path d="M0 90.77 L17.68 90.77" class="st2"/>
		</g>
		<g id="shape7-11" v:mID="7" v:groupContext="shape" transform="translate(88.1571,-80.8399)">
			<title>Круг.49</title>
			<v:userDefs>
				<v:ud v:nameU="visVersion" v:val="VT0(14):26"/>
			</v:userDefs>
			<path d="M0 88.46 A1.72397 2.31073 0 0 1 3.45 88.46 A1.72397 2.31073 0 1 1 0 88.46 Z" class="st3"/>
		</g>
		<g id="shape8-13" v:mID="8" v:groupContext="shape" transform="translate(-32.5142,70.5822) rotate(-83.9163)">
			<title>Лист.8</title>
			<path d="M0 71.77 C0.63 60.29 4.55 48.5 12.93 41.1 C23.06 32.15 39.72 29.63 52.45 37.09 C59.53 41.23 65.39 48.46 67.36
						 56.13 C70.31 67.61 64.51 80.06 55.79 86.1 C49.78 90.26 42.39 91.37 34.73 90.52 C25.81 89.53 16.53 85.87
						 13.43 77.05 C11.49 71.52 11.98 63.95 14.7 58.23 C18.58 50.04 27.04 45.62 35.68 45.51 C41.11 45.44 46.62
						 47.07 50.34 50.57 C56.24 56.11 57.65 66.34 54.42 73.47 C50.75 81.59 41.06 85.69 32.46 81.34 C27.38 78.77
						 22.68 73.26 23.83 67.66 C25.07 61.66 33.03 55.57 39.73 57.68 C43.36 58.83 46.63 62.39 47.34 65.8 C48.57
						 71.67 42.26 77.07 37.21 71.77" class="st2"/>
		</g>
	</g>
</svg>
